<?xml version="1.0" encoding="utf-8"?>
<!-- Generator: Adobe Illustrator 18.1.1, SVG Export Plug-In . SVG Version: 6.00 Build 0)  -->
<!DOCTYPE svg PUBLIC "-//W3C//DTD SVG 1.1//EN" "http://www.w3.org/Graphics/SVG/1.1/DTD/svg11.dtd">
<svg version="1.1" id="Layer_1" xmlns="http://www.w3.org/2000/svg" xmlns:xlink="http://www.w3.org/1999/xlink" x="0px" y="0px"
	 viewBox="0 0 92 92" enable-background="new 0 0 92 92" xml:space="preserve">
<g>
	<g>
		<path fill="#FFFFFF" d="M51.3,20.6c0.9-2.9-0.7-6-3.6-7c-2.9-0.9-6,0.7-7,3.6l-11,35.1h17.5L40.7,74c-0.9,2.9,0.8,6,3.7,6.9
			c0.5,0.2,1.1,0.2,1.6,0.2c2.4,0,4.6-1.5,5.3-3.9l10.9-35.9H44.9L51.3,20.6z M46,0.9C21.1,0.9,0.9,21.1,0.9,46
			c0,24.9,20.2,45.1,45.1,45.1c24.9,0,45.1-20.2,45.1-45.1C91.1,21.1,70.9,0.9,46,0.9z M46,84.6C24.7,84.6,7.4,67.3,7.4,46
			S24.7,7.4,46,7.4S84.6,24.7,84.6,46S67.3,84.6,46,84.6z"/>
	</g>
</g>
<g>
</g>
<g>
</g>
<g>
</g>
<g>
</g>
<g>
</g>
<g>
</g>
</svg>
