<?xml version="1.0" encoding="utf-8"?>
<!-- Generator: Adobe Illustrator 18.1.1, SVG Export Plug-In . SVG Version: 6.00 Build 0)  -->
<svg version="1.1" id="stap_2" xmlns="http://www.w3.org/2000/svg" xmlns:xlink="http://www.w3.org/1999/xlink" x="0px" y="0px"
	 viewBox="0 0 208.3 46.7" enable-background="new 0 0 208.3 46.7" xml:space="preserve">
<path fill-rule="evenodd" clip-rule="evenodd" fill="#EB5D12" d="M12.1,7.2h184.3c2.4,0,4.3,1.9,4.3,4.3v22c0,2.4-1.9,4.3-4.3,4.3
	H12.1c-2.4,0-4.3-1.9-4.3-4.3v-22C7.8,9.1,9.7,7.2,12.1,7.2z"/>
<g>
	<path fill-rule="evenodd" clip-rule="evenodd" fill="#FFFFFF" d="M47.1,12c-0.8-0.6-1.9-0.6-2.7,0l-8.1,6.4h2.6V28
		c0,1.2,1,2.2,2.2,2.2h3v-4.1c0-1,0.8-1.8,1.8-1.8h0c1,0,1.8,0.8,1.8,1.8v4.1h2.7c1.2,0,2.2-1,2.2-2.2v-9.6h2.8L47.1,12z"/>
	<g>
		<g>
			<path fill="none" stroke="#FFFFFF" stroke-width="2" stroke-linecap="round" stroke-linejoin="round" d="M40.6,25.6
				c-0.5,0.1-1,0.2-1.5,0.3"/>
			
				<path fill="none" stroke="#FFFFFF" stroke-width="2" stroke-linecap="round" stroke-linejoin="round" stroke-dasharray="2.942,2.942" d="
				M36.4,27c-1.2,0.6-1.8,1.4-1.8,2.2c0,2.3,5.1,4.1,11.3,4.1s11.3-1.8,11.3-4.1c0-1.2-1.5-2.4-4-3.1"/>
			<path fill="none" stroke="#FFFFFF" stroke-width="2" stroke-linecap="round" stroke-linejoin="round" d="M51.8,25.7
				c-0.5-0.1-1-0.2-1.5-0.3"/>
		</g>
	</g>
</g>
<g>
	<path fill="#FFFFFF" d="M70.5,30v-7.3c0-0.2,0-0.5-0.1-0.7s-0.2-0.4-0.4-0.6s-0.3-0.3-0.6-0.4s-0.4-0.1-0.7-0.1H68
		c-0.2,0-0.5,0-0.7,0.1s-0.4,0.2-0.6,0.4s-0.3,0.3-0.4,0.6s-0.1,0.4-0.1,0.7V30h-1.2v-14h1.2v4.8c0.3-0.3,0.6-0.6,1-0.8
		s0.8-0.3,1.2-0.3h0.3c0.4,0,0.8,0.1,1.1,0.2s0.7,0.4,0.9,0.6s0.5,0.6,0.6,0.9s0.2,0.7,0.2,1.1V30H70.5z"/>
	<path fill="#FFFFFF" d="M80.4,30l-0.7-1c-0.3,0.4-0.6,0.7-1,0.9s-0.9,0.3-1.3,0.3h-0.3c-0.4,0-0.8-0.1-1.1-0.2s-0.7-0.4-0.9-0.6
		s-0.5-0.6-0.6-0.9s-0.2-0.7-0.2-1.1V20h1.2v7.3c0,0.2,0,0.5,0.1,0.7s0.2,0.4,0.4,0.6s0.3,0.3,0.6,0.4s0.4,0.1,0.7,0.1h0.8
		c0.2,0,0.5,0,0.7-0.1s0.4-0.2,0.6-0.4s0.3-0.3,0.4-0.6s0.1-0.4,0.1-0.7V20h1.2v10H80.4z"/>
	<path fill="#FFFFFF" d="M83.5,17.5v-1.6h1.4v1.6H83.5z M83.6,30V20h1.2v10H83.6z"/>
	<path fill="#FFFFFF" d="M93.9,30l-0.7-1c-0.3,0.4-0.6,0.7-1,0.9s-0.9,0.3-1.3,0.3h-0.3c-0.4,0-0.8-0.1-1.1-0.2s-0.7-0.4-0.9-0.6
		s-0.5-0.6-0.6-0.9s-0.2-0.7-0.2-1.1v-4.5c0-0.4,0.1-0.8,0.2-1.1s0.4-0.7,0.6-0.9s0.6-0.5,0.9-0.6s0.7-0.2,1.1-0.2h0.3
		c0.4,0,0.9,0.1,1.2,0.3s0.7,0.4,1,0.8v-4.8h1.2v14H93.9z M93.1,22.6c0-0.2,0-0.5-0.1-0.7s-0.2-0.4-0.4-0.6S92.3,21.1,92,21
		s-0.4-0.1-0.7-0.1h-0.8c-0.2,0-0.5,0-0.7,0.1s-0.4,0.2-0.6,0.4s-0.3,0.3-0.4,0.6s-0.1,0.4-0.1,0.7v4.6c0,0.2,0,0.5,0.1,0.7
		s0.2,0.4,0.4,0.6s0.3,0.3,0.6,0.4s0.4,0.1,0.7,0.1h0.8c0.2,0,0.5,0,0.7-0.1s0.4-0.2,0.6-0.4s0.3-0.3,0.4-0.6s0.1-0.4,0.1-0.7V22.6z
		"/>
	<path fill="#FFFFFF" d="M97,17.5v-1.6h1.4v1.6H97z M97.1,30V20h1.2v10H97.1z"/>
	<path fill="#FFFFFF" d="M107.7,32.3c-0.2,0.3-0.4,0.6-0.6,0.9s-0.6,0.4-0.9,0.6s-0.7,0.2-1.1,0.2h-0.5c-0.4,0-0.8-0.1-1.1-0.2
		s-0.7-0.3-0.9-0.6s-0.5-0.5-0.6-0.9c-0.2-0.3-0.2-0.7-0.2-1.1v0c0-0.4,0.1-0.7,0.2-1.1s0.3-0.6,0.6-0.8c-0.3-0.2-0.6-0.4-0.7-0.8
		s-0.3-0.7-0.3-1.1c0-0.4,0.1-0.7,0.2-1s0.4-0.5,0.6-0.7c-0.3-0.3-0.6-0.6-0.7-1s-0.3-0.8-0.3-1.3v-0.8c0-0.4,0.1-0.8,0.2-1.1
		s0.4-0.7,0.6-0.9s0.6-0.5,0.9-0.6s0.7-0.2,1.1-0.2h0.5c0.5,0,0.9,0.1,1.4,0.3s0.8,0.5,1,0.9l0.7-1h0.4v3.5c0,0.4-0.1,0.8-0.2,1.1
		s-0.4,0.7-0.6,0.9s-0.6,0.5-0.9,0.6s-0.7,0.2-1.1,0.2h-1.7c-0.1,0-0.3,0-0.4,0.1s-0.2,0.1-0.3,0.2s-0.2,0.2-0.2,0.3
		s-0.1,0.3-0.1,0.4s0,0.3,0.1,0.4s0.1,0.2,0.2,0.3s0.2,0.2,0.3,0.2s0.3,0.1,0.4,0.1h1.6c0.4,0,0.8,0.1,1.1,0.2s0.7,0.3,0.9,0.6
		s0.5,0.5,0.6,0.9s0.2,0.7,0.2,1.1v0C107.9,31.6,107.8,32,107.7,32.3z M106.8,22.6c0-0.2,0-0.5-0.1-0.7s-0.2-0.4-0.4-0.6
		s-0.3-0.3-0.6-0.4s-0.4-0.1-0.7-0.1h-1c-0.2,0-0.5,0-0.7,0.1s-0.4,0.2-0.6,0.4s-0.3,0.3-0.4,0.6s-0.1,0.4-0.1,0.7v0.9
		c0,0.2,0,0.5,0.1,0.7s0.2,0.4,0.4,0.6s0.3,0.3,0.6,0.4s0.4,0.1,0.7,0.1h1c0.2,0,0.5,0,0.7-0.1s0.4-0.2,0.6-0.4s0.3-0.3,0.4-0.6
		s0.1-0.4,0.1-0.7V22.6z M106.7,31.1c0-0.2,0-0.5-0.1-0.6s-0.2-0.4-0.4-0.5s-0.3-0.2-0.6-0.3s-0.4-0.1-0.7-0.1h-0.6
		c-0.2,0-0.5,0-0.7,0.1s-0.4,0.2-0.6,0.3s-0.3,0.3-0.4,0.5s-0.1,0.4-0.1,0.6v0.2c0,0.2,0,0.5,0.1,0.6c0.1,0.2,0.2,0.3,0.4,0.5
		s0.3,0.2,0.6,0.3s0.4,0.1,0.7,0.1h0.6c0.2,0,0.5,0,0.7-0.1s0.4-0.2,0.6-0.3s0.3-0.3,0.4-0.5c0.1-0.2,0.1-0.4,0.1-0.6V31.1z"/>
	<path fill="#FFFFFF" d="M116.6,28.3c-0.2,0.4-0.4,0.7-0.6,0.9s-0.6,0.5-0.9,0.6s-0.7,0.2-1.1,0.2h-0.8c-0.4,0-0.8-0.1-1.1-0.2
		s-0.7-0.4-0.9-0.6s-0.5-0.6-0.6-0.9s-0.2-0.7-0.2-1.1v-4.5c0-0.4,0.1-0.8,0.2-1.1s0.4-0.7,0.6-0.9s0.6-0.5,0.9-0.6s0.7-0.2,1.1-0.2
		h0.8c0.4,0,0.8,0.1,1.1,0.2s0.7,0.4,0.9,0.6s0.5,0.6,0.6,0.9s0.2,0.7,0.2,1.1V25h-5.5v2.2c0,0.2,0,0.5,0.1,0.7s0.2,0.4,0.4,0.6
		s0.3,0.3,0.6,0.4s0.4,0.1,0.7,0.1h0.8c0.2,0,0.5,0,0.7-0.1s0.4-0.2,0.6-0.4s0.3-0.3,0.4-0.6s0.1-0.4,0.1-0.7v-0.7l1.2,0.2v0.4
		C116.9,27.6,116.8,28,116.6,28.3z M115.7,22.6c0-0.2,0-0.5-0.1-0.7s-0.2-0.4-0.4-0.6s-0.3-0.3-0.6-0.4s-0.4-0.1-0.7-0.1h-0.8
		c-0.2,0-0.5,0-0.7,0.1s-0.4,0.2-0.6,0.4s-0.3,0.3-0.4,0.6s-0.1,0.4-0.1,0.7v1.5h4.3V22.6z"/>
	<path fill="#FFFFFF" d="M124.3,30v-14h1.2v14H124.3z"/>
	<path fill="#FFFFFF" d="M134.5,28.3c-0.2,0.4-0.4,0.7-0.6,0.9s-0.6,0.5-0.9,0.6s-0.7,0.2-1.1,0.2H131c-0.4,0-0.8-0.1-1.1-0.2
		s-0.7-0.4-0.9-0.6s-0.5-0.6-0.6-0.9s-0.2-0.7-0.2-1.1v-4.5c0-0.4,0.1-0.8,0.2-1.1s0.4-0.7,0.6-0.9s0.6-0.5,0.9-0.6s0.7-0.2,1.1-0.2
		h0.8c0.4,0,0.8,0.1,1.1,0.2s0.7,0.4,0.9,0.6s0.5,0.6,0.6,0.9s0.2,0.7,0.2,1.1v4.5C134.8,27.6,134.7,28,134.5,28.3z M133.6,22.6
		c0-0.2,0-0.5-0.1-0.7s-0.2-0.4-0.4-0.6s-0.3-0.3-0.6-0.4s-0.4-0.1-0.7-0.1H131c-0.2,0-0.5,0-0.7,0.1s-0.4,0.2-0.6,0.4
		s-0.3,0.3-0.4,0.6s-0.1,0.4-0.1,0.7v4.6c0,0.2,0,0.5,0.1,0.7s0.2,0.4,0.4,0.6s0.3,0.3,0.6,0.4s0.4,0.1,0.7,0.1h0.8
		c0.2,0,0.5,0,0.7-0.1s0.4-0.2,0.6-0.4s0.3-0.3,0.4-0.6s0.1-0.4,0.1-0.7V22.6z"/>
	<path fill="#FFFFFF" d="M143.6,28.3c-0.2,0.4-0.4,0.7-0.6,0.9s-0.6,0.5-0.9,0.6s-0.7,0.2-1.1,0.2h-0.8c-0.4,0-0.8-0.1-1.1-0.2
		s-0.7-0.4-0.9-0.6s-0.5-0.6-0.6-0.9s-0.2-0.7-0.2-1.1v-4.5c0-0.4,0.1-0.8,0.2-1.1s0.4-0.7,0.6-0.9s0.6-0.5,0.9-0.6s0.7-0.2,1.1-0.2
		h0.8c0.4,0,0.8,0.1,1.1,0.2s0.7,0.4,0.9,0.6s0.5,0.6,0.6,0.9s0.2,0.7,0.2,1.1v0.4l-1.2,0.2v-0.7c0-0.2,0-0.5-0.1-0.7
		s-0.2-0.4-0.4-0.6s-0.3-0.3-0.6-0.4s-0.4-0.1-0.7-0.1h-0.8c-0.2,0-0.5,0-0.7,0.1s-0.4,0.2-0.6,0.4s-0.3,0.3-0.4,0.6
		s-0.1,0.4-0.1,0.7v4.6c0,0.2,0,0.5,0.1,0.7s0.2,0.4,0.4,0.6s0.3,0.3,0.6,0.4s0.4,0.1,0.7,0.1h0.8c0.2,0,0.5,0,0.7-0.1
		s0.4-0.2,0.6-0.4s0.3-0.3,0.4-0.6s0.1-0.4,0.1-0.7v-0.7l1.2,0.2v0.4C143.8,27.6,143.8,28,143.6,28.3z"/>
	<path fill="#FFFFFF" d="M152.5,30l-0.7-1c-0.3,0.4-0.6,0.6-1,0.9s-0.9,0.3-1.3,0.3h-0.3c-0.4,0-0.8-0.1-1.1-0.2s-0.7-0.4-0.9-0.6
		s-0.5-0.6-0.6-0.9s-0.2-0.7-0.2-1.1v-0.1c0-0.4,0.1-0.8,0.2-1.1s0.4-0.7,0.6-0.9s0.6-0.5,0.9-0.6s0.7-0.2,1.1-0.2h2.5v-1.5
		c0-0.2,0-0.5-0.1-0.7s-0.2-0.4-0.4-0.6s-0.3-0.3-0.6-0.4s-0.4-0.1-0.7-0.1h-0.7c-0.2,0-0.5,0-0.7,0.1s-0.4,0.2-0.6,0.4
		s-0.3,0.3-0.4,0.6s-0.1,0.4-0.1,0.7V23l-1.2-0.2v-0.1c0-0.4,0.1-0.8,0.2-1.1s0.4-0.7,0.6-0.9s0.6-0.5,0.9-0.6s0.7-0.2,1.1-0.2h0.7
		c0.4,0,0.8,0.1,1.1,0.2s0.7,0.4,0.9,0.6s0.5,0.6,0.6,0.9s0.2,0.7,0.2,1.1V30H152.5z M151.7,25.1h-2.5c-0.2,0-0.5,0-0.7,0.1
		s-0.4,0.2-0.6,0.4s-0.3,0.3-0.4,0.6s-0.1,0.4-0.1,0.7v0.4c0,0.2,0,0.5,0.1,0.7s0.2,0.4,0.4,0.6s0.3,0.3,0.6,0.4s0.4,0.1,0.7,0.1
		h0.8c0.2,0,0.5,0,0.7-0.1s0.4-0.2,0.6-0.4s0.3-0.3,0.4-0.6s0.1-0.4,0.1-0.7V25.1z"/>
	<path fill="#FFFFFF" d="M159,30c-0.4,0-0.7-0.1-1-0.2s-0.6-0.3-0.8-0.6s-0.4-0.5-0.6-0.8s-0.2-0.7-0.2-1v-6.2h-1.8V20h1.8v-2.4
		l1.2-0.2V20h2.5v1.1h-2.5v6.3c0,0.2,0,0.4,0.1,0.6s0.2,0.3,0.3,0.5s0.3,0.2,0.5,0.3s0.4,0.1,0.6,0.1h1.1V30H159z"/>
	<path fill="#FFFFFF" d="M162.6,17.5v-1.6h1.4v1.6H162.6z M162.7,30V20h1.2v10H162.7z"/>
	<path fill="#FFFFFF" d="M173.1,28.3c-0.2,0.4-0.4,0.7-0.6,0.9s-0.6,0.5-0.9,0.6s-0.7,0.2-1.1,0.2h-0.8c-0.4,0-0.8-0.1-1.1-0.2
		s-0.7-0.4-0.9-0.6s-0.5-0.6-0.6-0.9s-0.2-0.7-0.2-1.1v-4.5c0-0.4,0.1-0.8,0.2-1.1s0.4-0.7,0.6-0.9s0.6-0.5,0.9-0.6s0.7-0.2,1.1-0.2
		h0.8c0.4,0,0.8,0.1,1.1,0.2s0.7,0.4,0.9,0.6s0.5,0.6,0.6,0.9s0.2,0.7,0.2,1.1V25h-5.5v2.2c0,0.2,0,0.5,0.1,0.7s0.2,0.4,0.4,0.6
		s0.3,0.3,0.6,0.4s0.4,0.1,0.7,0.1h0.8c0.2,0,0.5,0,0.7-0.1s0.4-0.2,0.6-0.4s0.3-0.3,0.4-0.6s0.1-0.4,0.1-0.7v-0.7l1.2,0.2v0.4
		C173.4,27.6,173.3,28,173.1,28.3z M172.2,22.6c0-0.2,0-0.5-0.1-0.7s-0.2-0.4-0.4-0.6s-0.3-0.3-0.6-0.4s-0.4-0.1-0.7-0.1h-0.8
		c-0.2,0-0.5,0-0.7,0.1s-0.4,0.2-0.6,0.4s-0.3,0.3-0.4,0.6s-0.1,0.4-0.1,0.7v1.5h4.3V22.6z"/>
</g>
</svg>
