<?xml version="1.0" encoding="utf-8"?>
<!-- Generator: Adobe Illustrator 18.1.1, SVG Export Plug-In . SVG Version: 6.00 Build 0)  -->
<!DOCTYPE svg PUBLIC "-//W3C//DTD SVG 1.1//EN" "http://www.w3.org/Graphics/SVG/1.1/DTD/svg11.dtd">
<svg version="1.1" id="Layer_1" xmlns="http://www.w3.org/2000/svg" xmlns:xlink="http://www.w3.org/1999/xlink" x="0px" y="0px"
	 viewBox="0 0 595.3 841.9" enable-background="new 0 0 595.3 841.9" xml:space="preserve">
<g id="humeur">
	<g id="lap2">
		<g>
			<g>
				<g>
					<g>
						
							<path fill="#FFFFFF" stroke="#121625" stroke-width="13" stroke-linecap="round" stroke-linejoin="round" stroke-miterlimit="10" d="
							M469.6,400.5c-17.6-17.6-30.8,0-30.8,0v24.4c0,17.9-3.7,35-10.2,50.6c4.6-4.6,18.3-18.3,33.9-33.9
							C481.8,422,469.6,400.5,469.6,400.5z"/>
						
							<path fill="#FFFFFF" stroke="#121625" stroke-width="13" stroke-linecap="round" stroke-linejoin="round" stroke-miterlimit="10" d="
							M168.5,424.8v-25.1c-2.9-3.2-14.8-14.6-30.2,0.7c0,0-12.4,21.6,7,41c14.6,14.6,27.5,27.5,33,33
							C172.1,459.1,168.5,442.3,168.5,424.8z"/>
					</g>
					
						<path fill="#FFFFFF" stroke="#121625" stroke-width="13" stroke-linecap="round" stroke-linejoin="round" stroke-miterlimit="10" d="
						M412.2,249.6L412.2,249.6c-11-16.1-26.7-27-26.7-27l0,0c-21.9-16.6-49.2-26.4-78.7-26.4h-8.2c-72,0-131,58.9-131,131V422
						c0,72,58.9,131,131,131h8.2c72,0,131-58.9,131-131v-94.9C437.8,298.2,428.2,271.4,412.2,249.6z"/>
					<g>
						
							<line fill="none" stroke="#121625" stroke-width="13" stroke-linecap="round" stroke-linejoin="round" stroke-miterlimit="10" x1="224.5" y1="358.1" x2="264.8" y2="364.2"/>
						
							<line fill="none" stroke="#121625" stroke-width="13" stroke-linecap="round" stroke-linejoin="round" stroke-miterlimit="10" x1="375.3" y1="359" x2="334.7" y2="364.2"/>
					</g>
					<path fill="#FFFFFF" stroke="#121625" stroke-width="13" stroke-linecap="round" stroke-miterlimit="10" d="M298.9,456.9"/>
					
						<path fill="#FFFFFF" stroke="#121625" stroke-width="13" stroke-linecap="round" stroke-linejoin="round" stroke-miterlimit="10" d="
						M355.7,513.8c0-20.4-11.4-39.5-51.8-39.5s-51.8,19.6-51.8,39.5c0,0,16.2-8.1,50.5-8.1C337,505.9,355.7,513.8,355.7,513.8z"/>
					<circle opacity="0.24" fill="#2F3A5B" enable-background="new    " cx="247.6" cy="412.4" r="48.6"/>
					<circle fill="#121625" cx="357.9" cy="408.6" r="18.9"/>
					<circle fill="#121625" cx="246.4" cy="408.6" r="18.9"/>
				</g>
				
					<path fill="#FFFFFF" stroke="#121625" stroke-width="13" stroke-linecap="round" stroke-linejoin="round" stroke-miterlimit="10" d="
					M434.7,303.2c-153.4,67-190-15-190-15s-12,50.4-73.3,22.9"/>
			</g>
		</g>
		<g>
			<path fill="#2F3A5B" d="M228.4,410.6c0,0,0,0.2,0.1,0.6s0.2,1,0.4,1.7c0.2,0.7,0.5,1.5,0.8,2.5c0.4,1,1,1.9,1.5,3
				c0.4,0.5,0.7,1,1.1,1.5c0.5,0.5,0.8,1,1.3,1.4c1,1,2.1,1.8,3.5,2.5s2.7,1.2,4.3,1.5c0.8,0.1,1.5,0.4,2.4,0.4
				c0.8,0,1.7,0.1,2.4,0.1h0.1c0.1,0-0.1,0-0.1,0l0,0l0,0h0.1h0.4h0.7l1.3-0.1c1,0,1.5-0.2,2.4-0.4c0.7-0.1,1.4-0.4,2.3-0.6
				c0.7-0.2,1.4-0.6,2-0.8c1.3-0.7,2.4-1.5,3.5-2.5c0.5-0.5,0.8-1,1.3-1.4c0.4-0.5,0.7-1.1,1.1-1.5c0.6-1.1,1.1-2,1.4-3
				c0.4-1,0.6-1.8,0.8-2.5c0.1-0.7,0.2-1.3,0.4-1.7c0-0.4,0.1-0.6,0.1-0.6h1.8c0,0,0.1,0.1,0.2,0.2s0.4,0.4,0.6,0.6
				c0.5,0.5,1.2,1.3,1.9,2.3c0.7,1.1,1.4,2.4,1.9,4c0.4,0.8,0.4,1.7,0.6,2.7c0.1,1,0.1,2,0.1,3.1c-0.1,1.1-0.4,2.3-0.6,3.6
				c-0.1,0.6-0.4,1.2-0.6,1.9c-0.2,0.6-0.5,1.3-0.8,1.9c-0.4,0.6-0.7,1.3-1.1,1.9l-0.6,1l-0.7,0.8c-1,1.2-2.1,2.4-3.3,3.3
				c-0.6,0.5-1.3,1-1.9,1.4c-0.7,0.5-1.3,0.8-2,1.2c-0.7,0.4-1.4,0.7-2.1,1.1c-0.4,0.1-0.7,0.4-1.2,0.5l-1.3,0.4
				c-0.8,0.2-1.8,0.5-2.6,0.6l-1.2,0.2l-0.6,0.1c-0.5,0-0.8,0.1-1.3,0.1h-0.6h-0.4H248l0,0h-1.1h-0.2c-1.4-0.1-2.9-0.1-4.2-0.4
				c-0.7,0-1.4-0.2-2.1-0.5c-0.7-0.2-1.4-0.4-2.1-0.6c-1.4-0.4-3-1.2-4.3-1.8c-1.3-0.7-2.7-1.7-3.9-2.6c-0.4-0.2-0.6-0.5-1-0.7
				l-0.8-0.8c-0.6-0.6-1.1-1.1-1.5-1.7c-0.5-0.6-1-1.2-1.3-1.8c-0.4-0.6-0.7-1.2-1.1-1.8c-0.6-1.2-1.1-2.5-1.4-3.7
				c-0.2-1.2-0.5-2.4-0.6-3.5c0-1.1-0.1-2.1,0-3.1c0.1-1,0.2-1.9,0.5-2.7c0.5-1.7,1.1-3,1.8-4c0.6-1.1,1.3-1.9,1.8-2.4
				c0.2-0.2,0.5-0.5,0.6-0.6s0.2-0.1,0.2-0.1L228.4,410.6z"/>
		</g>
		<path fill="#121625" d="M324.2,497.5h-10.5c-3.3,0-6-2.6-6-6v-11.3c0-3.3,2.6-6,6-6h10.5c3.3,0,6,2.6,6,6v11.3
			C330.3,494.9,327.5,497.5,324.2,497.5z"/>
		
			<path fill="#FFFFFF" stroke="#000000" stroke-width="11" stroke-linecap="round" stroke-linejoin="round" stroke-miterlimit="10" d="
			M309.8,208.8c0,0-0.5-8.2-2.4-12.1c6.4-15.4,1-28.5,1-28.5c1.7,3.6-2.5,13.1-9.5,13.9c-5.5-6.4-13.6-12.6-25.8-17.1
			c0,0,21.9,41.7,7.6,53.7"/>
	</g>
	<g id="lap3">
		<g>
			<g>
				<g>
					<g>
						
							<path fill="#FFFFFF" stroke="#121625" stroke-width="13" stroke-linecap="round" stroke-linejoin="round" stroke-miterlimit="10" d="
							M469.6,400.5c-17.6-17.6-30.8,0-30.8,0v24.4c0,17.9-3.7,35-10.2,50.6c4.6-4.6,18.3-18.3,33.9-33.9
							C481.8,422,469.6,400.5,469.6,400.5z"/>
						
							<path fill="#FFFFFF" stroke="#121625" stroke-width="13" stroke-linecap="round" stroke-linejoin="round" stroke-miterlimit="10" d="
							M168.5,424.8v-25.1c-2.9-3.2-14.8-14.6-30.2,0.7c0,0-12.4,21.6,7,41c14.6,14.6,27.5,27.5,33,33
							C172.1,459.1,168.5,442.3,168.5,424.8z"/>
					</g>
					
						<path fill="#FFFFFF" stroke="#121625" stroke-width="13" stroke-linecap="round" stroke-linejoin="round" stroke-miterlimit="10" d="
						M412.2,249.6L412.2,249.6c-11-16.1-26.7-27-26.7-27l0,0c-21.9-16.6-49.2-26.4-78.7-26.4h-8.2c-72,0-131,58.9-131,131V422
						c0,72,58.9,131,131,131h8.2c72,0,131-58.9,131-131v-94.9C437.8,298.2,428.2,271.4,412.2,249.6z"/>
					<g>
						
							<line fill="none" stroke="#121625" stroke-width="13" stroke-linecap="round" stroke-linejoin="round" stroke-miterlimit="10" x1="224.5" y1="358.1" x2="264.8" y2="364.2"/>
						
							<line fill="none" stroke="#121625" stroke-width="13" stroke-linecap="round" stroke-linejoin="round" stroke-miterlimit="10" x1="375.3" y1="359" x2="334.7" y2="364.2"/>
					</g>
					<path fill="#FFFFFF" stroke="#121625" stroke-width="13" stroke-linecap="round" stroke-miterlimit="10" d="M298.9,456.9"/>
					<g>
						<polygon fill="#E62A45" points="311.9,474.3 314.1,445.8 322.3,445.8 324.5,474.3 						"/>
						<polygon fill="#E62A45" points="308.3,474.3 306.2,445.8 298,445.8 295.7,474.3 						"/>
					</g>
					
						<path fill="#FFFFFF" stroke="#121625" stroke-width="13" stroke-linecap="round" stroke-linejoin="round" stroke-miterlimit="10" d="
						M355.7,486c0-6-11.4-11.7-51.8-11.7s-51.8,5.7-51.8,11.7"/>
					<circle opacity="0.24" fill="#2F3A5B" enable-background="new    " cx="247.6" cy="412.4" r="48.6"/>
					<circle fill="#121625" cx="357.9" cy="408.6" r="18.9"/>
					<circle fill="#121625" cx="246.4" cy="408.6" r="18.9"/>
				</g>
				
					<path fill="#FFFFFF" stroke="#121625" stroke-width="13" stroke-linecap="round" stroke-linejoin="round" stroke-miterlimit="10" d="
					M434.7,303.2c-153.4,67-190-15-190-15s-12,50.4-73.3,22.9"/>
			</g>
		</g>
		<g>
			<path fill="#2F3A5B" d="M228.4,410.6c0,0,0,0.2,0.1,0.6s0.2,1,0.4,1.7c0.2,0.7,0.5,1.5,0.8,2.5c0.4,1,1,1.9,1.5,3
				c0.4,0.5,0.7,1,1.1,1.5c0.5,0.5,0.8,1,1.3,1.4c1,1,2.1,1.8,3.5,2.5s2.7,1.2,4.3,1.5c0.8,0.1,1.5,0.4,2.4,0.4
				c0.8,0,1.7,0.1,2.4,0.1h0.1c0.1,0-0.1,0-0.1,0l0,0l0,0h0.1h0.4h0.7l1.3-0.1c1,0,1.5-0.2,2.4-0.4c0.7-0.1,1.4-0.4,2.3-0.6
				c0.7-0.2,1.4-0.6,2-0.8c1.3-0.7,2.4-1.5,3.5-2.5c0.5-0.5,0.8-1,1.3-1.4c0.4-0.5,0.7-1.1,1.1-1.5c0.6-1.1,1.1-2,1.4-3
				c0.4-1,0.6-1.8,0.8-2.5c0.1-0.7,0.2-1.3,0.4-1.7c0-0.4,0.1-0.6,0.1-0.6h1.8c0,0,0.1,0.1,0.2,0.2s0.4,0.4,0.6,0.6
				c0.5,0.5,1.2,1.3,1.9,2.3c0.7,1.1,1.4,2.4,1.9,4c0.4,0.8,0.4,1.7,0.6,2.7c0.1,1,0.1,2,0.1,3.1c-0.1,1.1-0.4,2.3-0.6,3.6
				c-0.1,0.6-0.4,1.2-0.6,1.9c-0.2,0.6-0.5,1.3-0.8,1.9c-0.4,0.6-0.7,1.3-1.1,1.9l-0.6,1l-0.7,0.8c-1,1.2-2.1,2.4-3.3,3.3
				c-0.6,0.5-1.3,1-1.9,1.4c-0.7,0.5-1.3,0.8-2,1.2c-0.7,0.4-1.4,0.7-2.1,1.1c-0.4,0.1-0.7,0.4-1.2,0.5l-1.3,0.4
				c-0.8,0.2-1.8,0.5-2.6,0.6l-1.2,0.2l-0.6,0.1c-0.5,0-0.8,0.1-1.3,0.1h-0.6h-0.4H248l0,0h-1.1h-0.2c-1.4-0.1-2.9-0.1-4.2-0.4
				c-0.7,0-1.4-0.2-2.1-0.5c-0.7-0.2-1.4-0.4-2.1-0.6c-1.4-0.4-3-1.2-4.3-1.8c-1.3-0.7-2.7-1.7-3.9-2.6c-0.4-0.2-0.6-0.5-1-0.7
				l-0.8-0.8c-0.6-0.6-1.1-1.1-1.5-1.7c-0.5-0.6-1-1.2-1.3-1.8c-0.4-0.6-0.7-1.2-1.1-1.8c-0.6-1.2-1.1-2.5-1.4-3.7
				c-0.2-1.2-0.5-2.4-0.6-3.5c0-1.1-0.1-2.1,0-3.1c0.1-1,0.2-1.9,0.5-2.7c0.5-1.7,1.1-3,1.8-4c0.6-1.1,1.3-1.9,1.8-2.4
				c0.2-0.2,0.5-0.5,0.6-0.6s0.2-0.1,0.2-0.1L228.4,410.6z"/>
		</g>
		
			<path fill="#FFFFFF" stroke="#000000" stroke-width="11" stroke-linecap="round" stroke-linejoin="round" stroke-miterlimit="10" d="
			M309.8,208.8c0,0-0.5-8.2-2.4-12.1c6.4-15.4,1-28.5,1-28.5c1.7,3.6-2.5,13.1-9.5,13.9c-5.5-6.4-13.6-12.6-25.8-17.1
			c0,0,21.9,41.7,7.6,53.7"/>
		<path fill="#62C5E8" d="M362.9,431c0,0,1,1.9,2.4,4.8c0.7,1.4,1.5,3.1,2.5,4.9c1,1.8,1.9,3.7,2.9,5.6c1.9,3.8,3.9,7.6,5.5,10.5
			c1.5,2.9,2.6,4.8,2.6,4.8c2.4,4,1.1,9.2-2.9,11.6c-4,2.4-9.2,1.1-11.6-2.9c-1-1.5-1.3-3.2-1.2-4.9c0,0,0.1-2.1,0.2-5.5
			c0.1-3.2,0-7.5,0-11.9c0-2.1,0-4.3-0.1-6.3c0-2-0.1-3.9-0.1-5.5C363,433.1,362.9,431,362.9,431z"/>
	</g>
	<g id="lap4">
		<g>
			
				<polygon fill="#FFFFFF" stroke="#121625" stroke-width="10" stroke-linecap="round" stroke-linejoin="round" stroke-miterlimit="10" points="
				125.1,602.8 47,592.2 80.2,538.5 62.7,475.7 140.8,486.3 			"/>
			
				<polygon fill="#FFFFFF" stroke="#121625" stroke-width="10" stroke-linecap="round" stroke-linejoin="round" stroke-miterlimit="10" points="
				475,605.3 553.2,594.8 519.9,541 537.4,478.3 459.3,488.8 			"/>
			
				<path fill="#FFFFFF" stroke="#121625" stroke-width="10" stroke-linecap="round" stroke-linejoin="round" stroke-miterlimit="10" d="
				M316.3,606c-91.8,0-168.7-23.6-198.9-34.3c-4.3-1.5-6.7-2-6.8-2c0,0,0.6,0.1,1.7,0.2l12.9-102c3.3,0.5,12.7,1.9,26.7,6.9
				c17.6,6.3,65.1,21.4,124.9,26.7c67.5,5.8,127.9-2.9,179.4-25.8c10-4.5,22.1-6.7,28.5-7.5l14.6,101.8h0.1c-1,0.1-2.4,0.4-3.3,0.6
				C435.5,597.1,373,606,316.3,606z"/>
			<g>
				<path fill="none" d="M118.8,531.7c0,0,202.3,86.9,373.2,0"/>
				<path fill="#010202" d="M157.7,524.2l16.1-7.4l3.7,1.2l-9.8,30.6l-8.1-2.6l5-15.7l-10.4,4.8l-5.7-9.9l-5,15.7l-8.1-2.6l9.8-30.6
					l3.7,1.2L157.7,524.2z"/>
				<path fill="#010202" d="M197.8,523c8.6,2.1,13.9,10.8,11.8,19.4c-2.1,8.6-10.8,13.9-19.4,11.8c-8.6-2.1-13.9-10.7-11.8-19.4
					C180.6,526.3,189.3,521,197.8,523z M195.9,531.2c-4-1-8.2,1.5-9.2,5.7c-1,4,1.5,8.2,5.6,9.3c4.2,1,8.3-1.5,9.3-5.6
					C202.6,536.3,200,532.2,195.9,531.2z"/>
				<path fill="#010202" d="M233.2,530.4c8.7,1.5,14.5,9.9,13.1,18.7c-1.5,8.7-9.9,14.5-18.6,13s-14.5-9.8-13-18.6
					C216.2,534.8,224.5,528.8,233.2,530.4z M231.8,538.7c-4.2-0.7-8.1,2-8.8,6.2c-0.7,4.2,2,8.1,6.2,8.9c4.2,0.7,8.1-2.1,8.9-6.2
					C238.7,543.4,235.9,539.4,231.8,538.7z"/>
				<path fill="#010202" d="M269.3,567.9l-4-9l-5.2-0.6l-1,8.5l-8.3-1l3.6-31.9l13.5,1.4c6.4,0.7,11.2,6.5,10.5,13.1
					c-0.4,3.5-2.3,6.3-4.8,8.2l5.5,12.4L269.3,567.9z M260.8,551l5.2,0.6c2.5,0.2,4.8-1.5,5.1-4c0.2-2.5-1.5-4.9-4-5.1l-5.2-0.6
					L260.8,551z"/>
				<path fill="#010202" d="M286,537.2l11.9,0.5c8.8,0.4,15.7,7.9,15.4,16.8c-0.4,8.8-7.9,15.7-16.8,15.4l-11.9-0.5L286,537.2z
					 M293.3,561.2l3.6,0.1c4.2,0.2,7.7-3.1,8-7.3c0.2-4.2-3.1-7.7-7.3-7.9l-3.6-0.1L293.3,561.2z"/>
				<path fill="#010202" d="M343.6,569.8L328,555l0.5,15.2l-8.5,0.2l-1-32.2l3.5-0.1l15.7,14.6l-0.5-15.1l8.5-0.2l1,32.2
					L343.6,569.8z"/>
				<path fill="#010202" d="M353.2,569.4l11.2-33.7l3.8-0.5l18.7,30.2l-8.3,1l-2.4-3.9l-13.1,1.5l-1.4,4.4L353.2,569.4z
					 M365.5,556.6l6.5-0.7l-4-6.7L365.5,556.6z"/>
				<path fill="#010202" d="M391.2,564.9l8-34.5l3.7-0.8l21.6,28.2l-8.2,1.8l-2.9-3.7l-12.9,2.7l-1,4.5L391.2,564.9z M402.3,551
					l6.4-1.4l-4.6-6.2L402.3,551z"/>
				<path fill="#010202" d="M448.5,550.1l-7.4-6.5l-5,1.7l2.6,8.1l-8,2.6l-9.9-30.6l12.9-4.2c6.2-2,12.9,1.4,14.9,7.6
					c1.1,3.2,0.6,6.7-1,9.4l10.1,9L448.5,550.1z M434,538.2l5-1.7c2.5-0.8,3.8-3.3,3-5.8c-0.8-2.5-3.3-3.8-5.8-3l-5,1.7L434,538.2z"
					/>
				<path fill="#010202" d="M448.8,508.9l7.5-3.1l10.7,26.2l-7.5,3.1L448.8,508.9z M464.1,535.5c2.1-0.8,4.4,0.2,5.4,2.3
					c0.8,2.1-0.1,4.4-2.3,5.2c-2.1,0.8-4.4-0.1-5.2-2.3C461.1,538.6,461.9,536.3,464.1,535.5z"/>
			</g>
			
				<line fill="none" stroke="#121625" stroke-width="10" stroke-linecap="round" stroke-linejoin="round" stroke-miterlimit="10" x1="112.3" y1="569.9" x2="125.1" y2="602.8"/>
			
				<line fill="none" stroke="#121625" stroke-width="10" stroke-linecap="round" stroke-linejoin="round" stroke-miterlimit="10" x1="499.5" y1="569.8" x2="475" y2="605.3"/>
			<path fill="none" stroke="#010202" stroke-width="8" stroke-linecap="round" stroke-miterlimit="10" d="M131.4,556.3
				c0,0,175.2,74.3,343.6,0"/>
			<path fill="none" stroke="#010202" stroke-width="8" stroke-linecap="round" stroke-miterlimit="10" d="M459.3,491.7
				c-137.2,53.1-275.2,12.5-315.9-1.9"/>
		</g>
		<g>
			
				<path fill="#FFFFFF" stroke="#121625" stroke-width="13" stroke-linecap="round" stroke-linejoin="round" stroke-miterlimit="10" d="
				M323.9,503.4h-42.5c-62.6,0-113.8-51.2-113.8-113.8v-30.6c0-62.6,51.2-113.8,113.8-113.8h42.5c62.6,0,113.8,51.2,113.8,113.8
				v30.6C437.8,452.1,386.6,503.4,323.9,503.4z"/>
			<path fill="#121625" d="M283.7,407.1c-0.1-2.9-0.5-5.6-1.2-8.2c-7.4-23.5-37.6-27.5-56.7-16.4c-7,4-12.1,9-15.1,16.1
				c-2,8.1-2,16.1,1,24.2c1,3,3,5,5,7c2.3,2.1,4.8,3.9,7.3,5.5c18,10.5,41.9,5.2,55.1-11.4c2-2,3-5,3.3-7.7
				C283.3,413.2,283.8,410.2,283.7,407.1z"/>
			<path fill="#121625" d="M320.6,407.1c0.1-2.9,0.5-5.6,1.2-8.2c7.4-23.5,37.6-27.5,56.7-16.4c7,4,12.1,9,15.1,16.1
				c2,8.1,2,16.1-1,24.2c-1,3-3,5-5,7c-2.3,2.1-4.8,3.9-7.3,5.5c-18,10.5-41.9,5.2-55.1-11.4c-2-2-3-5-3.3-7.7
				C321.1,413.2,320.6,410.2,320.6,407.1z"/>
			<g>
				
					<path fill="#FFFFFF" stroke="#121625" stroke-width="11" stroke-linecap="round" stroke-linejoin="round" stroke-miterlimit="10" d="
					M256.8,513.7h-2.9c-5.8,0-10.6-4.8-10.6-10.6v-13.3c0-5.8,4.8-10.6,10.6-10.6h2.9c5.8,0,10.6,4.8,10.6,10.6v13.3
					C267.4,508.9,262.6,513.7,256.8,513.7z"/>
				
					<path fill="#FFFFFF" stroke="#121625" stroke-width="11" stroke-linecap="round" stroke-linejoin="round" stroke-miterlimit="10" d="
					M288,513.7h-2.9c-5.8,0-10.6-4.8-10.6-10.6v-13.3c0-5.8,4.8-10.6,10.6-10.6h2.9c5.8,0,10.6,4.8,10.6,10.6v13.3
					C298.6,508.9,293.8,513.7,288,513.7z"/>
				
					<path fill="#FFFFFF" stroke="#121625" stroke-width="11" stroke-linecap="round" stroke-linejoin="round" stroke-miterlimit="10" d="
					M319.3,513.7h-2.9c-5.8,0-10.6-4.8-10.6-10.6v-13.3c0-5.8,4.8-10.6,10.6-10.6h2.9c5.8,0,10.6,4.8,10.6,10.6v13.3
					C329.9,508.9,325.1,513.7,319.3,513.7z"/>
				
					<path fill="#FFFFFF" stroke="#121625" stroke-width="11" stroke-linecap="round" stroke-linejoin="round" stroke-miterlimit="10" d="
					M349.4,513.7h-2.9c-5.8,0-10.6-4.8-10.6-10.6v-13.3c0-5.8,4.8-10.6,10.6-10.6h2.9c5.8,0,10.6,4.8,10.6,10.6v13.3
					C360,508.9,355.3,513.7,349.4,513.7z"/>
			</g>
			
				<polyline fill="#FFFFFF" stroke="#121625" stroke-width="7" stroke-linecap="round" stroke-linejoin="round" stroke-miterlimit="10" points="
				292.6,245.1 255.4,265.9 252.3,283.4 229.5,289.5 			"/>
			
				<polyline fill="#FFFFFF" stroke="#121625" stroke-width="7" stroke-linecap="round" stroke-linejoin="round" stroke-miterlimit="10" points="
				258.2,264.4 274.5,279.4 266.4,294.1 			"/>
			<g>
				
					<line fill="none" stroke="#121625" stroke-width="11" stroke-linecap="round" stroke-linejoin="round" stroke-miterlimit="10" x1="312" y1="456.3" x2="320.6" y2="442.3"/>
				
					<line fill="none" stroke="#121625" stroke-width="11" stroke-linecap="round" stroke-linejoin="round" stroke-miterlimit="10" x1="296.9" y1="456.3" x2="288.3" y2="442.3"/>
			</g>
		</g>
	</g>
	<g id="lap1">
		<g>
			<g>
				<g>
					<g>
						
							<path fill="#FFFFFF" stroke="#121625" stroke-width="13" stroke-linecap="round" stroke-linejoin="round" stroke-miterlimit="10" d="
							M469.6,400.5c-17.6-17.6-30.8,0-30.8,0v24.4c0,17.9-3.7,35-10.2,50.6c4.6-4.6,18.3-18.3,33.9-33.9
							C481.8,422,469.6,400.5,469.6,400.5z"/>
						
							<path fill="#FFFFFF" stroke="#121625" stroke-width="13" stroke-linecap="round" stroke-linejoin="round" stroke-miterlimit="10" d="
							M168.5,424.8v-25.1c-2.9-3.2-14.8-14.6-30.2,0.7c0,0-12.4,21.6,7,41c14.6,14.6,27.5,27.5,33,33
							C172.1,459.1,168.5,442.3,168.5,424.8z"/>
					</g>
					
						<path fill="#FFFFFF" stroke="#121625" stroke-width="13" stroke-linecap="round" stroke-linejoin="round" stroke-miterlimit="10" d="
						M412.2,249.6L412.2,249.6c-11-16.1-26.7-27-26.7-27l0,0c-21.9-16.6-49.2-26.4-78.7-26.4h-8.2c-72,0-131,58.9-131,131V422
						c0,72,58.9,131,131,131h8.2c72,0,131-58.9,131-131v-94.9C437.8,298.2,428.2,271.4,412.2,249.6z"/>
					<g>
						
							<line fill="none" stroke="#121625" stroke-width="13" stroke-linecap="round" stroke-linejoin="round" stroke-miterlimit="10" x1="224.5" y1="364.2" x2="264.8" y2="358.1"/>
						
							<line fill="none" stroke="#121625" stroke-width="13" stroke-linecap="round" stroke-linejoin="round" stroke-miterlimit="10" x1="375.3" y1="363.1" x2="334.7" y2="358.1"/>
					</g>
					<path fill="#FFFFFF" stroke="#121625" stroke-width="13" stroke-linecap="round" stroke-miterlimit="10" d="M298.9,456.9"/>
					
						<path fill="#FFFFFF" stroke="#121625" stroke-width="13" stroke-linecap="round" stroke-linejoin="round" stroke-miterlimit="10" d="
						M224.8,474.3c0,23.9,17.4,46.4,79.2,46.4s79.2-23.1,79.2-46.4H224.8z"/>
					<circle opacity="0.24" fill="#2F3A5B" enable-background="new    " cx="247.6" cy="412.4" r="36.6"/>
					<circle fill="#121625" cx="357.9" cy="408.6" r="18.9"/>
					<circle fill="#121625" cx="246.4" cy="408.6" r="18.9"/>
				</g>
				
					<path fill="#FFFFFF" stroke="#121625" stroke-width="13" stroke-linecap="round" stroke-linejoin="round" stroke-miterlimit="10" d="
					M434.7,303.2c-153.4,67-190-15-190-15s-12,50.4-73.3,22.9"/>
			</g>
		</g>
		<g>
			
				<line fill="none" stroke="#121625" stroke-width="8" stroke-linecap="round" stroke-linejoin="round" stroke-miterlimit="10" x1="303.9" y1="569.8" x2="303.9" y2="638.3"/>
			
				<line fill="none" stroke="#121625" stroke-width="8" stroke-linecap="round" stroke-linejoin="round" stroke-miterlimit="10" x1="303.9" y1="115.5" x2="303.9" y2="177.9"/>
			
				<line fill="none" stroke="#121625" stroke-width="8" stroke-linecap="round" stroke-linejoin="round" stroke-miterlimit="10" x1="151.3" y1="377.1" x2="42.6" y2="377.4"/>
			
				<line fill="none" stroke="#121625" stroke-width="8" stroke-linecap="round" stroke-linejoin="round" stroke-miterlimit="10" x1="565.3" y1="376.4" x2="461.2" y2="376.7"/>
			
				<line fill="none" stroke="#121625" stroke-width="8" stroke-linecap="round" stroke-linejoin="round" stroke-miterlimit="10" x1="431.8" y1="504.8" x2="488.7" y2="561.7"/>
			
				<line fill="none" stroke="#121625" stroke-width="8" stroke-linecap="round" stroke-linejoin="round" stroke-miterlimit="10" x1="119.1" y1="192.1" x2="173.4" y2="246.4"/>
			
				<line fill="none" stroke="#121625" stroke-width="8" stroke-linecap="round" stroke-linejoin="round" stroke-miterlimit="10" x1="175" y1="506.3" x2="119.5" y2="562.1"/>
			
				<line fill="none" stroke="#121625" stroke-width="8" stroke-linecap="round" stroke-linejoin="round" stroke-miterlimit="10" x1="488.4" y1="191.7" x2="434" y2="246.4"/>
		</g>
		<g>
			<path fill="#2F3A5B" d="M228,410.6c0,0,0,0.2,0.1,0.6c0.1,0.4,0.1,1,0.4,1.7s0.5,1.5,0.8,2.5c0.4,1,1,2,1.5,3.1
				c0.4,0.6,0.7,1.1,1.1,1.7c0.5,0.5,0.8,1.1,1.4,1.5s1.1,1.1,1.7,1.4c0.4,0.2,0.6,0.5,1,0.6l0.5,0.4l0.5,0.2
				c1.3,0.7,2.9,1.3,4.5,1.7c0.8,0.1,1.7,0.4,2.5,0.4c0.8,0,1.7,0.1,2.5,0.1c0.7,0,1.7-0.1,2.5-0.1c1,0,1.7-0.2,2.5-0.4
				c0.8-0.1,1.5-0.4,2.4-0.6c0.8-0.2,1.4-0.6,2.1-1c1.4-0.7,2.6-1.7,3.6-2.6c0.5-0.5,1-1.1,1.3-1.5c0.4-0.6,0.7-1.1,1.1-1.7
				c0.6-1.1,1.1-2.1,1.4-3.1c0.4-1,0.6-1.9,0.7-2.6s0.2-1.3,0.2-1.7s0-0.6,0-0.6h1c0,0,0.1,0.2,0.5,0.7c0.2,0.5,0.6,1.2,1,2
				c0.4,1,0.6,2,0.7,3.5c0.1,0.7,0,1.4,0,2.1c0,0.8-0.2,1.5-0.4,2.5c-0.2,0.8-0.5,1.8-0.8,2.7c-0.4,1-0.8,1.9-1.4,2.7
				c-1.2,1.8-2.9,3.7-4.9,5c-0.5,0.4-1,0.7-1.5,1.1c-0.5,0.4-1.1,0.6-1.7,0.8s-1.2,0.5-1.7,0.7c-0.6,0.2-1.3,0.4-1.9,0.6
				c-0.7,0.1-1.3,0.4-2,0.5c-0.4,0.1-0.7,0.1-1,0.2h-0.6l-1.3,0.1h-0.6h-0.4h-0.1l0,0h-0.6h-0.2c-1.2-0.1-2.3-0.1-3.5-0.2
				c-0.6,0-1.2-0.2-1.8-0.4c-0.6-0.1-1.2-0.4-1.8-0.5c-1.2-0.2-2.4-0.8-3.5-1.3c-1.1-0.5-2.1-1.2-3.1-1.9l-0.7-0.5l-0.7-0.6
				c-0.5-0.4-0.8-0.8-1.3-1.2c-0.5-0.4-0.7-0.8-1.1-1.3c-0.4-0.5-0.7-0.8-1-1.3c-0.6-1-1.1-1.8-1.4-2.7c-0.4-1-0.6-1.8-0.8-2.6
				c-0.1-0.8-0.4-1.7-0.4-2.5c0-0.8-0.1-1.5,0-2.1c0.1-1.3,0.4-2.5,0.6-3.5c0.2-1,0.6-1.7,0.8-2.1s0.4-0.7,0.4-0.7L228,410.6z"/>
		</g>
	</g>
	<g id="lap0">
		<g>
			
				<line fill="none" stroke="#121625" stroke-width="8" stroke-linecap="round" stroke-linejoin="round" stroke-miterlimit="10" x1="245.2" y1="511.4" x2="224.3" y2="559"/>
			
				<line fill="none" stroke="#121625" stroke-width="8" stroke-linecap="round" stroke-linejoin="round" stroke-miterlimit="10" x1="383.6" y1="195.2" x2="364.5" y2="238.7"/>
			
				<line fill="none" stroke="#121625" stroke-width="8" stroke-linecap="round" stroke-linejoin="round" stroke-miterlimit="10" x1="197.6" y1="330.8" x2="121.9" y2="297.8"/>
			
				<line fill="none" stroke="#121625" stroke-width="8" stroke-linecap="round" stroke-linejoin="round" stroke-miterlimit="10" x1="486" y1="456.5" x2="413.5" y2="424.8"/>
			
				<line fill="none" stroke="#121625" stroke-width="8" stroke-linecap="round" stroke-linejoin="round" stroke-miterlimit="10" x1="354" y1="505.1" x2="376.3" y2="562.1"/>
			
				<line fill="none" stroke="#121625" stroke-width="8" stroke-linecap="round" stroke-linejoin="round" stroke-miterlimit="10" x1="231.6" y1="192.2" x2="252.8" y2="246.5"/>
			
				<line fill="none" stroke="#121625" stroke-width="8" stroke-linecap="round" stroke-linejoin="round" stroke-miterlimit="10" x1="174.7" y1="427.9" x2="119.1" y2="449.8"/>
			
				<line fill="none" stroke="#121625" stroke-width="8" stroke-linecap="round" stroke-linejoin="round" stroke-miterlimit="10" x1="488.8" y1="304.5" x2="434.2" y2="325.9"/>
		</g>
		<g>
			<g>
				<g>
					<g>
						
							<path fill="#FFFFFF" stroke="#121625" stroke-width="13" stroke-linecap="round" stroke-linejoin="round" stroke-miterlimit="10" d="
							M469.6,400.7c-17.6-17.6-30.8,0-30.8,0v24.4c0,17.9-3.6,35-10.3,50.6c4.6-4.6,18.3-18.3,34-34
							C482,422.3,469.6,400.7,469.6,400.7z"/>
						
							<path fill="#FFFFFF" stroke="#121625" stroke-width="13" stroke-linecap="round" stroke-linejoin="round" stroke-miterlimit="10" d="
							M168.5,425.1V400c-2.8-3.2-14.8-14.6-30.2,0.8c0,0-12.4,21.6,7.1,41c14.6,14.6,27.5,27.5,33,33
							C172,459.3,168.5,442.5,168.5,425.1z"/>
					</g>
					
						<path fill="#FFFFFF" stroke="#121625" stroke-width="13" stroke-linecap="round" stroke-linejoin="round" stroke-miterlimit="10" d="
						M412.3,249.9L412.3,249.9c-11-16-26.7-27-26.7-27l0,0c-22-16.6-49.3-26.5-78.7-26.5h-8.3c-72.1,0-131,59-131,131v94.9
						c0,72.1,59,131,131,131h8.3c72.1,0,131-59,131-131v-94.9C437.9,298.4,428.3,271.6,412.3,249.9z"/>
					<g>
						
							<line fill="none" stroke="#121625" stroke-width="13" stroke-linecap="round" stroke-linejoin="round" stroke-miterlimit="10" x1="224.5" y1="364.3" x2="264.7" y2="358.3"/>
						
							<line fill="none" stroke="#121625" stroke-width="13" stroke-linecap="round" stroke-linejoin="round" stroke-miterlimit="10" x1="375.3" y1="363.3" x2="334.7" y2="358.3"/>
					</g>
					<path fill="#FFFFFF" stroke="#121625" stroke-width="13" stroke-linecap="round" stroke-miterlimit="10" d="M299,457.2"/>
					
						<path fill="#FFFFFF" stroke="#121625" stroke-width="13" stroke-linecap="round" stroke-linejoin="round" stroke-miterlimit="10" d="
						M224.7,457.2c0,32.9,17.4,63.9,79.2,63.9s79.2-31.7,79.2-63.9H224.7z"/>
					<circle fill="#121625" cx="357.9" cy="408.9" r="18.9"/>
					<circle fill="#121625" cx="246.4" cy="408.9" r="18.9"/>
				</g>
				
					<path fill="#FFFFFF" stroke="#121625" stroke-width="13" stroke-linecap="round" stroke-linejoin="round" stroke-miterlimit="10" d="
					M434.7,303.4c-153.5,67.1-190.2-14.9-190.2-14.9s-12,50.4-73.4,22.9"/>
			</g>
		</g>
		<g>
			
				<line fill="none" stroke="#121625" stroke-width="8" stroke-linecap="round" stroke-linejoin="round" stroke-miterlimit="10" x1="303.9" y1="570.1" x2="303.9" y2="638.7"/>
			
				<line fill="none" stroke="#121625" stroke-width="8" stroke-linecap="round" stroke-linejoin="round" stroke-miterlimit="10" x1="303.9" y1="115.6" x2="303.9" y2="178.1"/>
			
				<line fill="none" stroke="#121625" stroke-width="8" stroke-linecap="round" stroke-linejoin="round" stroke-miterlimit="10" x1="151.2" y1="377.4" x2="42.4" y2="377.6"/>
			
				<line fill="none" stroke="#121625" stroke-width="8" stroke-linecap="round" stroke-linejoin="round" stroke-miterlimit="10" x1="565.5" y1="376.6" x2="461.3" y2="376.8"/>
			
				<line fill="none" stroke="#121625" stroke-width="8" stroke-linecap="round" stroke-linejoin="round" stroke-miterlimit="10" x1="431.9" y1="505" x2="488.9" y2="562.1"/>
			
				<line fill="none" stroke="#121625" stroke-width="8" stroke-linecap="round" stroke-linejoin="round" stroke-miterlimit="10" x1="119" y1="192.2" x2="173.3" y2="246.5"/>
			
				<line fill="none" stroke="#121625" stroke-width="8" stroke-linecap="round" stroke-linejoin="round" stroke-miterlimit="10" x1="174.9" y1="506.6" x2="119.3" y2="562.4"/>
			
				<line fill="none" stroke="#121625" stroke-width="8" stroke-linecap="round" stroke-linejoin="round" stroke-miterlimit="10" x1="488.6" y1="191.9" x2="434" y2="246.5"/>
		</g>
	</g>
	<g id="swipe">
		<g>
			<g>
				<path d="M44.3,622.3c0.2-0.8-0.3-1.8-1.2-2c-0.9-0.2-1.8,0.3-2,1.1c-0.2,0.8,0.3,1.7,1.1,1.9c2.1,0.5,3.6,1.9,4.5,3.6
					c0.6,1.4,0.8,2.8,0.4,4.3c-0.8,3.5-4.5,5.6-8,4.7c-3.6-0.9-5.8-4.4-4.9-8c2,0.5,2.9,0.7,4.9,1.2c-0.2,0.8,0.3,1.8,1.1,2
					c0.8,0.2,1.8-0.3,2-1.1c0.2-0.8-0.3-1.8-1.2-2c-3.5-0.9-5.7-4.4-4.8-7.9c0.9-3.4,4.5-5.5,8-4.7c3.5,0.9,5.7,4.4,4.9,7.8
					C47.2,623,46.2,622.8,44.3,622.3z"/>
				<path d="M66.8,634.9c-2.1,2.6-3.1,4-5.2,6.6c-1.6-0.4-2.4-0.5-4.1-0.9c-2-9.2-3-13.6-4.9-22.8c2.4,0.6,3.6,0.8,6,1.5
					c1.1,5.6,1.8,8.3,3,13.9c2.4-3,3.5-4.6,5.9-7.6c0.9,0.2,1.4,0.3,2.3,0.5c0.8,3.7,1.2,5.6,2.1,9.5c3.5-4.5,5.2-6.8,8.6-11.3
					c2.4,0.5,3.6,0.7,6,1.2c-5.6,7.5-8.4,11.1-14.2,18.5c-1.6-0.3-2.4-0.5-4.1-0.8C67.8,639.8,67.5,638.1,66.8,634.9z"/>
				<path d="M89.2,625.8c2.2,0.4,3.3,0.6,5.5,1.1c-1.7,8.2-2.5,12.4-4.1,20.7c-2.3-0.4-3.3-0.6-5.6-1.1
					C86.7,638.2,87.5,634,89.2,625.8z"/>
				<path d="M98.8,627.7c3.5,0.7,5.3,1,8.8,1.7c4.3,0.8,7.1,4.8,6.3,9.1c-0.7,4.2-4.9,7-9.1,6.2c-1.4-0.2-2.1-0.4-3.5-0.6
					c-0.4,2.2-0.6,3.3-1,5.5c-2.3-0.4-3.3-0.6-5.6-1C96.5,640.2,97.3,636,98.8,627.7z M102.4,639.3c1.4,0.2,2.1,0.4,3.4,0.6
					c1.7,0.3,3.3-0.7,3.5-2.4c0.3-1.7-0.8-3.2-2.5-3.5c-1.4-0.2-2.1-0.4-3.4-0.6C103.1,635.7,102.9,637,102.4,639.3z"/>
				<path d="M118.4,631.3c5.2,0.9,7.8,1.4,13,2.2c-0.3,1.8-0.4,2.7-0.7,4.5c-3-0.5-4.6-0.7-7.6-1.2c-0.2,1.4-0.3,2-0.5,3.3
					c2.7,0.4,4.1,0.6,6.8,1.1c-0.3,1.9-0.4,2.8-0.7,4.6c-2.7-0.4-4.1-0.6-6.8-1.1c-0.2,1.6-0.4,2.3-0.6,3.8c3,0.5,4.6,0.7,7.7,1.2
					c-0.3,1.8-0.4,2.7-0.7,4.5c-5.3-0.8-8-1.4-13.3-2.2C116.2,643.8,117,639.7,118.4,631.3z"/>
				<path d="M158.2,637.5c5.8,0.8,10,6,9.3,11.9c-0.7,5.7-6.1,9.8-12.1,9.1c-5.9-0.8-10.1-6.1-9.3-11.9
					C146.9,640.7,152.3,636.6,158.2,637.5z M157.4,642.9c-2.8-0.4-5.3,1.6-5.7,4.3c-0.4,2.7,1.6,5.3,4.4,5.7
					c2.8,0.4,5.4-1.6,5.7-4.3C162.2,645.8,160.2,643.3,157.4,642.9z"/>
				<path d="M182.8,648.4c3.8-2.7,5.7-4.1,9.5-6.9c1,0.1,1.5,0.1,2.5,0.2c-0.8,8.4-1.2,12.6-2.1,20.9c-2.3-0.2-3.4-0.3-5.7-0.6
					c0.4-4.3,0.6-6.5,1.1-10.7c-2.4,1.8-3.6,2.6-6.1,4.4c-2.1-2.2-3-3.3-5.1-5.6c-0.5,4.3-0.7,6.5-1.2,10.7
					c-2.3-0.3-3.4-0.4-5.7-0.6c1-8.3,1.6-12.6,2.5-20.9c1,0.1,1.5,0.2,2.5,0.3C178.1,643.1,179.7,644.9,182.8,648.4z"/>
				<path d="M217.4,643.7c-0.2,3-0.3,4.5-0.6,7.5c2.7,0.2,4.1,0.3,6.8,0.5c0.2-3,0.3-4.5,0.5-7.5c2.2,0.2,3.3,0.2,5.6,0.4
					c-0.5,8.4-0.8,12.6-1.4,21c-2.3-0.1-3.4-0.2-5.7-0.4c0.2-3.2,0.3-4.8,0.5-8c-2.7-0.2-4.1-0.3-6.8-0.5c-0.2,3.2-0.4,4.8-0.6,8
					c-2.3-0.2-3.4-0.3-5.7-0.4c0.7-8.4,1-12.6,1.8-21C214,643.5,215.1,643.5,217.4,643.7z"/>
				<path d="M233.9,644.9c5.3,0.3,7.9,0.4,13.2,0.7c-0.1,1.9-0.1,2.7-0.2,4.6c-3-0.1-4.6-0.2-7.6-0.4c-0.1,1.4-0.1,2.1-0.2,3.4
					c2.7,0.1,4.1,0.2,6.8,0.3c-0.1,1.9-0.1,2.8-0.2,4.7c-2.7-0.1-4.1-0.2-6.8-0.3c-0.1,1.6-0.1,2.3-0.2,3.8c3.1,0.2,4.7,0.2,7.7,0.4
					c-0.1,1.8-0.1,2.7-0.2,4.5c-5.4-0.2-8.1-0.4-13.4-0.7C233.2,657.5,233.4,653.3,233.9,644.9z"/>
				<path d="M262,654c3.5-3,5.4-4.5,8.8-7.6c1,0,1.6,0,2.5,0.1c-0.2,8.4-0.3,12.6-0.5,21c-2.3-0.1-3.4-0.1-5.7-0.1
					c0.1-4.4,0.2-6.5,0.3-10.8c-2.3,2-3.4,2.9-5.7,4.9c-2.2-2.1-3.3-3.1-5.4-5.2c-0.2,4.3-0.2,6.5-0.4,10.8
					c-2.3-0.1-3.4-0.1-5.7-0.2c0.4-8.4,0.5-12.6,0.9-21c1,0,1.6,0.1,2.5,0.1C256.9,649.1,258.6,650.8,262,654z"/>
				<path d="M290.3,667.9c0.1-8.4,0.1-12.6,0.1-21c3.7,0,5.6,0,9.4,0c3.4,0,6.3,2.8,6.3,6.2c0,1.5-0.5,2.7-1.4,3.8
					c1.5,1.1,2.5,2.9,2.5,4.8c0,3.3-2.8,6.2-6.3,6.2C296.7,667.9,294.6,667.9,290.3,667.9z M298.7,655.1c1,0,1.9-0.8,1.9-1.9
					s-0.8-1.9-1.9-1.9c-1,0-1.7,0-2.7,0c0,1.5,0,2.2,0,3.6C297.1,655.1,297.6,655.1,298.7,655.1z M299.8,663.3c1,0,1.9-0.8,1.9-1.9
					c0-1-0.9-1.9-1.9-1.8c-1.6,0-2.3,0-3.7,0c0,1.5,0,2.2,0,3.6C297.5,663.3,298.2,663.3,299.8,663.3z"/>
				<path d="M310.5,646.7c5.3-0.1,7.9-0.1,13.2-0.2c0,1.9,0.1,2.7,0.1,4.6c-3,0.1-4.6,0.1-7.6,0.2c0,1.4,0,2.1,0.1,3.4
					c2.7,0,4.1-0.1,6.8-0.1c0,1.9,0.1,2.8,0.1,4.7c-2.7,0.1-4.1,0.1-6.9,0.1c0,1.6,0,2.3,0.1,3.8c3.1-0.1,4.7-0.1,7.7-0.2
					c0,1.8,0.1,2.7,0.1,4.5c-5.4,0.1-8.1,0.2-13.4,0.2C310.6,659.3,310.6,655.2,310.5,646.7z"/>
				<path d="M327.2,646.3c6.7-0.2,10-0.3,16.8-0.6c0.1,2.2,0.1,3.3,0.2,5.5c-2.3,0.1-3.4,0.1-5.6,0.2c0.2,6.2,0.4,9.4,0.6,15.6
					c-2.3,0.1-3.4,0.1-5.7,0.2c-0.2-6.2-0.3-9.4-0.5-15.6c-2.2,0.1-3.3,0.1-5.5,0.2C327.3,649.7,327.2,648.6,327.2,646.3z"/>
				<path d="M347.7,645.6c5.3-0.2,7.9-0.4,13.2-0.7c0.1,1.9,0.2,2.7,0.3,4.6c-3,0.2-4.6,0.3-7.6,0.4c0.1,1.4,0.1,2.1,0.2,3.4
					c2.7-0.1,4.1-0.2,6.8-0.4c0.1,1.9,0.2,2.8,0.3,4.7c-2.7,0.2-4.1,0.2-6.8,0.4c0.1,1.6,0.1,2.3,0.2,3.8c3.1-0.2,4.7-0.2,7.7-0.4
					c0.1,1.8,0.2,2.7,0.3,4.5c-5.4,0.3-8.1,0.5-13.4,0.7C348.4,658.2,348.2,654,347.7,645.6z"/>
				<path d="M378.9,664.7c-1.5-2.1-2.3-3.2-3.7-5.3c-1.4,0.1-2.1,0.1-3.5,0.2c0.2,2.2,0.2,3.3,0.4,5.6c-2.3,0.2-3.4,0.2-5.7,0.4
					c-0.5-8.4-0.8-12.6-1.4-21c3.5-0.2,5.4-0.3,8.9-0.6c4.3-0.3,8.1,2.9,8.4,7.1c0.2,2.3-0.6,4.4-2.1,5.8c2.1,2.9,3.1,4.4,5.2,7.3
					C382.8,664.4,381.5,664.5,378.9,664.7z M371.3,655c1.4-0.1,2.1-0.1,3.4-0.2c1.7-0.1,3-1.6,2.8-3.2c-0.1-1.7-1.6-2.9-3.3-2.8
					c-1.4,0.1-2.1,0.1-3.4,0.2C371,651.3,371,652.6,371.3,655z"/>
				<path d="M398.6,641.8c6.7-0.6,10-1,16.6-1.8c0.2,2.2,0.4,3.3,0.6,5.5c-2.3,0.2-3.4,0.4-5.6,0.6c0.6,6.2,1,9.3,1.7,15.5
					c-2.3,0.2-3.4,0.4-5.6,0.6c-0.6-6.2-0.9-9.3-1.6-15.5c-2.2,0.2-3.3,0.3-5.5,0.5C398.9,645.2,398.8,644,398.6,641.8z"/>
				<path d="M419.1,639.7c5.2-0.6,7.9-0.9,13.1-1.7c0.2,1.8,0.3,2.7,0.6,4.6c-3,0.4-4.6,0.6-7.6,0.9c0.2,1.4,0.2,2.1,0.4,3.4
					c2.7-0.3,4.1-0.5,6.8-0.8c0.2,1.9,0.3,2.8,0.6,4.6c-2.7,0.3-4.1,0.5-6.8,0.8c0.2,1.6,0.3,2.3,0.5,3.8c3.1-0.4,4.6-0.6,7.7-0.9
					c0.2,1.8,0.3,2.7,0.6,4.5c-5.3,0.7-8,1-13.4,1.7C420.6,652.3,420.2,648.1,419.1,639.7z"/>
				<path d="M461.2,641.8c2.9-3.6,4.5-5.4,7.3-9.1c1-0.2,1.5-0.2,2.5-0.4c1.4,8.3,2.1,12.5,3.5,20.8c-2.3,0.4-3.4,0.5-5.6,0.9
					c-0.7-4.3-1-6.5-1.8-10.7c-1.9,2.4-2.8,3.5-4.8,5.8c-2.6-1.7-3.8-2.4-6.3-4.1c0.6,4.3,0.9,6.3,1.7,10.6
					c-2.3,0.3-3.4,0.5-5.7,0.8c-1.2-8.3-1.9-12.5-3-20.8c1-0.1,1.5-0.2,2.5-0.4C455.3,638,457.2,639.2,461.2,641.8z"/>
				<path d="M477.4,652.6c2.6-8.9,3.8-13.5,6.2-22.5c1-0.2,1.5-0.3,2.5-0.4c5.5,7.6,8.2,11.3,13.8,18.8c-2.3,0.4-3.3,0.6-5.6,1
					c-0.7-0.9-1-1.5-1.8-2.5c-3.5,0.6-5.2,0.9-8.7,1.6c-0.3,1.1-0.5,1.8-0.8,2.9C480.8,651.9,479.7,652.1,477.4,652.6z M485.2,643.6
					c1.8-0.3,2.6-0.5,4.4-0.8c-1.2-1.7-1.8-2.5-3-4.2C486,640.7,485.7,641.6,485.2,643.6z"/>
				<path d="M519,623c-3,4.6-4.5,6.9-7.6,11.4c5.5,3.5,8.2,5.3,13.8,8.7c-3.1,0.7-4.7,1-7.9,1.7c-3.6-2.3-5.5-3.4-9.1-5.7
					c-0.4,0.6-0.6,0.9-1,1.6c0.5,2.4,0.7,3.6,1.2,6c-2.3,0.4-3.3,0.7-5.6,1.1c-1.7-8.2-2.4-12.4-4.1-20.7c2.2-0.4,3.3-0.6,5.5-1.1
					c0.5,2.8,0.8,4.2,1.5,7c2.3-3.3,3.4-5,5.6-8.4C514.4,624.1,515.9,623.7,519,623z"/>
				<path d="M522.8,622.2c5.2-1.1,7.8-1.8,12.9-2.9c0.4,1.8,0.6,2.7,1,4.5c-3,0.7-4.5,1-7.5,1.8c0.3,1.4,0.4,2,0.7,3.3
					c2.7-0.6,4-0.9,6.7-1.6c0.4,1.8,0.6,2.7,1,4.6c-2.7,0.6-4.1,0.9-6.7,1.6c0.3,1.6,0.5,2.3,0.8,3.7c3-0.7,4.6-1,7.6-1.8
					c0.4,1.8,0.6,2.6,1,4.4c-5.3,1.2-7.9,1.9-13.2,3C525.5,634.6,524.5,630.4,522.8,622.2z"/>
				<path d="M560,635c-5-2.8-7.5-4.3-12.4-7.2c0.9,3.8,1.5,5.8,2.4,9.7c-2.2,0.5-3.3,0.8-5.6,1.4c-2-8.2-2.9-12.3-4.9-20.5
					c0.9-0.2,1.4-0.3,2.2-0.5c4.9,2.9,7.3,4.4,12.3,7.2c-0.9-3.8-1.5-5.8-2.4-9.7c2.2-0.5,3.2-0.8,5.4-1.4
					c2.1,8.1,3.1,12.3,5.2,20.4C561.4,634.7,560.9,634.8,560,635z"/>
			</g>
		</g>
		
			<path fill="#FFFFFF" stroke="#121625" stroke-width="8" stroke-linecap="round" stroke-linejoin="round" stroke-miterlimit="10" stroke-dasharray="20" d="
			M132.7,682.9c0,0,158,33.3,307.9,0"/>
		<g>
			
				<line fill="none" stroke="#121625" stroke-width="8" stroke-linecap="round" stroke-linejoin="round" stroke-miterlimit="10" x1="425.2" y1="676.5" x2="440.5" y2="682.9"/>
			
				<line fill="none" stroke="#121625" stroke-width="8" stroke-linecap="round" stroke-linejoin="round" stroke-miterlimit="10" x1="428.4" y1="694.4" x2="440.5" y2="682.9"/>
		</g>
	</g>
	<g id="mot">
		<g>
			<path fill="#E62A45" d="M435.7,396.7c0-13.8,25.6-39.5,21.5-52c-4.2-12.9-58.6-5.3-66.4-16c-7.9-10.8,13.5-56.7,2.7-64.6
				c-10.7-7.8-41.6,7.8-54.5,3.5c-12.5-4.1-28.2,21.7-41.9,21.7c-13.8,0-29-24.5-41.5-20.4c-12.9,4.2-26.9,11-37.7,18.8
				c-10.8,7.9,11.2,43.1,3.3,53.9c-7.8,10.7-28.4,6.9-32.7,19.8c-4.1,12.5-0.1,21.4-0.1,35.3c0,13.8-44.6,36-40.6,48.5
				c4.2,12.9,43.5,11.9,51.3,22.7c7.9,10.8-7.5,51.1,3.3,59c10.7,7.8,30,24.8,42.9,28.9c12.5,4.1,37.9-54.3,51.7-54.3
				c13.8,0,22.3,6.2,34.8,2.2c12.9-4.2,48.5,30.3,59.2,22.4c10.8-7.9,17.4-31.8,25.3-42.7c7.8-10.7-33.3-44.4-29.1-57.3
				C391.2,413.6,435.7,410.5,435.7,396.7z"/>
			<path fill="none" stroke="#121625" stroke-width="8" stroke-linecap="round" stroke-linejoin="round" stroke-miterlimit="10" d="
				M435.7,396.7c0-13.8,25.6-39.5,21.5-52c-4.2-12.9-58.6-5.3-66.4-16c-7.9-10.8,13.5-56.7,2.7-64.6c-10.7-7.8-41.6,7.8-54.5,3.5
				c-12.5-4.1-28.2,21.7-41.9,21.7c-13.8,0-29-24.5-41.5-20.4c-12.9,4.2-26.9,11-37.7,18.8c-10.8,7.9,11.2,43.1,3.3,53.9
				c-7.8,10.7-28.4,6.9-32.7,19.8c-4.1,12.5-0.1,21.4-0.1,35.3c0,13.8-44.6,36-40.6,48.5c4.2,12.9,43.5,11.9,51.3,22.7
				c7.9,10.8-7.5,51.1,3.3,59c10.7,7.8,30,24.8,42.9,28.9c12.5,4.1,37.9-54.3,51.7-54.3c13.8,0,22.3,6.2,34.8,2.2
				c12.9-4.2,48.5,30.3,59.2,22.4c10.8-7.9,17.4-31.8,25.3-42.7c7.8-10.7-33.3-44.4-29.1-57.3C391.2,413.6,435.7,410.5,435.7,396.7z
				"/>
		</g>
		<path fill="#FFD32F" d="M359.5,396.7c0-15.9,1.6-43.3-8.8-53.7c-10.4-10.4-37.8,1.5-53.7,1.5c-15.9,0-41.8-10.5-52.3-0.1
			c-10.4,10.4-8.9,36.4-8.9,52.3c0,15.9,16.5,23.8,26.9,34.2c10.4,10.4,18.3,26.3,34.2,26.3c15.9,0,32.5-7.2,43-17.6
			C350.4,429.3,359.5,412.6,359.5,396.7z"/>
	</g>
</g>
</svg>
