<?xml version="1.0" encoding="utf-8"?>
<!-- Generator: Adobe Illustrator 18.1.1, SVG Export Plug-In . SVG Version: 6.00 Build 0)  -->
<!DOCTYPE svg PUBLIC "-//W3C//DTD SVG 1.0//EN" "http://www.w3.org/TR/2001/REC-SVG-20010904/DTD/svg10.dtd">
<svg version="1.0" xmlns="http://www.w3.org/2000/svg" xmlns:xlink="http://www.w3.org/1999/xlink" x="0px" y="0px"
	 viewBox="0 0 572.1 572.4" enable-background="new 0 0 572.1 572.4" xml:space="preserve">
<g id="hygiene" >
<g id="stap_5">
	<g>
		<g>
			
				<path fill="none" stroke="#000000" stroke-width="11" stroke-linecap="round" stroke-linejoin="round" stroke-miterlimit="10" d="
				M423.1,331.6c-12.8-17.7-26.6-4.3-26.6-4.3l-3.4,21c-2.5,15.5-8,29.7-15.9,42.2c4.7-3.4,18.4-13.2,34.1-24.6
				C430.8,351.9,423.1,331.6,423.1,331.6z"/>
			
				<path fill="none" stroke="#000000" stroke-width="11" stroke-linecap="round" stroke-linejoin="round" stroke-miterlimit="10" d="
				M159.9,310.5l3.5-21.7c-2-3.1-10.7-14.7-26.2-3.6c0,0-13.7,16.9,0.4,36.3c10.6,14.7,19.9,27.6,23.8,33
				C158.1,340.5,157.4,325.6,159.9,310.5z"/>
		</g>
		<path fill="none" stroke="#000000" stroke-width="11" stroke-linecap="round" stroke-linejoin="round" stroke-miterlimit="10" d="
			M173.8,226.2c0,0,23.9,25,59.1,39.5c0,0-21.5-37.3-19.5-49.4c2-12.2,53.6,31.8,53.6,31.8l26.4-21.5c0,0,23.9,20,55.7,9
			c-12.5-8.1-32-26.3-31-32.4s85.8,10.1,86.7,74.1"/>
		<path fill="none" stroke="#000000" stroke-width="11" stroke-linecap="round" stroke-linejoin="round" stroke-miterlimit="10" d="
			M395.8,193.6L395.8,193.6c20.6-12.6,24.2-42.6,18.2-30.2c-6,12.4-37.5,3.2-37.5,3.2l0,0c-16.6-17.4-38.8-29.7-64.2-33.9l-7.1-1.2
			C243,121.4,183.9,164,173.8,226.2l-13.3,81.9c-10.1,62.2,32.5,121.3,94.7,131.4l7.1,1.2c62.2,10.1,121.3-32.5,131.4-94.7L407,264
			C411.1,239,406.6,214.6,395.8,193.6z"/>
		
			<path fill="#FFFFFF" stroke="#000000" stroke-width="11" stroke-linecap="round" stroke-linejoin="round" stroke-miterlimit="10" d="
			M306.4,143.3c0,0-0.5-8.1-2.3-12c6.3-15.3,1-28.3,1-28.3c1.6,3.5-2.5,13-9.4,13.8c-5.4-6.3-13.5-12.6-25.7-17.1
			c0,0,21.7,41.4,7.5,53.3"/>
		<g>
			<path fill="none" stroke="#000000" stroke-width="7" stroke-linecap="round" stroke-miterlimit="10" d="M306.8,323.8
				c0,0,1.4,11.8,14.8,14c13.4,2.2,18.5-8.6,18.5-8.6"/>
			<path d="M312.8,299.6c-2.3,2.9-3.7,6.7-3.6,11c0.2,6.6,4.5,12.7,10.8,15.1c10.3,3.9,21-2.7,22.7-13c0.3-2.1,0.3-4.1-0.1-6
				c-0.4-1.9-2.2-3.3-4.2-3.3c-8.3,0.1-15.2-2.1-20.4-4.7C316.3,297.7,314,298,312.8,299.6z"/>
			<path fill="none" stroke="#000000" stroke-width="7" stroke-linecap="round" stroke-miterlimit="10" d="M250.1,314.6
				c0,0-5.1,10.8-18.5,8.6c-13.4-2.2-14.8-14-14.8-14"/>
			<path d="M252,289.7c1.3,3.5,1.4,7.5-0.1,11.5c-2.3,6.2-8.3,10.6-15,10.9c-11,0.4-19.1-9.2-17.4-19.5c0.3-2.1,1-3.9,2-5.6
				c1-1.7,3.1-2.4,5-1.8c7.8,2.8,15,2.8,20.8,1.9C249.3,286.8,251.3,287.9,252,289.7z"/>
		</g>
		<g>
			
				<line fill="none" stroke="#000000" stroke-width="11" stroke-linecap="round" stroke-linejoin="round" stroke-miterlimit="10" x1="216.7" y1="265.9" x2="252.2" y2="266.4"/>
			
				<line fill="none" stroke="#000000" stroke-width="11" stroke-linecap="round" stroke-linejoin="round" stroke-miterlimit="10" x1="347" y1="286.2" x2="312.6" y2="276.1"/>
		</g>
		<path fill="none" stroke="#000000" stroke-width="11" stroke-linecap="round" stroke-miterlimit="10" d="M268,356.5"/>
		<path fill="none" stroke="#000000" stroke-width="11" stroke-linecap="round" stroke-linejoin="round" stroke-miterlimit="10" d="
			M312.8,400l15.3,2.5c2.9-18.2-7.8-37.5-55.9-45.3c-48-7.8-64.4,7.6-67.3,25.4l89,14.4c0,0,7.4,4.6,4.2,12.1
			c-3.1,7.5,7.5,9.2,6.8,1.1C304.4,402.1,312.8,400,312.8,400z"/>
	</g>
</g>
<g id="stap_4">
	<g>
		<g>
			<g>
				
					<path fill="none" stroke="#000000" stroke-width="11" stroke-linecap="round" stroke-linejoin="round" stroke-miterlimit="10" d="
					M438.8,284.3c-17.9-12.3-26.4,4.9-26.4,4.9l3.8,20.9c2.8,15.3,2.4,30.6-0.8,44.9c3.3-4.7,12.8-18.6,23.8-34.5
					C452.8,300.8,438.8,284.3,438.8,284.3z"/>
				
					<path fill="none" stroke="#000000" stroke-width="11" stroke-linecap="round" stroke-linejoin="round" stroke-miterlimit="10" d="
					M184.8,352.7l-4-21.5c-2.9-2.3-15-10.2-25.8,5.4c0,0-7.2,20.4,12.5,34c14.9,10.2,27.9,19.2,33.4,23
					C193.2,381.5,187.6,367.7,184.8,352.7z"/>
			</g>
			
				<path fill="none" stroke="#000000" stroke-width="11" stroke-linecap="round" stroke-linejoin="round" stroke-miterlimit="10" d="
				M370.7,165.4L370.7,165.4c15.7-18.4,9.7-48,7.9-34.4c-1.8,13.6-34.6,14.7-34.6,14.7l0,0c-21.2-11.4-46.1-16.2-71.6-12.2l-7.1,1.1
				c-62.2,9.8-105.1,68.7-95.3,130.9l12.9,81.9c9.8,62.2,68.7,105.1,130.9,95.3l7.1-1.1c62.2-9.8,105.1-68.7,95.3-130.9l-12.9-81.9
				C399.3,203.9,387.5,182,370.7,165.4z"/>
			
				<path fill="none" stroke="#000000" stroke-width="11" stroke-linecap="round" stroke-linejoin="round" stroke-miterlimit="10" d="
				M301.6,359.6"/>
		</g>
		<path fill="none" stroke="#000000" stroke-width="11" stroke-linecap="round" stroke-linejoin="round" stroke-miterlimit="10" d="
			M393.6,206.5c-120.8,81.7-165.2,17.2-165.2,17.2s-2.3,45.1-59.2,31.2"/>
	</g>
	
		<path fill="#FFFFFF" stroke="#000000" stroke-width="11" stroke-linecap="round" stroke-linejoin="round" stroke-miterlimit="10" d="
		M284,146.7c0,0-0.1-8.2-1.7-12.1c7.1-15,2.4-28.2,2.4-28.2c1.4,3.6-3.2,12.9-10.1,13.3c-5.1-6.6-12.9-13.2-24.8-18.3
		c0,0,19.7,42.4,4.9,53.6"/>
	<circle cx="237.5" cy="307.4" r="12.3"/>
	<circle cx="336.5" cy="285.4" r="20.2"/>
	<path fill="none" stroke="#000000" stroke-width="5" stroke-linecap="round" stroke-miterlimit="10" d="M162.5,187c0,0-32,13-30-14
		s15-22,15-22s23,34.8-41,19.4s-3.6-52.6,14-34.4s-15,45-29,46"/>
	
		<line fill="none" stroke="#000000" stroke-width="10" stroke-linecap="round" stroke-miterlimit="10" x1="237.5" y1="399" x2="376.5" y2="371"/>
</g>
<g id="stap_3">
	<g>
		<g>
			<g>
				
					<path fill="none" stroke="#000000" stroke-width="11" stroke-linecap="round" stroke-linejoin="round" stroke-miterlimit="10" d="
					M427.7,320.8c-13.9-16.7-26.7-2.5-26.7-2.5l-2,21.1c-1.4,15.5-6,30.1-13,43c4.4-3.7,17.4-14.4,32.2-26.7
					C436.7,340.5,427.7,320.8,427.7,320.8z"/>
				
					<path fill="none" stroke="#000000" stroke-width="11" stroke-linecap="round" stroke-linejoin="round" stroke-miterlimit="10" d="
					M164.7,317.6l2-21.8c-2.2-3-11.7-13.9-26.3-1.8c0,0-12.5,17.7,2.8,36.1c11.5,13.9,21.6,26.1,25.9,31.2
					C165,347.5,163.3,332.8,164.7,317.6z"/>
			</g>
			
				<path fill="none" stroke="#000000" stroke-width="11" stroke-linecap="round" stroke-linejoin="round" stroke-miterlimit="10" d="
				M391.3,185.4L391.3,185.4c-8.2-14.8-21-25.6-21-25.6l0,0c-17.7-16.2-40.6-27-66.1-29.3l-7.2-0.7c-62.5-5.8-118.4,40.5-124.2,103
				l-7.7,82.3c-5.8,62.5,40.5,118.4,103,124.2l7.2,0.7c62.5,5.8,118.4-40.5,124.2-103l7.7-82.3C409.5,229.6,403.5,205.6,391.3,185.4
				z"/>
			
				<path fill="none" stroke="#000000" stroke-width="11" stroke-linecap="round" stroke-linejoin="round" stroke-miterlimit="10" d="
				M275.2,356"/>
		</g>
		<path fill="none" stroke="#000000" stroke-width="11" stroke-linecap="round" stroke-linejoin="round" stroke-miterlimit="10" d="
			M405.4,233.6c-138.5,45.8-163.7-28.3-163.7-28.3s-14.5,42.7-65.4,13.9"/>
	</g>
	<g>
		<circle fill="#121625" cx="239.8" cy="297.8" r="17"/>
		<circle fill="#121625" cx="329.4" cy="306.1" r="17"/>
	</g>
	<path fill="none" stroke="#000000" stroke-width="11" stroke-linecap="round" stroke-linejoin="round" stroke-miterlimit="10" d="
		M324.1,275.3c0,0,17.1-19.3,36.4-2.2"/>
	<path fill="none" stroke="#000000" stroke-width="11" stroke-linecap="round" stroke-linejoin="round" stroke-miterlimit="10" d="
		M263.1,271.2c0,0-8.4-24.4-32.8-16"/>
	
		<path fill="#FFFFFF" stroke="#000000" stroke-width="11" stroke-linecap="round" stroke-linejoin="round" stroke-miterlimit="10" d="
		M316.1,146.3c0,0,2.1-7.9,1.6-12.1c10.9-12.5,10-26.5,10-26.5c0.4,3.9-6.6,11.6-13.3,10.1c-3.1-7.7-8.8-16.2-18.9-24.4
		c0,0,7.4,46.2-9.8,52.9"/>
	<path fill="none" stroke="#000000" stroke-width="11" stroke-linecap="round" stroke-linejoin="round" stroke-miterlimit="10" d="
		M203.5,371c0,0,111-5.1,147,11.5"/>
	
		<polyline fill="none" stroke="#FFD32F" stroke-width="11" stroke-linecap="round" stroke-linejoin="round" stroke-miterlimit="10" points="
		422.5,205.3 456.5,186 456.5,205.3 495.5,186 	"/>
	
		<polyline fill="none" stroke="#FFD32F" stroke-width="11" stroke-linecap="round" stroke-linejoin="round" stroke-miterlimit="10" points="
		152.4,389 126.5,410 147.5,417 107.5,450 	"/>
	
		<polyline fill="none" stroke="#FFD32F" stroke-width="11" stroke-linecap="round" stroke-linejoin="round" stroke-miterlimit="10" points="
		342.3,450 350.5,461 360.5,450 380.5,472 	"/>
	
		<polyline fill="none" stroke="#FFD32F" stroke-width="11" stroke-linecap="round" stroke-linejoin="round" stroke-miterlimit="10" points="
		152.4,190 115.5,186 145.5,174 107.5,160 	"/>
	
		<polyline fill="none" stroke="#FFD32F" stroke-width="11" stroke-linecap="round" stroke-linejoin="round" stroke-miterlimit="10" points="
		361.4,101 380.5,68 380.5,93.4 400.5,53 	"/>
</g>
<g id="stap_2">
	<g>
		<g>
			<g>
				
					<path fill="none" stroke="#000000" stroke-width="11" stroke-linecap="round" stroke-linejoin="round" stroke-miterlimit="10" d="
					M432.1,287.5c-17.5-13-26.6,3.9-26.6,3.9l3.1,21c2.3,15.4,1.3,30.6-2.4,44.9c3.4-4.6,13.5-18.1,25-33.6
					C445.4,304.5,432.1,287.5,432.1,287.5z"/>
				
					<path fill="none" stroke="#000000" stroke-width="11" stroke-linecap="round" stroke-linejoin="round" stroke-miterlimit="10" d="
					M175.7,346.7l-3.2-21.7c-2.8-2.4-14.6-10.7-25.9,4.5c0,0-7.9,20.1,11.3,34.4c14.5,10.8,27.2,20.2,32.6,24.2
					C183.1,375.8,178,361.8,175.7,346.7z"/>
			</g>
			
				<path fill="none" stroke="#000000" stroke-width="11" stroke-linecap="round" stroke-linejoin="round" stroke-miterlimit="10" d="
				M364.6,164.6L364.6,164.6c-11.5-12.5-26.4-19.9-26.4-19.9l0,0c-21-11.5-45.8-16.6-71.2-12.8l-7.1,1
				c-62.1,9.1-105.4,67.4-96.2,129.5l12,81.8c9.1,62.1,67.4,105.4,129.5,96.2l7.1-1c62.1-9.1,105.4-67.4,96.2-129.5l-12-81.8
				C392.8,203.2,381.2,181.3,364.6,164.6z"/>
			
				<path fill="none" stroke="#000000" stroke-width="11" stroke-linecap="round" stroke-linejoin="round" stroke-miterlimit="10" d="
				M292.2,357.8"/>
		</g>
		<path fill="none" stroke="#000000" stroke-width="11" stroke-linecap="round" stroke-linejoin="round" stroke-miterlimit="10" d="
			M389.7,208.1C266,285.4,224,219.3,224,219.3s-4,44.9-60.3,29"/>
	</g>
	<g>
		<circle fill="#121625" cx="244" cy="309.6" r="17"/>
		<circle fill="#121625" cx="333.1" cy="296.5" r="17"/>
	</g>
	<path fill="none" stroke="#000000" stroke-width="11" stroke-linecap="round" stroke-linejoin="round" stroke-miterlimit="10" d="
		M319.1,257.3c0,0,22.5-12.5,35.1,10"/>
	<path fill="none" stroke="#000000" stroke-width="11" stroke-linecap="round" stroke-linejoin="round" stroke-miterlimit="10" d="
		M242.5,268.6c0,0-25.2-5.5-30.7,19.7"/>
	<path fill="none" stroke="#000000" stroke-width="11" stroke-linecap="round" stroke-linejoin="round" stroke-miterlimit="10" d="
		M330.1,387.9c-3.9-17.9-27.2-24.6-42.3-17.3c-2.3,1.4-4.7,2.7-6.7,4.4c-2,1.7-3.7,3.7-4.9,6.4c-1.5,3.3-3.2,5.5-3.6,9.6
		c-0.3,5.1,1.5,9.9,4.6,10.4c17,5.6,33.2-7.9,50-3.3c0.7-2.1,2.5-3.4,2.9-5.4C330.5,391.4,330.5,389.8,330.1,387.9z"/>
</g>
<g id="stap_1">
	<g>
		<g>
			<g>
				
					<path fill="none" stroke="#000000" stroke-width="11" stroke-linecap="round" stroke-linejoin="round" stroke-miterlimit="10" d="
					M430.3,308.7c-15.4-15.4-26.9,0-26.9,0V330c0,15.6-3.2,30.5-8.9,44.1c4.1-4.1,16-16,29.6-29.6
					C441.1,327.5,430.3,308.7,430.3,308.7z"/>
				
					<path fill="none" stroke="#000000" stroke-width="11" stroke-linecap="round" stroke-linejoin="round" stroke-miterlimit="10" d="
					M168.1,330v-21.9c-2.5-2.8-12.9-12.7-26.3,0.7c0,0-10.8,18.8,6.2,35.7c12.8,12.8,24,24,28.7,28.7
					C171.1,359.8,168.1,345.2,168.1,330z"/>
			</g>
			
				<path fill="none" stroke="#000000" stroke-width="11" stroke-linecap="round" stroke-linejoin="round" stroke-miterlimit="10" d="
				M381.4,177.4L381.4,177.4c-9.6-14-23.2-23.5-23.2-23.5l0,0c-19.1-14.5-42.9-23.1-68.6-23.1h-7.2c-62.7,0-114.1,51.3-114.1,114.1
				v82.6c0,62.7,51.3,114.1,114.1,114.1h7.2c62.7,0,114.1-51.3,114.1-114.1v-82.6C403.7,219.7,395.4,196.3,381.4,177.4z"/>
			
				<path fill="none" stroke="#000000" stroke-width="11" stroke-linecap="round" stroke-linejoin="round" stroke-miterlimit="10" d="
				M281.7,358"/>
		</g>
		<path fill="none" stroke="#000000" stroke-width="11" stroke-linecap="round" stroke-linejoin="round" stroke-miterlimit="10" d="
			M400,224c-133.7,58.4-165.6-13-165.6-13s-10.5,43.9-63.9,19.9"/>
	</g>
	<path fill="none" stroke="#000000" stroke-width="11" stroke-linecap="round" stroke-linejoin="round" stroke-miterlimit="10" d="
		M210,358c0,31.5,16.7,61.3,76,61.3s76-30.4,76-61.3H210z"/>
	<path fill="none" stroke="#000000" stroke-width="11" stroke-linecap="round" stroke-linejoin="round" stroke-miterlimit="10" d="
		M217.1,388.6c0,0,65.4-18.6,138,0"/>
	<g>
		<circle fill="#121625" cx="241" cy="303.3" r="17"/>
		<circle fill="#121625" cx="331" cy="303.3" r="17"/>
	</g>
	<path fill="none" stroke="#000000" stroke-width="11" stroke-linecap="round" stroke-linejoin="round" stroke-miterlimit="10" d="
		M314,271.3c0,0,18.2-18.3,36.5,0"/>
	<path fill="none" stroke="#000000" stroke-width="11" stroke-linecap="round" stroke-linejoin="round" stroke-miterlimit="10" d="
		M259.5,271.3c0,0-18.2-18.3-36.5,0"/>
	
		<path fill="#FFFFFF" stroke="#000000" stroke-width="11" stroke-linecap="round" stroke-linejoin="round" stroke-miterlimit="10" d="
		M338,106c0,0,4.1,33.1-22.7,33.1c0,0,24.6,5.1,24.6,24.6c0,0-0.5-23.9,18.8-23.9C337,139.8,338,106,338,106z"/>
	
		<path fill="#FFFFFF" stroke="#000000" stroke-width="8" stroke-linecap="round" stroke-linejoin="round" stroke-miterlimit="10" d="
		M224.7,163.7c0,0,2.7,21.9-15,21.9c0,0,16.2,3.3,16.2,16.2c0,0-0.3-15.8,12.4-15.8C224,186,224.7,163.7,224.7,163.7z"/>
</g>
<g>
	<path fill="none" stroke="#586B73" stroke-width="10" stroke-linecap="round" stroke-miterlimit="10" stroke-dasharray="20" d="
		M478.1,147.7c0,0,116,137,0,282"/>
	
		<line fill="none" stroke="#586B73" stroke-width="10" stroke-linecap="round" stroke-miterlimit="10" x1="476.4" y1="430.7" x2="476.4" y2="415.6"/>
	
		<line fill="none" stroke="#586B73" stroke-width="10" stroke-linecap="round" stroke-miterlimit="10" x1="476.5" y1="430.7" x2="491.3" y2="428"/>
	
		<line fill="none" stroke="#586B73" stroke-width="10" stroke-linecap="round" stroke-miterlimit="10" x1="475.4" y1="144.6" x2="475.4" y2="159.6"/>
	
		<line fill="none" stroke="#586B73" stroke-width="10" stroke-linecap="round" stroke-miterlimit="10" x1="475.5" y1="144.6" x2="490.3" y2="147.2"/>
</g>
<g>
	<path fill="none" stroke="#586B73" stroke-width="10" stroke-linecap="round" stroke-miterlimit="10" stroke-dasharray="20" d="
		M90.8,427.6c0,0-116-137,0-282"/>
	
		<line fill="none" stroke="#586B73" stroke-width="10" stroke-linecap="round" stroke-miterlimit="10" x1="92.5" y1="144.6" x2="92.5" y2="159.6"/>
	
		<line fill="none" stroke="#586B73" stroke-width="10" stroke-linecap="round" stroke-miterlimit="10" x1="92.4" y1="144.6" x2="77.6" y2="147.2"/>
	
		<line fill="none" stroke="#586B73" stroke-width="10" stroke-linecap="round" stroke-miterlimit="10" x1="93.5" y1="430.7" x2="93.5" y2="415.6"/>
	
		<line fill="none" stroke="#586B73" stroke-width="10" stroke-linecap="round" stroke-miterlimit="10" x1="93.4" y1="430.7" x2="78.6" y2="428"/>
</g>
<g>
</svg>
