<?xml version="1.0" encoding="utf-8"?>
<!-- Generator: Adobe Illustrator 18.1.1, SVG Export Plug-In . SVG Version: 6.00 Build 0)  -->
<!DOCTYPE svg PUBLIC "-//W3C//DTD SVG 1.1//EN" "http://www.w3.org/Graphics/SVG/1.1/DTD/svg11.dtd">
<svg version="1.1" id="Layer_1" xmlns="http://www.w3.org/2000/svg" xmlns:xlink="http://www.w3.org/1999/xlink" x="0px" y="0px"
	 viewBox="0 0 219 219" enable-background="new 0 0 219 219" xml:space="preserve">
<g>
	<g>
		<path fill="#FFFFFF" d="M118.7,110.5L153,76.3l6-10.5l10.8,10.8c0.7,0.7,1.6,1.1,2.6,1.1c0.7,0,1.3-0.2,1.8-0.5
			c0.3-0.2,0.5-0.3,0.7-0.6l40.6-40.4c0.7-0.7,1.1-1.6,1.1-2.6c0-1-0.4-1.9-1.1-2.6l-11.7-11.7c0.3-1.5,0-2.9-0.9-3.9l-3-3
			c-1.7-1.7-4.9-1.3-7,0.8l-42.6,42.5l-6.4,11.3l-34.3,34.2L75.2,67.1l-6.4-11.3L26.1,13.3c-2.2-2.2-5.3-2.5-7-0.8l-3,3
			c-1,1-1.2,2.4-0.9,3.9L3.5,31.1c-0.7,0.7-1.1,1.6-1.1,2.6c0,1,0.4,1.9,1.1,2.6l40.6,40.4c0.2,0.2,0.5,0.4,0.7,0.6
			c0.6,0.3,1.2,0.5,1.8,0.5c1,0,1.9-0.4,2.6-1.1l10.8-10.8l6,10.5l34.3,34.1L4.4,206c-2.2,2.2-2.5,5.3-0.8,7l3,3
			c1.7,1.7,4.9,1.3,7-0.8l96-95.6l96,95.6c2.2,2.2,5.3,2.5,7,0.8l3-3c1.7-1.7,1.3-4.9-0.8-7L118.7,110.5z M167,58.7l4.6,4.7
			c0.9,0.9,2.3,1,3.3,0.4c0.2-0.1,0.4-0.3,0.6-0.4c1.1-1.1,1.1-2.8,0-3.9l-4.6-4.7l1.6-1.6l4.6,4.7c0.9,0.9,2.3,1,3.3,0.4
			c0.2-0.1,0.4-0.3,0.6-0.4c1.1-1.1,1.1-2.8,0-3.9l-4.6-4.7l1.6-1.6l4.6,4.7c0.9,0.9,2.3,1,3.3,0.4c0.2-0.1,0.4-0.3,0.6-0.4
			c1.1-1.1,1.1-2.8,0-3.9l-4.6-4.7l1.6-1.6l4.6,4.7c0.9,0.9,2.3,1,3.3,0.4c0.2-0.1,0.4-0.3,0.6-0.4c1.1-1.1,1.1-2.8,0-3.9l-4.6-4.7
			l1.6-1.6l4.6,4.7c0.9,0.9,2.3,1,3.3,0.4c0.2-0.1,0.4-0.3,0.6-0.4c1.1-1.1,1.1-2.8,0-3.9l-4.6-4.7l1.6-1.6l4.6,4.7
			c0.9,0.9,2.3,1,3.3,0.4c0.2-0.1,0.4-0.3,0.6-0.4c1.1-1.1,1.1-2.8,0-3.9l-4.6-4.7l1.6-1.5l7.8,7.8l-35.4,35.3l-7.8-7.8L167,58.7z
			 M46.7,68.9L11.3,33.7l7.8-7.8l1.6,1.5L16,32.1c-1.1,1.1-1.1,2.8,0,3.9c0.2,0.2,0.4,0.3,0.6,0.4c1.1,0.6,2.4,0.5,3.3-0.4l4.6-4.7
			l1.6,1.6l-4.6,4.7c-1.1,1.1-1.1,2.8,0,3.9c0.2,0.2,0.4,0.3,0.6,0.4c1.1,0.6,2.4,0.5,3.3-0.4l4.6-4.7l1.6,1.6L27,43
			c-1.1,1.1-1.1,2.8,0,3.9c0.2,0.2,0.4,0.3,0.6,0.4c1.1,0.6,2.4,0.5,3.3-0.4l4.6-4.7l1.6,1.6l-4.6,4.7c-1.1,1.1-1.1,2.8,0,3.9
			c0.2,0.2,0.4,0.3,0.6,0.4c1.1,0.6,2.4,0.5,3.3-0.4l4.6-4.7l1.6,1.6L38,54c-1.1,1.1-1.1,2.8,0,3.9c0.2,0.2,0.4,0.3,0.6,0.4
			c1.1,0.6,2.4,0.5,3.3-0.4l4.6-4.7l1.6,1.6l-4.6,4.7c-1.1,1.1-1.1,2.8,0,3.9c0.2,0.2,0.4,0.3,0.6,0.4c1.1,0.6,2.4,0.5,3.3-0.4
			l4.6-4.7l2.5,2.4L46.7,68.9z M51.9,30.7c1.3,0,2.5-0.4,3.7-1.1c15.9-10.8,34.6-16.5,53.9-16.5c18.7,0,36.9,5.4,52.5,15.5
			c3,2,7.1,1.1,9-1.9c2-3,1.1-7.1-1.9-9C151.4,6.1,130.8,0,109.5,0C87.6,0,66.4,6.5,48.3,18.7c-3,2-3.8,6.1-1.8,9.1
			C47.8,29.7,49.8,30.7,51.9,30.7z M189.7,174.4c1.1,0.8,2.5,1.2,3.8,1.2c2,0,4.1-1,5.3-2.8c13.2-18.6,20.2-40.5,20.2-63.3
			c0-16.1-3.4-31.6-10.1-46.1c-1.5-3.3-5.4-4.7-8.7-3.2c-3.3,1.5-4.7,5.4-3.2,8.7c5.9,12.7,8.9,26.4,8.9,40.6
			c0,20.1-6.1,39.4-17.7,55.7C186.1,168.2,186.8,172.3,189.7,174.4z M165.4,188.1c-16.4,11.7-35.7,17.8-55.9,17.8
			c-20.1,0-39.4-6.1-55.7-17.7c-2.9-2.1-7-1.4-9.1,1.5c-2.1,2.9-1.4,7,1.5,9.1C64.8,212,86.7,219,109.5,219c22.9,0,44.9-7,63.5-20.3
			c2.9-2.1,3.6-6.2,1.5-9.1C172.4,186.7,168.3,186,165.4,188.1z M17.9,61.9c-3.3-1.5-7.2,0-8.6,3.3C3.1,79.2,0,94.1,0,109.5
			c0,22.6,6.8,44.3,19.7,62.7C21,174,23,175,25.1,175c1.3,0,2.6-0.4,3.7-1.2c3-2.1,3.7-6.1,1.6-9.1c-11.4-16.2-17.4-35.3-17.4-55.2
			c0-13.6,2.8-26.7,8.2-39C22.7,67.2,21.3,63.3,17.9,61.9z"/>
	</g>
</g>
<g>
</g>
<g>
</g>
<g>
</g>
<g>
</g>
<g>
</g>
<g>
</g>
</svg>
