<?xml version="1.0" encoding="utf-8"?>
<!-- Generator: Adobe Illustrator 18.1.1, SVG Export Plug-In . SVG Version: 6.00 Build 0)  -->
<svg version="1.1" xmlns="http://www.w3.org/2000/svg" xmlns:xlink="http://www.w3.org/1999/xlink" x="0px" y="0px"
	 viewBox="0 0 448 477" enable-background="new 0 0 448 477" xml:space="preserve">
<g id="ingekleurd">
	<g>
		<path fill="#333333" d="M181.4,323.9l-11.3,11.3l13.4,13.4h-9.2l-8.8-8.8l-1.6,1.6v7.2h-6.5v-24.8h6.5v8.4l8.3-8.4H181.4z"/>
		<path fill="#333333" d="M196,323.9c6.8,0,12.4,5.6,12.4,12.4s-5.5,12.3-12.4,12.3s-12.3-5.5-12.3-12.3S189.1,323.9,196,323.9z
			 M196,330.4c-3.2,0-5.9,2.6-5.9,5.9c0,3.2,2.6,5.9,5.9,5.9c3.3,0,5.9-2.7,5.9-5.9C201.9,333,199.2,330.4,196,330.4z"/>
		<path fill="#333333" d="M225.9,333.1l10.1-9.2h2.9v24.8h-6.5V336l-6.5,5.9l-6.5-5.9v12.7h-6.5v-24.8h2.9L225.9,333.1z"/>
		<path fill="#333333" d="M243.9,323.9h15.4v5.4h-8.9v4h7.9v5.5h-7.9v4.6h8.9v5.3h-15.4V323.9z"/>
		<path fill="#333333" d="M282.1,348.7L270.4,337v11.7h-6.5v-24.8h2.6l11.7,11.7v-11.7h6.5v24.8H282.1z"/>
		<path fill="#333333" d="M39.7,360.3c15.9,0,28.9,13,28.9,29c0,15.9-12.9,28.8-28.9,28.8s-28.8-12.9-28.8-28.8
			C10.9,373.3,23.7,360.3,39.7,360.3z M39.7,375.4c-7.5,0-13.7,6.2-13.7,13.8c0,7.5,6.2,13.8,13.7,13.8c7.6,0,13.8-6.2,13.8-13.8
			C53.5,381.6,47.3,375.4,39.7,375.4z"/>
		<path fill="#333333" d="M79.1,360.3h24.3c11.7,0,21.3,9.5,21.3,21.3c0,11.6-9.5,21.2-20.9,21.2h-9.5v15.3H79.1V360.3z M94.3,389.7
			h9.4c4.6,0,8.3-3.6,8.3-8.2c0-4.6-3.7-8.3-8.3-8.3h-9.4V389.7z"/>
		<path fill="#333333" d="M154.1,378c0-2.4-2-4.4-4.4-4.4s-4.3,2-4.3,4.4s1.9,4.3,4.3,4.3c5.6,0,10.7,2.7,13.9,6.9
			c2.5,3.1,3.9,6.9,3.9,11.2c0,9.9-7.9,17.7-17.8,17.7s-17.8-7.8-17.8-17.9h13.5c0,2.5,1.9,4.4,4.3,4.4s4.4-1.9,4.4-4.3
			s-2-4.4-4.4-4.4c-9.9,0-17.7-7.9-17.7-17.7s7.9-17.8,17.7-17.8s17.8,7.9,17.8,17.7H154.1z"/>
		<path fill="#333333" d="M177.1,360.2h45.5v15.1h-15.3v42.7h-15.2v-42.7h-15V360.2z"/>
		<path fill="#333333" d="M225,418.1l26.9-57.7h6.9l27.2,57.7h-15.2l-3.5-7.5h-23.6l-3.5,7.5H225z M249.5,397.7h11.8l-5.9-12.7
			L249.5,397.7z"/>
		<path fill="#333333" d="M289.8,418.1l26.9-57.7h6.9l27.2,57.7h-15.2l-3.5-7.5h-23.6l-3.5,7.5H289.8z M314.3,397.7h11.8l-5.9-12.7
			L314.3,397.7z"/>
		<path fill="#333333" d="M400.9,418.1l-27.3-27.3v27.3h-15.2v-57.7h6.2l27.3,27.3v-27.3h15.2v57.7H400.9z"/>
		<path fill="#333333" d="M418.3,360.3h12.2v42.3h-12.2V360.3z M424.4,405.8c3.4,0,6.1,2.8,6.1,6.2s-2.7,6.1-6.1,6.1
			s-6.1-2.7-6.1-6.1S421,405.8,424.4,405.8z"/>
	</g>
	<g>
		<g>
			
				<rect x="300.2" y="329.7" fill="none" stroke="#000000" stroke-width="2" stroke-linecap="round" stroke-linejoin="round" stroke-miterlimit="10" width="25.8" height="8.2"/>
			
				<line fill="none" stroke="#000000" stroke-width="1.5" stroke-linecap="round" stroke-linejoin="round" stroke-miterlimit="10" x1="304.1" y1="333.4" x2="304.1" y2="338"/>
			
				<line fill="none" stroke="#000000" stroke-width="1.5" stroke-linecap="round" stroke-linejoin="round" stroke-miterlimit="10" x1="307.6" y1="333.4" x2="307.6" y2="338"/>
			
				<line fill="none" stroke="#000000" stroke-width="1.5" stroke-linecap="round" stroke-linejoin="round" stroke-miterlimit="10" x1="311.1" y1="333.4" x2="311.1" y2="338"/>
			
				<line fill="none" stroke="#000000" stroke-width="1.5" stroke-linecap="round" stroke-linejoin="round" stroke-miterlimit="10" x1="314.6" y1="333.4" x2="314.6" y2="338"/>
			
				<line fill="none" stroke="#000000" stroke-width="1.5" stroke-linecap="round" stroke-linejoin="round" stroke-miterlimit="10" x1="318.1" y1="333.4" x2="318.1" y2="338"/>
			
				<line fill="none" stroke="#000000" stroke-width="1.5" stroke-linecap="round" stroke-linejoin="round" stroke-miterlimit="10" x1="321.6" y1="333.4" x2="321.6" y2="338"/>
			<path fill="#E62843" d="M332.9,341h88.7c1.4,0,2.5-0.9,2.5-2v-1.9c0-1.1-1.1-2-2.5-2h-88.7l-5.7,1.6h-27.1c-1.4,0-2.5,0.9-2.5,2
				v1.9c0,1.1,1.1,2,2.5,2h27.1L332.9,341z"/>
		</g>
		<g>
			
				<rect x="116.2" y="329.7" fill="none" stroke="#000000" stroke-width="2" stroke-linecap="round" stroke-linejoin="round" stroke-miterlimit="10" width="25.8" height="8.2"/>
			
				<line fill="none" stroke="#000000" stroke-width="1.5" stroke-linecap="round" stroke-linejoin="round" stroke-miterlimit="10" x1="138.1" y1="333.4" x2="138.1" y2="338"/>
			
				<line fill="none" stroke="#000000" stroke-width="1.5" stroke-linecap="round" stroke-linejoin="round" stroke-miterlimit="10" x1="134.6" y1="333.4" x2="134.6" y2="338"/>
			
				<line fill="none" stroke="#000000" stroke-width="1.5" stroke-linecap="round" stroke-linejoin="round" stroke-miterlimit="10" x1="131.1" y1="333.4" x2="131.1" y2="338"/>
			
				<line fill="none" stroke="#000000" stroke-width="1.5" stroke-linecap="round" stroke-linejoin="round" stroke-miterlimit="10" x1="127.6" y1="333.4" x2="127.6" y2="338"/>
			
				<line fill="none" stroke="#000000" stroke-width="1.5" stroke-linecap="round" stroke-linejoin="round" stroke-miterlimit="10" x1="124.1" y1="333.4" x2="124.1" y2="338"/>
			
				<line fill="none" stroke="#000000" stroke-width="1.5" stroke-linecap="round" stroke-linejoin="round" stroke-miterlimit="10" x1="120.6" y1="333.4" x2="120.6" y2="338"/>
			<path fill="#E62843" d="M109.3,341H20.6c-1.4,0-2.5-0.9-2.5-2v-1.9c0-1.1,1.1-2,2.5-2h88.7l5.7,1.6h27.1c1.4,0,2.5,0.9,2.5,2v1.9
				c0,1.1-1.1,2-2.5,2h-27.1L109.3,341z"/>
		</g>
	</g>
	<rect x="96.7" y="23" fill="#CBE9F6" width="248.7" height="285"/>
	<g>
		<path fill="#FFD32C" d="M143.2,308H300c0,0,6.9-49.1-15.3-63.4c-22.2-14.3-26.4-19.1-40.2-17.6c-4,3.3-16.3,16.1-16.3,16.1
			l-7.3,35.4l-9.4-27.5l-0.6-19.8l-15.1-4.5c0,0-45,1-54.7,49.8C141.2,286.8,143.2,308,143.2,308z"/>
		<polygon fill="#F7BBB0" points="228.2,240 246.4,227 239.5,211.9 232.7,207.5 201.5,205.3 201.5,222.5 211,231.2 209.5,248.8 
			220.9,278.5 		"/>
		<g>
			
				<path fill="#F7BBB0" stroke="#333333" stroke-width="8" stroke-linecap="round" stroke-linejoin="round" stroke-miterlimit="10" d="
				M259.9,101.6L259.9,101.6c7.4-6.4,6.9-18.6,5.3-13.3S250.4,92,250.4,92l0,0c-7.8-5.9-17.4-9.4-27.9-9.4h-2.9
				c-25.5,0-46.4,20.9-46.4,46.4v33.6c0,25.5,20.9,46.4,46.4,46.4h2.9c25.5,0,46.4-20.9,46.4-46.4V129
				C268.9,118.8,265.6,109.3,259.9,101.6z"/>
			<path fill="#71381D" d="M268.9,134.5c-9.5-29.2-39.5-26.5-39.5-24s9,8.5,14.5,10.9c-12,6.4-22.9,0-22.9,0l-9.1,10.3
				c0,0-23.5-14.2-23.5-9.2s11,18.5,11,18.5c-15-3.5-26.2-12-26.2-12s8.7-46.9,41.4-46.9s35.7,9.9,35.7,9.9s14.8,0.6,14.8-3.7
				c0-4.3-0.9,7.3-5.3,13.3C255.5,107.5,268.9,106.4,268.9,134.5z"/>
			<g>
				
					<path fill="#F7BBB0" stroke="#333333" stroke-width="8" stroke-linecap="round" stroke-linejoin="round" stroke-miterlimit="10" d="
					M279.7,155c-6.2-6.2-10.9,0-10.9,0v8.6c0,6.3-1.3,12.4-3.6,17.9c1.7-1.7,6.5-6.5,12-12C284.1,162.6,279.7,155,279.7,155z"/>
				
					<path fill="#F7BBB0" stroke="#333333" stroke-width="8" stroke-linecap="round" stroke-linejoin="round" stroke-miterlimit="10" d="
					M173.2,163.6v-8.9c-1-1.1-5.2-5.2-10.7,0.3c0,0-4.4,7.6,2.5,14.5c5.2,5.2,9.7,9.7,11.7,11.7
					C174.4,175.7,173.2,169.8,173.2,163.6z"/>
			</g>
			<path fill="none" stroke="#333333" stroke-width="8" stroke-linecap="round" stroke-linejoin="round" stroke-miterlimit="10" d="
				M268.9,134.5c-4.5-25.5-39.5-26.5-39.5-24s9,8.5,14.5,10.9c-12,6.4-22.9,0-22.9,0l-9.1,10.3c0,0-23.5-14.2-23.5-9.2
				s11,18.5,11,18.5c-15-3.5-26.2-12-26.2-12"/>
			
				<path fill="#71381D" stroke="#333333" stroke-width="5" stroke-linecap="round" stroke-linejoin="round" stroke-miterlimit="10" d="
				M220.9,87.3c0,0-0.7-3.2-1.7-4.7c1.5-6.5-1.4-11.4-1.4-11.4c0.9,1.3-0.2,5.4-2.9,6.1c-2.6-2.2-6.2-4.1-11.4-5.2
				c0,0,11.4,15.1,6.5,20.8"/>
			<g>
				<path fill="none" stroke="#333333" stroke-width="3" stroke-linecap="round" stroke-miterlimit="10" d="M232.7,159.4
					c0,0,1.3,4.6,6.8,4.6s6.8-4.6,6.8-4.6"/>
				<path fill="#333333" d="M233.6,149.4c-0.7,1.3-1.1,2.9-0.7,4.6c0.5,2.6,2.6,4.8,5.3,5.3c4.4,0.9,8.2-2.5,8.2-6.7
					c0-0.8-0.2-1.6-0.4-2.4c-0.3-0.7-1.1-1.2-1.9-1c-3.3,0.6-6.2,0.2-8.4-0.6C234.8,148.4,234,148.7,233.6,149.4z"/>
				<path fill="none" stroke="#333333" stroke-width="3" stroke-linecap="round" stroke-miterlimit="10" d="M209.5,159.4
					c0,0-1.3,4.6-6.8,4.6s-6.8-4.6-6.8-4.6"/>
				<path fill="#333333" d="M208.6,149.4c0.7,1.3,1.1,2.9,0.7,4.6c-0.5,2.6-2.6,4.8-5.3,5.3c-4.4,0.9-8.2-2.5-8.2-6.7
					c0-0.8,0.2-1.6,0.4-2.4c0.3-0.7,1.1-1.2,1.9-1c3.3,0.6,6.2,0.2,8.4-0.6C207.4,148.4,208.2,148.7,208.6,149.4z"/>
			</g>
			<g>
				
					<line fill="none" stroke="#333333" stroke-width="6" stroke-linecap="round" stroke-linejoin="round" stroke-miterlimit="10" x1="193" y1="142.1" x2="207.2" y2="140"/>
				
					<line fill="none" stroke="#333333" stroke-width="6" stroke-linecap="round" stroke-linejoin="round" stroke-miterlimit="10" x1="246.4" y1="141.8" x2="232" y2="140"/>
			</g>
			<path fill="none" stroke="#000000" stroke-width="3" stroke-linecap="round" stroke-miterlimit="10" d="M219.3,175"/>
			
				<path fill="#FFFFFF" stroke="#333333" stroke-width="5" stroke-linecap="round" stroke-linejoin="round" stroke-miterlimit="10" d="
				M240.1,189.5h6.3c0-7.4-5.6-14.5-25.3-14.5s-25.3,7.2-25.3,14.5h36.5c0,0,3.2,1.4,2.5,4.6c-0.8,3.2,3.6,3.2,2.8,0
				C236.8,190.9,240.1,189.5,240.1,189.5z"/>
		</g>
		<path fill="none" stroke="#333333" stroke-width="8" stroke-linecap="round" stroke-linejoin="round" stroke-miterlimit="10" d="
			M203.8,207.5l-4,19.5H199c-31.8,0-57.9,26-57.9,57.9V307"/>
		<path fill="none" stroke="#333333" stroke-width="8" stroke-linecap="round" stroke-linejoin="round" stroke-miterlimit="10" d="
			M301,307v-22.1c0-31.8-26-57.9-57.9-57.9h0.2l-5-19.5"/>
		
			<polyline fill="none" stroke="#333333" stroke-width="7" stroke-linecap="round" stroke-linejoin="round" stroke-miterlimit="10" points="
			199,227 214.7,232.5 202.7,248.8 188.3,228 		"/>
		
			<polyline fill="none" stroke="#333333" stroke-width="7" stroke-linecap="round" stroke-linejoin="round" stroke-miterlimit="10" points="
			243.2,227 229.5,237.9 246.4,247 249.5,227.3 		"/>
		
			<polyline fill="none" stroke="#333333" stroke-width="7" stroke-linecap="round" stroke-linejoin="round" stroke-miterlimit="10" points="
			229.5,237.9 224.5,258.8 224,264.8 222.5,287.8 211,254.3 214.7,232.5 		"/>
		<g>
			
				<line fill="none" stroke="#333333" stroke-width="7" stroke-linecap="round" stroke-linejoin="round" stroke-miterlimit="10" x1="169" y1="292" x2="169" y2="307"/>
			
				<line fill="none" stroke="#333333" stroke-width="7" stroke-linecap="round" stroke-linejoin="round" stroke-miterlimit="10" x1="273.2" y1="292" x2="273.2" y2="307"/>
		</g>
		
			<line fill="none" stroke="#333333" stroke-width="7" stroke-linecap="round" stroke-linejoin="round" stroke-miterlimit="10" x1="222.5" y1="287.8" x2="222.5" y2="309"/>
		<circle fill="#333333" cx="234.5" cy="248.8" r="2.2"/>
		<circle fill="#333333" cx="231.5" cy="264.8" r="2.2"/>
		<circle fill="#333333" cx="230.5" cy="280.8" r="2.2"/>
		<circle fill="#333333" cx="230.5" cy="299.8" r="2.2"/>
	</g>
	<path display="none" d="M323.1,601.1l-3.7-14.4c11-4.9,19.9-13.5,25.1-24.3c0,0,0,0,0.1,0l12-12c7.2-7.2,5.2-15.8,3.1-19.3
		c-0.2-0.3-0.4-0.6-0.6-0.8c-2.6-2.6-5.5-3.9-8.4-3.9c-0.4,0-0.8,0-1.2,0.1V507c0-9.7-2.7-18.9-7.9-27c4.6-5.7,5.8-13.4,4.8-16.2
		c-0.6-1.7-2.2-2.8-3.9-2.8c-2.1,0-3.7,1.4-4.5,4.1c-0.4,0.4-2.2,1.2-6.6,1.2c-1.1,0-2.1-0.1-2.8-0.1c-8.6-6.2-18.7-9.5-29.3-9.5
		h-0.4c-0.1-4.3-1.6-7.4-2.1-8.4c-0.1-0.1-0.1-0.3-0.2-0.4c-0.8-1.1-2.3-1.4-3.4-0.7c-1.1,0.7-1.5,2.1-0.9,3.3
		c0,0.4-0.2,1.2-0.6,1.9c-3-2.2-6.7-3.7-11-4.5c-1-0.2-2,0.2-2.6,1.1c-0.6,0.9-0.5,2,0.1,2.8c1.9,2.5,3.3,4.8,4.4,6.8
		c-21.1,6-36.6,25.4-36.6,48.4v19.3c-0.4,0-0.8-0.1-1.2-0.1c-3,0-5.8,1.3-8.4,3.9c-0.2,0.2-0.5,0.5-0.6,0.8c-2,3.6-4,12.2,3.1,19.3
		l11.7,11.7c0.1,0.1,0.2,0.2,0.4,0.3c5.2,10.9,14.2,19.6,25.3,24.5L273,601c-32.9,1.3-59.3,28.5-59.3,61.8V685c0,2.2,1.8,4,4,4
		h159.9c2.2,0,4-1.8,4-4v-22.1C381.6,629.8,355.6,602.8,323.1,601.1z"/>
	
		<line opacity="0.33" fill="none" stroke="#FFFFFF" stroke-width="28" stroke-miterlimit="10" x1="203.5" y1="10" x2="369.1" y2="151.8"/>
	
		<line opacity="0.33" fill="none" stroke="#FFFFFF" stroke-width="28" stroke-miterlimit="10" x1="83.6" y1="60.5" x2="372.8" y2="308"/>
	
		<line opacity="0.33" fill="none" stroke="#FFFFFF" stroke-width="19" stroke-miterlimit="10" x1="85" y1="15.6" x2="360.2" y2="251.1"/>
	<path d="M617,651"/>
	<g>
		<defs>
			<rect id="SVGID_1_" x="96.7" y="23" width="248.7" height="285"/>
		</defs>
		<clipPath id="SVGID_2_">
			<use xlink:href="#SVGID_1_"  overflow="visible"/>
		</clipPath>
		<g opacity="0.57" clip-path="url(#SVGID_2_)">
			<path opacity="0.5" d="M289.3,228.7l-2.2,12.7c11.1,11.2,18,26.6,18,43.5V307c0,0.7-0.2,1.4-0.6,2H395v-2.1
				c0-32.9-25.9-59.9-58.4-61.8l-3.6-16.6c11.9-5.9,21.2-19,24.4-23.6c0,0,0-0.1,0.1-0.1c0.2-0.1,0.4-0.3,0.5-0.5l12-12
				c7.2-7.2,5.2-15.8,3.1-19.3c-0.2-0.3-0.4-0.6-0.6-0.8c-2.6-2.6-5.5-3.9-8.4-3.9c-0.4,0-0.8,0-1.2,0.1V149c0-9.7-2.7-18.9-7.9-27
				c4.6-5.7,5.8-13.4,4.8-16.2c-0.6-1.7-2.2-2.8-3.9-2.8c-2.1,0-3.7,1.4-4.5,4.1c-0.4,0.4-2.2,1.2-6.6,1.2c-1.1,0-2.1-0.1-2.8-0.1
				c-8.6-6.2-18.7-9.5-29.3-9.5h-2.9c-15.3,0-29.1,6.9-38.3,17.7c1.1,4.1,1.6,8.3,1.6,12.6v19.3c0.4,0,0.8-0.1,1.2-0.1
				c3,0,5.8,1.3,8.4,3.9c0.2,0.2,0.5,0.5,0.6,0.8c2,3.6,4,12.2-3.1,19.3l-12,12c0,0,0,0-0.1,0c-2.4,5-5.6,9.5-9.4,13.4l4.8,4.8
				C268.5,214.2,277.8,223.6,289.3,228.7z"/>
			<path opacity="0.5" d="M36.7,309h101c-0.3-0.6-0.6-1.3-0.6-2v-22.1c0-11.2,3-21.7,8.3-30.8l-3.4-15.5c11.9-5.9,21.2-19,24.4-23.6
				c0,0,0-0.1,0.1-0.1c0.2-0.1,0.4-0.3,0.5-0.5l12-12c1.7-1.7,2.9-3.6,3.7-5.4c-3.5-3.7-6.4-8-8.6-12.6c-0.1-0.1-0.3-0.2-0.4-0.3
				l-11.7-11.7c-7.1-7.2-5.2-15.8-3.1-19.3c0.2-0.3,0.4-0.6,0.6-0.8c2.6-2.6,5.5-3.9,8.4-3.9c0.4,0,0.8,0,1.2,0.1v-5.4
				c-1.3-3.8-3.1-7.5-5.3-10.9c-4-6.7-12.4-13.8-13.1-13.8c-8.6-6.2-18.7-9.5-29.3-9.5h-2.9c-27.8,0-50.4,22.6-50.4,50.4v19.2
				c-3-0.1-6,1.3-8.6,3.9c-0.2,0.2-0.5,0.5-0.6,0.8c-2,3.6-4,12.2,3.1,19.3l10.3,10.3c5.1,11.6,14.3,20.9,25.9,26.1l-2.9,16.4
				C65.1,256.3,40.4,279.4,36.7,309z"/>
		</g>
	</g>
	<g>
		<line fill="none" stroke="#333333" stroke-width="7" stroke-miterlimit="10" x1="158.3" y1="444" x2="283.8" y2="444"/>
		<g>
			<ellipse fill="none" stroke="#333333" stroke-width="4" stroke-miterlimit="10" cx="293.5" cy="444" rx="11" ry="7"/>
			<ellipse fill="none" stroke="#333333" stroke-width="4" stroke-miterlimit="10" cx="148.7" cy="444" rx="11" ry="7"/>
		</g>
		<path fill="#FFD32C" stroke="#333333" stroke-width="3" stroke-miterlimit="10" d="M291.1,445.3c0,0-0.1-3.3,3.3-3
			c3.4,0.3,5-0.6,5-0.6s5.3-2.9,7.3,1.2c2,4.1-6.9,7.7-6.9,7.7s-4.6,1.6-3.6,4.8s-1.6,2.6-1.6,2.6s-2-0.2-0.9-2.6
			c1-2.3-1.3-4.7-1.3-4.7S290.4,448.8,291.1,445.3z"/>
	</g>
	
		<polyline fill="none" stroke="#333333" stroke-width="8" stroke-linecap="round" stroke-linejoin="round" stroke-miterlimit="10" points="
		345.5,308 345.5,23 96.7,23 96.7,308 	"/>
</g>
<g id="Layer_1" display="none">
	<g display="inline">
		<path d="M257.9,414.9l-11.3,11.3l13.4,13.4h-9.2l-8.8-8.8l-1.6,1.6v7.2H234v-24.8h6.5v8.4l8.3-8.4H257.9z"/>
		<path d="M272.5,414.9c6.8,0,12.4,5.6,12.4,12.4c0,6.8-5.5,12.3-12.4,12.3s-12.3-5.5-12.3-12.3
			C260.2,420.5,265.7,414.9,272.5,414.9z M272.5,421.4c-3.2,0-5.9,2.6-5.9,5.9c0,3.2,2.6,5.9,5.9,5.9c3.3,0,5.9-2.7,5.9-5.9
			C278.4,424,275.8,421.4,272.5,421.4z"/>
		<path d="M302.4,424.1l10.1-9.2h2.9v24.8h-6.5V427l-6.5,5.9l-6.5-5.9v12.7h-6.5v-24.8h2.9L302.4,424.1z"/>
		<path d="M320.4,414.9h15.4v5.4h-8.9v4h7.9v5.5h-7.9v4.6h8.9v5.3h-15.4V414.9z"/>
		<path d="M358.6,439.7L347,427.9v11.7h-6.5v-24.8h2.6l11.7,11.7v-11.7h6.5v24.8H358.6z"/>
		<path d="M116.2,451.3c15.9,0,28.9,13,28.9,29c0,15.9-12.9,28.8-28.9,28.8s-28.8-12.9-28.8-28.8
			C87.4,464.3,100.3,451.3,116.2,451.3z M116.2,466.4c-7.5,0-13.7,6.2-13.7,13.8c0,7.5,6.2,13.8,13.7,13.8c7.6,0,13.8-6.2,13.8-13.8
			C130,472.6,123.9,466.4,116.2,466.4z"/>
		<path d="M155.7,451.3H180c11.7,0,21.3,9.5,21.3,21.3c0,11.6-9.5,21.2-20.9,21.2h-9.5v15.3h-15.2V451.3z M170.8,480.7h9.4
			c4.6,0,8.3-3.6,8.3-8.2c0-4.6-3.7-8.3-8.3-8.3h-9.4V480.7z"/>
		<path d="M230.6,469c0-2.4-2-4.4-4.4-4.4s-4.3,2-4.3,4.4s1.9,4.3,4.3,4.3c5.6,0,10.7,2.7,13.9,6.9c2.5,3.1,3.9,6.9,3.9,11.2
			c0,9.9-7.9,17.7-17.8,17.7s-17.8-7.8-17.8-17.9h13.5c0,2.5,1.9,4.4,4.3,4.4s4.4-1.9,4.4-4.3s-2-4.4-4.4-4.4
			c-9.9,0-17.7-7.9-17.7-17.7s7.9-17.8,17.7-17.8S244,459.2,244,469H230.6z"/>
		<path d="M253.6,451.2h45.5v15.1h-15.3v42.7h-15.2v-42.7h-15V451.2z"/>
		<path d="M301.5,509.1l26.9-57.7h6.9l27.2,57.7h-15.2l-3.5-7.5h-23.6l-3.5,7.5H301.5z M326.1,488.7h11.8L332,476L326.1,488.7z"/>
		<path d="M366.3,509.1l26.9-57.7h6.9l27.2,57.7h-15.2l-3.5-7.5H385l-3.5,7.5H366.3z M390.9,488.7h11.8l-5.9-12.7L390.9,488.7z"/>
		<path d="M477.4,509.1l-27.3-27.3v27.3H435v-57.7h6.2l27.3,27.3v-27.3h15.2v57.7H477.4z"/>
		<path d="M494.8,451.3H507v42.3h-12.2V451.3z M500.9,496.8c3.4,0,6.1,2.8,6.1,6.2s-2.7,6.1-6.1,6.1s-6.1-2.7-6.1-6.1
			S497.5,496.8,500.9,496.8z"/>
	</g>
	<g display="inline">
		<g>
			<path d="M406.7,433.6H506c1.5,0,2.8-1,2.8-2.2v-2.1c0-1.2-1.3-2.2-2.8-2.2h-99.4l-6.3,1.8h-30.4c-1.5,0-2.8,1-2.8,2.2v2.1
				c0,1.2,1.3,2.2,2.8,2.2h30.4L406.7,433.6z"/>
			
				<rect x="370" y="420.9" fill="none" stroke="#000000" stroke-width="2" stroke-linecap="round" stroke-linejoin="round" stroke-miterlimit="10" width="28.9" height="9.2"/>
			
				<line fill="none" stroke="#000000" stroke-width="1.5" stroke-linecap="round" stroke-linejoin="round" stroke-miterlimit="10" x1="374.4" y1="425" x2="374.4" y2="430.2"/>
			
				<line fill="none" stroke="#000000" stroke-width="1.5" stroke-linecap="round" stroke-linejoin="round" stroke-miterlimit="10" x1="378.3" y1="425" x2="378.3" y2="430.2"/>
			
				<line fill="none" stroke="#000000" stroke-width="1.5" stroke-linecap="round" stroke-linejoin="round" stroke-miterlimit="10" x1="382.2" y1="425" x2="382.2" y2="430.2"/>
			
				<line fill="none" stroke="#000000" stroke-width="1.5" stroke-linecap="round" stroke-linejoin="round" stroke-miterlimit="10" x1="386.1" y1="425" x2="386.1" y2="430.2"/>
			
				<line fill="none" stroke="#000000" stroke-width="1.5" stroke-linecap="round" stroke-linejoin="round" stroke-miterlimit="10" x1="390" y1="425" x2="390" y2="430.2"/>
			
				<line fill="none" stroke="#000000" stroke-width="1.5" stroke-linecap="round" stroke-linejoin="round" stroke-miterlimit="10" x1="394" y1="425" x2="394" y2="430.2"/>
		</g>
		<g>
			<path d="M188.6,433.6H89.3c-1.5,0-2.8-1-2.8-2.2v-2.1c0-1.2,1.3-2.2,2.8-2.2h99.4l6.3,1.8h30.4c1.5,0,2.8,1,2.8,2.2v2.1
				c0,1.2-1.3,2.2-2.8,2.2H195L188.6,433.6z"/>
			
				<rect x="196.3" y="420.9" fill="none" stroke="#000000" stroke-width="2" stroke-linecap="round" stroke-linejoin="round" stroke-miterlimit="10" width="28.9" height="9.2"/>
			
				<line fill="none" stroke="#000000" stroke-width="1.5" stroke-linecap="round" stroke-linejoin="round" stroke-miterlimit="10" x1="220.9" y1="425" x2="220.9" y2="430.2"/>
			
				<line fill="none" stroke="#000000" stroke-width="1.5" stroke-linecap="round" stroke-linejoin="round" stroke-miterlimit="10" x1="217" y1="425" x2="217" y2="430.2"/>
			
				<line fill="none" stroke="#000000" stroke-width="1.5" stroke-linecap="round" stroke-linejoin="round" stroke-miterlimit="10" x1="213.1" y1="425" x2="213.1" y2="430.2"/>
			
				<line fill="none" stroke="#000000" stroke-width="1.5" stroke-linecap="round" stroke-linejoin="round" stroke-miterlimit="10" x1="209.2" y1="425" x2="209.2" y2="430.2"/>
			
				<line fill="none" stroke="#000000" stroke-width="1.5" stroke-linecap="round" stroke-linejoin="round" stroke-miterlimit="10" x1="205.2" y1="425" x2="205.2" y2="430.2"/>
			
				<line fill="none" stroke="#000000" stroke-width="1.5" stroke-linecap="round" stroke-linejoin="round" stroke-miterlimit="10" x1="201.3" y1="425" x2="201.3" y2="430.2"/>
		</g>
	</g>
	<g display="inline">
		<path fill="none" stroke="#000000" stroke-width="8" stroke-linecap="round" stroke-linejoin="round" stroke-miterlimit="10" d="
			M280.3,302.5l-4,19.5h-0.8c-31.8,0-57.9,26-57.9,57.9V402"/>
		<path fill="none" stroke="#000000" stroke-width="8" stroke-linecap="round" stroke-linejoin="round" stroke-miterlimit="10" d="
			M377.6,402v-22.1c0-31.8-26-57.9-57.9-57.9h0.2l-5-19.5"/>
		<g>
			<g>
				
					<path fill="none" stroke="#000000" stroke-width="8" stroke-linecap="round" stroke-linejoin="round" stroke-miterlimit="10" d="
					M356.3,250c-6.2-6.2-10.9,0-10.9,0v8.6c0,6.3-1.3,12.4-3.6,17.9c1.7-1.7,6.5-6.5,12-12C360.7,257.6,356.3,250,356.3,250z"/>
				
					<path fill="none" stroke="#000000" stroke-width="8" stroke-linecap="round" stroke-linejoin="round" stroke-miterlimit="10" d="
					M249.7,258.6v-8.9c-1-1.1-5.2-5.2-10.7,0.3c0,0-4.4,7.6,2.5,14.5c5.2,5.2,9.7,9.7,11.7,11.7
					C250.9,270.7,249.7,264.8,249.7,258.6z"/>
			</g>
			<path fill="none" stroke="#000000" stroke-width="8" stroke-linecap="round" stroke-linejoin="round" stroke-miterlimit="10" d="
				M249.8,224c0,0,11.2,8.5,26.2,12c0,0-11-13.5-11-18.5s23.5,9.2,23.5,9.2l9.1-10.3c0,0,10.9,6.4,22.9,0C315,214,306,208,306,205.5
				s34.9-1.5,39.5,24"/>
			<path fill="none" stroke="#000000" stroke-width="8" stroke-linecap="round" stroke-linejoin="round" stroke-miterlimit="10" d="
				M336.4,196.6L336.4,196.6c7.4-6.4,6.9-18.6,5.3-13.3S327,187,327,187l0,0c-7.8-5.9-17.4-9.4-27.9-9.4h-2.9
				c-25.5,0-46.4,20.9-46.4,46.4v33.6c0,25.5,20.9,46.4,46.4,46.4h2.9c25.5,0,46.4-20.9,46.4-46.4V224
				C345.5,213.8,342.1,204.3,336.4,196.6z"/>
			
				<path fill="#FFFFFF" stroke="#000000" stroke-width="5" stroke-linecap="round" stroke-linejoin="round" stroke-miterlimit="10" d="
				M297.4,182.3c0,0-0.7-3.2-1.7-4.7c1.5-6.5-1.4-11.4-1.4-11.4c0.9,1.3-0.2,5.4-2.9,6.1c-2.6-2.2-6.2-4.1-11.4-5.2
				c0,0,11.4,15.1,6.5,20.8"/>
			<g>
				<path fill="none" stroke="#000000" stroke-width="3" stroke-linecap="round" stroke-miterlimit="10" d="M309.3,254.4
					c0,0,1.3,4.6,6.8,4.6c5.5,0,6.8-4.6,6.8-4.6"/>
				<path d="M310.1,244.4c-0.7,1.3-1.1,2.9-0.7,4.6c0.5,2.6,2.6,4.8,5.3,5.3c4.4,0.9,8.2-2.5,8.2-6.7c0-0.8-0.2-1.6-0.4-2.4
					c-0.3-0.7-1.1-1.2-1.9-1c-3.3,0.6-6.2,0.2-8.4-0.6C311.4,243.4,310.5,243.7,310.1,244.4z"/>
				<path fill="none" stroke="#000000" stroke-width="3" stroke-linecap="round" stroke-miterlimit="10" d="M286,254.4
					c0,0-1.3,4.6-6.8,4.6c-5.5,0-6.8-4.6-6.8-4.6"/>
				<path d="M285.2,244.4c0.7,1.3,1.1,2.9,0.7,4.6c-0.5,2.6-2.6,4.8-5.3,5.3c-4.4,0.9-8.2-2.5-8.2-6.7c0-0.8,0.2-1.6,0.4-2.4
					c0.3-0.7,1.1-1.2,1.9-1c3.3,0.6,6.2,0.2,8.4-0.6C283.9,243.4,284.8,243.7,285.2,244.4z"/>
			</g>
			<g>
				
					<line fill="none" stroke="#000000" stroke-width="6" stroke-linecap="round" stroke-linejoin="round" stroke-miterlimit="10" x1="269.5" y1="237.1" x2="283.8" y2="235"/>
				
					<line fill="none" stroke="#000000" stroke-width="6" stroke-linecap="round" stroke-linejoin="round" stroke-miterlimit="10" x1="322.9" y1="236.8" x2="308.5" y2="235"/>
			</g>
			<path fill="none" stroke="#000000" stroke-width="3" stroke-linecap="round" stroke-miterlimit="10" d="M295.9,270"/>
			<path fill="none" stroke="#000000" stroke-width="5" stroke-linecap="round" stroke-linejoin="round" stroke-miterlimit="10" d="
				M316.6,284.5h6.3c0-7.4-5.6-14.5-25.3-14.5s-25.3,7.2-25.3,14.5h36.5c0,0,3.2,1.4,2.5,4.6c-0.8,3.2,3.6,3.2,2.8,0
				C313.4,285.9,316.6,284.5,316.6,284.5z"/>
		</g>
		
			<polyline fill="none" stroke="#000000" stroke-width="7" stroke-linecap="round" stroke-linejoin="round" stroke-miterlimit="10" points="
			275.6,322 291.2,327.5 279.2,343.7 264.9,323 		"/>
		
			<polyline fill="none" stroke="#000000" stroke-width="7" stroke-linecap="round" stroke-linejoin="round" stroke-miterlimit="10" points="
			319.7,322 306,332.9 322.9,342 326,322.3 		"/>
		
			<polyline fill="none" stroke="#000000" stroke-width="7" stroke-linecap="round" stroke-linejoin="round" stroke-miterlimit="10" points="
			306,332.9 301,353.7 299,382.7 287.5,349.2 291.2,327.5 		"/>
		<g>
			
				<line fill="none" stroke="#000000" stroke-width="7" stroke-linecap="round" stroke-linejoin="round" stroke-miterlimit="10" x1="245.5" y1="387" x2="245.5" y2="402"/>
			
				<line fill="none" stroke="#000000" stroke-width="7" stroke-linecap="round" stroke-linejoin="round" stroke-miterlimit="10" x1="349.8" y1="387" x2="349.8" y2="402"/>
		</g>
		
			<line fill="none" stroke="#000000" stroke-width="7" stroke-linecap="round" stroke-linejoin="round" stroke-miterlimit="10" x1="299" y1="382.7" x2="299" y2="404"/>
		<circle cx="311" cy="343.7" r="2.2"/>
		<circle cx="308" cy="359.8" r="2.2"/>
		<circle cx="307" cy="375.8" r="2.2"/>
		<circle cx="307" cy="394.8" r="2.2"/>
	</g>
	<path d="M323.1,318.1l-3.7-14.4c11-4.9,19.9-13.5,25.1-24.3c0,0,0,0,0.1,0l12-12c7.2-7.2,5.2-15.8,3.1-19.3
		c-0.2-0.3-0.4-0.6-0.6-0.8c-2.6-2.6-5.5-3.9-8.4-3.9c-0.4,0-0.8,0-1.2,0.1V224c0-9.7-2.7-18.9-7.9-27c4.6-5.7,5.8-13.4,4.8-16.2
		c-0.6-1.7-2.2-2.8-3.9-2.8c-2.1,0-3.7,1.4-4.5,4.1c-0.4,0.4-2.2,1.2-6.6,1.2c-1.1,0-2.1-0.1-2.8-0.1c-8.6-6.2-18.7-9.5-29.3-9.5
		h-0.4c-0.1-4.3-1.6-7.4-2.1-8.4c-0.1-0.1-0.1-0.3-0.2-0.4c-0.8-1.1-2.3-1.4-3.4-0.7c-1.1,0.7-1.5,2.1-0.9,3.3
		c0,0.4-0.2,1.2-0.6,1.9c-3-2.2-6.7-3.7-11-4.5c-1-0.2-2,0.2-2.6,1.1c-0.6,0.9-0.5,2,0.1,2.8c1.9,2.5,3.3,4.8,4.4,6.8
		c-21.1,6-36.6,25.4-36.6,48.4v19.3c-0.4,0-0.8-0.1-1.2-0.1c-3,0-5.8,1.3-8.4,3.9c-0.2,0.2-0.5,0.5-0.6,0.8c-2,3.6-4,12.2,3.1,19.3
		l11.7,11.7c0.1,0.1,0.2,0.2,0.4,0.3c5.2,10.9,14.2,19.6,25.3,24.5l-2.9,14.3c-32.9,1.3-59.3,28.5-59.3,61.8V402c0,2.2,1.8,4,4,4
		h159.9c2.2,0,4-1.8,4-4v-22.1C381.6,346.9,355.6,319.8,323.1,318.1z"/>
	
		<line display="inline" opacity="0.33" fill="none" stroke="#FFFFFF" stroke-width="28" stroke-miterlimit="10" x1="280" y1="112" x2="445.7" y2="253.8"/>
	
		<line display="inline" opacity="0.33" fill="none" stroke="#FFFFFF" stroke-width="28" stroke-miterlimit="10" x1="160.1" y1="162.5" x2="449.3" y2="410"/>
	
		<line display="inline" opacity="0.33" fill="none" stroke="#FFFFFF" stroke-width="19" stroke-miterlimit="10" x1="161.5" y1="117.6" x2="436.7" y2="353.1"/>
	
		<polyline display="inline" fill="none" stroke="#000000" stroke-width="8" stroke-linecap="round" stroke-linejoin="round" stroke-miterlimit="10" points="
		422,410 422,125 173.3,125 173.3,410 	"/>
	<path display="inline" d="M617,368"/>
	<g display="inline">
		<defs>
			<rect id="SVGID_3_" x="173.3" y="125" width="248.7" height="285"/>
		</defs>
		<clipPath id="SVGID_4_">
			<use xlink:href="#SVGID_3_"  overflow="visible"/>
		</clipPath>
		<g clip-path="url(#SVGID_4_)">
			<path opacity="0.5" d="M365.8,323.7l-2.2,12.7c11.1,11.2,18,26.6,18,43.5V402c0,0.7-0.2,1.4-0.6,2h90.6v-2.1
				c0-32.9-25.9-59.9-58.4-61.8l-3.6-16.6c11.9-5.9,21.2-19,24.4-23.6c0,0,0-0.1,0.1-0.1c0.2-0.1,0.4-0.3,0.5-0.5l12-12
				c7.2-7.2,5.2-15.8,3.1-19.3c-0.2-0.3-0.4-0.6-0.6-0.8c-2.6-2.6-5.5-3.9-8.4-3.9c-0.4,0-0.8,0-1.2,0.1V244c0-9.7-2.7-18.9-7.9-27
				c4.6-5.7,5.8-13.4,4.8-16.2c-0.6-1.7-2.2-2.8-3.9-2.8c-2.1,0-3.7,1.4-4.5,4.1c-0.4,0.4-2.2,1.2-6.6,1.2c-1.1,0-2.1-0.1-2.8-0.1
				c-8.6-6.2-18.7-9.5-29.3-9.5h-2.9c-15.3,0-29.1,6.9-38.3,17.7c1.1,4.1,1.6,8.3,1.6,12.6v19.3c0.4,0,0.8-0.1,1.2-0.1
				c3,0,5.8,1.3,8.4,3.9c0.2,0.2,0.5,0.5,0.6,0.8c2,3.6,4,12.2-3.1,19.3l-12,12c0,0,0,0-0.1,0c-2.4,5-5.6,9.5-9.4,13.4l4.8,4.8
				C345,309.2,354.3,318.6,365.8,323.7z"/>
			<path opacity="0.5" d="M113.2,404h101c-0.3-0.6-0.6-1.3-0.6-2v-22.1c0-11.2,3-21.7,8.3-30.8l-3.4-15.5
				c11.9-5.9,21.2-19,24.4-23.6c0,0,0-0.1,0.1-0.1c0.2-0.1,0.4-0.3,0.5-0.5l12-12c1.7-1.7,2.9-3.6,3.7-5.4c-3.5-3.7-6.4-8-8.6-12.6
				c-0.1-0.1-0.3-0.2-0.4-0.3l-11.7-11.7c-7.1-7.2-5.2-15.8-3.1-19.3c0.2-0.3,0.4-0.6,0.6-0.8c2.6-2.6,5.5-3.9,8.4-3.9
				c0.4,0,0.8,0,1.2,0.1v-5.4c-1.3-3.8-3.1-7.5-5.3-10.9c-4-6.7-12.4-13.8-13.1-13.8c-8.6-6.2-18.7-9.5-29.3-9.5h-2.9
				c-27.8,0-50.4,22.6-50.4,50.4v19.2c-3-0.1-6,1.3-8.6,3.9c-0.2,0.2-0.5,0.5-0.6,0.8c-2,3.6-4,12.2,3.1,19.3l10.3,10.3
				c5.1,11.6,14.3,20.9,25.9,26.1l-2.9,16.4C141.7,351.3,117,374.4,113.2,404z"/>
		</g>
	</g>
	
		<line display="inline" fill="none" stroke="#000000" stroke-width="7" stroke-miterlimit="10" x1="234.9" y1="534" x2="360.4" y2="534"/>
	<g display="inline">
		<ellipse fill="none" stroke="#000000" stroke-width="4" stroke-miterlimit="10" cx="370.1" cy="534" rx="11" ry="7"/>
		<ellipse fill="none" stroke="#000000" stroke-width="4" stroke-miterlimit="10" cx="225.2" cy="534" rx="11" ry="7"/>
	</g>
	<path display="inline" fill="#FFFFFF" stroke="#000000" stroke-width="2" stroke-miterlimit="10" d="M367.6,535.3
		c0,0-0.1-3.3,3.3-3c3.4,0.3,5-0.6,5-0.6s5.3-2.9,7.3,1.2c2,4.1-6.9,7.7-6.9,7.7s-4.6,1.6-3.6,4.8s-1.6,2.6-1.6,2.6s-2-0.2-0.9-2.6
		c1-2.3-1.3-4.7-1.3-4.7S366.9,538.8,367.6,535.3z"/>
</g>
</svg>
