<?xml version="1.0" encoding="utf-8"?>
<!-- Generator: Adobe Illustrator 18.1.1, SVG Export Plug-In . SVG Version: 6.00 Build 0)  -->
<svg version="1.1" id="Isolation_Mode" xmlns="http://www.w3.org/2000/svg" xmlns:xlink="http://www.w3.org/1999/xlink" x="0px"
	 y="0px" viewBox="0 0 595.3 454" enable-background="new 0 0 595.3 454" xml:space="preserve">
<line fill="none" stroke="#121625" stroke-width="3" stroke-miterlimit="10" x1="35.3" y1="110.8" x2="566.2" y2="111.8"/>
<path fill="none" stroke="#121625" stroke-width="11" stroke-linejoin="round" stroke-miterlimit="10" d="M555.8,418.8H48.9
	c-6.6,0-12-5.4-12-12V47.2c0-6.6,5.4-12,12-12h506.9c6.6,0,12,5.4,12,12v359.7C567.8,413.4,562.4,418.8,555.8,418.8z"/>
<g>
	<path fill="#EB5D12" d="M79.9,85.4c0,1.2-0.2,2.3-0.7,3.3c-0.5,1-1.1,2-1.9,2.7s-1.7,1.4-2.8,1.8c-1.1,0.4-2.2,0.7-3.4,0.7h-2.5
		c-1.2,0-2.3-0.2-3.4-0.7c-1.1-0.4-2-1.1-2.8-1.8s-1.4-1.7-1.9-2.7c-0.5-1-0.7-2.2-0.7-3.3V84l3.1-0.5v1.9c0,0.8,0.2,1.5,0.5,2.2
		c0.3,0.7,0.7,1.3,1.3,1.8s1.2,0.9,1.9,1.2S68,91,68.7,91h2.2c0.8,0,1.5-0.1,2.2-0.4c0.7-0.3,1.3-0.7,1.9-1.2s1-1.1,1.3-1.8
		c0.3-0.7,0.5-1.4,0.5-2.2v-1c0-1.2-0.2-2.2-0.7-3c-0.5-0.8-1.1-1.5-1.9-2s-1.7-1-2.6-1.4c-1-0.4-2-0.8-3-1.2c-1-0.4-2.1-0.8-3-1.3
		c-1-0.5-1.9-1.1-2.6-1.8s-1.4-1.6-1.9-2.6c-0.5-1-0.7-2.3-0.7-3.8v-0.7c0-1.2,0.2-2.3,0.7-3.3c0.4-1,1.1-2,1.8-2.7s1.7-1.4,2.7-1.8
		c1-0.4,2.2-0.7,3.4-0.7h2.2c1.2,0,2.3,0.2,3.3,0.7c1,0.4,2,1.1,2.7,1.8s1.4,1.7,1.8,2.7c0.4,1,0.7,2.2,0.7,3.3v0.9L76.5,68v-1.4
		c0-0.8-0.1-1.5-0.4-2.2c-0.3-0.7-0.7-1.3-1.2-1.8c-0.5-0.5-1.1-0.9-1.8-1.2c-0.7-0.3-1.4-0.4-2.2-0.4h-2c-0.8,0-1.5,0.1-2.2,0.4
		c-0.7,0.3-1.3,0.7-1.8,1.2c-0.5,0.5-0.9,1.1-1.2,1.8c-0.3,0.7-0.4,1.4-0.4,2.2v0.7c0,1.1,0.2,2.1,0.7,2.8c0.5,0.8,1.1,1.4,1.9,2
		c0.8,0.5,1.7,1,2.6,1.4c1,0.4,2,0.8,3,1.2c1,0.4,2.1,0.9,3,1.4c1,0.5,1.9,1.1,2.6,1.8c0.8,0.7,1.4,1.6,1.9,2.6
		c0.5,1,0.7,2.3,0.7,3.8V85.4z"/>
	<path fill="#EB5D12" d="M95.2,61.5v32H92v-32h-8.3v-3h19.8v3H95.2z"/>
	<path fill="#EB5D12" d="M120.2,85.3h-11.1l-2.3,8.2h-3.3l10.3-35h1.7l10.3,35h-3.2L120.2,85.3z M110,82.3h9.4l-4.6-16.1l-0.1-1.3
		l-0.1,1.3L110,82.3z"/>
	<path fill="#EB5D12" d="M149.3,74.8c-0.4,1-1.1,2-1.8,2.7s-1.7,1.4-2.7,1.8c-1,0.4-2.2,0.7-3.4,0.7h-7.9v13.5h-3.1v-35h11.1
		c1.2,0,2.3,0.2,3.4,0.7c1,0.4,2,1.1,2.7,1.8s1.4,1.7,1.8,2.7c0.4,1,0.7,2.2,0.7,3.4v4.3C149.9,72.6,149.7,73.8,149.3,74.8z
		 M146.8,67.1c0-0.8-0.1-1.5-0.4-2.2c-0.3-0.7-0.7-1.3-1.2-1.8s-1.1-0.9-1.8-1.2c-0.7-0.3-1.4-0.4-2.2-0.4h-7.8V77h7.8
		c0.8,0,1.5-0.1,2.2-0.4c0.7-0.3,1.3-0.7,1.8-1.2c0.5-0.5,0.9-1.1,1.2-1.8c0.3-0.7,0.4-1.4,0.4-2.2V67.1z"/>
	<path fill="#EB5D12" d="M185,88.7c-0.4,1-1.1,2-1.8,2.7s-1.7,1.4-2.7,1.8c-1,0.4-2.2,0.7-3.3,0.7h-1.5c-1.2,0-2.3-0.2-3.4-0.7
		s-2-1.1-2.7-1.8s-1.4-1.7-1.8-2.7c-0.4-1-0.7-2.2-0.7-3.3v-0.9l3.1-0.5v1.4c0,0.8,0.1,1.5,0.4,2.2c0.3,0.7,0.7,1.3,1.2,1.8
		s1.1,0.9,1.8,1.2c0.7,0.3,1.4,0.4,2.2,0.4h1.2c0.8,0,1.5-0.1,2.2-0.4c0.7-0.3,1.3-0.7,1.8-1.2c0.5-0.5,0.9-1.1,1.2-1.8
		c0.3-0.7,0.4-1.4,0.4-2.2v-2.9c0-0.8-0.1-1.5-0.4-2.2c-0.3-0.7-0.7-1.3-1.2-1.8c-0.5-0.5-1.1-0.9-1.8-1.2c-0.7-0.3-1.4-0.4-2.2-0.4
		h-2.3v-3h2.3c0.8,0,1.5-0.1,2.2-0.4c0.7-0.3,1.3-0.7,1.8-1.2c0.5-0.5,0.9-1.1,1.2-1.8c0.3-0.7,0.4-1.4,0.4-2.2v-1.7
		c0-0.8-0.1-1.5-0.4-2.2c-0.3-0.7-0.7-1.3-1.2-1.8c-0.5-0.5-1.1-0.9-1.8-1.2c-0.7-0.3-1.4-0.4-2.2-0.4h-1.2c-0.8,0-1.5,0.1-2.2,0.4
		c-0.7,0.3-1.3,0.7-1.8,1.2c-0.5,0.5-0.9,1.1-1.2,1.8c-0.3,0.7-0.4,1.4-0.4,2.2V68l-3.1-0.5v-0.9c0-1.2,0.2-2.3,0.7-3.3
		c0.4-1,1.1-2,1.8-2.7s1.7-1.4,2.7-1.8c1-0.4,2.2-0.7,3.4-0.7h1.5c1.2,0,2.3,0.2,3.3,0.7c1,0.4,2,1.1,2.7,1.8s1.4,1.7,1.8,2.7
		c0.4,1,0.7,2.2,0.7,3.3v1.2c0,0.8-0.1,1.6-0.3,2.4s-0.5,1.5-0.9,2.1c-0.4,0.7-0.9,1.2-1.4,1.8c-0.6,0.5-1.2,1-1.9,1.4
		c0.7,0.4,1.3,0.8,1.9,1.3c0.6,0.5,1,1.1,1.4,1.8c0.4,0.7,0.7,1.4,0.9,2.1s0.3,1.6,0.3,2.4v2.4C185.6,86.6,185.4,87.7,185,88.7z"/>
	<path fill="#EB5D12" d="M192.6,72.3v-3.8h3.8v3.8H192.6z M192.6,93.5v-3.8h3.8v3.8H192.6z"/>
</g>
<rect x="315.3" y="49.4" fill="#EE7411" width="237" height="50.7"/>
<g>
	<path fill="#FFFFFF" d="M344.1,85.7c-0.4,0.8-0.8,1.6-1.5,2.2s-1.4,1.1-2.2,1.5c-0.8,0.4-1.7,0.5-2.7,0.5h-8.9v-28h8.9
		c1,0,1.8,0.2,2.7,0.5c0.8,0.4,1.6,0.8,2.2,1.5s1.1,1.4,1.5,2.2c0.4,0.8,0.5,1.7,0.5,2.7V83C344.6,84,344.4,84.8,344.1,85.7z
		 M342.1,68.8c0-0.6-0.1-1.2-0.4-1.7c-0.2-0.5-0.6-1-1-1.4s-0.9-0.7-1.4-1c-0.5-0.2-1.1-0.4-1.7-0.4h-6.2v23.2h6.2
		c0.6,0,1.2-0.1,1.7-0.4c0.5-0.2,1-0.6,1.4-1c0.4-0.4,0.7-0.9,1-1.4c0.2-0.5,0.4-1.1,0.4-1.7V68.8z"/>
	<path fill="#FFFFFF" d="M350.6,89.9v-28h15.8v2.4h-13.2v10.4h10.7v2.4h-10.7v10.4h13.2v2.4H350.6z"/>
	<path fill="#FFFFFF" d="M395.7,83.4c0,1-0.2,1.8-0.6,2.7c-0.4,0.8-0.9,1.6-1.5,2.2s-1.4,1.1-2.2,1.5c-0.9,0.4-1.8,0.5-2.7,0.5h-2
		c-1,0-1.9-0.2-2.7-0.5c-0.9-0.4-1.6-0.8-2.2-1.5s-1.2-1.4-1.5-2.2c-0.4-0.8-0.6-1.7-0.6-2.7v-1.1l2.5-0.4v1.5
		c0,0.6,0.1,1.2,0.4,1.7c0.3,0.5,0.6,1,1,1.4s0.9,0.7,1.5,1s1.2,0.4,1.8,0.4h1.8c0.6,0,1.2-0.1,1.8-0.4c0.6-0.2,1.1-0.6,1.5-1
		s0.8-0.9,1-1.4c0.3-0.5,0.4-1.1,0.4-1.7v-0.8c0-1-0.2-1.8-0.6-2.4c-0.4-0.6-0.9-1.2-1.5-1.6s-1.3-0.8-2.1-1.1
		c-0.8-0.3-1.6-0.6-2.4-0.9c-0.8-0.3-1.6-0.7-2.4-1c-0.8-0.4-1.5-0.8-2.1-1.4s-1.1-1.3-1.5-2.1c-0.4-0.8-0.6-1.8-0.6-3v-0.5
		c0-1,0.2-1.8,0.5-2.7c0.4-0.8,0.8-1.6,1.5-2.2s1.4-1.1,2.2-1.5c0.8-0.4,1.7-0.5,2.7-0.5h1.8c1,0,1.8,0.2,2.7,0.5
		c0.8,0.4,1.6,0.8,2.2,1.5s1.1,1.4,1.5,2.2c0.4,0.8,0.5,1.7,0.5,2.7v0.7l-2.5,0.4v-1.1c0-0.6-0.1-1.2-0.4-1.7c-0.2-0.5-0.6-1-1-1.4
		c-0.4-0.4-0.9-0.7-1.4-1c-0.5-0.2-1.1-0.4-1.7-0.4H387c-0.6,0-1.2,0.1-1.7,0.4c-0.5,0.2-1,0.6-1.4,1c-0.4,0.4-0.7,0.9-1,1.4
		c-0.2,0.5-0.4,1.1-0.4,1.7v0.5c0,0.9,0.2,1.7,0.6,2.3c0.4,0.6,0.9,1.1,1.5,1.6c0.6,0.4,1.3,0.8,2.1,1.1c0.8,0.3,1.6,0.6,2.4,1
		c0.8,0.3,1.6,0.7,2.4,1.1c0.8,0.4,1.5,0.9,2.1,1.5c0.6,0.6,1.1,1.3,1.5,2.1c0.4,0.8,0.6,1.8,0.6,3V83.4z"/>
	<path fill="#FFFFFF" d="M407.9,64.3v25.6h-2.5V64.3h-6.7v-2.4h15.9v2.4H407.9z"/>
	<path fill="#FFFFFF" d="M418.6,89.9v-28h15.8v2.4h-13.2v10.4h10.7v2.4h-10.7v10.4h13.2v2.4H418.6z"/>
	<path fill="#FFFFFF" d="M456.4,89.9V70.7l-0.2,1.2l-6.5,18h-1.3l-6.6-18l-0.2-1.2v19.2h-2.5v-28h1.3l8.5,23l0.1,1l0.1-1l8.5-23h1.3
		v28H456.4z"/>
	<path fill="#FFFFFF" d="M482.6,89.9V70.7l-0.2,1.2l-6.5,18h-1.3l-6.6-18l-0.2-1.2v19.2h-2.5v-28h1.3l8.5,23l0.1,1l0.1-1l8.5-23h1.3
		v28H482.6z"/>
	<path fill="#FFFFFF" d="M491.5,89.9v-28h2.5v28H491.5z"/>
	<path fill="#FFFFFF" d="M514.8,89.9l-11.7-20.4l-0.2-1.2v21.6h-2.5v-28h1.3l11.7,20.4l0.3,1.2V61.9h2.5v28H514.8z"/>
	<path fill="#FFFFFF" d="M537.9,89.9h-0.8l-1.5-2.2c-0.6,0.8-1.4,1.4-2.2,1.9c-0.9,0.5-1.8,0.7-2.9,0.7h-1.5c-1,0-1.8-0.2-2.7-0.5
		c-0.8-0.4-1.6-0.8-2.2-1.5s-1.1-1.4-1.5-2.2c-0.4-0.8-0.5-1.7-0.5-2.7v-15c0-1,0.2-1.8,0.5-2.7c0.4-0.8,0.8-1.6,1.5-2.2
		s1.4-1.1,2.2-1.5c0.8-0.4,1.7-0.5,2.7-0.5h2c1,0,1.8,0.2,2.7,0.5c0.8,0.4,1.6,0.8,2.2,1.5s1.1,1.4,1.5,2.2c0.4,0.8,0.5,1.7,0.5,2.7
		v1.1l-2.5,0.4v-1.5c0-0.6-0.1-1.2-0.4-1.7c-0.2-0.5-0.6-1-1-1.4c-0.4-0.4-0.9-0.7-1.4-1c-0.5-0.2-1.1-0.4-1.7-0.4h-1.8
		c-0.6,0-1.2,0.1-1.7,0.4c-0.5,0.2-1,0.6-1.4,1c-0.4,0.4-0.7,0.9-1,1.4c-0.2,0.5-0.4,1.1-0.4,1.7v15c0,0.6,0.1,1.2,0.4,1.7
		c0.2,0.5,0.6,1,1,1.4s0.9,0.7,1.4,1c0.5,0.2,1.1,0.4,1.7,0.4h1.8c0.6,0,1.2-0.1,1.7-0.4c0.5-0.2,1-0.6,1.4-1c0.4-0.4,0.7-0.9,1-1.4
		c0.2-0.5,0.4-1.1,0.4-1.7v-5.8h-4.5v-2.4h7V89.9z"/>
</g>
<line fill="none" stroke="#586B73" stroke-width="3" stroke-linecap="round" stroke-linejoin="round" stroke-miterlimit="10" x1="213.9" y1="191.4" x2="213.9" y2="381.5"/>
<line fill="none" stroke="#586B73" stroke-width="3" stroke-linecap="round" stroke-linejoin="round" stroke-miterlimit="10" x1="390.8" y1="191.4" x2="390.8" y2="381.5"/>
<g>
	<g>
		<path fill="#EE7411" d="M95.5,199.5V182h9.9v1.5h-8.3v6.5h6.7v1.5h-6.7v6.5h8.3v1.5H95.5z"/>
		<path fill="#EE7411" d="M117.4,199.5l-7.3-12.7L110,186v13.5h-1.6V182h0.8l7.3,12.8l0.2,0.7V182h1.6v17.5H117.4z"/>
		<path fill="#EE7411" d="M122.2,199.5V182h9.9v1.5h-8.3v6.5h6.7v1.5h-6.7v6.5h8.3v1.5H122.2z"/>
		<path fill="#EE7411" d="M143.3,199.5l-4.7-7.5h-2.2v7.5h-1.6V182h5.6c0.6,0,1.2,0.1,1.7,0.3c0.5,0.2,1,0.5,1.4,0.9
			s0.7,0.8,0.9,1.4c0.2,0.5,0.3,1.1,0.3,1.7v1.4c0,0.6-0.1,1.2-0.3,1.7c-0.2,0.5-0.5,1-0.9,1.4s-0.8,0.7-1.4,0.9
			c-0.5,0.2-1.1,0.3-1.7,0.3l4.7,7.5H143.3z M143.1,186.3c0-0.4-0.1-0.8-0.2-1.1c-0.1-0.3-0.3-0.6-0.6-0.9c-0.3-0.3-0.5-0.5-0.9-0.6
			c-0.3-0.1-0.7-0.2-1.1-0.2h-3.9v7h3.9c0.4,0,0.8-0.1,1.1-0.2c0.3-0.1,0.6-0.3,0.9-0.6c0.3-0.3,0.5-0.6,0.6-0.9
			c0.1-0.3,0.2-0.7,0.2-1.1V186.3z"/>
		<path fill="#EE7411" d="M157.7,199.5h-0.5l-0.9-1.4c-0.4,0.5-0.8,0.9-1.4,1.2c-0.5,0.3-1.2,0.4-1.8,0.4h-0.9
			c-0.6,0-1.2-0.1-1.7-0.3c-0.5-0.2-1-0.5-1.4-0.9s-0.7-0.8-0.9-1.4c-0.2-0.5-0.3-1.1-0.3-1.7v-9.4c0-0.6,0.1-1.2,0.3-1.7
			c0.2-0.5,0.5-1,0.9-1.4s0.8-0.7,1.4-0.9c0.5-0.2,1.1-0.3,1.7-0.3h1.2c0.6,0,1.2,0.1,1.7,0.3c0.5,0.2,1,0.5,1.4,0.9
			s0.7,0.8,0.9,1.4c0.2,0.5,0.3,1.1,0.3,1.7v0.7l-1.6,0.2v-1c0-0.4-0.1-0.8-0.2-1.1c-0.1-0.3-0.3-0.6-0.6-0.9
			c-0.3-0.3-0.5-0.5-0.9-0.6c-0.3-0.1-0.7-0.2-1.1-0.2h-1.1c-0.4,0-0.8,0.1-1.1,0.2c-0.3,0.1-0.6,0.3-0.9,0.6
			c-0.3,0.3-0.5,0.5-0.6,0.9c-0.1,0.3-0.2,0.7-0.2,1.1v9.4c0,0.4,0.1,0.8,0.2,1.1c0.1,0.3,0.3,0.6,0.6,0.9c0.3,0.3,0.6,0.5,0.9,0.6
			c0.3,0.1,0.7,0.2,1.1,0.2h1.1c0.4,0,0.8-0.1,1.1-0.2c0.3-0.1,0.6-0.3,0.9-0.6c0.3-0.3,0.5-0.6,0.6-0.9c0.1-0.3,0.2-0.7,0.2-1.1
			v-3.6h-2.8v-1.5h4.4V199.5z"/>
		<path fill="#EE7411" d="M161.5,199.5V182h1.6v17.5H161.5z"/>
		<path fill="#EE7411" d="M167.1,199.5V182h9.9v1.5h-8.3v6.5h6.7v1.5h-6.7v6.5h8.3v1.5H167.1z"/>
	</g>
	
		<line fill="none" stroke="#EE7411" stroke-width="2" stroke-linecap="round" stroke-miterlimit="10" x1="63.7" y1="204" x2="189.7" y2="204"/>
	<circle fill="#586B73" cx="79.1" cy="191.1" r="7.8"/>
	<g>
		<path fill="#FFFFFF" d="M77.2,188.9v-0.8c0.7-0.1,1.2-0.2,1.5-0.3c0.3-0.2,0.5-0.5,0.6-1.1h0.8v7.8h-1v-5.5H77.2z"/>
	</g>
</g>
<g>
	<g>
		<path fill="#EE7411" d="M279.7,199.5v-8H273v8h-1.6V182h1.6v8h6.7v-8h1.6v17.5H279.7z"/>
		<path fill="#EE7411" d="M289.9,191.1v8.4h-1.6v-8.3l-4.5-9.2h1.7l3.6,7.3l3.6-7.3h1.7L289.9,191.1z"/>
		<path fill="#EE7411" d="M306.4,199.5h-0.5l-0.9-1.4c-0.4,0.5-0.8,0.9-1.4,1.2c-0.5,0.3-1.2,0.4-1.8,0.4h-0.9
			c-0.6,0-1.2-0.1-1.7-0.3c-0.5-0.2-1-0.5-1.4-0.9s-0.7-0.8-0.9-1.4c-0.2-0.5-0.3-1.1-0.3-1.7v-9.4c0-0.6,0.1-1.2,0.3-1.7
			c0.2-0.5,0.5-1,0.9-1.4s0.8-0.7,1.4-0.9c0.5-0.2,1.1-0.3,1.7-0.3h1.2c0.6,0,1.2,0.1,1.7,0.3c0.5,0.2,1,0.5,1.4,0.9
			s0.7,0.8,0.9,1.4c0.2,0.5,0.3,1.1,0.3,1.7v0.7l-1.6,0.2v-1c0-0.4-0.1-0.8-0.2-1.1c-0.1-0.3-0.3-0.6-0.6-0.9
			c-0.3-0.3-0.5-0.5-0.9-0.6s-0.7-0.2-1.1-0.2H301c-0.4,0-0.8,0.1-1.1,0.2c-0.3,0.1-0.6,0.3-0.9,0.6c-0.3,0.3-0.5,0.5-0.6,0.9
			c-0.1,0.3-0.2,0.7-0.2,1.1v9.4c0,0.4,0.1,0.8,0.2,1.1c0.1,0.3,0.3,0.6,0.6,0.9c0.3,0.3,0.6,0.5,0.9,0.6c0.3,0.1,0.7,0.2,1.1,0.2
			h1.1c0.4,0,0.8-0.1,1.1-0.2s0.6-0.3,0.9-0.6c0.3-0.3,0.5-0.6,0.6-0.9c0.1-0.3,0.2-0.7,0.2-1.1v-3.6h-2.8v-1.5h4.4V199.5z"/>
		<path fill="#EE7411" d="M310.2,199.5V182h1.6v17.5H310.2z"/>
		<path fill="#EE7411" d="M315.8,199.5V182h9.9v1.5h-8.3v6.5h6.7v1.5h-6.7v6.5h8.3v1.5H315.8z M316.9,179.5v-1.9h1.9v1.9H316.9z
			 M321.6,179.5v-1.9h1.9v1.9H321.6z"/>
		<path fill="#EE7411" d="M337.7,199.5l-7.3-12.7l-0.1-0.8v13.5h-1.6V182h0.8l7.3,12.8l0.2,0.7V182h1.6v17.5H337.7z"/>
		<path fill="#EE7411" d="M342.5,199.5V182h9.9v1.5h-8.3v6.5h6.7v1.5h-6.7v6.5h8.3v1.5H342.5z"/>
	</g>
	
		<line fill="none" stroke="#EE7411" stroke-width="2" stroke-linecap="round" stroke-miterlimit="10" x1="244.3" y1="204" x2="360.4" y2="204"/>
	<circle fill="#586B73" cx="255.4" cy="191.1" r="7.8"/>
	<g>
		<path fill="#FFFFFF" d="M253.1,192.6c0.2-0.5,0.7-1,1.4-1.4l1-0.6c0.5-0.3,0.8-0.5,1-0.7c0.3-0.3,0.4-0.6,0.4-1
			c0-0.5-0.1-0.8-0.4-1.1c-0.3-0.3-0.6-0.4-1.1-0.4c-0.7,0-1.1,0.3-1.4,0.8c-0.1,0.3-0.2,0.7-0.2,1.1h-1c0-0.7,0.1-1.2,0.4-1.7
			c0.4-0.8,1.2-1.1,2.3-1.1c0.9,0,1.5,0.2,2,0.7c0.4,0.5,0.6,1,0.6,1.6c0,0.6-0.2,1.2-0.7,1.6c-0.3,0.3-0.7,0.6-1.4,0.9l-0.7,0.4
			c-0.4,0.2-0.6,0.4-0.8,0.6c-0.4,0.3-0.6,0.7-0.7,1.1h4.3v0.9h-5.4C252.8,193.7,252.9,193.1,253.1,192.6z"/>
	</g>
</g>
<g>
	<g>
		<path fill="#EE7411" d="M455.6,199.5v-8h-6.7v8h-1.6V182h1.6v8h6.7v-8h1.6v17.5H455.6z"/>
		<path fill="#EE7411" d="M470.5,197.1c-0.2,0.5-0.5,1-0.9,1.4s-0.8,0.7-1.4,0.9c-0.5,0.2-1.1,0.3-1.7,0.3h-1.2
			c-0.6,0-1.2-0.1-1.7-0.3c-0.5-0.2-1-0.5-1.4-0.9s-0.7-0.8-0.9-1.4c-0.2-0.5-0.3-1.1-0.3-1.7V182h1.6v13.5c0,0.4,0.1,0.8,0.2,1.1
			c0.1,0.3,0.3,0.6,0.6,0.9c0.3,0.3,0.6,0.5,0.9,0.6c0.3,0.1,0.7,0.2,1.1,0.2h1.1c0.4,0,0.8-0.1,1.1-0.2s0.6-0.3,0.9-0.6
			c0.3-0.3,0.5-0.6,0.6-0.9c0.1-0.3,0.2-0.7,0.2-1.1V182h1.6v13.5C470.8,196,470.7,196.6,470.5,197.1z"/>
		<path fill="#EE7411" d="M485.3,199.5v-12l-0.1,0.7l-4.1,11.3h-0.8l-4.1-11.3l-0.1-0.7v12h-1.6V182h0.8l5.3,14.4l0,0.6l0-0.6
			l5.3-14.4h0.8v17.5H485.3z"/>
		<path fill="#EE7411" d="M490.9,199.5V182h9.9v1.5h-8.3v6.5h6.7v1.5h-6.7v6.5h8.3v1.5H490.9z"/>
		<path fill="#EE7411" d="M513,197.1c-0.2,0.5-0.5,1-0.9,1.4s-0.8,0.7-1.4,0.9c-0.5,0.2-1.1,0.3-1.7,0.3h-1.2
			c-0.6,0-1.2-0.1-1.7-0.3c-0.5-0.2-1-0.5-1.4-0.9s-0.7-0.8-0.9-1.4c-0.2-0.5-0.3-1.1-0.3-1.7V182h1.6v13.5c0,0.4,0.1,0.8,0.2,1.1
			c0.1,0.3,0.3,0.6,0.6,0.9c0.3,0.3,0.6,0.5,0.9,0.6c0.3,0.1,0.7,0.2,1.1,0.2h1.1c0.4,0,0.8-0.1,1.1-0.2s0.6-0.3,0.9-0.6
			c0.3-0.3,0.5-0.6,0.6-0.9c0.1-0.3,0.2-0.7,0.2-1.1V182h1.6v13.5C513.3,196,513.2,196.6,513,197.1z"/>
		<path fill="#EE7411" d="M525.3,199.5l-4.7-7.5h-2.2v7.5h-1.6V182h5.6c0.6,0,1.2,0.1,1.7,0.3c0.5,0.2,1,0.5,1.4,0.9
			s0.7,0.8,0.9,1.4c0.2,0.5,0.3,1.1,0.3,1.7v1.4c0,0.6-0.1,1.2-0.3,1.7c-0.2,0.5-0.5,1-0.9,1.4s-0.8,0.7-1.4,0.9
			c-0.5,0.2-1.1,0.3-1.7,0.3l4.7,7.5H525.3z M525.1,186.3c0-0.4-0.1-0.8-0.2-1.1c-0.1-0.3-0.3-0.6-0.6-0.9c-0.3-0.3-0.5-0.5-0.9-0.6
			s-0.7-0.2-1.1-0.2h-3.9v7h3.9c0.4,0,0.8-0.1,1.1-0.2s0.6-0.3,0.9-0.6c0.3-0.3,0.5-0.6,0.6-0.9c0.1-0.3,0.2-0.7,0.2-1.1V186.3z"/>
	</g>
	
		<line fill="none" stroke="#EE7411" stroke-width="2" stroke-linecap="round" stroke-miterlimit="10" x1="422.4" y1="204" x2="533.1" y2="204"/>
	<circle fill="#586B73" cx="433.9" cy="191.1" r="7.8"/>
	<g>
		<path fill="#FFFFFF" d="M431.8,193.8c-0.4-0.5-0.6-1.1-0.6-1.9h1c0,0.5,0.1,0.9,0.3,1.1c0.3,0.4,0.7,0.6,1.4,0.6
			c0.5,0,0.9-0.1,1.2-0.4c0.3-0.3,0.5-0.6,0.5-1.1c0-0.5-0.2-0.9-0.5-1.1s-0.8-0.3-1.4-0.3c-0.1,0-0.1,0-0.2,0c-0.1,0-0.1,0-0.2,0
			v-0.9c0.1,0,0.2,0,0.3,0c0.1,0,0.1,0,0.2,0c0.4,0,0.7-0.1,0.9-0.2c0.4-0.2,0.6-0.6,0.6-1.1c0-0.4-0.1-0.7-0.4-0.9s-0.6-0.3-1-0.3
			c-0.7,0-1.1,0.2-1.4,0.7c-0.1,0.2-0.2,0.6-0.2,1h-1c0-0.6,0.1-1.1,0.3-1.5c0.4-0.7,1.1-1.1,2.1-1.1c0.8,0,1.4,0.2,1.8,0.5
			c0.4,0.4,0.7,0.9,0.7,1.5c0,0.5-0.1,0.9-0.4,1.2c-0.2,0.2-0.4,0.3-0.6,0.4c0.4,0.1,0.7,0.3,1,0.7s0.3,0.7,0.3,1.2
			c0,0.7-0.2,1.4-0.7,1.8c-0.5,0.5-1.2,0.7-2.1,0.7C432.8,194.6,432.2,194.4,431.8,193.8z"/>
	</g>
</g>
<g>
	<path fill="#586B73" d="M224.5,145.3c-0.3,0.6-0.6,1.2-1.1,1.6s-1,0.8-1.6,1.1s-1.3,0.4-2,0.4h-0.9c-0.7,0-1.4-0.1-2-0.4
		s-1.2-0.6-1.6-1.1s-0.8-1-1.1-1.6s-0.4-1.3-0.4-2v-0.5l1.9-0.3v0.8c0,0.5,0.1,0.9,0.3,1.3s0.4,0.8,0.7,1.1s0.7,0.5,1.1,0.7
		s0.8,0.3,1.3,0.3h0.7c0.5,0,0.9-0.1,1.3-0.3s0.8-0.4,1.1-0.7s0.5-0.7,0.7-1.1s0.3-0.8,0.3-1.3v-1.7c0-0.5-0.1-0.9-0.3-1.3
		s-0.4-0.8-0.7-1.1s-0.7-0.5-1.1-0.7s-0.8-0.3-1.3-0.3h-1.4v-1.8h1.4c0.5,0,0.9-0.1,1.3-0.3s0.8-0.4,1.1-0.7s0.5-0.7,0.7-1.1
		s0.3-0.8,0.3-1.3v-1c0-0.5-0.1-0.9-0.3-1.3s-0.4-0.8-0.7-1.1s-0.7-0.5-1.1-0.7s-0.8-0.3-1.3-0.3H219c-0.5,0-0.9,0.1-1.3,0.3
		s-0.8,0.4-1.1,0.7s-0.5,0.7-0.7,1.1s-0.3,0.8-0.3,1.3v0.8l-1.9-0.3V132c0-0.7,0.1-1.4,0.4-2s0.6-1.2,1.1-1.6s1-0.8,1.6-1.1
		s1.3-0.4,2-0.4h0.9c0.7,0,1.4,0.1,2,0.4s1.2,0.6,1.6,1.1s0.8,1,1.1,1.6s0.4,1.3,0.4,2v0.7c0,0.5-0.1,1-0.2,1.4s-0.3,0.9-0.6,1.3
		s-0.5,0.7-0.9,1.1s-0.7,0.6-1.1,0.8c0.4,0.2,0.8,0.5,1.1,0.8s0.6,0.7,0.9,1.1s0.4,0.8,0.6,1.3s0.2,0.9,0.2,1.4v1.4
		C224.9,144,224.8,144.7,224.5,145.3z"/>
	<path fill="#121726" d="M247.5,145.3c-0.3,0.6-0.6,1.2-1.1,1.6s-1,0.8-1.6,1.1s-1.3,0.4-2,0.4h-1.5c-0.7,0-1.4-0.1-2-0.4
		s-1.2-0.6-1.6-1.1s-0.8-1-1.1-1.6s-0.4-1.3-0.4-2V132c0-0.7,0.1-1.4,0.4-2s0.6-1.2,1.1-1.6s1-0.8,1.6-1.1s1.3-0.4,2-0.4h1.5
		c0.7,0,1.4,0.1,2,0.4s1.2,0.6,1.6,1.1s0.8,1,1.1,1.6s0.4,1.3,0.4,2v0.8l-1.9,0.3V132c0-0.5-0.1-0.9-0.3-1.3s-0.4-0.8-0.7-1.1
		s-0.7-0.5-1.1-0.7s-0.8-0.3-1.3-0.3h-1.3c-0.5,0-0.9,0.1-1.3,0.3s-0.8,0.4-1.1,0.7s-0.5,0.7-0.7,1.1s-0.3,0.8-0.3,1.3v11.3
		c0,0.5,0.1,0.9,0.3,1.3s0.4,0.8,0.7,1.1s0.7,0.5,1.1,0.7s0.8,0.3,1.3,0.3h1.3c0.5,0,0.9-0.1,1.3-0.3s0.8-0.4,1.1-0.7
		s0.5-0.7,0.7-1.1s0.3-0.8,0.3-1.3v-1.1l1.9,0.3v0.8C247.9,144,247.7,144.7,247.5,145.3z"/>
	<path fill="#121726" d="M260,143.3h-6.7l-1.4,4.9h-2l6.2-21h1l6.2,21h-1.9L260,143.3z M253.8,141.5h5.6l-2.8-9.7l-0.1-0.8l-0.1,0.8
		L253.8,141.5z"/>
	<path fill="#121726" d="M270.2,129v19.2h-1.9V129h-5v-1.8h11.9v1.8H270.2z"/>
	<path fill="#121726" d="M278.2,148.2v-21H290v1.8h-9.9v7.8h8v1.8h-8v7.8h9.9v1.8H278.2z"/>
	<path fill="#121726" d="M305.1,148.2h-0.6l-1.1-1.7c-0.5,0.6-1,1.1-1.7,1.4s-1.4,0.5-2.2,0.5h-1.1c-0.7,0-1.4-0.1-2-0.4
		s-1.2-0.6-1.6-1.1s-0.8-1-1.1-1.6s-0.4-1.3-0.4-2V132c0-0.7,0.1-1.4,0.4-2s0.6-1.2,1.1-1.6s1-0.8,1.6-1.1s1.3-0.4,2-0.4h1.5
		c0.7,0,1.4,0.1,2,0.4s1.2,0.6,1.6,1.1s0.8,1,1.1,1.6s0.4,1.3,0.4,2v0.8l-1.9,0.3V132c0-0.5-0.1-0.9-0.3-1.3s-0.4-0.8-0.7-1.1
		s-0.7-0.5-1.1-0.7s-0.8-0.3-1.3-0.3h-1.3c-0.5,0-0.9,0.1-1.3,0.3s-0.8,0.4-1.1,0.7s-0.5,0.7-0.7,1.1s-0.3,0.8-0.3,1.3v11.3
		c0,0.5,0.1,0.9,0.3,1.3s0.4,0.8,0.7,1.1s0.7,0.5,1.1,0.7s0.8,0.3,1.3,0.3h1.3c0.5,0,0.9-0.1,1.3-0.3s0.8-0.4,1.1-0.7
		s0.5-0.7,0.7-1.1s0.3-0.8,0.3-1.3v-4.4h-3.4v-1.8h5.2V148.2z"/>
	<path fill="#121726" d="M320.8,145.3c-0.3,0.6-0.6,1.2-1.1,1.6s-1,0.8-1.6,1.1s-1.3,0.4-2,0.4h-1.5c-0.7,0-1.4-0.1-2-0.4
		s-1.2-0.6-1.6-1.1s-0.8-1-1.1-1.6s-0.4-1.3-0.4-2V132c0-0.7,0.1-1.4,0.4-2s0.6-1.2,1.1-1.6s1-0.8,1.6-1.1s1.3-0.4,2-0.4h1.5
		c0.7,0,1.4,0.1,2,0.4s1.2,0.6,1.6,1.1s0.8,1,1.1,1.6s0.4,1.3,0.4,2v11.3C321.2,144,321,144.7,320.8,145.3z M319.3,132
		c0-0.5-0.1-0.9-0.3-1.3s-0.4-0.8-0.7-1.1s-0.7-0.5-1.1-0.7s-0.8-0.3-1.3-0.3h-1.3c-0.5,0-0.9,0.1-1.3,0.3s-0.8,0.4-1.1,0.7
		s-0.5,0.7-0.7,1.1s-0.3,0.8-0.3,1.3v11.3c0,0.5,0.1,0.9,0.3,1.3s0.4,0.8,0.7,1.1s0.7,0.5,1.1,0.7s0.8,0.3,1.3,0.3h1.3
		c0.5,0,0.9-0.1,1.3-0.3s0.8-0.4,1.1-0.7s0.5-0.7,0.7-1.1s0.3-0.8,0.3-1.3V132z"/>
	<path fill="#121726" d="M335.6,148.2l-5.7-9h-2.6v9h-1.9v-21h6.7c0.7,0,1.4,0.1,2,0.4s1.2,0.6,1.6,1.1s0.8,1,1.1,1.6
		c0.3,0.6,0.4,1.3,0.4,2v1.7c0,0.7-0.1,1.4-0.4,2c-0.3,0.6-0.6,1.2-1.1,1.6s-1,0.8-1.6,1.1s-1.3,0.4-2,0.4l5.7,9H335.6z
		 M335.3,132.3c0-0.5-0.1-0.9-0.3-1.3s-0.4-0.8-0.7-1.1s-0.7-0.5-1.1-0.7s-0.8-0.3-1.3-0.3h-4.7v8.4h4.7c0.5,0,0.9-0.1,1.3-0.3
		s0.8-0.4,1.1-0.7s0.5-0.7,0.7-1.1s0.3-0.8,0.3-1.3V132.3z"/>
	<path fill="#121726" d="M341.3,148.2v-21h1.9v21H341.3z"/>
	<path fill="#121726" d="M348,148.2v-21h11.8v1.8h-9.9v7.8h8v1.8h-8v7.8h9.9v1.8H348z"/>
	<path fill="#121726" d="M363.5,148.2v-21h11.8v1.8h-9.9v7.8h8v1.8h-8v7.8h9.9v1.8H363.5z M364.8,124.1v-2.3h2.3v2.3H364.8z
		 M370.5,124.1v-2.3h2.3v2.3H370.5z"/>
	<path fill="#121726" d="M389.7,148.2l-8.8-15.3l-0.2-0.9v16.2h-1.9v-21h1l8.8,15.3l0.2,0.9v-16.2h1.9v21H389.7z"/>
</g>
<line fill="none" stroke="#586B73" stroke-width="2" stroke-linecap="round" stroke-linejoin="round" stroke-miterlimit="10" x1="202.7" y1="153.8" x2="402" y2="153.8"/>
<g>
	<g>
		
			<path fill="#FFFFFF" stroke="#121625" stroke-width="4" stroke-linecap="round" stroke-linejoin="round" stroke-miterlimit="10" d="
			M114.3,311.6l-2.9,14h-0.6c-22.9,0-41.7,18.8-41.7,41.7v16"/>
		
			<path fill="#FFFFFF" stroke="#121625" stroke-width="4" stroke-linecap="round" stroke-linejoin="round" stroke-miterlimit="10" d="
			M184.3,383.2v-16c0-22.9-18.8-41.7-41.7-41.7h0.2l-3.6-14"/>
		<g>
			<g>
				
					<path fill="#FFFFFF" stroke="#121625" stroke-width="4" stroke-linecap="round" stroke-linejoin="round" stroke-miterlimit="10" d="
					M169,273.8c-4.5-4.5-7.9,0-7.9,0v6.2c0,4.6-0.9,8.9-2.6,12.9c1.2-1.2,4.7-4.7,8.7-8.7C172.1,279.2,169,273.8,169,273.8z"/>
				
					<path fill="#FFFFFF" stroke="#121625" stroke-width="4" stroke-linecap="round" stroke-linejoin="round" stroke-miterlimit="10" d="
					M92.2,280v-6.4c-0.7-0.8-3.8-3.7-7.7,0.2c0,0-3.2,5.5,1.8,10.4c3.7,3.7,7,7,8.4,8.4C93.1,288.7,92.2,284.4,92.2,280z"/>
			</g>
			
				<path fill="#FFFFFF" stroke="#121625" stroke-width="4" stroke-linecap="round" stroke-linejoin="round" stroke-miterlimit="10" d="
				M154.4,235.3L154.4,235.3c-2.8-4.1-6.8-6.9-6.8-6.9l0,0c-5.6-4.2-12.6-6.8-20.1-6.8h-2.1c-18.4,0-33.4,15-33.4,33.4v24.2
				c0,18.4,15,33.4,33.4,33.4h2.1c18.4,0,33.4-15,33.4-33.4v-24.2C160.9,247.7,158.4,240.8,154.4,235.3z"/>
			<g>
				
					<line fill="#FFFFFF" stroke="#121625" stroke-width="4" stroke-linecap="round" stroke-linejoin="round" stroke-miterlimit="10" x1="106.5" y1="264.5" x2="116.7" y2="263"/>
				
					<line fill="#FFFFFF" stroke="#121625" stroke-width="4" stroke-linecap="round" stroke-linejoin="round" stroke-miterlimit="10" x1="144.9" y1="264.2" x2="134.6" y2="263"/>
			</g>
			<path fill="#FFFFFF" stroke="#121625" stroke-width="4" stroke-linecap="round" stroke-miterlimit="10" d="M125.5,288.2"/>
			
				<path fill="#FFFFFF" stroke="#121625" stroke-width="4" stroke-linecap="round" stroke-linejoin="round" stroke-miterlimit="10" d="
				M106.5,288.2c0,8.4,4.4,16.3,20.2,16.3s20.2-8.1,20.2-16.3H106.5z"/>
			<circle fill="#121625" cx="140.9" cy="275.8" r="4.8"/>
		</g>
		<g>
			
				<line fill="#FFFFFF" stroke="#121625" stroke-width="4" stroke-linecap="round" stroke-linejoin="round" stroke-miterlimit="10" x1="89.2" y1="372.4" x2="89.2" y2="383.2"/>
			
				<line fill="#FFFFFF" stroke="#121625" stroke-width="4" stroke-linecap="round" stroke-linejoin="round" stroke-miterlimit="10" x1="164.3" y1="372.4" x2="164.3" y2="383.2"/>
		</g>
		
			<path fill="#FFFFFF" stroke="#121625" stroke-width="4" stroke-linecap="round" stroke-linejoin="round" stroke-miterlimit="10" d="
			M160.1,248.9c-39.1,17.1-48.5-3.8-48.5-3.8s-3.1,12.9-18.7,5.8"/>
	</g>
	<g>
		
			<path fill="#FFFFFF" stroke="#586B73" stroke-width="4" stroke-linecap="round" stroke-linejoin="round" stroke-miterlimit="10" d="
			M146.7,364.8h-43.9c-3.9,0-7.1-3.2-7.1-7.1v-10.9c0-3.9,3.2-7.1,7.1-7.1h43.9c3.9,0,7.1,3.2,7.1,7.1v10.9
			C153.7,361.6,150.6,364.8,146.7,364.8z"/>
		<path fill="#586B73" d="M156.2,358.1L156.2,358.1c-1.9,0-3.5-1.6-3.5-3.5v-4.6c0-1.9,1.6-3.5,3.5-3.5h0c1.9,0,3.5,1.6,3.5,3.5v4.6
			C159.7,356.5,158.2,358.1,156.2,358.1z"/>
		<path fill="#E62944" d="M104.3,361.1h-1.1c-2.2,0-3.9-1.8-3.9-3.9v-9.8c0-2.2,1.8-3.9,3.9-3.9h1.1c2.2,0,3.9,1.8,3.9,3.9v9.8
			C108.2,359.3,106.4,361.1,104.3,361.1z"/>
		<path fill="#6EB52C" d="M114.7,361.1h-1.1c-2.2,0-3.9-1.8-3.9-3.9v-9.8c0-2.2,1.8-3.9,3.9-3.9h1.1c2.2,0,3.9,1.8,3.9,3.9v9.8
			C118.6,359.3,116.8,361.1,114.7,361.1z"/>
		<path fill="#6EB52C" d="M125.4,361.1h-1.1c-2.2,0-3.9-1.8-3.9-3.9v-9.8c0-2.2,1.8-3.9,3.9-3.9h1.1c2.2,0,3.9,1.8,3.9,3.9v9.8
			C129.3,359.3,127.5,361.1,125.4,361.1z"/>
		<path fill="#6EB52C" d="M135.9,361.1h-1.1c-2.2,0-3.9-1.8-3.9-3.9v-9.8c0-2.2,1.8-3.9,3.9-3.9h1.1c2.2,0,3.9,1.8,3.9,3.9v9.8
			C139.8,359.3,138,361.1,135.9,361.1z"/>
		<path fill="#6EB52C" d="M146.2,361.1H145c-2.2,0-3.9-1.8-3.9-3.9v-9.8c0-2.2,1.8-3.9,3.9-3.9h1.1c2.2,0,3.9,1.8,3.9,3.9v9.8
			C150.1,359.3,148.3,361.1,146.2,361.1z"/>
	</g>
	<path fill="#121625" d="M116.1,278.2c0.4-0.7,0.7-1.5,0.7-2.4c0-2.7-2.2-4.8-4.8-4.8s-4.8,2.2-4.8,4.8c0,0.9,0.3,1.8,0.7,2.6
		C109.6,277.7,113,276.8,116.1,278.2z"/>
	<g>
		<g>
			<path fill="#FFD32E" d="M153.3,223.5c0.6-1.9,1.4-3.7,2.2-5.6c0.8-1.8,1.6-3.6,2.5-5.4l1.8-3.6l0,4.1c0,1.3,0,2.6,0,3.9
				c0,1.3,0,2.6-0.1,3.9l-1.8-0.4c0.5-0.8,0.9-1.6,1.3-2.5c0.5-0.8,0.9-1.6,1.4-2.4c1-1.6,2-3.2,3.1-4.7c-0.6,1.8-1.2,3.6-1.9,5.3
				c-0.3,0.9-0.7,1.7-1.1,2.6c-0.4,0.9-0.8,1.7-1.2,2.5l-1.6,3.6l-0.2-4c-0.1-1.3,0-2.6-0.1-3.9c0-1.3,0-2.6,0-3.9l1.8,0.4
				c-1,1.7-2,3.4-3,5.1C155.5,220.2,154.5,221.9,153.3,223.5z"/>
		</g>
		<g>
			<path fill="#FFD32E" d="M83.5,241c-2.2-0.9-4.3-1.9-6.4-2.9c-2.1-1-4.2-2.1-6.3-3.2l-3.2-1.7l3.7,0l4,0c1.3,0,2.6,0,4,0l-0.7,1.6
				c-0.8-0.9-1.6-1.8-2.4-2.7c-0.8-0.9-1.6-1.8-2.4-2.7c-1.6-1.9-3.1-3.7-4.5-5.7c1.9,1.5,3.7,3.1,5.5,4.8c0.9,0.8,1.8,1.7,2.6,2.5
				c0.9,0.9,1.7,1.7,2.6,2.6l1.6,1.6l-2.3,0c-1.3,0-2.6,0-4,0l-4,0l0.5-1.8c2,1.2,4,2.5,6,3.8C79.7,238.2,81.6,239.6,83.5,241z"/>
		</g>
		<g>
			<path fill="#FFD32E" d="M170,264.5c1.9,0.2,3.7,0.5,5.5,0.8c0.9,0.2,1.8,0.3,2.7,0.5c0.9,0.2,1.8,0.3,2.7,0.5l-0.9,1.4
				c-0.9-1.1-1.9-2.2-2.8-3.3c-0.9-1.1-1.8-2.2-2.7-3.3l-2.4-3l3.5,1.5c1.4,0.6,2.7,1.1,4.1,1.7c1.3,0.6,2.7,1.2,4,1.8
				c1.3,0.6,2.7,1.3,4,1.9c1.3,0.7,2.6,1.4,3.9,2.1c-1.4-0.4-2.9-0.8-4.3-1.2c-1.4-0.5-2.8-0.9-4.2-1.4c-1.4-0.5-2.8-1-4.2-1.5
				c-1.4-0.5-2.7-1.1-4.1-1.6l1.1-1.5c0.9,1.1,1.8,2.2,2.7,3.3c0.9,1.1,1.7,2.3,2.6,3.4l1.6,2.1l-2.5-0.7c-0.9-0.3-1.8-0.5-2.7-0.8
				c-0.9-0.3-1.8-0.6-2.7-0.8C173.5,265.8,171.7,265.2,170,264.5z"/>
		</g>
	</g>
</g>
<g>
	<g>
		
			<path fill="#FFFFFF" stroke="#121625" stroke-width="4" stroke-linecap="round" stroke-linejoin="round" stroke-miterlimit="10" d="
			M459.6,293.5l-4,17.4h-0.8c-31.9,0-58.1,23.3-58.1,51.7v19.8"/>
		
			<path fill="#FFFFFF" stroke="#121625" stroke-width="4" stroke-linecap="round" stroke-linejoin="round" stroke-miterlimit="10" d="
			M557.3,382.3v-19.8c0-28.4-26.1-51.7-58.1-51.7h0.2l-5-17.4"/>
		<g>
			<g>
				
					<path fill="#FFFFFF" stroke="#121625" stroke-width="4" stroke-linecap="round" stroke-linejoin="round" stroke-miterlimit="10" d="
					M519.3,269.8c-4.5-4.5-7.9,0-7.9,0v6.2c0,4.6-0.9,8.9-2.6,12.9c1.2-1.2,4.7-4.7,8.7-8.7C522.4,275.2,519.3,269.8,519.3,269.8z"
					/>
				
					<path fill="#FFFFFF" stroke="#121625" stroke-width="4" stroke-linecap="round" stroke-linejoin="round" stroke-miterlimit="10" d="
					M442.5,276v-6.4c-0.7-0.8-3.8-3.7-7.7,0.2c0,0-3.2,5.5,1.8,10.4c3.7,3.7,7,7,8.4,8.4C443.4,284.7,442.5,280.4,442.5,276z"/>
			</g>
			
				<path fill="#FFFFFF" stroke="#121625" stroke-width="4" stroke-linecap="round" stroke-linejoin="round" stroke-miterlimit="10" d="
				M504.7,231.3L504.7,231.3c-2.8-4.1-6.8-6.9-6.8-6.9l0,0c-5.6-4.2-12.6-6.8-20.1-6.8h-2.1c-18.4,0-33.4,15-33.4,33.4v24.2
				c0,18.4,15,33.4,33.4,33.4h2.1c18.4,0,33.4-15,33.4-33.4v-24.2C511.2,243.7,508.7,236.8,504.7,231.3z"/>
			<g>
				
					<line fill="#FFFFFF" stroke="#121625" stroke-width="4" stroke-linecap="round" stroke-linejoin="round" stroke-miterlimit="10" x1="456.8" y1="260" x2="467" y2="261.5"/>
				
					<line fill="#FFFFFF" stroke="#121625" stroke-width="4" stroke-linecap="round" stroke-linejoin="round" stroke-miterlimit="10" x1="495.2" y1="260.2" x2="484.9" y2="261.5"/>
			</g>
			<path fill="#FFFFFF" stroke="#121625" stroke-width="4" stroke-linecap="round" stroke-miterlimit="10" d="M475.8,284.2"/>
			
				<path fill="#FFFFFF" stroke="#121625" stroke-width="4" stroke-linecap="round" stroke-linejoin="round" stroke-miterlimit="10" d="
				M497.2,295.5c0-4.1-4.4-8-20.2-8s-20.2,4-20.2,8c0,0,7.2-2.2,20.2-2.2C490.1,293.3,497.2,295.5,497.2,295.5z"/>
			<circle fill="#121625" cx="491.2" cy="271.8" r="4.8"/>
		</g>
		<g>
			
				<line fill="#FFFFFF" stroke="#121625" stroke-width="4" stroke-linecap="round" stroke-linejoin="round" stroke-miterlimit="10" x1="424.7" y1="369" x2="424.7" y2="382.3"/>
			
				<line fill="#FFFFFF" stroke="#121625" stroke-width="4" stroke-linecap="round" stroke-linejoin="round" stroke-miterlimit="10" x1="529.4" y1="369" x2="529.4" y2="382.3"/>
		</g>
	</g>
	<path fill="#121625" d="M466.4,274.2c0.4-0.7,0.7-1.5,0.7-2.4c0-2.7-2.2-4.8-4.8-4.8s-4.8,2.2-4.8,4.8c0,0.9,0.3,1.8,0.7,2.6
		C459.9,273.7,463.3,272.8,466.4,274.2z"/>
	
		<polyline fill="none" stroke="#121625" stroke-width="4" stroke-linecap="round" stroke-linejoin="round" stroke-miterlimit="10" points="
		442.3,263.2 449.5,248.7 454,254.7 461.9,244 467.1,250 473.8,244 478.7,253.6 487.5,248.8 495.2,253 497.4,242.7 501,253 
		503.5,250.2 511.2,263.2 	"/>
	<g>
		
			<polyline fill="#FFFFFF" stroke="#121625" stroke-width="4" stroke-linecap="round" stroke-linejoin="round" stroke-miterlimit="10" points="
			479.3,346 479.3,372.7 519,372.7 		"/>
		
			<line fill="#FFFFFF" stroke="#121625" stroke-width="4" stroke-linecap="round" stroke-linejoin="round" stroke-miterlimit="10" x1="479.3" y1="372.7" x2="438.9" y2="372.7"/>
	</g>
	<g>
		
			<path fill="#FFFFFF" stroke="#121625" stroke-width="4" stroke-linecap="round" stroke-linejoin="round" stroke-miterlimit="10" d="
			M448.5,366L448.5,366c-1.9,0-3.5,1.6-3.5,3.5l0,0c0,1.9,1.6,3.5,3.5,3.5l0,0c1.9,0,3.5-1.6,3.5-3.5l0,0
			C452,367.6,450.4,366,448.5,366z"/>
		
			<path fill="#FFFFFF" stroke="#121625" stroke-width="4" stroke-linecap="round" stroke-linejoin="round" stroke-miterlimit="10" d="
			M509.5,366L509.5,366c-1.9,0-3.5,1.6-3.5,3.5l0,0c0,1.9,1.6,3.5,3.5,3.5l0,0c1.9,0,3.5-1.6,3.5-3.5l0,0
			C513,367.6,511.4,366,509.5,366z"/>
	</g>
	
		<path fill="#FFFFFF" stroke="#121625" stroke-width="4" stroke-linecap="round" stroke-linejoin="round" stroke-miterlimit="10" d="
		M431.5,323.3c0,0,18.2,4.7,23.4-6"/>
	
		<path fill="#FFFFFF" stroke="#121625" stroke-width="4" stroke-linecap="round" stroke-linejoin="round" stroke-miterlimit="10" d="
		M521.4,323.3c0,0-18.2,4.7-23.4-6"/>
	<circle fill="#6DB52E" cx="453.8" cy="281.2" r="3.1"/>
	<circle fill="#6DB52E" cx="502.8" cy="281.2" r="3.1"/>
</g>
<g>
	
		<path fill="#FFFFFF" stroke="#121625" stroke-width="4" stroke-linecap="round" stroke-linejoin="round" stroke-miterlimit="10" d="
		M335.1,236.2L335.1,236.2c5.3-4.5,4.9-13.2,3.8-9.4c-1.1,3.8-10.5,2.6-10.5,2.6l0,0c-5.5-4.2-12.3-6.6-19.7-6.6h-2.1
		c-18.1,0-32.8,14.8-32.8,32.8v23.8c0,18.1,14.8,32.8,32.8,32.8h2.1c18.1,0,32.8-14.8,32.8-32.8v-23.8
		C341.5,248.3,339.1,241.6,335.1,236.2z"/>
	<path opacity="0.43" fill="#FFD32E" d="M351.5,372.4c0-2.3,1-4.2-0.5-5.7c-1.5-1.5-3.4-4.7-5.7-4.7c-2.3,0-4.3,3-5.8,4.5
		s-4.9,3.5-4.9,5.8c0,2.3,4,3.7,5.5,5.2s2.9,5.8,5.2,5.8c2.3,0,2.5-5.4,4.1-6.9S351.5,374.8,351.5,372.4z"/>
	<path opacity="0.43" fill="#FFD32E" d="M279.9,372.4c0-2.3-0.4-6.3-1.9-7.9c-1.5-1.5-5.5,0.6-7.9,0.6c-2.3,0-5.3-1.2-6.9,0.4
		c-1.5,1.5,0.5,4.5,0.5,6.9c0,2.3-1.7,5-0.2,6.5c1.5,1.5,4.2,3.4,6.5,3.4c2.3,0,5.5-1.4,7-2.9S279.9,374.8,279.9,372.4z"/>
	<g>
		
			<path fill="#FFFFFF" stroke="#121625" stroke-width="4" stroke-linecap="round" stroke-linejoin="round" stroke-miterlimit="10" d="
			M295.2,311.6l-2.9,14h-0.6c-22.9,0-41.7,18.8-41.7,41.7v16"/>
		
			<path fill="#FFFFFF" stroke="#121625" stroke-width="4" stroke-linecap="round" stroke-linejoin="round" stroke-miterlimit="10" d="
			M365.2,383.2v-16c0-22.9-18.8-41.7-41.7-41.7h0.2l-3.6-14"/>
		<g>
			<g>
				
					<path fill="#FFFFFF" stroke="#121625" stroke-width="4" stroke-linecap="round" stroke-linejoin="round" stroke-miterlimit="10" d="
					M349.9,273.8c-4.5-4.5-7.9,0-7.9,0v6.2c0,4.6-0.9,8.9-2.6,12.9c1.2-1.2,4.7-4.7,8.7-8.7C353.1,279.2,349.9,273.8,349.9,273.8z"
					/>
				
					<path fill="#FFFFFF" stroke="#121625" stroke-width="4" stroke-linecap="round" stroke-linejoin="round" stroke-miterlimit="10" d="
					M273.1,280v-6.4c-0.7-0.8-3.8-3.7-7.7,0.2c0,0-3.2,5.5,1.8,10.4c3.7,3.7,7,7,8.4,8.4C274,288.7,273.1,284.4,273.1,280z"/>
			</g>
			<g>
				
					<line fill="#FFFFFF" stroke="#121625" stroke-width="4" stroke-linecap="round" stroke-linejoin="round" stroke-miterlimit="10" x1="287.4" y1="264.5" x2="297.7" y2="263"/>
				
					<line fill="#FFFFFF" stroke="#121625" stroke-width="4" stroke-linecap="round" stroke-linejoin="round" stroke-miterlimit="10" x1="325.9" y1="264.2" x2="315.5" y2="263"/>
			</g>
			<path fill="#FFFFFF" stroke="#121625" stroke-width="4" stroke-linecap="round" stroke-miterlimit="10" d="M306.4,288.2"/>
		</g>
		<g>
			
				<line fill="#FFFFFF" stroke="#121625" stroke-width="4" stroke-linecap="round" stroke-linejoin="round" stroke-miterlimit="10" x1="270.1" y1="372.4" x2="270.1" y2="383.2"/>
			
				<line fill="#FFFFFF" stroke="#121625" stroke-width="4" stroke-linecap="round" stroke-linejoin="round" stroke-miterlimit="10" x1="345.2" y1="372.4" x2="345.2" y2="383.2"/>
		</g>
	</g>
	<path fill="#121625" d="M297,278.2c0.4-0.7,0.7-1.5,0.7-2.4c0-2.7-2.2-4.8-4.8-4.8s-4.8,2.2-4.8,4.8c0,0.9,0.3,1.8,0.7,2.6
		C290.6,277.7,293.9,276.8,297,278.2z"/>
	<path fill="#121625" d="M316.5,278.2c-0.4-0.7-0.7-1.5-0.7-2.4c0-2.7,2.2-4.8,4.8-4.8s4.8,2.2,4.8,4.8c0,0.9-0.3,1.8-0.7,2.6
		C323,277.7,319.6,276.8,316.5,278.2z"/>
	<path fill="none" stroke="#6DB52E" stroke-width="3" stroke-linecap="round" stroke-miterlimit="10" d="M358.9,335
		c0,0-8.5-7.3,1.8-16c10.2-8.7-0.1-17.9-0.1-17.9s-9.1-7.7,0.1-17.9"/>
	<path fill="none" stroke="#6DB52E" stroke-width="3" stroke-linecap="round" stroke-miterlimit="10" d="M251.3,335
		c0,0,6.8-5.9-1.4-12.9s0.1-14.4,0.1-14.4"/>
	<path fill="none" stroke="#6DB52E" stroke-width="3" stroke-linecap="round" stroke-miterlimit="10" d="M253.9,313.4
		c0,0,8.3-8.8,0-17.1s0-20.5,0-20.5"/>
	<path fill="none" stroke="#121625" stroke-width="4" stroke-linecap="round" stroke-linejoin="round" stroke-miterlimit="10" d="
		M275,259c0,0,7.6,5.8,17.9,8.2c0,0-7.5-9.2-7.5-12.6s16,6.3,16,6.3l6.2-7c0,0,7.4,4.4,15.6,0c-3.8-1.7-9.9-5.8-9.9-7.5
		c0-1.7,23.9-1,26.9,16.4"/>
	
		<path fill="#FFFFFF" stroke="#121625" stroke-width="4" stroke-linecap="round" stroke-linejoin="round" stroke-miterlimit="10" d="
		M299,294.6c0,0-0.2,4.9,8.6,4.9s8.9-5.5,8.9-5.5"/>
	<g>
		<path fill="#6DB52E" d="M310.7,286.3l1,4.5c0.1,0.6-0.2,1.1-0.8,1.2c-0.6,0.1-1.1-0.2-1.2-0.8c0-0.1,0-0.3,0-0.4L310.7,286.3z"/>
	</g>
	
		<path fill="#FFFFFF" stroke="#121625" stroke-width="3" stroke-linecap="round" stroke-linejoin="round" stroke-miterlimit="10" d="
		M305.4,227.6c0,0-0.5-2.4-1.3-3.4c1.1-4.8-1.1-8.4-1.1-8.4c0.6,1-0.1,4-2.1,4.5c-1.9-1.6-4.6-3.1-8.4-3.8c0,0,8.4,11.2,4.8,15.4"/>
</g>
</svg>
