<?xml version="1.0" encoding="utf-8"?>
<!-- Generator: Adobe Illustrator 18.1.1, SVG Export Plug-In . SVG Version: 6.00 Build 0)  -->
<svg version="1.1" id="Isolation_Mode" xmlns="http://www.w3.org/2000/svg" xmlns:xlink="http://www.w3.org/1999/xlink" x="0px"
	 y="0px" viewBox="0 0 595.3 454" enable-background="new 0 0 595.3 454" xml:space="preserve">
<line fill="none" stroke="#121625" stroke-width="3" stroke-miterlimit="10" x1="37" y1="110.8" x2="567.8" y2="111.8"/>
<path fill="none" stroke="#121625" stroke-width="11" stroke-linejoin="round" stroke-miterlimit="10" d="M557.5,418.8H50.6
	c-6.6,0-12-5.4-12-12V47.2c0-6.6,5.4-12,12-12h506.9c6.6,0,12,5.4,12,12v359.7C569.5,413.4,564.1,418.8,557.5,418.8z"/>
<g>
	<path fill="#EB5D12" d="M81.6,85.4c0,1.2-0.2,2.3-0.7,3.3c-0.5,1-1.1,2-1.9,2.7s-1.7,1.4-2.8,1.8C75.1,93.8,74,94,72.8,94h-2.5
		c-1.2,0-2.3-0.2-3.4-0.7c-1.1-0.4-2-1.1-2.8-1.8s-1.4-1.7-1.9-2.7c-0.5-1-0.7-2.2-0.7-3.3V84l3.1-0.5v1.9c0,0.8,0.2,1.5,0.5,2.2
		c0.3,0.7,0.7,1.3,1.3,1.8s1.2,0.9,1.9,1.2s1.5,0.4,2.2,0.4h2.2c0.8,0,1.5-0.1,2.2-0.4c0.7-0.3,1.3-0.7,1.9-1.2s1-1.1,1.3-1.8
		c0.3-0.7,0.5-1.4,0.5-2.2v-1c0-1.2-0.2-2.2-0.7-3c-0.5-0.8-1.1-1.5-1.9-2s-1.7-1-2.6-1.4c-1-0.4-2-0.8-3-1.2c-1-0.4-2.1-0.8-3-1.3
		c-1-0.5-1.9-1.1-2.6-1.8s-1.4-1.6-1.9-2.6c-0.5-1-0.7-2.3-0.7-3.8v-0.7c0-1.2,0.2-2.3,0.7-3.3c0.4-1,1.1-2,1.8-2.7s1.7-1.4,2.7-1.8
		c1-0.4,2.2-0.7,3.4-0.7h2.2c1.2,0,2.3,0.2,3.3,0.7c1,0.4,2,1.1,2.7,1.8s1.4,1.7,1.8,2.7c0.4,1,0.7,2.2,0.7,3.3v0.9L78.2,68v-1.4
		c0-0.8-0.1-1.5-0.4-2.2c-0.3-0.7-0.7-1.3-1.2-1.8c-0.5-0.5-1.1-0.9-1.8-1.2c-0.7-0.3-1.4-0.4-2.2-0.4h-2c-0.8,0-1.5,0.1-2.2,0.4
		c-0.7,0.3-1.3,0.7-1.8,1.2c-0.5,0.5-0.9,1.1-1.2,1.8c-0.3,0.7-0.4,1.4-0.4,2.2v0.7c0,1.1,0.2,2.1,0.7,2.8c0.5,0.8,1.1,1.4,1.9,2
		c0.8,0.5,1.7,1,2.6,1.4c1,0.4,2,0.8,3,1.2c1,0.4,2.1,0.9,3,1.4c1,0.5,1.9,1.1,2.6,1.8c0.8,0.7,1.4,1.6,1.9,2.6
		c0.5,1,0.7,2.3,0.7,3.8V85.4z"/>
	<path fill="#EB5D12" d="M96.9,61.5v32h-3.1v-32h-8.3v-3h19.8v3H96.9z"/>
	<path fill="#EB5D12" d="M121.9,85.3h-11.1l-2.3,8.2h-3.3l10.3-35h1.7l10.3,35h-3.2L121.9,85.3z M111.6,82.3h9.4l-4.6-16.1l-0.1-1.3
		l-0.1,1.3L111.6,82.3z"/>
	<path fill="#EB5D12" d="M151,74.8c-0.4,1-1.1,2-1.8,2.7s-1.7,1.4-2.7,1.8c-1,0.4-2.2,0.7-3.4,0.7h-7.9v13.5h-3.1v-35H143
		c1.2,0,2.3,0.2,3.4,0.7c1,0.4,2,1.1,2.7,1.8s1.4,1.7,1.8,2.7c0.4,1,0.7,2.2,0.7,3.4v4.3C151.6,72.6,151.4,73.8,151,74.8z
		 M148.5,67.1c0-0.8-0.1-1.5-0.4-2.2c-0.3-0.7-0.7-1.3-1.2-1.8s-1.1-0.9-1.8-1.2c-0.7-0.3-1.4-0.4-2.2-0.4h-7.8V77h7.8
		c0.8,0,1.5-0.1,2.2-0.4c0.7-0.3,1.3-0.7,1.8-1.2c0.5-0.5,0.9-1.1,1.2-1.8c0.3-0.7,0.4-1.4,0.4-2.2V67.1z"/>
	<path fill="#EB5D12" d="M176.6,61c-0.8,0-1.5,0.1-2.2,0.4c-0.7,0.3-1.3,0.7-1.8,1.2c-0.5,0.5-0.9,1.1-1.2,1.8
		c-0.3,0.7-0.4,1.4-0.4,2.2V68l-3.1-0.5v-0.9c0-1.2,0.2-2.3,0.7-3.3c0.4-1,1.1-2,1.8-2.7s1.7-1.4,2.7-1.8c1-0.4,2.2-0.7,3.3-0.7h1.5
		c1.2,0,2.3,0.2,3.4,0.6c1,0.4,2,1,2.7,1.8c0.8,0.8,1.4,1.8,1.8,2.9c0.4,1.1,0.7,2.4,0.7,3.8c0,1.4-0.2,2.8-0.6,4.2
		c-0.4,1.4-1,2.8-1.6,4.1c-0.7,1.4-1.4,2.7-2.3,3.9c-0.9,1.3-1.8,2.5-2.7,3.6c-2.1,2.6-4.5,5.1-7.3,7.6h14.7v3h-19.7V91
		c3-2.5,5.8-5.1,8.2-7.8c1-1.2,2-2.4,3-3.7c1-1.3,1.8-2.6,2.6-4c0.8-1.4,1.4-2.8,1.8-4.2c0.5-1.4,0.7-2.8,0.7-4.2
		c0-1-0.2-1.9-0.5-2.7c-0.3-0.8-0.7-1.4-1.2-1.9c-0.5-0.5-1.1-0.9-1.8-1.1c-0.7-0.3-1.4-0.4-2.1-0.4H176.6z"/>
	<path fill="#EB5D12" d="M193.3,72.3v-3.8h3.8v3.8H193.3z M193.3,93.5v-3.8h3.8v3.8H193.3z"/>
</g>
<rect x="352" y="49.4" fill="#EE7411" width="202.1" height="50.7"/>
<g>
	<path fill="#FFFFFF" d="M379,64.3v25.6h-2.5V64.3h-6.7v-2.4h15.9v2.4H379z"/>
	<path fill="#FFFFFF" d="M402.9,89.9V77.1h-10.7v12.8h-2.5v-28h2.5v12.8h10.7V61.9h2.5v28H402.9z"/>
	<path fill="#FFFFFF" d="M411.8,89.9v-28h15.8v2.4h-13.2v10.4h10.7v2.4h-10.7v10.4h13.2v2.4H411.8z"/>
	<path fill="#FFFFFF" d="M454.8,89.9l-7.6-12h-3.5v12h-2.5v-28h8.9c1,0,1.8,0.2,2.7,0.5c0.8,0.4,1.6,0.8,2.2,1.5s1.1,1.4,1.5,2.2
		s0.5,1.7,0.5,2.7V71c0,1-0.2,1.8-0.5,2.7s-0.8,1.6-1.5,2.2s-1.4,1.1-2.2,1.5c-0.8,0.4-1.7,0.5-2.7,0.5l7.6,12H454.8z M454.4,68.8
		c0-0.6-0.1-1.2-0.4-1.7c-0.2-0.5-0.6-1-1-1.4s-0.9-0.7-1.4-1s-1.1-0.4-1.7-0.4h-6.2v11.2h6.2c0.6,0,1.2-0.1,1.7-0.4s1-0.6,1.4-1
		s0.7-0.9,1-1.4c0.2-0.5,0.4-1.1,0.4-1.7V68.8z"/>
	<path fill="#FFFFFF" d="M462.5,89.9v-28h2.5v28H462.5z"/>
	<path fill="#FFFFFF" d="M478.2,64.3v25.6h-2.5V64.3H469v-2.4h15.9v2.4H478.2z"/>
	<path fill="#FFFFFF" d="M503.7,86.1c-0.4,0.8-0.8,1.6-1.5,2.2s-1.4,1.1-2.2,1.5s-1.7,0.5-2.7,0.5h-2c-1,0-1.8-0.2-2.7-0.5
		s-1.6-0.8-2.2-1.5s-1.1-1.4-1.5-2.2c-0.4-0.8-0.5-1.7-0.5-2.7V61.9h2.5v21.5c0,0.6,0.1,1.2,0.4,1.7c0.2,0.5,0.6,1,1,1.4
		s0.9,0.7,1.4,1s1.1,0.4,1.7,0.4h1.8c0.6,0,1.2-0.1,1.7-0.4s1-0.6,1.4-1s0.7-0.9,1-1.4c0.2-0.5,0.4-1.1,0.4-1.7V61.9h2.5v21.5
		C504.2,84.3,504,85.2,503.7,86.1z"/>
	<path fill="#FFFFFF" d="M520.7,83.4h-8.9l-1.8,6.5h-2.6l8.2-28h1.3l8.2,28h-2.6L520.7,83.4z M512.6,81h7.5L516.4,68l-0.1-1l-0.1,1
		L512.6,81z"/>
	<path fill="#FFFFFF" d="M528.4,89.9v-28h2.5v25.6h10.7v2.4H528.4z"/>
</g>
<g>
	<path fill="none" stroke="#000000" stroke-width="3" stroke-linecap="round" stroke-linejoin="round" stroke-miterlimit="10" d="
		M137.2,222.1l-2.1,10.4h-0.4c-16.9,0-30.8,13.9-30.8,30.8v11.8"/>
	<path fill="none" stroke="#000000" stroke-width="3" stroke-linecap="round" stroke-linejoin="round" stroke-miterlimit="10" d="
		M189,275.1v-11.8c0-16.9-13.9-30.8-30.8-30.8h0.1l-2.7-10.4"/>
	<g>
		<g>
			<path fill="none" stroke="#000000" stroke-width="3" stroke-linecap="round" stroke-linejoin="round" stroke-miterlimit="10" d="
				M177.7,194.2c-3.3-3.3-5.8,0-5.8,0v4.6c0,3.4-0.7,6.6-1.9,9.5c0.9-0.9,3.5-3.5,6.4-6.4C180,198.2,177.7,194.2,177.7,194.2z"/>
			<path fill="none" stroke="#000000" stroke-width="3" stroke-linecap="round" stroke-linejoin="round" stroke-miterlimit="10" d="
				M120.9,198.8V194c-0.5-0.6-2.8-2.8-5.7,0.1c0,0-2.3,4.1,1.3,7.7c2.8,2.8,5.2,5.2,6.2,6.2C121.6,205.2,120.9,202.1,120.9,198.8z"
				/>
		</g>
		<path fill="none" stroke="#000000" stroke-width="3" stroke-linecap="round" stroke-linejoin="round" stroke-miterlimit="10" d="
			M121,180.4c0,0,6,4.5,13.9,6.4c0,0-5.9-7.2-5.9-9.8c0-2.7,12.5,4.9,12.5,4.9l4.9-5.5c0,0,5.8,3.4,12.2,0c-2.9-1.3-7.7-4.5-7.7-5.8
			s18.6-0.8,21,12.8"/>
		<path fill="none" stroke="#000000" stroke-width="3" stroke-linecap="round" stroke-linejoin="round" stroke-miterlimit="10" d="
			M167.1,165.8L167.1,165.8c4-3.4,3.7-9.9,2.8-7.1c-0.8,2.8-7.9,2-7.9,2l0,0c-4.1-3.1-9.3-5-14.8-5h-1.6
			c-13.6,0-24.7,11.1-24.7,24.7v17.9c0,13.6,11.1,24.7,24.7,24.7h1.6c13.6,0,24.7-11.1,24.7-24.7v-17.9
			C171.9,174.9,170.1,169.9,167.1,165.8z"/>
		
			<path fill="#FFFFFF" stroke="#000000" stroke-width="3" stroke-linecap="round" stroke-linejoin="round" stroke-miterlimit="10" d="
			M146.3,158.2c0,0-0.4-1.7-0.9-2.5c0.8-3.5-0.8-6.1-0.8-6.1c0.5,0.7-0.1,2.9-1.5,3.3c-1.4-1.2-3.3-2.2-6.1-2.7c0,0,6,8.1,3.4,11.1"
			/>
		<g>
			<path fill="none" stroke="#000000" stroke-width="2" stroke-linecap="round" stroke-miterlimit="10" d="M152.6,196.5
				c0,0,0.7,2.5,3.6,2.5c2.9,0,3.6-2.5,3.6-2.5"/>
			<path d="M153.1,191.2c-0.4,0.7-0.6,1.5-0.4,2.5c0.3,1.4,1.4,2.6,2.8,2.8c2.3,0.5,4.4-1.3,4.4-3.6c0-0.4-0.1-0.9-0.2-1.3
				c-0.2-0.4-0.6-0.6-1-0.5c-1.8,0.3-3.3,0.1-4.5-0.3C153.8,190.7,153.3,190.8,153.1,191.2z"/>
			<path fill="none" stroke="#000000" stroke-width="2" stroke-linecap="round" stroke-miterlimit="10" d="M140.3,196.5
				c0,0-0.7,2.5-3.6,2.5c-2.9,0-3.6-2.5-3.6-2.5"/>
			<path d="M139.8,191.2c0.4,0.7,0.6,1.5,0.4,2.5c-0.3,1.4-1.4,2.6-2.8,2.8c-2.3,0.5-4.4-1.3-4.4-3.6c0-0.4,0.1-0.9,0.2-1.3
				c0.2-0.4,0.6-0.6,1-0.5c1.8,0.3,3.3,0.1,4.5-0.3C139.1,190.7,139.6,190.8,139.8,191.2z"/>
		</g>
		<g>
			
				<line fill="none" stroke="#000000" stroke-width="3" stroke-linecap="round" stroke-linejoin="round" stroke-miterlimit="10" x1="131.5" y1="187.3" x2="139.1" y2="186.2"/>
			
				<line fill="none" stroke="#000000" stroke-width="3" stroke-linecap="round" stroke-linejoin="round" stroke-miterlimit="10" x1="159.9" y1="187.2" x2="152.2" y2="186.2"/>
		</g>
		<path fill="none" stroke="#000000" stroke-width="3" stroke-linecap="round" stroke-miterlimit="10" d="M145.5,204.8"/>
		<path fill="none" stroke="#000000" stroke-width="3" stroke-linecap="round" stroke-linejoin="round" stroke-miterlimit="10" d="
			M156.6,212.5h3.3c0-4-3-7.7-13.4-7.7c-10.5,0-13.4,3.8-13.4,7.7h19.4c0,0,1.7,0.7,1.3,2.4c-0.4,1.7,1.9,1.7,1.5,0
			C154.8,213.3,156.6,212.5,156.6,212.5z"/>
	</g>
	
		<polyline fill="none" stroke="#000000" stroke-width="3" stroke-linecap="round" stroke-linejoin="round" stroke-miterlimit="10" points="
		134.7,232.5 143,235.4 136.6,244.1 129,233 	"/>
	
		<polyline fill="none" stroke="#000000" stroke-width="3" stroke-linecap="round" stroke-linejoin="round" stroke-miterlimit="10" points="
		158.2,232.5 150.9,238.3 159.9,243.1 161.6,232.7 	"/>
	
		<polyline fill="none" stroke="#000000" stroke-width="3" stroke-linecap="round" stroke-linejoin="round" stroke-miterlimit="10" points="
		150.9,238.3 148.2,249.4 147.2,264.8 141.1,247 143,235.4 	"/>
	<g>
		
			<line fill="none" stroke="#000000" stroke-width="3" stroke-linecap="round" stroke-linejoin="round" stroke-miterlimit="10" x1="118.7" y1="267.1" x2="118.7" y2="275.1"/>
		
			<line fill="none" stroke="#000000" stroke-width="3" stroke-linecap="round" stroke-linejoin="round" stroke-miterlimit="10" x1="174.2" y1="267.1" x2="174.2" y2="275.1"/>
	</g>
	
		<line fill="none" stroke="#000000" stroke-width="3" stroke-linecap="round" stroke-linejoin="round" stroke-miterlimit="10" x1="147.2" y1="264.8" x2="147.2" y2="276.1"/>
	<circle cx="153.6" cy="244.1" r="1.2"/>
	<circle cx="152" cy="252.6" r="1.2"/>
	<circle cx="151.4" cy="261.1" r="1.2"/>
	<circle cx="151.4" cy="271.2" r="1.2"/>
</g>
<path opacity="0.62" fill="#EE7411" d="M265.3,230.2l-2-7.6c5.8-2.6,10.6-7.2,13.3-12.9c0,0,0,0,0,0l6.4-6.4
	c3.8-3.8,2.8-8.4,1.7-10.3c-0.1-0.2-0.2-0.3-0.3-0.4c-1.4-1.4-2.9-2.1-4.5-2.1c-0.2,0-0.4,0-0.6,0v-10.2c0-5.1-1.4-10.1-4.2-14.4
	c2.4-3,3.1-7.1,2.6-8.6c-0.3-0.9-1.2-1.5-2.1-1.5c-1.1,0-1.9,0.7-2.4,2.2c-0.2,0.2-1.2,0.6-3.5,0.6c-0.6,0-1.1,0-1.5-0.1
	c-4.6-3.3-10-5-15.6-5h-0.2c0-2.3-0.8-4-1.1-4.5c0-0.1-0.1-0.1-0.1-0.2c-0.4-0.6-1.2-0.8-1.8-0.4c-0.6,0.4-0.8,1.1-0.5,1.8
	c0,0.2-0.1,0.7-0.3,1c-1.6-1.2-3.6-2-5.8-2.4c-0.5-0.1-1.1,0.1-1.4,0.6c-0.3,0.5-0.3,1.1,0.1,1.5c1,1.3,1.7,2.5,2.3,3.6
	c-11.2,3.2-19.4,13.5-19.4,25.7v10.2c-0.2,0-0.4,0-0.6,0c-1.6,0-3.1,0.7-4.5,2.1c-0.1,0.1-0.2,0.3-0.3,0.4
	c-1.1,1.9-2.1,6.5,1.7,10.3l6.2,6.2c0.1,0.1,0.1,0.1,0.2,0.2c2.8,5.8,7.5,10.4,13.4,13l-1.6,7.6c-17.5,0.7-31.5,15.2-31.5,32.8v11.8
	c0,1.2,1,2.1,2.1,2.1h85c1.2,0,2.1-1,2.1-2.1V263C296.4,245.5,282.6,231.1,265.3,230.2z"/>
<path opacity="0.62" fill="#EE7411" d="M370.7,230.2l-2-7.6c5.8-2.6,10.6-7.2,13.3-12.9c0,0,0,0,0,0l6.4-6.4
	c3.8-3.8,2.8-8.4,1.7-10.3c-0.1-0.2-0.2-0.3-0.3-0.4c-1.4-1.4-2.9-2.1-4.5-2.1c-0.2,0-0.4,0-0.6,0v-10.2c0-5.1-1.4-10.1-4.2-14.4
	c2.4-3,3.1-7.1,2.6-8.6c-0.3-0.9-1.2-1.5-2.1-1.5c-1.1,0-1.9,0.7-2.4,2.2c-0.2,0.2-1.2,0.6-3.5,0.6c-0.6,0-1.1,0-1.5-0.1
	c-4.6-3.3-10-5-15.6-5h-0.2c0-2.3-0.8-4-1.1-4.5c0-0.1-0.1-0.1-0.1-0.2c-0.4-0.6-1.2-0.8-1.8-0.4c-0.6,0.4-0.8,1.1-0.5,1.8
	c0,0.2-0.1,0.7-0.3,1c-1.6-1.2-3.6-2-5.8-2.4c-0.5-0.1-1.1,0.1-1.4,0.6c-0.3,0.5-0.3,1.1,0.1,1.5c1,1.3,1.7,2.5,2.3,3.6
	c-11.2,3.2-19.4,13.5-19.4,25.7v10.2c-0.2,0-0.4,0-0.6,0c-1.6,0-3.1,0.7-4.5,2.1c-0.1,0.1-0.2,0.3-0.3,0.4
	c-1.1,1.9-2.1,6.5,1.7,10.3l6.2,6.2c0.1,0.1,0.1,0.1,0.2,0.2c2.8,5.8,7.5,10.4,13.4,13l-1.6,7.6c-17.5,0.7-31.5,15.2-31.5,32.8v11.8
	c0,1.2,1,2.1,2.1,2.1h85c1.2,0,2.1-1,2.1-2.1V263C401.8,245.5,388,231.1,370.7,230.2z"/>
<path opacity="0.62" fill="#EE7411" d="M476.1,230.2l-2-7.6c5.8-2.6,10.6-7.2,13.3-12.9c0,0,0,0,0,0l6.4-6.4
	c3.8-3.8,2.8-8.4,1.7-10.3c-0.1-0.2-0.2-0.3-0.3-0.4c-1.4-1.4-2.9-2.1-4.5-2.1c-0.2,0-0.4,0-0.6,0v-10.2c0-5.1-1.4-10.1-4.2-14.4
	c2.4-3,3.1-7.1,2.6-8.6c-0.3-0.9-1.2-1.5-2.1-1.5c-1.1,0-1.9,0.7-2.4,2.2c-0.2,0.2-1.2,0.6-3.5,0.6c-0.6,0-1.1,0-1.5-0.1
	c-4.6-3.3-10-5-15.6-5h-0.2c0-2.3-0.8-4-1.1-4.5c0-0.1-0.1-0.1-0.1-0.2c-0.4-0.6-1.2-0.8-1.8-0.4c-0.6,0.4-0.8,1.1-0.5,1.8
	c0,0.2-0.1,0.7-0.3,1c-1.6-1.2-3.6-2-5.8-2.4c-0.5-0.1-1.1,0.1-1.4,0.6c-0.3,0.5-0.3,1.1,0.1,1.5c1,1.3,1.7,2.5,2.3,3.6
	c-11.2,3.2-19.4,13.5-19.4,25.7v10.2c-0.2,0-0.4,0-0.6,0c-1.6,0-3.1,0.7-4.5,2.1c-0.1,0.1-0.2,0.3-0.3,0.4
	c-1.1,1.9-2.1,6.5,1.7,10.3l6.2,6.2c0.1,0.1,0.1,0.1,0.2,0.2c2.8,5.8,7.5,10.4,13.4,13l-1.6,7.6c-17.5,0.7-31.5,15.2-31.5,32.8v11.8
	c0,1.2,1,2.1,2.1,2.1h85c1.2,0,2.1-1,2.1-2.1V263C507.1,245.5,493.3,231.1,476.1,230.2z"/>
<g>
	<path fill="#FFFFFF" d="M248.3,188.8h2.8c1.6,0,2.8-1.2,2.8-2.8c0-1.6-1.2-2.8-2.8-2.8s-2.7,1.1-2.8,2.6v0.1h-5v-0.2
		c0-4.3,3.5-7.8,7.8-7.8c4.3,0,7.8,3.5,7.8,7.8c0,3.5-2.4,6.5-5.6,7.5v2.5h-5V188.8z M250.8,196.8c1.4,0,2.5,1.1,2.5,2.5
		c0,1.5-1.1,2.5-2.5,2.5c-1.5,0-2.5-1.1-2.5-2.5C248.3,197.9,249.4,196.8,250.8,196.8z"/>
</g>
<g>
	<path fill="#FFFFFF" d="M354.1,188.8h2.8c1.6,0,2.8-1.2,2.8-2.8c0-1.6-1.2-2.8-2.8-2.8s-2.7,1.1-2.8,2.6v0.1h-5v-0.2
		c0-4.3,3.5-7.8,7.8-7.8s7.8,3.5,7.8,7.8c0,3.5-2.4,6.5-5.6,7.5v2.5h-5V188.8z M356.6,196.8c1.4,0,2.5,1.1,2.5,2.5
		c0,1.5-1.1,2.5-2.5,2.5c-1.5,0-2.5-1.1-2.5-2.5C354,197.9,355.1,196.8,356.6,196.8z"/>
</g>
<g>
	<path fill="#FFFFFF" d="M459.4,188.8h2.8c1.6,0,2.8-1.2,2.8-2.8c0-1.6-1.2-2.8-2.8-2.8s-2.7,1.1-2.8,2.6v0.1h-5v-0.2
		c0-4.3,3.5-7.8,7.8-7.8c4.3,0,7.8,3.5,7.8,7.8c0,3.5-2.4,6.5-5.6,7.5v2.5h-5V188.8z M462,196.8c1.4,0,2.5,1.1,2.5,2.5
		c0,1.5-1.1,2.5-2.5,2.5c-1.5,0-2.5-1.1-2.5-2.5C459.4,197.9,460.5,196.8,462,196.8z"/>
</g>
<g>
	<defs>
		<rect id="SVGID_1_" x="73" y="131.6" width="462.1" height="145.7"/>
	</defs>
	<clipPath id="SVGID_2_">
		<use xlink:href="#SVGID_1_"  overflow="visible"/>
	</clipPath>
	<g id="glans" clip-path="url(#SVGID_2_)">
		
			<line opacity="0.21" fill="none" stroke="#FFFFFF" stroke-width="20" stroke-miterlimit="10" x1="63.4" y1="143.5" x2="200.9" y2="289"/>
		
			<line opacity="0.21" fill="none" stroke="#FFFFFF" stroke-width="20" stroke-miterlimit="10" x1="113.1" y1="119.5" x2="273.3" y2="289"/>
		
			<line opacity="0.21" fill="none" stroke="#FFFFFF" stroke-width="20" stroke-miterlimit="10" x1="222.2" y1="131.4" x2="382.4" y2="300.9"/>
		
			<line opacity="0.21" fill="none" stroke="#FFFFFF" stroke-width="7" stroke-miterlimit="10" x1="271.4" y1="123.1" x2="431.6" y2="292.6"/>
		
			<line opacity="0.21" fill="none" stroke="#FFFFFF" stroke-width="20" stroke-miterlimit="10" x1="406.1" y1="119.5" x2="566.3" y2="289"/>
		
			<line opacity="0.21" fill="none" stroke="#FFFFFF" stroke-width="20" stroke-miterlimit="10" x1="437.1" y1="119.5" x2="597.3" y2="289"/>
		
			<line opacity="0.21" fill="none" stroke="#FFFFFF" stroke-width="11" stroke-miterlimit="10" x1="329.5" y1="119.5" x2="489.7" y2="289"/>
		
			<line opacity="0.21" fill="none" stroke="#FFFFFF" stroke-width="6" stroke-miterlimit="10" x1="64.1" y1="119.5" x2="224.3" y2="289"/>
	</g>
</g>
<polyline fill="none" stroke="#586B73" stroke-width="7" stroke-linecap="round" stroke-linejoin="round" stroke-miterlimit="10" points="
	535.1,277.3 535.1,131.6 73,131.6 73,277.3 "/>
<g>
	<circle fill="#586B73" cx="184.1" cy="154.6" r="7.2"/>
	<g>
		<path fill="#FFFFFF" d="M182.1,153.2v-0.7c0.7-0.1,1.2-0.2,1.5-0.3c0.3-0.2,0.5-0.5,0.6-1.1h0.8v7.7h-1v-5.4H182.1z"/>
	</g>
</g>
<g>
	<circle fill="#586B73" cx="289.2" cy="154.6" r="7.2"/>
	<g>
		<path fill="#FFFFFF" d="M286.9,156.9c0.2-0.5,0.7-0.9,1.4-1.3l1-0.6c0.5-0.3,0.8-0.5,1-0.7c0.3-0.3,0.4-0.6,0.4-1
			c0-0.4-0.1-0.8-0.4-1.1s-0.6-0.4-1.1-0.4c-0.7,0-1.1,0.3-1.4,0.8c-0.1,0.3-0.2,0.6-0.2,1.1h-1c0-0.7,0.1-1.2,0.4-1.6
			c0.4-0.7,1.2-1.1,2.2-1.1c0.9,0,1.5,0.2,1.9,0.7c0.4,0.5,0.6,1,0.6,1.6c0,0.6-0.2,1.1-0.6,1.6c-0.3,0.3-0.7,0.6-1.3,0.9l-0.7,0.4
			c-0.4,0.2-0.6,0.4-0.8,0.6c-0.4,0.3-0.6,0.7-0.7,1h4.2v0.9h-5.3C286.5,158,286.6,157.4,286.9,156.9z"/>
	</g>
</g>
<g>
	<circle fill="#586B73" cx="394.5" cy="154.6" r="7.2"/>
	<g>
		<path fill="#FFFFFF" d="M392.3,158.1c-0.4-0.5-0.6-1.1-0.6-1.8h1c0,0.5,0.1,0.9,0.3,1.1c0.3,0.4,0.7,0.6,1.4,0.6
			c0.5,0,0.9-0.1,1.2-0.4c0.3-0.3,0.5-0.6,0.5-1.1c0-0.5-0.2-0.9-0.5-1.1s-0.8-0.3-1.4-0.3c-0.1,0-0.1,0-0.2,0c-0.1,0-0.1,0-0.2,0
			v-0.9c0.1,0,0.2,0,0.3,0c0.1,0,0.1,0,0.2,0c0.4,0,0.7-0.1,0.9-0.2c0.4-0.2,0.6-0.6,0.6-1.1c0-0.4-0.1-0.7-0.4-0.9
			c-0.3-0.2-0.6-0.3-1-0.3c-0.6,0-1.1,0.2-1.3,0.6c-0.1,0.2-0.2,0.6-0.2,1h-1c0-0.6,0.1-1.1,0.3-1.5c0.4-0.7,1.1-1.1,2.1-1.1
			c0.8,0,1.4,0.2,1.8,0.5c0.4,0.3,0.6,0.9,0.6,1.5c0,0.5-0.1,0.9-0.4,1.1c-0.2,0.2-0.4,0.3-0.6,0.4c0.4,0.1,0.7,0.3,0.9,0.6
			c0.2,0.3,0.3,0.7,0.3,1.2c0,0.7-0.2,1.3-0.7,1.8s-1.2,0.7-2.1,0.7C393.4,158.9,392.8,158.6,392.3,158.1z"/>
	</g>
</g>
<g>
	<circle fill="#586B73" cx="499.9" cy="154.6" r="7.2"/>
	<g>
		<path fill="#FFFFFF" d="M500.5,158.7v-1.9h-3.4v-0.9l3.5-4.9h0.8v5h1.1v0.8h-1.1v1.9H500.5z M500.5,156v-3.5L498,156H500.5z"/>
	</g>
</g>
<line fill="none" stroke="#586B73" stroke-width="4" stroke-linecap="round" stroke-linejoin="round" stroke-miterlimit="10" x1="199.1" y1="280.4" x2="199.1" y2="393.7"/>
<line fill="none" stroke="#586B73" stroke-width="4" stroke-linecap="round" stroke-linejoin="round" stroke-miterlimit="10" x1="304.1" y1="280.4" x2="304.1" y2="393.7"/>
<line fill="none" stroke="#586B73" stroke-width="4" stroke-linecap="round" stroke-linejoin="round" stroke-miterlimit="10" x1="410.1" y1="280.4" x2="410.1" y2="393.7"/>
<g>
	<path fill="#EE7411" d="M175.4,291.3l-0.8-3.2c0.2-0.2,0.3-0.5,0.2-0.8l-0.2-0.8c-0.1-0.5-0.7-0.7-1.3-0.6l-11.6,3l-2.2,1.3
		l-37.8,9.9c-0.6,0.2-1,0.7-0.8,1.1l0.2,0.8c0.1,0.5,0.7,0.7,1.3,0.6l37.8-9.9l2.1-1.2l0.8,2.9c0,0.2,0.2,0.3,0.3,0.4
		c0.1,0.1,0.2,0.1,0.4,0.1c0.1,0,0.1,0,0.2,0l11-2.9c0.2,0,0.3-0.2,0.4-0.3C175.5,291.7,175.5,291.5,175.4,291.3z M164.3,293.5
		l-0.6-2.1l0.7-0.2l0.3,1.3c0.1,0.2,0.3,0.4,0.5,0.4c0,0,0.1,0,0.1,0c0.3-0.1,0.5-0.4,0.4-0.7l-0.3-1.3l0.4-0.1l0.3,1.3
		c0.1,0.2,0.3,0.4,0.5,0.4c0,0,0.1,0,0.1,0c0.3-0.1,0.5-0.4,0.4-0.7l-0.3-1.3l0.4-0.1l0.3,1.3c0.1,0.2,0.3,0.4,0.5,0.4
		c0,0,0.1,0,0.1,0c0.3-0.1,0.5-0.4,0.4-0.7l-0.3-1.3l0.4-0.1l0.3,1.3c0.1,0.2,0.3,0.4,0.5,0.4c0,0,0.1,0,0.1,0
		c0.3-0.1,0.5-0.4,0.4-0.7l-0.3-1.3l0.4-0.1l0.3,1.3c0.1,0.2,0.3,0.4,0.5,0.4c0,0,0.1,0,0.1,0c0.3-0.1,0.5-0.4,0.4-0.7l-0.3-1.3
		l0.4-0.1l0.3,1.3c0.1,0.2,0.3,0.4,0.5,0.4c0,0,0.1,0,0.1,0c0.3-0.1,0.5-0.4,0.4-0.7l-0.3-1.3l0.4-0.1l0.6,2.1L164.3,293.5z"/>
	<g>
		<path fill="#EE7411" d="M165.5,316.8L125,327c-3.4,0.9-5.5,4.4-4.7,7.8l1.4,5.7c0.1,0.3,0.4,0.5,0.7,0.4l0,0
			c0.3-0.1,0.5-0.4,0.4-0.7l-1.4-5.7c-0.1-0.5-0.2-1-0.1-1.2c0,0,0,0,0.2,0c0.2,0,0.2,0,0.2,0c0.1,0.2,0.3,0.7,0.4,1.1l1.4,5.5
			c0.1,0.5,0.4,0.8,0.5,0.7s0.2-0.5,0.1-0.9l-1.4-5.5c-0.1-0.5-0.2-1-0.1-1.2c0,0,0,0,0.2,0c0.2,0,0.2,0,0.2,0
			c0.1,0.2,0.3,0.7,0.4,1.1l1.4,5.5c0.1,0.5,0.4,0.8,0.5,0.7s0.2-0.5,0.1-0.9l-1.4-5.5c-0.1-0.5-0.2-1-0.1-1.2c0,0,0,0,0.2,0
			c0.2,0,0.2,0,0.2,0c0.1,0.2,0.3,0.7,0.4,1.1l1.4,5.5c0.1,0.5,0.4,0.8,0.5,0.7c0.2,0,0.2-0.5,0.1-0.9l-1.4-5.5
			c-0.1-0.5-0.2-1-0.1-1.2c0,0,0,0,0.2,0c0.2,0,0.2,0,0.2,0c0.1,0.2,0.3,0.7,0.4,1.1l1.4,5.5c0.1,0.5,0.4,0.8,0.5,0.7
			c0.2,0,0.2-0.5,0.1-0.9l-1.4-5.5c-0.1-0.5-0.2-1-0.1-1.2c0,0,0,0,0.2,0c0.2,0,0.2,0,0.2,0c0.1,0.2,0.3,0.7,0.4,1.1l1.4,5.5
			c0.1,0.5,0.4,0.8,0.5,0.7s0.2-0.5,0.1-0.9l-1.4-5.5c-0.1-0.5-0.2-1-0.1-1.2c0,0,0,0,0.2,0c0.2,0,0.2,0,0.2,0
			c0.1,0.2,0.3,0.7,0.4,1.1l1.4,5.5c0.1,0.5,0.4,0.8,0.5,0.7s0.2-0.5,0.1-0.9l-1.4-5.5c-0.1-0.5-0.2-1-0.1-1.2c0,0,0,0,0.2,0
			c0.2,0,0.2,0,0.2,0c0.1,0.2,0.3,0.7,0.4,1.1l1.4,5.5c0.1,0.5,0.4,0.8,0.5,0.7s0.2-0.5,0.1-0.9l-1.4-5.5c-0.1-0.5-0.2-1-0.1-1.2
			c0,0,0,0,0.2,0c0.2,0,0.2,0,0.2,0c0.1,0.2,0.3,0.7,0.4,1.1l1.4,5.5c0.1,0.5,0.4,0.8,0.5,0.7c0.2,0,0.2-0.5,0.1-0.9l-1.4-5.5
			c-0.1-0.5-0.2-1-0.1-1.2c0,0,0,0,0.2,0c0.2,0,0.2,0,0.2,0c0.1,0.2,0.3,0.7,0.4,1.1l1.4,5.5c0.1,0.5,0.4,0.8,0.5,0.7
			s0.2-0.5,0.1-0.9l-1.4-5.5c-0.1-0.5-0.2-1-0.1-1.2c0,0,0,0,0.2,0c0.2,0,0.2,0,0.2,0c0.1,0.2,0.3,0.7,0.4,1.1l1.4,5.5
			c0.1,0.5,0.4,0.8,0.5,0.7s0.2-0.5,0.1-0.9l-1.4-5.5c-0.1-0.5-0.2-1-0.1-1.2c0,0,0,0,0.2,0c0.2,0,0.2,0,0.2,0
			c0.1,0.2,0.3,0.7,0.4,1.1l1.4,5.5c0.1,0.5,0.4,0.8,0.5,0.7c0.2,0,0.2-0.5,0.1-0.9l-1.4-5.5c-0.1-0.5-0.2-1-0.1-1.2c0,0,0,0,0.2,0
			c0.2,0,0.2,0,0.2,0c0.1,0.2,0.3,0.7,0.4,1.1l1.4,5.5c0.1,0.5,0.4,0.8,0.5,0.7s0.2-0.5,0.1-0.9l-1.4-5.5c-0.1-0.5-0.2-1-0.1-1.2
			c0,0,0,0,0.2,0c0.2,0,0.2,0,0.2,0c0.1,0.2,0.3,0.7,0.4,1.1l1.4,5.5c0.1,0.5,0.4,0.8,0.5,0.7s0.2-0.5,0.1-0.9l-1.4-5.5
			c-0.1-0.5-0.2-1-0.1-1.2c0,0,0,0,0.2,0c0.2,0,0.2,0,0.2,0c0.1,0.2,0.3,0.7,0.4,1.1l1.4,5.5c0.1,0.5,0.4,0.8,0.5,0.7
			s0.2-0.5,0.1-0.9l-1.4-5.5c-0.1-0.5-0.2-1-0.1-1.2c0,0,0,0,0.2,0c0.2,0,0.2,0,0.2,0c0.1,0.2,0.3,0.7,0.4,1.1l1.4,5.5
			c0.1,0.5,0.4,0.8,0.5,0.7s0.2-0.5,0.1-0.9l-1.4-5.5c-0.1-0.5-0.2-1-0.1-1.2c0,0,0,0,0.2,0c0.2,0,0.2,0,0.2,0
			c0.1,0.2,0.3,0.7,0.4,1.1l1.4,5.5c0.1,0.5,0.4,0.8,0.5,0.7s0.2-0.5,0.1-0.9l-1.4-5.5c-0.1-0.5-0.2-1-0.1-1.2c0,0,0,0,0.2,0
			c0.2,0,0.2,0,0.2,0c0.1,0.2,0.3,0.7,0.4,1.1l1.4,5.5c0.1,0.5,0.4,0.8,0.5,0.7s0.2-0.5,0.1-0.9l-1.4-5.5c-0.1-0.5-0.2-1-0.1-1.2
			c0,0,0,0,0.2,0c0.2,0,0.2,0,0.2,0c0.1,0.2,0.3,0.7,0.4,1.1l1.4,5.5c0.1,0.5,0.4,0.8,0.5,0.7s0.2-0.5,0.1-0.9l-1.4-5.5
			c-0.1-0.5-0.2-1-0.1-1.2c0,0,0,0,0.2,0c0.2,0,0.2,0,0.2,0c0.1,0.2,0.3,0.7,0.4,1.1l1.4,5.5c0.1,0.5,0.4,0.8,0.5,0.7
			c0.2,0,0.2-0.5,0.1-0.9l-1.4-5.5c-0.1-0.5-0.2-1-0.1-1.2c0,0,0,0,0.2,0c0.2,0,0.2,0,0.2,0c0.1,0.2,0.3,0.7,0.4,1.1l1.4,5.5
			c0.1,0.5,0.4,0.8,0.5,0.7s0.2-0.5,0.1-0.9l-1.4-5.5c-0.1-0.5-0.2-1-0.1-1.2c0,0,0,0,0.2,0c0.2,0,0.2,0,0.2,0
			c0.1,0.2,0.3,0.7,0.4,1.1l1.4,5.5c0.1,0.5,0.4,0.8,0.5,0.7s0.2-0.5,0.1-0.9l-1.4-5.5c-0.1-0.5-0.2-1-0.1-1.2c0,0,0,0,0.2,0
			c0.2,0,0.2,0,0.2,0c0.1,0.2,0.3,0.7,0.4,1.1l1.4,5.5c0.1,0.5,0.4,0.8,0.5,0.7c0.2,0,0.2-0.5,0.1-0.9l-1.4-5.5
			c-0.1-0.5-0.2-1-0.1-1.2c0,0,0,0,0.2,0c0.2,0,0.2,0,0.2,0c0.1,0.2,0.3,0.7,0.4,1.1l1.4,5.5c0.1,0.5,0.4,0.8,0.5,0.7
			s0.2-0.5,0.1-0.9l-1.4-5.5c-0.1-0.5-0.2-1-0.1-1.2c0,0,0,0,0.2,0c0.2,0,0.2,0,0.2,0c0.1,0.2,0.3,0.7,0.4,1.1l1.4,5.5
			c0.1,0.5,0.4,0.8,0.5,0.7s0.2-0.5,0.1-0.9l-1.4-5.5c-0.1-0.5-0.2-1-0.1-1.2c0,0,0,0,0.2,0c0.2,0,0.2,0,0.2,0
			c0.1,0.2,0.3,0.7,0.4,1.1l1.4,5.5c0.1,0.5,0.4,0.8,0.5,0.7c0.2,0,0.2-0.5,0.1-0.9l-1.4-5.5c-0.1-0.5-0.2-1-0.1-1.2c0,0,0,0,0.2,0
			c0.2,0,0.2,0,0.2,0c0.1,0.2,0.3,0.7,0.4,1.1l1.4,5.5c0.1,0.5,0.4,0.8,0.5,0.7s0.2-0.5,0.1-0.9l-1.4-5.5c-0.1-0.5-0.2-1-0.1-1.2
			c0,0,0,0,0.2,0c0.2,0,0.2,0,0.2,0c0.1,0.2,0.3,0.7,0.4,1.1l1.4,5.5c0.1,0.5,0.4,0.8,0.5,0.7s0.2-0.5,0.1-0.9l-1.4-5.5
			c-0.1-0.5-0.2-1-0.1-1.2c0,0,0,0,0.2,0c0.2,0,0.2,0,0.2,0c0.1,0.2,0.3,0.7,0.4,1.1l1.4,5.5c0.1,0.5,0.4,0.8,0.5,0.7
			s0.2-0.5,0.1-0.9l-1.4-5.5c-0.1-0.5-0.2-1-0.1-1.2c0,0,0,0,0.2,0c0.2,0,0.2,0,0.2,0c0.1,0.2,0.3,0.7,0.4,1.1l1.4,5.5
			c0.1,0.5,0.4,0.8,0.5,0.7c0.2,0,0.2-0.5,0.1-0.9l-1.4-5.5c-0.1-0.5-0.2-1-0.1-1.2c0,0,0,0,0.2,0c0.2,0,0.2,0,0.2,0
			c0.1,0.2,0.3,0.7,0.4,1.1l1.4,5.5c0.1,0.5,0.4,0.8,0.5,0.7s0.2-0.5,0.1-0.9l-1.4-5.5c-0.1-0.5-0.2-1-0.1-1.2c0,0,0,0,0.2,0
			c0.2,0,0.2,0,0.2,0c0.1,0.2,0.3,0.7,0.4,1.1l1.4,5.5c0.1,0.5,0.4,0.8,0.5,0.7s0.2-0.5,0.1-0.9l-1.4-5.5c-0.1-0.5-0.2-1-0.1-1.2
			c0,0,0,0,0.2,0c0.2,0,0.2,0,0.2,0c0.1,0.2,0.3,0.7,0.4,1.1l1.4,5.5c0.1,0.5,0.4,0.8,0.5,0.7s0.2-0.5,0.1-0.9l-1.4-5.5
			c-0.1-0.5-0.2-1-0.1-1.2c0,0,0,0,0.2,0c0.2,0,0.2,0,0.2,0c0.1,0.2,0.3,0.7,0.4,1.1l1.4,5.5c0.1,0.5,0.4,0.8,0.5,0.7
			c0.2,0,0.2-0.5,0.1-0.9l-1.4-5.5c-0.1-0.5-0.2-1-0.1-1.2c0,0,0,0,0.2,0c0.2,0,0.2,0,0.2,0c0.1,0.2,0.3,0.7,0.4,1.1l1.4,5.5
			c0.1,0.5,0.4,0.8,0.5,0.7s0.2-0.5,0.1-0.9l-1.4-5.5c-0.1-0.5-0.2-1-0.1-1.2c0,0,0,0,0.2,0c0.2,0,0.2,0,0.2,0
			c0.1,0.2,0.3,0.7,0.4,1.1l1.4,5.5c0.1,0.5,0.4,0.8,0.5,0.7s0.2-0.5,0.1-0.9l-1.4-5.5c-0.1-0.5-0.2-1-0.1-1.2c0,0,0,0,0.2,0
			c0.2,0,0.2,0,0.2,0c0.1,0.2,0.3,0.7,0.4,1.1l1.4,5.5c0.1,0.5,0.4,0.8,0.5,0.7c0.2,0,0.2-0.5,0.1-0.9l-1.4-5.5
			c-0.1-0.5-0.2-1-0.1-1.2c0,0,0,0,0.2,0c0.2,0,0.2,0,0.2,0c0.1,0.2,0.3,0.7,0.4,1.1l1.4,5.5c0.1,0.5,0.4,0.8,0.5,0.7
			s0.2-0.5,0.1-0.9l-1.4-5.5c-0.1-0.5-0.2-1-0.1-1.2c0,0,0,0,0.2,0c0.2,0,0.2,0,0.2,0c0.1,0.2,0.3,0.7,0.4,1.1l1.4,5.5
			c0.1,0.5,0.4,0.8,0.5,0.7s0.2-0.5,0.1-0.9l-1.4-5.5c-0.1-0.5-0.2-1-0.1-1.2c0,0,0,0,0.2,0c0.2,0,0.2,0,0.2,0
			c0.1,0.2,0.3,0.7,0.4,1.1l1.4,5.7c0.1,0.3,0.4,0.5,0.7,0.4h0c0.3-0.1,0.5-0.4,0.4-0.7l-1.4-5.7C172.4,318.1,168.9,316,165.5,316.8
			z"/>
	</g>
	<g>
		<path fill="#EE7411" d="M160,375.6c-1.8,0-3.1-0.6-4-1.6c-0.2-0.3-0.4-0.6-0.6-1l1.6-4.5c0.9-2.4-0.4-5-2.8-5.9
			c-1.6-0.6-3.4-0.2-4.7,0.9c-2.1,0-4.9,0.3-7,2.3c-2.1,2-2.9,5.1-2.2,9.1c0.2,0.9,1,1.6,1.9,1.6c0.1,0,0.2,0,0.3,0
			c1-0.2,1.8-1.2,1.6-2.2c-0.4-2.7-0.1-4.6,1-5.7c0.6-0.6,1.5-0.9,2.3-1.1l-3.1,8.6c-0.3,0.8-0.3,1.7-0.2,2.5c0,1.6-0.4,5.5-2.3,6.7
			c-1.1,0.7-2.8,0.6-5.1-0.5l-2.2-1l-0.5,2.4c-0.5,2.3-1.5,5.3-1.5,5.4c-0.3,1,0.2,2.1,1.2,2.4c0.2,0.1,0.4,0.1,0.6,0.1
			c0.8,0,1.6-0.5,1.8-1.3c0-0.1,0.6-1.8,1.1-3.6c2.6,0.8,4.8,0.5,6.6-0.7c2.3-1.5,3.3-4.1,3.7-6.4c0.3,0.1,0.6,0.1,0.9,0.1
			c1.1,2.4,3,6.9,3.5,10.5l0.2,1.7h5.3c1.1,0,1.9-0.9,1.9-1.9c0-1.1-0.9-1.9-1.9-1.9h-1.9c-0.8-3.6-2.4-7.6-3.5-9.9
			c0.4-0.4,0.7-0.9,0.9-1.5l0.7-2c1.5,1.4,3.6,2.1,6.1,2.2c0,0,0,0,0,0c1,0,1.9-0.8,1.9-1.9C161.9,376.5,161,375.7,160,375.6z"/>
		<circle fill="#EE7411" cx="156.9" cy="359.1" r="3.7"/>
	</g>
	<g>
		
			<line fill="none" stroke="#586B73" stroke-width="2" stroke-linecap="round" stroke-linejoin="round" stroke-miterlimit="10" stroke-dasharray="3" x1="148.1" y1="300.5" x2="148.1" y2="316.6"/>
		
			<line fill="none" stroke="#586B73" stroke-width="2" stroke-linecap="round" stroke-linejoin="round" stroke-miterlimit="10" x1="148.1" y1="315.8" x2="151.4" y2="312.6"/>
		
			<line fill="none" stroke="#586B73" stroke-width="2" stroke-linecap="round" stroke-linejoin="round" stroke-miterlimit="10" x1="145" y1="312.5" x2="148.1" y2="315.8"/>
	</g>
	<g>
		
			<line fill="none" stroke="#586B73" stroke-width="2" stroke-linecap="round" stroke-linejoin="round" stroke-miterlimit="10" stroke-dasharray="3" x1="148.1" y1="340.5" x2="148.1" y2="356.6"/>
		
			<line fill="none" stroke="#586B73" stroke-width="2" stroke-linecap="round" stroke-linejoin="round" stroke-miterlimit="10" x1="148.1" y1="355.8" x2="151.4" y2="352.6"/>
		
			<line fill="none" stroke="#586B73" stroke-width="2" stroke-linecap="round" stroke-linejoin="round" stroke-miterlimit="10" x1="145" y1="352.5" x2="148.1" y2="355.8"/>
	</g>
</g>
<g opacity="0.57">
	<path fill="#EE7411" d="M279,291.3l-0.8-3.2c0.2-0.2,0.3-0.5,0.2-0.8l-0.2-0.8c-0.1-0.5-0.7-0.7-1.3-0.6l-11.6,3l-2.2,1.3
		l-37.8,9.9c-0.6,0.2-1,0.7-0.8,1.1l0.2,0.8c0.1,0.5,0.7,0.7,1.3,0.6l37.8-9.9l2.1-1.2l0.8,2.9c0,0.2,0.2,0.3,0.3,0.4
		c0.1,0.1,0.2,0.1,0.4,0.1c0.1,0,0.1,0,0.2,0l11-2.9c0.2,0,0.3-0.2,0.4-0.3C279.1,291.7,279.1,291.5,279,291.3z M267.8,293.5
		l-0.6-2.1l0.7-0.2l0.3,1.3c0.1,0.2,0.3,0.4,0.5,0.4c0,0,0.1,0,0.1,0c0.3-0.1,0.5-0.4,0.4-0.7l-0.3-1.3l0.4-0.1l0.3,1.3
		c0.1,0.2,0.3,0.4,0.5,0.4c0,0,0.1,0,0.1,0c0.3-0.1,0.5-0.4,0.4-0.7l-0.3-1.3l0.4-0.1l0.3,1.3c0.1,0.2,0.3,0.4,0.5,0.4
		c0,0,0.1,0,0.1,0c0.3-0.1,0.5-0.4,0.4-0.7l-0.3-1.3l0.4-0.1l0.3,1.3c0.1,0.2,0.3,0.4,0.5,0.4c0,0,0.1,0,0.1,0
		c0.3-0.1,0.5-0.4,0.4-0.7l-0.3-1.3l0.4-0.1l0.3,1.3c0.1,0.2,0.3,0.4,0.5,0.4c0,0,0.1,0,0.1,0c0.3-0.1,0.5-0.4,0.4-0.7l-0.3-1.3
		l0.4-0.1l0.3,1.3c0.1,0.2,0.3,0.4,0.5,0.4c0,0,0.1,0,0.1,0c0.3-0.1,0.5-0.4,0.4-0.7l-0.3-1.3l0.4-0.1l0.6,2.1L267.8,293.5z"/>
	<g>
		<path fill="#EE7411" d="M269.1,316.8L228.6,327c-3.4,0.9-5.5,4.4-4.7,7.8l1.4,5.7c0.1,0.3,0.4,0.5,0.7,0.4l0,0
			c0.3-0.1,0.5-0.4,0.4-0.7l-1.4-5.7c-0.1-0.5-0.2-1-0.1-1.2c0,0,0,0,0.2,0c0.2,0,0.2,0,0.2,0c0.1,0.2,0.3,0.7,0.4,1.1l1.4,5.5
			c0.1,0.5,0.4,0.8,0.5,0.7s0.2-0.5,0.1-0.9l-1.4-5.5c-0.1-0.5-0.2-1-0.1-1.2c0,0,0,0,0.2,0c0.2,0,0.2,0,0.2,0
			c0.1,0.2,0.3,0.7,0.4,1.1l1.4,5.5c0.1,0.5,0.4,0.8,0.5,0.7s0.2-0.5,0.1-0.9l-1.4-5.5c-0.1-0.5-0.2-1-0.1-1.2c0,0,0,0,0.2,0
			c0.2,0,0.2,0,0.2,0c0.1,0.2,0.3,0.7,0.4,1.1l1.4,5.5c0.1,0.5,0.4,0.8,0.5,0.7s0.2-0.5,0.1-0.9l-1.4-5.5c-0.1-0.5-0.2-1-0.1-1.2
			c0,0,0,0,0.2,0c0.2,0,0.2,0,0.2,0c0.1,0.2,0.3,0.7,0.4,1.1l1.4,5.5c0.1,0.5,0.4,0.8,0.5,0.7s0.2-0.5,0.1-0.9l-1.4-5.5
			c-0.1-0.5-0.2-1-0.1-1.2c0,0,0,0,0.2,0c0.2,0,0.2,0,0.2,0c0.1,0.2,0.3,0.7,0.4,1.1l1.4,5.5c0.1,0.5,0.4,0.8,0.5,0.7
			s0.2-0.5,0.1-0.9l-1.4-5.5c-0.1-0.5-0.2-1-0.1-1.2c0,0,0,0,0.2,0c0.2,0,0.2,0,0.2,0c0.1,0.2,0.3,0.7,0.4,1.1l1.4,5.5
			c0.1,0.5,0.4,0.8,0.5,0.7s0.2-0.5,0.1-0.9l-1.4-5.5c-0.1-0.5-0.2-1-0.1-1.2c0,0,0,0,0.2,0c0.2,0,0.2,0,0.2,0
			c0.1,0.2,0.3,0.7,0.4,1.1l1.4,5.5c0.1,0.5,0.4,0.8,0.5,0.7s0.2-0.5,0.1-0.9l-1.4-5.5c-0.1-0.5-0.2-1-0.1-1.2c0,0,0,0,0.2,0
			c0.2,0,0.2,0,0.2,0c0.1,0.2,0.3,0.7,0.4,1.1l1.4,5.5c0.1,0.5,0.4,0.8,0.5,0.7c0.2,0,0.2-0.5,0.1-0.9l-1.4-5.5
			c-0.1-0.5-0.2-1-0.1-1.2c0,0,0,0,0.2,0c0.2,0,0.2,0,0.2,0c0.1,0.2,0.3,0.7,0.4,1.1l1.4,5.5c0.1,0.5,0.4,0.8,0.5,0.7
			s0.2-0.5,0.1-0.9l-1.4-5.5c-0.1-0.5-0.2-1-0.1-1.2c0,0,0,0,0.2,0c0.2,0,0.2,0,0.2,0c0.1,0.2,0.3,0.7,0.4,1.1l1.4,5.5
			c0.1,0.5,0.4,0.8,0.5,0.7s0.2-0.5,0.1-0.9l-1.4-5.5c-0.1-0.5-0.2-1-0.1-1.2c0,0,0,0,0.2,0c0.2,0,0.2,0,0.2,0
			c0.1,0.2,0.3,0.7,0.4,1.1l1.4,5.5c0.1,0.5,0.4,0.8,0.5,0.7c0.2,0,0.2-0.5,0.1-0.9l-1.4-5.5c-0.1-0.5-0.2-1-0.1-1.2c0,0,0,0,0.2,0
			c0.2,0,0.2,0,0.2,0c0.1,0.2,0.3,0.7,0.4,1.1l1.4,5.5c0.1,0.5,0.4,0.8,0.5,0.7s0.2-0.5,0.1-0.9l-1.4-5.5c-0.1-0.5-0.2-1-0.1-1.2
			c0,0,0,0,0.2,0c0.2,0,0.2,0,0.2,0c0.1,0.2,0.3,0.7,0.4,1.1l1.4,5.5c0.1,0.5,0.4,0.8,0.5,0.7s0.2-0.5,0.1-0.9l-1.4-5.5
			c-0.1-0.5-0.2-1-0.1-1.2c0,0,0,0,0.2,0c0.2,0,0.2,0,0.2,0c0.1,0.2,0.3,0.7,0.4,1.1l1.4,5.5c0.1,0.5,0.4,0.8,0.5,0.7
			s0.2-0.5,0.1-0.9l-1.4-5.5c-0.1-0.5-0.2-1-0.1-1.2c0,0,0,0,0.2,0c0.2,0,0.2,0,0.2,0c0.1,0.2,0.3,0.7,0.4,1.1l1.4,5.5
			c0.1,0.5,0.4,0.8,0.5,0.7s0.2-0.5,0.1-0.9l-1.4-5.5c-0.1-0.5-0.2-1-0.1-1.2c0,0,0,0,0.2,0c0.2,0,0.2,0,0.2,0
			c0.1,0.2,0.3,0.7,0.4,1.1l1.4,5.5c0.1,0.5,0.4,0.8,0.5,0.7s0.2-0.5,0.1-0.9l-1.4-5.5c-0.1-0.5-0.2-1-0.1-1.2c0,0,0,0,0.2,0
			c0.2,0,0.2,0,0.2,0c0.1,0.2,0.3,0.7,0.4,1.1l1.4,5.5c0.1,0.5,0.4,0.8,0.5,0.7s0.2-0.5,0.1-0.9l-1.4-5.5c-0.1-0.5-0.2-1-0.1-1.2
			c0,0,0,0,0.2,0c0.2,0,0.2,0,0.2,0c0.1,0.2,0.3,0.7,0.4,1.1l1.4,5.5c0.1,0.5,0.4,0.8,0.5,0.7s0.2-0.5,0.1-0.9l-1.4-5.5
			c-0.1-0.5-0.2-1-0.1-1.2c0,0,0,0,0.2,0c0.2,0,0.2,0,0.2,0c0.1,0.2,0.3,0.7,0.4,1.1l1.4,5.5c0.1,0.5,0.4,0.8,0.5,0.7
			c0.2,0,0.2-0.5,0.1-0.9l-1.4-5.5c-0.1-0.5-0.2-1-0.1-1.2c0,0,0,0,0.2,0c0.2,0,0.2,0,0.2,0c0.1,0.2,0.3,0.7,0.4,1.1l1.4,5.5
			c0.1,0.5,0.4,0.8,0.5,0.7s0.2-0.5,0.1-0.9l-1.4-5.5c-0.1-0.5-0.2-1-0.1-1.2c0,0,0,0,0.2,0c0.2,0,0.2,0,0.2,0
			c0.1,0.2,0.3,0.7,0.4,1.1l1.4,5.5c0.1,0.5,0.4,0.8,0.5,0.7s0.2-0.5,0.1-0.9l-1.4-5.5c-0.1-0.5-0.2-1-0.1-1.2c0,0,0,0,0.2,0
			c0.2,0,0.2,0,0.2,0c0.1,0.2,0.3,0.7,0.4,1.1l1.4,5.5c0.1,0.5,0.4,0.8,0.5,0.7c0.2,0,0.2-0.5,0.1-0.9l-1.4-5.5
			c-0.1-0.5-0.2-1-0.1-1.2c0,0,0,0,0.2,0c0.2,0,0.2,0,0.2,0c0.1,0.2,0.3,0.7,0.4,1.1l1.4,5.5c0.1,0.5,0.4,0.8,0.5,0.7
			c0.2,0,0.2-0.5,0.1-0.9l-1.4-5.5c-0.1-0.5-0.2-1-0.1-1.2c0,0,0,0,0.2,0c0.2,0,0.2,0,0.2,0c0.1,0.2,0.3,0.7,0.4,1.1l1.4,5.5
			c0.1,0.5,0.4,0.8,0.5,0.7c0.2,0,0.2-0.5,0.1-0.9l-1.4-5.5c-0.1-0.5-0.2-1-0.1-1.2c0,0,0,0,0.2,0c0.2,0,0.2,0,0.2,0
			c0.1,0.2,0.3,0.7,0.4,1.1l1.4,5.5c0.1,0.5,0.4,0.8,0.5,0.7c0.2,0,0.2-0.5,0.1-0.9l-1.4-5.5c-0.1-0.5-0.2-1-0.1-1.2c0,0,0,0,0.2,0
			c0.2,0,0.2,0,0.2,0c0.1,0.2,0.3,0.7,0.4,1.1l1.4,5.5c0.1,0.5,0.4,0.8,0.5,0.7c0.2,0,0.2-0.5,0.1-0.9l-1.4-5.5
			c-0.1-0.5-0.2-1-0.1-1.2c0,0,0,0,0.2,0c0.2,0,0.2,0,0.2,0c0.1,0.2,0.3,0.7,0.4,1.1l1.4,5.5c0.1,0.5,0.4,0.8,0.5,0.7
			c0.2,0,0.2-0.5,0.1-0.9l-1.4-5.5c-0.1-0.5-0.2-1-0.1-1.2c0,0,0,0,0.2,0c0.2,0,0.2,0,0.2,0c0.1,0.2,0.3,0.7,0.4,1.1l1.4,5.5
			c0.1,0.5,0.4,0.8,0.5,0.7c0.2,0,0.2-0.5,0.1-0.9l-1.4-5.5c-0.1-0.5-0.2-1-0.1-1.2c0,0,0,0,0.2,0c0.2,0,0.2,0,0.2,0
			c0.1,0.2,0.3,0.7,0.4,1.1l1.4,5.5c0.1,0.5,0.4,0.8,0.5,0.7c0.2,0,0.2-0.5,0.1-0.9l-1.4-5.5c-0.1-0.5-0.2-1-0.1-1.2c0,0,0,0,0.2,0
			c0.2,0,0.2,0,0.2,0c0.1,0.2,0.3,0.7,0.4,1.1l1.4,5.5c0.1,0.5,0.4,0.8,0.5,0.7c0.2,0,0.2-0.5,0.1-0.9l-1.4-5.5
			c-0.1-0.5-0.2-1-0.1-1.2c0,0,0,0,0.2,0c0.2,0,0.2,0,0.2,0c0.1,0.2,0.3,0.7,0.4,1.1l1.4,5.5c0.1,0.5,0.4,0.8,0.5,0.7
			c0.2,0,0.2-0.5,0.1-0.9l-1.4-5.5c-0.1-0.5-0.2-1-0.1-1.2c0,0,0,0,0.2,0c0.2,0,0.2,0,0.2,0c0.1,0.2,0.3,0.7,0.4,1.1l1.4,5.5
			c0.1,0.5,0.4,0.8,0.5,0.7c0.2,0,0.2-0.5,0.1-0.9l-1.4-5.5c-0.1-0.5-0.2-1-0.1-1.2c0,0,0,0,0.2,0c0.2,0,0.2,0,0.2,0
			c0.1,0.2,0.3,0.7,0.4,1.1l1.4,5.5c0.1,0.5,0.4,0.8,0.5,0.7c0.2,0,0.2-0.5,0.1-0.9l-1.4-5.5c-0.1-0.5-0.2-1-0.1-1.2c0,0,0,0,0.2,0
			s0.2,0,0.2,0c0.1,0.2,0.3,0.7,0.4,1.1l1.4,5.5c0.1,0.5,0.4,0.8,0.5,0.7c0.2,0,0.2-0.5,0.1-0.9l-1.4-5.5c-0.1-0.5-0.2-1-0.1-1.2
			c0,0,0,0,0.2,0c0.2,0,0.2,0,0.2,0c0.1,0.2,0.3,0.7,0.4,1.1l1.4,5.5c0.1,0.5,0.4,0.8,0.5,0.7c0.2,0,0.2-0.5,0.1-0.9l-1.4-5.5
			c-0.1-0.5-0.2-1-0.1-1.2c0,0,0,0,0.2,0c0.2,0,0.2,0,0.2,0c0.1,0.2,0.3,0.7,0.4,1.1l1.4,5.5c0.1,0.5,0.4,0.8,0.5,0.7
			c0.2,0,0.2-0.5,0.1-0.9l-1.4-5.5c-0.1-0.5-0.2-1-0.1-1.2c0,0,0,0,0.2,0c0.2,0,0.2,0,0.2,0c0.1,0.2,0.3,0.7,0.4,1.1l1.4,5.5
			c0.1,0.5,0.4,0.8,0.5,0.7c0.2,0,0.2-0.5,0.1-0.9l-1.4-5.5c-0.1-0.5-0.2-1-0.1-1.2c0,0,0,0,0.2,0c0.2,0,0.2,0,0.2,0
			c0.1,0.2,0.3,0.7,0.4,1.1l1.4,5.5c0.1,0.5,0.4,0.8,0.5,0.7c0.2,0,0.2-0.5,0.1-0.9l-1.4-5.5c-0.1-0.5-0.2-1-0.1-1.2c0,0,0,0,0.2,0
			c0.2,0,0.2,0,0.2,0c0.1,0.2,0.3,0.7,0.4,1.1l1.4,5.7c0.1,0.3,0.4,0.5,0.7,0.4h0c0.3-0.1,0.5-0.4,0.4-0.7l-1.4-5.7
			C276,318.1,272.5,316,269.1,316.8z"/>
	</g>
	<g>
		<path fill="#EE7411" d="M263.6,375.6c-1.8,0-3.1-0.6-4-1.6c-0.2-0.3-0.4-0.6-0.6-1l1.6-4.5c0.9-2.4-0.4-5-2.8-5.9
			c-1.6-0.6-3.4-0.2-4.7,0.9c-2.1,0-4.9,0.3-7,2.3c-2.1,2-2.9,5.1-2.2,9.1c0.2,0.9,1,1.6,1.9,1.6c0.1,0,0.2,0,0.3,0
			c1-0.2,1.8-1.2,1.6-2.2c-0.4-2.7-0.1-4.6,1-5.7c0.6-0.6,1.5-0.9,2.3-1.1l-3.1,8.6c-0.3,0.8-0.3,1.7-0.2,2.5c0,1.6-0.4,5.5-2.3,6.7
			c-1.1,0.7-2.8,0.6-5.1-0.5l-2.2-1l-0.5,2.4c-0.5,2.3-1.5,5.3-1.5,5.4c-0.3,1,0.2,2.1,1.2,2.4c0.2,0.1,0.4,0.1,0.6,0.1
			c0.8,0,1.6-0.5,1.8-1.3c0-0.1,0.6-1.8,1.1-3.6c2.6,0.8,4.8,0.5,6.6-0.7c2.3-1.5,3.3-4.1,3.7-6.4c0.3,0.1,0.6,0.1,0.9,0.1
			c1.1,2.4,3,6.9,3.5,10.5l0.2,1.7h5.3c1.1,0,1.9-0.9,1.9-1.9c0-1.1-0.9-1.9-1.9-1.9h-1.9c-0.8-3.6-2.4-7.6-3.5-9.9
			c0.4-0.4,0.7-0.9,0.9-1.5l0.7-2c1.5,1.4,3.6,2.1,6.1,2.2c0,0,0,0,0,0c1,0,1.9-0.8,1.9-1.9C265.5,376.5,264.6,375.7,263.6,375.6z"
			/>
		<circle fill="#EE7411" cx="260.5" cy="359.1" r="3.7"/>
	</g>
	<g>
		
			<line fill="none" stroke="#586B73" stroke-width="2" stroke-linecap="round" stroke-linejoin="round" stroke-miterlimit="10" stroke-dasharray="3" x1="251.7" y1="300.5" x2="251.7" y2="316.6"/>
		
			<line fill="none" stroke="#586B73" stroke-width="2" stroke-linecap="round" stroke-linejoin="round" stroke-miterlimit="10" x1="251.7" y1="315.8" x2="255" y2="312.6"/>
		
			<line fill="none" stroke="#586B73" stroke-width="2" stroke-linecap="round" stroke-linejoin="round" stroke-miterlimit="10" x1="248.6" y1="312.5" x2="251.7" y2="315.8"/>
	</g>
	<g>
		
			<line fill="none" stroke="#586B73" stroke-width="2" stroke-linecap="round" stroke-linejoin="round" stroke-miterlimit="10" stroke-dasharray="3" x1="251.7" y1="340.5" x2="251.7" y2="356.6"/>
		
			<line fill="none" stroke="#586B73" stroke-width="2" stroke-linecap="round" stroke-linejoin="round" stroke-miterlimit="10" x1="251.7" y1="355.8" x2="255" y2="352.6"/>
		
			<line fill="none" stroke="#586B73" stroke-width="2" stroke-linecap="round" stroke-linejoin="round" stroke-miterlimit="10" x1="248.6" y1="352.5" x2="251.7" y2="355.8"/>
	</g>
</g>
<g opacity="0.57">
	<path fill="#EE7411" d="M384.8,291.3l-0.8-3.2c0.2-0.2,0.3-0.5,0.2-0.8l-0.2-0.8c-0.1-0.5-0.7-0.7-1.3-0.6l-11.6,3l-2.2,1.3
		l-37.8,9.9c-0.6,0.2-1,0.7-0.8,1.1l0.2,0.8c0.1,0.5,0.7,0.7,1.3,0.6l37.8-9.9l2.1-1.2l0.8,2.9c0,0.2,0.2,0.3,0.3,0.4
		c0.1,0.1,0.2,0.1,0.4,0.1c0.1,0,0.1,0,0.2,0l11-2.9c0.2,0,0.3-0.2,0.4-0.3C384.8,291.7,384.8,291.5,384.8,291.3z M373.6,293.5
		l-0.6-2.1l0.7-0.2l0.3,1.3c0.1,0.2,0.3,0.4,0.5,0.4c0,0,0.1,0,0.1,0c0.3-0.1,0.5-0.4,0.4-0.7l-0.3-1.3l0.4-0.1l0.3,1.3
		c0.1,0.2,0.3,0.4,0.5,0.4c0,0,0.1,0,0.1,0c0.3-0.1,0.5-0.4,0.4-0.7l-0.3-1.3l0.4-0.1l0.3,1.3c0.1,0.2,0.3,0.4,0.5,0.4
		c0,0,0.1,0,0.1,0c0.3-0.1,0.5-0.4,0.4-0.7l-0.3-1.3l0.4-0.1l0.3,1.3c0.1,0.2,0.3,0.4,0.5,0.4c0,0,0.1,0,0.1,0
		c0.3-0.1,0.5-0.4,0.4-0.7l-0.3-1.3l0.4-0.1l0.3,1.3c0.1,0.2,0.3,0.4,0.5,0.4c0,0,0.1,0,0.1,0c0.3-0.1,0.5-0.4,0.4-0.7l-0.3-1.3
		l0.4-0.1l0.3,1.3c0.1,0.2,0.3,0.4,0.5,0.4c0,0,0.1,0,0.1,0c0.3-0.1,0.5-0.4,0.4-0.7l-0.3-1.3l0.4-0.1l0.6,2.1L373.6,293.5z"/>
	<g>
		<path fill="#EE7411" d="M374.8,316.8L334.4,327c-3.4,0.9-5.5,4.4-4.7,7.8l1.4,5.7c0.1,0.3,0.4,0.5,0.7,0.4l0,0
			c0.3-0.1,0.5-0.4,0.4-0.7l-1.4-5.7c-0.1-0.5-0.2-1-0.1-1.2c0,0,0,0,0.2,0c0.2,0,0.2,0,0.2,0c0.1,0.2,0.3,0.7,0.4,1.1l1.4,5.5
			c0.1,0.5,0.4,0.8,0.5,0.7c0.2,0,0.2-0.5,0.1-0.9l-1.4-5.5c-0.1-0.5-0.2-1-0.1-1.2c0,0,0,0,0.2,0c0.2,0,0.2,0,0.2,0
			c0.1,0.2,0.3,0.7,0.4,1.1l1.4,5.5c0.1,0.5,0.4,0.8,0.5,0.7c0.2,0,0.2-0.5,0.1-0.9l-1.4-5.5c-0.1-0.5-0.2-1-0.1-1.2c0,0,0,0,0.2,0
			c0.2,0,0.2,0,0.2,0c0.1,0.2,0.3,0.7,0.4,1.1l1.4,5.5c0.1,0.5,0.4,0.8,0.5,0.7c0.2,0,0.2-0.5,0.1-0.9l-1.4-5.5
			c-0.1-0.5-0.2-1-0.1-1.2c0,0,0,0,0.2,0c0.2,0,0.2,0,0.2,0c0.1,0.2,0.3,0.7,0.4,1.1l1.4,5.5c0.1,0.5,0.4,0.8,0.5,0.7
			c0.2,0,0.2-0.5,0.1-0.9l-1.4-5.5c-0.1-0.5-0.2-1-0.1-1.2c0,0,0,0,0.2,0c0.2,0,0.2,0,0.2,0c0.1,0.2,0.3,0.7,0.4,1.1l1.4,5.5
			c0.1,0.5,0.4,0.8,0.5,0.7c0.2,0,0.2-0.5,0.1-0.9l-1.4-5.5c-0.1-0.5-0.2-1-0.1-1.2c0,0,0,0,0.2,0c0.2,0,0.2,0,0.2,0
			c0.1,0.2,0.3,0.7,0.4,1.1l1.4,5.5c0.1,0.5,0.4,0.8,0.5,0.7c0.2,0,0.2-0.5,0.1-0.9l-1.4-5.5c-0.1-0.5-0.2-1-0.1-1.2c0,0,0,0,0.2,0
			c0.2,0,0.2,0,0.2,0c0.1,0.2,0.3,0.7,0.4,1.1l1.4,5.5c0.1,0.5,0.4,0.8,0.5,0.7c0.2,0,0.2-0.5,0.1-0.9l-1.4-5.5
			c-0.1-0.5-0.2-1-0.1-1.2c0,0,0,0,0.2,0c0.2,0,0.2,0,0.2,0c0.1,0.2,0.3,0.7,0.4,1.1l1.4,5.5c0.1,0.5,0.4,0.8,0.5,0.7
			c0.2,0,0.2-0.5,0.1-0.9l-1.4-5.5c-0.1-0.5-0.2-1-0.1-1.2c0,0,0,0,0.2,0c0.2,0,0.2,0,0.2,0c0.1,0.2,0.3,0.7,0.4,1.1l1.4,5.5
			c0.1,0.5,0.4,0.8,0.5,0.7c0.2,0,0.2-0.5,0.1-0.9l-1.4-5.5c-0.1-0.5-0.2-1-0.1-1.2c0,0,0,0,0.2,0c0.2,0,0.2,0,0.2,0
			c0.1,0.2,0.3,0.7,0.4,1.1l1.4,5.5c0.1,0.5,0.4,0.8,0.5,0.7c0.2,0,0.2-0.5,0.1-0.9l-1.4-5.5c-0.1-0.5-0.2-1-0.1-1.2c0,0,0,0,0.2,0
			s0.2,0,0.2,0c0.1,0.2,0.3,0.7,0.4,1.1l1.4,5.5c0.1,0.5,0.4,0.8,0.5,0.7c0.2,0,0.2-0.5,0.1-0.9l-1.4-5.5c-0.1-0.5-0.2-1-0.1-1.2
			c0,0,0,0,0.2,0c0.2,0,0.2,0,0.2,0c0.1,0.2,0.3,0.7,0.4,1.1l1.4,5.5c0.1,0.5,0.4,0.8,0.5,0.7c0.2,0,0.2-0.5,0.1-0.9l-1.4-5.5
			c-0.1-0.5-0.2-1-0.1-1.2c0,0,0,0,0.2,0c0.2,0,0.2,0,0.2,0c0.1,0.2,0.3,0.7,0.4,1.1l1.4,5.5c0.1,0.5,0.4,0.8,0.5,0.7
			c0.2,0,0.2-0.5,0.1-0.9l-1.4-5.5c-0.1-0.5-0.2-1-0.1-1.2c0,0,0,0,0.2,0c0.2,0,0.2,0,0.2,0c0.1,0.2,0.3,0.7,0.4,1.1l1.4,5.5
			c0.1,0.5,0.4,0.8,0.5,0.7c0.2,0,0.2-0.5,0.1-0.9l-1.4-5.5c-0.1-0.5-0.2-1-0.1-1.2c0,0,0,0,0.2,0c0.2,0,0.2,0,0.2,0
			c0.1,0.2,0.3,0.7,0.4,1.1l1.4,5.5c0.1,0.5,0.4,0.8,0.5,0.7c0.2,0,0.2-0.5,0.1-0.9l-1.4-5.5c-0.1-0.5-0.2-1-0.1-1.2c0,0,0,0,0.2,0
			c0.2,0,0.2,0,0.2,0c0.1,0.2,0.3,0.7,0.4,1.1l1.4,5.5c0.1,0.5,0.4,0.8,0.5,0.7c0.2,0,0.2-0.5,0.1-0.9l-1.4-5.5
			c-0.1-0.5-0.2-1-0.1-1.2c0,0,0,0,0.2,0c0.2,0,0.2,0,0.2,0c0.1,0.2,0.3,0.7,0.4,1.1l1.4,5.5c0.1,0.5,0.4,0.8,0.5,0.7
			c0.2,0,0.2-0.5,0.1-0.9l-1.4-5.5c-0.1-0.5-0.2-1-0.1-1.2c0,0,0,0,0.2,0c0.2,0,0.2,0,0.2,0c0.1,0.2,0.3,0.7,0.4,1.1l1.4,5.5
			c0.1,0.5,0.4,0.8,0.5,0.7c0.2,0,0.2-0.5,0.1-0.9l-1.4-5.5c-0.1-0.5-0.2-1-0.1-1.2c0,0,0,0,0.2,0c0.2,0,0.2,0,0.2,0
			c0.1,0.2,0.3,0.7,0.4,1.1l1.4,5.5c0.1,0.5,0.4,0.8,0.5,0.7c0.2,0,0.2-0.5,0.1-0.9l-1.4-5.5c-0.1-0.5-0.2-1-0.1-1.2c0,0,0,0,0.2,0
			c0.2,0,0.2,0,0.2,0c0.1,0.2,0.3,0.7,0.4,1.1l1.4,5.5c0.1,0.5,0.4,0.8,0.5,0.7c0.2,0,0.2-0.5,0.1-0.9l-1.4-5.5
			c-0.1-0.5-0.2-1-0.1-1.2c0,0,0,0,0.2,0c0.2,0,0.2,0,0.2,0c0.1,0.2,0.3,0.7,0.4,1.1l1.4,5.5c0.1,0.5,0.4,0.8,0.5,0.7
			c0.2,0,0.2-0.5,0.1-0.9l-1.4-5.5c-0.1-0.5-0.2-1-0.1-1.2c0,0,0,0,0.2,0c0.2,0,0.2,0,0.2,0c0.1,0.2,0.3,0.7,0.4,1.1l1.4,5.5
			c0.1,0.5,0.4,0.8,0.5,0.7c0.2,0,0.2-0.5,0.1-0.9l-1.4-5.5c-0.1-0.5-0.2-1-0.1-1.2c0,0,0,0,0.2,0c0.2,0,0.2,0,0.2,0
			c0.1,0.2,0.3,0.7,0.4,1.1l1.4,5.5c0.1,0.5,0.4,0.8,0.5,0.7c0.2,0,0.2-0.5,0.1-0.9l-1.4-5.5c-0.1-0.5-0.2-1-0.1-1.2c0,0,0,0,0.2,0
			c0.2,0,0.2,0,0.2,0c0.1,0.2,0.3,0.7,0.4,1.1l1.4,5.5c0.1,0.5,0.4,0.8,0.5,0.7c0.2,0,0.2-0.5,0.1-0.9l-1.4-5.5
			c-0.1-0.5-0.2-1-0.1-1.2c0,0,0,0,0.2,0c0.2,0,0.2,0,0.2,0c0.1,0.2,0.3,0.7,0.4,1.1l1.4,5.5c0.1,0.5,0.4,0.8,0.5,0.7
			c0.2,0,0.2-0.5,0.1-0.9l-1.4-5.5c-0.1-0.5-0.2-1-0.1-1.2c0,0,0,0,0.2,0c0.2,0,0.2,0,0.2,0c0.1,0.2,0.3,0.7,0.4,1.1l1.4,5.5
			c0.1,0.5,0.4,0.8,0.5,0.7c0.2,0,0.2-0.5,0.1-0.9l-1.4-5.5c-0.1-0.5-0.2-1-0.1-1.2c0,0,0,0,0.2,0c0.2,0,0.2,0,0.2,0
			c0.1,0.2,0.3,0.7,0.4,1.1l1.4,5.5c0.1,0.5,0.4,0.8,0.5,0.7c0.2,0,0.2-0.5,0.1-0.9l-1.4-5.5c-0.1-0.5-0.2-1-0.1-1.2c0,0,0,0,0.2,0
			c0.2,0,0.2,0,0.2,0c0.1,0.2,0.3,0.7,0.4,1.1l1.4,5.5c0.1,0.5,0.4,0.8,0.5,0.7c0.2,0,0.2-0.5,0.1-0.9l-1.4-5.5
			c-0.1-0.5-0.2-1-0.1-1.2c0,0,0,0,0.2,0c0.2,0,0.2,0,0.2,0c0.1,0.2,0.3,0.7,0.4,1.1l1.4,5.5c0.1,0.5,0.4,0.8,0.5,0.7
			c0.2,0,0.2-0.5,0.1-0.9l-1.4-5.5c-0.1-0.5-0.2-1-0.1-1.2c0,0,0,0,0.2,0c0.2,0,0.2,0,0.2,0c0.1,0.2,0.3,0.7,0.4,1.1l1.4,5.5
			c0.1,0.5,0.4,0.8,0.5,0.7c0.2,0,0.2-0.5,0.1-0.9l-1.4-5.5c-0.1-0.5-0.2-1-0.1-1.2c0,0,0,0,0.2,0c0.2,0,0.2,0,0.2,0
			c0.1,0.2,0.3,0.7,0.4,1.1l1.4,5.5c0.1,0.5,0.4,0.8,0.5,0.7c0.2,0,0.2-0.5,0.1-0.9l-1.4-5.5c-0.1-0.5-0.2-1-0.1-1.2c0,0,0,0,0.2,0
			c0.2,0,0.2,0,0.2,0c0.1,0.2,0.3,0.7,0.4,1.1l1.4,5.5c0.1,0.5,0.4,0.8,0.5,0.7c0.2,0,0.2-0.5,0.1-0.9l-1.4-5.5
			c-0.1-0.5-0.2-1-0.1-1.2c0,0,0,0,0.2,0c0.2,0,0.2,0,0.2,0c0.1,0.2,0.3,0.7,0.4,1.1l1.4,5.5c0.1,0.5,0.4,0.8,0.5,0.7
			c0.2,0,0.2-0.5,0.1-0.9l-1.4-5.5c-0.1-0.5-0.2-1-0.1-1.2c0,0,0,0,0.2,0s0.2,0,0.2,0c0.1,0.2,0.3,0.7,0.4,1.1l1.4,5.5
			c0.1,0.5,0.4,0.8,0.5,0.7c0.2,0,0.2-0.5,0.1-0.9l-1.4-5.5c-0.1-0.5-0.2-1-0.1-1.2c0,0,0,0,0.2,0c0.2,0,0.2,0,0.2,0
			c0.1,0.2,0.3,0.7,0.4,1.1l1.4,5.5c0.1,0.5,0.4,0.8,0.5,0.7c0.2,0,0.2-0.5,0.1-0.9l-1.4-5.5c-0.1-0.5-0.2-1-0.1-1.2c0,0,0,0,0.2,0
			c0.2,0,0.2,0,0.2,0c0.1,0.2,0.3,0.7,0.4,1.1l1.4,5.5c0.1,0.5,0.4,0.8,0.5,0.7c0.2,0,0.2-0.5,0.1-0.9l-1.4-5.5
			c-0.1-0.5-0.2-1-0.1-1.2c0,0,0,0,0.2,0c0.2,0,0.2,0,0.2,0c0.1,0.2,0.3,0.7,0.4,1.1l1.4,5.5c0.1,0.5,0.4,0.8,0.5,0.7
			c0.2,0,0.2-0.5,0.1-0.9l-1.4-5.5c-0.1-0.5-0.2-1-0.1-1.2c0,0,0,0,0.2,0c0.2,0,0.2,0,0.2,0c0.1,0.2,0.3,0.7,0.4,1.1l1.4,5.5
			c0.1,0.5,0.4,0.8,0.5,0.7c0.2,0,0.2-0.5,0.1-0.9l-1.4-5.5c-0.1-0.5-0.2-1-0.1-1.2c0,0,0,0,0.2,0c0.2,0,0.2,0,0.2,0
			c0.1,0.2,0.3,0.7,0.4,1.1l1.4,5.7c0.1,0.3,0.4,0.5,0.7,0.4h0c0.3-0.1,0.5-0.4,0.4-0.7l-1.4-5.7C381.8,318.1,378.3,316,374.8,316.8
			z"/>
	</g>
	<g>
		<path fill="#EE7411" d="M369.3,375.6c-1.8,0-3.1-0.6-4-1.6c-0.2-0.3-0.4-0.6-0.6-1l1.6-4.5c0.9-2.4-0.4-5-2.8-5.9
			c-1.6-0.6-3.4-0.2-4.7,0.9c-2.1,0-4.9,0.3-7,2.3c-2.1,2-2.9,5.1-2.2,9.1c0.2,0.9,1,1.6,1.9,1.6c0.1,0,0.2,0,0.3,0
			c1-0.2,1.8-1.2,1.6-2.2c-0.4-2.7-0.1-4.6,1-5.7c0.6-0.6,1.5-0.9,2.3-1.1l-3.1,8.6c-0.3,0.8-0.3,1.7-0.2,2.5c0,1.6-0.4,5.5-2.3,6.7
			c-1.1,0.7-2.8,0.6-5.1-0.5l-2.2-1l-0.5,2.4c-0.5,2.3-1.5,5.3-1.5,5.4c-0.3,1,0.2,2.1,1.2,2.4c0.2,0.1,0.4,0.1,0.6,0.1
			c0.8,0,1.6-0.5,1.8-1.3c0-0.1,0.6-1.8,1.1-3.6c2.6,0.8,4.8,0.5,6.6-0.7c2.3-1.5,3.3-4.1,3.7-6.4c0.3,0.1,0.6,0.1,0.9,0.1
			c1.1,2.4,3,6.9,3.5,10.5l0.2,1.7h5.3c1.1,0,1.9-0.9,1.9-1.9c0-1.1-0.9-1.9-1.9-1.9H365c-0.8-3.6-2.4-7.6-3.5-9.9
			c0.4-0.4,0.7-0.9,0.9-1.5l0.7-2c1.5,1.4,3.6,2.1,6.1,2.2c0,0,0,0,0,0c1,0,1.9-0.8,1.9-1.9C371.2,376.5,370.4,375.7,369.3,375.6z"
			/>
		<circle fill="#EE7411" cx="366.3" cy="359.1" r="3.7"/>
	</g>
	<g>
		
			<line fill="none" stroke="#586B73" stroke-width="2" stroke-linecap="round" stroke-linejoin="round" stroke-miterlimit="10" stroke-dasharray="3" x1="357.5" y1="300.5" x2="357.5" y2="316.6"/>
		
			<line fill="none" stroke="#586B73" stroke-width="2" stroke-linecap="round" stroke-linejoin="round" stroke-miterlimit="10" x1="357.5" y1="315.8" x2="360.8" y2="312.6"/>
		
			<line fill="none" stroke="#586B73" stroke-width="2" stroke-linecap="round" stroke-linejoin="round" stroke-miterlimit="10" x1="354.4" y1="312.5" x2="357.5" y2="315.8"/>
	</g>
	<g>
		
			<line fill="none" stroke="#586B73" stroke-width="2" stroke-linecap="round" stroke-linejoin="round" stroke-miterlimit="10" stroke-dasharray="3" x1="357.5" y1="340.5" x2="357.5" y2="356.6"/>
		
			<line fill="none" stroke="#586B73" stroke-width="2" stroke-linecap="round" stroke-linejoin="round" stroke-miterlimit="10" x1="357.5" y1="355.8" x2="360.8" y2="352.6"/>
		
			<line fill="none" stroke="#586B73" stroke-width="2" stroke-linecap="round" stroke-linejoin="round" stroke-miterlimit="10" x1="354.4" y1="352.5" x2="357.5" y2="355.8"/>
	</g>
</g>
<g opacity="0.57">
	<path fill="#EE7411" d="M490.2,291.3l-0.8-3.2c0.2-0.2,0.3-0.5,0.2-0.8l-0.2-0.8c-0.1-0.5-0.7-0.7-1.3-0.6l-11.6,3l-2.2,1.3
		l-37.8,9.9c-0.6,0.2-1,0.7-0.8,1.1l0.2,0.8c0.1,0.5,0.7,0.7,1.3,0.6l37.8-9.9l2.1-1.2l0.8,2.9c0,0.2,0.2,0.3,0.3,0.4
		c0.1,0.1,0.2,0.1,0.4,0.1c0.1,0,0.1,0,0.2,0l11-2.9c0.2,0,0.3-0.2,0.4-0.3C490.2,291.7,490.2,291.5,490.2,291.3z M479,293.5
		l-0.6-2.1l0.7-0.2l0.3,1.3c0.1,0.2,0.3,0.4,0.5,0.4c0,0,0.1,0,0.1,0c0.3-0.1,0.5-0.4,0.4-0.7l-0.3-1.3l0.4-0.1l0.3,1.3
		c0.1,0.2,0.3,0.4,0.5,0.4c0,0,0.1,0,0.1,0c0.3-0.1,0.5-0.4,0.4-0.7l-0.3-1.3l0.4-0.1l0.3,1.3c0.1,0.2,0.3,0.4,0.5,0.4
		c0,0,0.1,0,0.1,0c0.3-0.1,0.5-0.4,0.4-0.7l-0.3-1.3l0.4-0.1l0.3,1.3c0.1,0.2,0.3,0.4,0.5,0.4c0,0,0.1,0,0.1,0
		c0.3-0.1,0.5-0.4,0.4-0.7l-0.3-1.3l0.4-0.1l0.3,1.3c0.1,0.2,0.3,0.4,0.5,0.4c0,0,0.1,0,0.1,0c0.3-0.1,0.5-0.4,0.4-0.7l-0.3-1.3
		l0.4-0.1l0.3,1.3c0.1,0.2,0.3,0.4,0.5,0.4c0,0,0.1,0,0.1,0c0.3-0.1,0.5-0.4,0.4-0.7l-0.3-1.3l0.4-0.1l0.6,2.1L479,293.5z"/>
	<g>
		<path fill="#EE7411" d="M480.2,316.8L439.7,327c-3.4,0.9-5.5,4.4-4.7,7.8l1.4,5.7c0.1,0.3,0.4,0.5,0.7,0.4l0,0
			c0.3-0.1,0.5-0.4,0.4-0.7l-1.4-5.7c-0.1-0.5-0.2-1-0.1-1.2c0,0,0,0,0.2,0c0.2,0,0.2,0,0.2,0c0.1,0.2,0.3,0.7,0.4,1.1l1.4,5.5
			c0.1,0.5,0.4,0.8,0.5,0.7c0.2,0,0.2-0.5,0.1-0.9l-1.4-5.5c-0.1-0.5-0.2-1-0.1-1.2c0,0,0,0,0.2,0c0.2,0,0.2,0,0.2,0
			c0.1,0.2,0.3,0.7,0.4,1.1l1.4,5.5c0.1,0.5,0.4,0.8,0.5,0.7c0.2,0,0.2-0.5,0.1-0.9l-1.4-5.5c-0.1-0.5-0.2-1-0.1-1.2c0,0,0,0,0.2,0
			c0.2,0,0.2,0,0.2,0c0.1,0.2,0.3,0.7,0.4,1.1l1.4,5.5c0.1,0.5,0.4,0.8,0.5,0.7c0.2,0,0.2-0.5,0.1-0.9l-1.4-5.5
			c-0.1-0.5-0.2-1-0.1-1.2c0,0,0,0,0.2,0c0.2,0,0.2,0,0.2,0c0.1,0.2,0.3,0.7,0.4,1.1l1.4,5.5c0.1,0.5,0.4,0.8,0.5,0.7
			c0.2,0,0.2-0.5,0.1-0.9l-1.4-5.5c-0.1-0.5-0.2-1-0.1-1.2c0,0,0,0,0.2,0c0.2,0,0.2,0,0.2,0c0.1,0.2,0.3,0.7,0.4,1.1l1.4,5.5
			c0.1,0.5,0.4,0.8,0.5,0.7c0.2,0,0.2-0.5,0.1-0.9l-1.4-5.5c-0.1-0.5-0.2-1-0.1-1.2c0,0,0,0,0.2,0c0.2,0,0.2,0,0.2,0
			c0.1,0.2,0.3,0.7,0.4,1.1l1.4,5.5c0.1,0.5,0.4,0.8,0.5,0.7c0.2,0,0.2-0.5,0.1-0.9l-1.4-5.5c-0.1-0.5-0.2-1-0.1-1.2c0,0,0,0,0.2,0
			c0.2,0,0.2,0,0.2,0c0.1,0.2,0.3,0.7,0.4,1.1l1.4,5.5c0.1,0.5,0.4,0.8,0.5,0.7c0.2,0,0.2-0.5,0.1-0.9l-1.4-5.5
			c-0.1-0.5-0.2-1-0.1-1.2c0,0,0,0,0.2,0c0.2,0,0.2,0,0.2,0c0.1,0.2,0.3,0.7,0.4,1.1l1.4,5.5c0.1,0.5,0.4,0.8,0.5,0.7
			c0.2,0,0.2-0.5,0.1-0.9l-1.4-5.5c-0.1-0.5-0.2-1-0.1-1.2c0,0,0,0,0.2,0c0.2,0,0.2,0,0.2,0c0.1,0.2,0.3,0.7,0.4,1.1l1.4,5.5
			c0.1,0.5,0.4,0.8,0.5,0.7c0.2,0,0.2-0.5,0.1-0.9l-1.4-5.5c-0.1-0.5-0.2-1-0.1-1.2c0,0,0,0,0.2,0c0.2,0,0.2,0,0.2,0
			c0.1,0.2,0.3,0.7,0.4,1.1l1.4,5.5c0.1,0.5,0.4,0.8,0.5,0.7c0.2,0,0.2-0.5,0.1-0.9l-1.4-5.5c-0.1-0.5-0.2-1-0.1-1.2c0,0,0,0,0.2,0
			s0.2,0,0.2,0c0.1,0.2,0.3,0.7,0.4,1.1l1.4,5.5c0.1,0.5,0.4,0.8,0.5,0.7c0.2,0,0.2-0.5,0.1-0.9l-1.4-5.5c-0.1-0.5-0.2-1-0.1-1.2
			c0,0,0,0,0.2,0c0.2,0,0.2,0,0.2,0c0.1,0.2,0.3,0.7,0.4,1.1l1.4,5.5c0.1,0.5,0.4,0.8,0.5,0.7c0.2,0,0.2-0.5,0.1-0.9l-1.4-5.5
			c-0.1-0.5-0.2-1-0.1-1.2c0,0,0,0,0.2,0c0.2,0,0.2,0,0.2,0c0.1,0.2,0.3,0.7,0.4,1.1l1.4,5.5c0.1,0.5,0.4,0.8,0.5,0.7
			c0.2,0,0.2-0.5,0.1-0.9l-1.4-5.5c-0.1-0.5-0.2-1-0.1-1.2c0,0,0,0,0.2,0c0.2,0,0.2,0,0.2,0c0.1,0.2,0.3,0.7,0.4,1.1l1.4,5.5
			c0.1,0.5,0.4,0.8,0.5,0.7c0.2,0,0.2-0.5,0.1-0.9l-1.4-5.5c-0.1-0.5-0.2-1-0.1-1.2c0,0,0,0,0.2,0c0.2,0,0.2,0,0.2,0
			c0.1,0.2,0.3,0.7,0.4,1.1l1.4,5.5c0.1,0.5,0.4,0.8,0.5,0.7c0.2,0,0.2-0.5,0.1-0.9l-1.4-5.5c-0.1-0.5-0.2-1-0.1-1.2c0,0,0,0,0.2,0
			c0.2,0,0.2,0,0.2,0c0.1,0.2,0.3,0.7,0.4,1.1l1.4,5.5c0.1,0.5,0.4,0.8,0.5,0.7c0.2,0,0.2-0.5,0.1-0.9l-1.4-5.5
			c-0.1-0.5-0.2-1-0.1-1.2c0,0,0,0,0.2,0c0.2,0,0.2,0,0.2,0c0.1,0.2,0.3,0.7,0.4,1.1l1.4,5.5c0.1,0.5,0.4,0.8,0.5,0.7
			c0.2,0,0.2-0.5,0.1-0.9l-1.4-5.5c-0.1-0.5-0.2-1-0.1-1.2c0,0,0,0,0.2,0c0.2,0,0.2,0,0.2,0c0.1,0.2,0.3,0.7,0.4,1.1l1.4,5.5
			c0.1,0.5,0.4,0.8,0.5,0.7c0.2,0,0.2-0.5,0.1-0.9l-1.4-5.5c-0.1-0.5-0.2-1-0.1-1.2c0,0,0,0,0.2,0c0.2,0,0.2,0,0.2,0
			c0.1,0.2,0.3,0.7,0.4,1.1l1.4,5.5c0.1,0.5,0.4,0.8,0.5,0.7c0.2,0,0.2-0.5,0.1-0.9l-1.4-5.5c-0.1-0.5-0.2-1-0.1-1.2c0,0,0,0,0.2,0
			c0.2,0,0.2,0,0.2,0c0.1,0.2,0.3,0.7,0.4,1.1l1.4,5.5c0.1,0.5,0.4,0.8,0.5,0.7c0.2,0,0.2-0.5,0.1-0.9l-1.4-5.5
			c-0.1-0.5-0.2-1-0.1-1.2c0,0,0,0,0.2,0c0.2,0,0.2,0,0.2,0c0.1,0.2,0.3,0.7,0.4,1.1l1.4,5.5c0.1,0.5,0.4,0.8,0.5,0.7
			c0.2,0,0.2-0.5,0.1-0.9l-1.4-5.5c-0.1-0.5-0.2-1-0.1-1.2c0,0,0,0,0.2,0c0.2,0,0.2,0,0.2,0c0.1,0.2,0.3,0.7,0.4,1.1l1.4,5.5
			c0.1,0.5,0.4,0.8,0.5,0.7c0.2,0,0.2-0.5,0.1-0.9l-1.4-5.5c-0.1-0.5-0.2-1-0.1-1.2c0,0,0,0,0.2,0c0.2,0,0.2,0,0.2,0
			c0.1,0.2,0.3,0.7,0.4,1.1l1.4,5.5c0.1,0.5,0.4,0.8,0.5,0.7c0.2,0,0.2-0.5,0.1-0.9l-1.4-5.5c-0.1-0.5-0.2-1-0.1-1.2c0,0,0,0,0.2,0
			c0.2,0,0.2,0,0.2,0c0.1,0.2,0.3,0.7,0.4,1.1l1.4,5.5c0.1,0.5,0.4,0.8,0.5,0.7c0.2,0,0.2-0.5,0.1-0.9l-1.4-5.5
			c-0.1-0.5-0.2-1-0.1-1.2c0,0,0,0,0.2,0c0.2,0,0.2,0,0.2,0c0.1,0.2,0.3,0.7,0.4,1.1l1.4,5.5c0.1,0.5,0.4,0.8,0.5,0.7
			c0.2,0,0.2-0.5,0.1-0.9l-1.4-5.5c-0.1-0.5-0.2-1-0.1-1.2c0,0,0,0,0.2,0c0.2,0,0.2,0,0.2,0c0.1,0.2,0.3,0.7,0.4,1.1l1.4,5.5
			c0.1,0.5,0.4,0.8,0.5,0.7c0.2,0,0.2-0.5,0.1-0.9l-1.4-5.5c-0.1-0.5-0.2-1-0.1-1.2c0,0,0,0,0.2,0c0.2,0,0.2,0,0.2,0
			c0.1,0.2,0.3,0.7,0.4,1.1l1.4,5.5c0.1,0.5,0.4,0.8,0.5,0.7c0.2,0,0.2-0.5,0.1-0.9l-1.4-5.5c-0.1-0.5-0.2-1-0.1-1.2c0,0,0,0,0.2,0
			c0.2,0,0.2,0,0.2,0c0.1,0.2,0.3,0.7,0.4,1.1l1.4,5.5c0.1,0.5,0.4,0.8,0.5,0.7c0.2,0,0.2-0.5,0.1-0.9l-1.4-5.5
			c-0.1-0.5-0.2-1-0.1-1.2c0,0,0,0,0.2,0c0.2,0,0.2,0,0.2,0c0.1,0.2,0.3,0.7,0.4,1.1l1.4,5.5c0.1,0.5,0.4,0.8,0.5,0.7
			c0.2,0,0.2-0.5,0.1-0.9l-1.4-5.5c-0.1-0.5-0.2-1-0.1-1.2c0,0,0,0,0.2,0c0.2,0,0.2,0,0.2,0c0.1,0.2,0.3,0.7,0.4,1.1l1.4,5.5
			c0.1,0.5,0.4,0.8,0.5,0.7c0.2,0,0.2-0.5,0.1-0.9l-1.4-5.5c-0.1-0.5-0.2-1-0.1-1.2c0,0,0,0,0.2,0c0.2,0,0.2,0,0.2,0
			c0.1,0.2,0.3,0.7,0.4,1.1l1.4,5.5c0.1,0.5,0.4,0.8,0.5,0.7c0.2,0,0.2-0.5,0.1-0.9l-1.4-5.5c-0.1-0.5-0.2-1-0.1-1.2c0,0,0,0,0.2,0
			c0.2,0,0.2,0,0.2,0c0.1,0.2,0.3,0.7,0.4,1.1l1.4,5.5c0.1,0.5,0.4,0.8,0.5,0.7c0.2,0,0.2-0.5,0.1-0.9l-1.4-5.5
			c-0.1-0.5-0.2-1-0.1-1.2c0,0,0,0,0.2,0c0.2,0,0.2,0,0.2,0c0.1,0.2,0.3,0.7,0.4,1.1l1.4,5.5c0.1,0.5,0.4,0.8,0.5,0.7
			c0.2,0,0.2-0.5,0.1-0.9l-1.4-5.5c-0.1-0.5-0.2-1-0.1-1.2c0,0,0,0,0.2,0c0.2,0,0.2,0,0.2,0c0.1,0.2,0.3,0.7,0.4,1.1l1.4,5.5
			c0.1,0.5,0.4,0.8,0.5,0.7c0.2,0,0.2-0.5,0.1-0.9l-1.4-5.5c-0.1-0.5-0.2-1-0.1-1.2c0,0,0,0,0.2,0c0.2,0,0.2,0,0.2,0
			c0.1,0.2,0.3,0.7,0.4,1.1l1.4,5.5c0.1,0.5,0.4,0.8,0.5,0.7c0.2,0,0.2-0.5,0.1-0.9l-1.4-5.5c-0.1-0.5-0.2-1-0.1-1.2c0,0,0,0,0.2,0
			c0.2,0,0.2,0,0.2,0c0.1,0.2,0.3,0.7,0.4,1.1l1.4,5.5c0.1,0.5,0.4,0.8,0.5,0.7c0.2,0,0.2-0.5,0.1-0.9l-1.4-5.5
			c-0.1-0.5-0.2-1-0.1-1.2c0,0,0,0,0.2,0c0.2,0,0.2,0,0.2,0c0.1,0.2,0.3,0.7,0.4,1.1l1.4,5.5c0.1,0.5,0.4,0.8,0.5,0.7
			c0.2,0,0.2-0.5,0.1-0.9l-1.4-5.5c-0.1-0.5-0.2-1-0.1-1.2c0,0,0,0,0.2,0c0.2,0,0.2,0,0.2,0c0.1,0.2,0.3,0.7,0.4,1.1l1.4,5.5
			c0.1,0.5,0.4,0.8,0.5,0.7c0.2,0,0.2-0.5,0.1-0.9l-1.4-5.5c-0.1-0.5-0.2-1-0.1-1.2c0,0,0,0,0.2,0c0.2,0,0.2,0,0.2,0
			c0.1,0.2,0.3,0.7,0.4,1.1l1.4,5.7c0.1,0.3,0.4,0.5,0.7,0.4h0c0.3-0.1,0.5-0.4,0.4-0.7l-1.4-5.7C487.1,318.1,483.6,316,480.2,316.8
			z"/>
	</g>
	<g>
		<path fill="#EE7411" d="M474.7,375.6c-1.8,0-3.1-0.6-4-1.6c-0.2-0.3-0.4-0.6-0.6-1l1.6-4.5c0.9-2.4-0.4-5-2.8-5.9
			c-1.6-0.6-3.4-0.2-4.7,0.9c-2.1,0-4.9,0.3-7,2.3c-2.1,2-2.9,5.1-2.2,9.1c0.2,0.9,1,1.6,1.9,1.6c0.1,0,0.2,0,0.3,0
			c1-0.2,1.8-1.2,1.6-2.2c-0.4-2.7-0.1-4.6,1-5.7c0.6-0.6,1.5-0.9,2.3-1.1l-3.1,8.6c-0.3,0.8-0.3,1.7-0.2,2.5c0,1.6-0.4,5.5-2.3,6.7
			c-1.1,0.7-2.8,0.6-5.1-0.5l-2.2-1l-0.5,2.4c-0.5,2.3-1.5,5.3-1.5,5.4c-0.3,1,0.2,2.1,1.2,2.4c0.2,0.1,0.4,0.1,0.6,0.1
			c0.8,0,1.6-0.5,1.8-1.3c0-0.1,0.6-1.8,1.1-3.6c2.6,0.8,4.8,0.5,6.6-0.7c2.3-1.5,3.3-4.1,3.7-6.4c0.3,0.1,0.6,0.1,0.9,0.1
			c1.1,2.4,3,6.9,3.5,10.5l0.2,1.7h5.3c1.1,0,1.9-0.9,1.9-1.9c0-1.1-0.9-1.9-1.9-1.9h-1.9c-0.8-3.6-2.4-7.6-3.5-9.9
			c0.4-0.4,0.7-0.9,0.9-1.5l0.7-2c1.5,1.4,3.6,2.1,6.1,2.2c0,0,0,0,0,0c1,0,1.9-0.8,1.9-1.9C476.6,376.5,475.8,375.7,474.7,375.6z"
			/>
		<circle fill="#EE7411" cx="471.6" cy="359.1" r="3.7"/>
	</g>
	<g>
		
			<line fill="none" stroke="#586B73" stroke-width="2" stroke-linecap="round" stroke-linejoin="round" stroke-miterlimit="10" stroke-dasharray="3" x1="462.9" y1="300.5" x2="462.9" y2="316.6"/>
		
			<line fill="none" stroke="#586B73" stroke-width="2" stroke-linecap="round" stroke-linejoin="round" stroke-miterlimit="10" x1="462.9" y1="315.8" x2="466.1" y2="312.6"/>
		
			<line fill="none" stroke="#586B73" stroke-width="2" stroke-linecap="round" stroke-linejoin="round" stroke-miterlimit="10" x1="459.7" y1="312.5" x2="462.9" y2="315.8"/>
	</g>
	<g>
		
			<line fill="none" stroke="#586B73" stroke-width="2" stroke-linecap="round" stroke-linejoin="round" stroke-miterlimit="10" stroke-dasharray="3" x1="462.9" y1="340.5" x2="462.9" y2="356.6"/>
		
			<line fill="none" stroke="#586B73" stroke-width="2" stroke-linecap="round" stroke-linejoin="round" stroke-miterlimit="10" x1="462.9" y1="355.8" x2="466.1" y2="352.6"/>
		
			<line fill="none" stroke="#586B73" stroke-width="2" stroke-linecap="round" stroke-linejoin="round" stroke-miterlimit="10" x1="459.7" y1="352.5" x2="462.9" y2="355.8"/>
	</g>
</g>
<path fill="#586B73" d="M199.1,317l12.4,19.3c0.8,1.2,0.7,2.7-0.1,3.9l-12.3,16.9V317z"/>
<path fill="#586B73" d="M304.1,317l12.4,19.3c0.8,1.2,0.7,2.7-0.1,3.9l-12.3,16.9V317z"/>
<path fill="#586B73" d="M410.1,317l12.4,19.3c0.8,1.2,0.7,2.7-0.1,3.9l-12.3,16.9V317z"/>
</svg>
