<?xml version="1.0" encoding="utf-8"?>
<!-- Generator: Adobe Illustrator 18.1.1, SVG Export Plug-In . SVG Version: 6.00 Build 0)  -->
<svg version="1.1" id="Isolation_Mode" xmlns="http://www.w3.org/2000/svg" xmlns:xlink="http://www.w3.org/1999/xlink" x="0px"
	 y="0px" viewBox="0 0 595.3 454" enable-background="new 0 0 595.3 454" xml:space="preserve">
<line fill="none" stroke="#121625" stroke-width="3" stroke-miterlimit="10" x1="32.2" y1="105.3" x2="563.1" y2="106.3"/>
<line fill="none" stroke="#586B73" stroke-width="2" stroke-miterlimit="10" x1="299.3" y1="105.9" x2="299.3" y2="413.3"/>
<path fill="none" stroke="#121625" stroke-width="11" stroke-linejoin="round" stroke-miterlimit="10" d="M551.1,413.3H44.2
	c-6.6,0-12-5.4-12-12V41.7c0-6.6,5.4-12,12-12h506.9c6.6,0,12,5.4,12,12v359.7C563.1,407.9,557.7,413.3,551.1,413.3z"/>
<g>
	<path fill="#EB5D12" d="M76.8,79.9c0,1.2-0.2,2.3-0.7,3.3c-0.5,1-1.1,2-1.9,2.7s-1.7,1.4-2.8,1.8c-1.1,0.4-2.2,0.7-3.4,0.7h-2.5
		c-1.2,0-2.3-0.2-3.4-0.7c-1.1-0.4-2-1.1-2.8-1.8s-1.4-1.7-1.9-2.7c-0.5-1-0.7-2.2-0.7-3.3v-1.4l3.1-0.5v1.9c0,0.8,0.2,1.5,0.5,2.2
		c0.3,0.7,0.7,1.3,1.3,1.8s1.2,0.9,1.9,1.2s1.5,0.4,2.2,0.4h2.2c0.8,0,1.5-0.1,2.2-0.4c0.7-0.3,1.3-0.7,1.9-1.2s1-1.1,1.3-1.8
		c0.3-0.7,0.5-1.4,0.5-2.2v-1c0-1.2-0.2-2.2-0.7-3c-0.5-0.8-1.1-1.5-1.9-2s-1.7-1-2.6-1.4c-1-0.4-2-0.8-3-1.2c-1-0.4-2.1-0.8-3-1.3
		c-1-0.5-1.9-1.1-2.6-1.8s-1.4-1.6-1.9-2.6c-0.5-1-0.7-2.3-0.7-3.8v-0.7c0-1.2,0.2-2.3,0.7-3.3c0.4-1,1.1-2,1.8-2.7s1.7-1.4,2.7-1.8
		c1-0.4,2.2-0.7,3.4-0.7H68c1.2,0,2.3,0.2,3.3,0.7c1,0.4,2,1.1,2.7,1.8s1.4,1.7,1.8,2.7c0.4,1,0.7,2.2,0.7,3.3V62l-3.1,0.5v-1.4
		c0-0.8-0.1-1.5-0.4-2.2c-0.3-0.7-0.7-1.3-1.2-1.8c-0.5-0.5-1.1-0.9-1.8-1.2c-0.7-0.3-1.4-0.4-2.2-0.4h-2c-0.8,0-1.5,0.1-2.2,0.4
		c-0.7,0.3-1.3,0.7-1.8,1.2c-0.5,0.5-0.9,1.1-1.2,1.8c-0.3,0.7-0.4,1.4-0.4,2.2v0.7c0,1.1,0.2,2.1,0.7,2.8c0.5,0.8,1.1,1.4,1.9,2
		c0.8,0.5,1.7,1,2.6,1.4c1,0.4,2,0.8,3,1.2c1,0.4,2.1,0.9,3,1.4c1,0.5,1.9,1.1,2.6,1.8c0.8,0.7,1.4,1.6,1.9,2.6
		c0.5,1,0.7,2.3,0.7,3.8V79.9z"/>
	<path fill="#EB5D12" d="M92.1,56v32h-3.1V56h-8.3v-3h19.8v3H92.1z"/>
	<path fill="#EB5D12" d="M117.1,79.8H106l-2.3,8.2h-3.3l10.3-35h1.7l10.3,35h-3.2L117.1,79.8z M106.9,76.8h9.4l-4.6-16.1l-0.1-1.3
		l-0.1,1.3L106.9,76.8z"/>
	<path fill="#EB5D12" d="M146.2,69.3c-0.4,1-1.1,2-1.8,2.7s-1.7,1.4-2.7,1.8c-1,0.4-2.2,0.7-3.4,0.7h-7.9V88h-3.1V53h11.1
		c1.2,0,2.3,0.2,3.4,0.7c1,0.4,2,1.1,2.7,1.8s1.4,1.7,1.8,2.7c0.4,1,0.7,2.2,0.7,3.4V66C146.9,67.1,146.6,68.3,146.2,69.3z
		 M143.7,61.6c0-0.8-0.1-1.5-0.4-2.2c-0.3-0.7-0.7-1.3-1.2-1.8s-1.1-0.9-1.8-1.2c-0.7-0.3-1.4-0.4-2.2-0.4h-7.8v15.6h7.8
		c0.8,0,1.5-0.1,2.2-0.4c0.7-0.3,1.3-0.7,1.8-1.2c0.5-0.5,0.9-1.1,1.2-1.8c0.3-0.7,0.4-1.4,0.4-2.2V61.6z"/>
	<path fill="#EB5D12" d="M164.4,88v-3h8.3V56l-8.3,3.5v-3l8.3-3.5h3.1v32h8.3v3H164.4z"/>
	<path fill="#EB5D12" d="M189.7,66.8V63h3.8v3.8H189.7z M189.7,88v-3.8h3.8V88H189.7z"/>
</g>
<rect x="275.9" y="43.9" fill="#EE7411" width="273.3" height="50.7"/>
<g>
	<path fill="#FFFFFF" d="M297.6,58.8v25.6h-2.5V58.8h-6.7v-2.4h15.9v2.4H297.6z"/>
	<path fill="#FFFFFF" d="M321.5,84.4V71.6h-10.7v12.8h-2.5v-28h2.5v12.8h10.7V56.4h2.5v28H321.5z"/>
	<path fill="#FFFFFF" d="M330.4,84.4v-28h15.8v2.4h-13.2v10.4h10.7v2.4h-10.7V82h13.2v2.4H330.4z"/>
	<path fill="#FFFFFF" d="M375.5,77.9c0,1-0.2,1.8-0.6,2.7c-0.4,0.8-0.9,1.6-1.5,2.2s-1.4,1.1-2.2,1.5c-0.9,0.4-1.8,0.5-2.7,0.5h-2
		c-1,0-1.9-0.2-2.7-0.5c-0.9-0.4-1.6-0.8-2.2-1.5s-1.2-1.4-1.5-2.2c-0.4-0.8-0.6-1.7-0.6-2.7v-1.1l2.5-0.4v1.5
		c0,0.6,0.1,1.2,0.4,1.7c0.3,0.5,0.6,1,1,1.4s0.9,0.7,1.5,1s1.2,0.4,1.8,0.4h1.8c0.6,0,1.2-0.1,1.8-0.4c0.6-0.2,1.1-0.6,1.5-1
		s0.8-0.9,1-1.4c0.3-0.5,0.4-1.1,0.4-1.7v-0.8c0-1-0.2-1.8-0.6-2.4c-0.4-0.6-0.9-1.2-1.5-1.6s-1.3-0.8-2.1-1.1
		c-0.8-0.3-1.6-0.6-2.4-0.9c-0.8-0.3-1.6-0.7-2.4-1c-0.8-0.4-1.5-0.8-2.1-1.4s-1.1-1.3-1.5-2.1c-0.4-0.8-0.6-1.8-0.6-3v-0.5
		c0-1,0.2-1.8,0.5-2.7c0.4-0.8,0.8-1.6,1.5-2.2s1.4-1.1,2.2-1.5c0.8-0.4,1.7-0.5,2.7-0.5h1.8c1,0,1.8,0.2,2.7,0.5
		c0.8,0.4,1.6,0.8,2.2,1.5s1.1,1.4,1.5,2.2c0.4,0.8,0.5,1.7,0.5,2.7v0.7l-2.5,0.4v-1.1c0-0.6-0.1-1.2-0.4-1.7c-0.2-0.5-0.6-1-1-1.4
		c-0.4-0.4-0.9-0.7-1.4-1c-0.5-0.2-1.1-0.4-1.7-0.4h-1.6c-0.6,0-1.2,0.1-1.7,0.4c-0.5,0.2-1,0.6-1.4,1c-0.4,0.4-0.7,0.9-1,1.4
		c-0.2,0.5-0.4,1.1-0.4,1.7v0.5c0,0.9,0.2,1.7,0.6,2.3c0.4,0.6,0.9,1.1,1.5,1.6c0.6,0.4,1.3,0.8,2.1,1.1c0.8,0.3,1.6,0.6,2.4,1
		c0.8,0.3,1.6,0.7,2.4,1.1c0.8,0.4,1.5,0.9,2.1,1.5c0.6,0.6,1.1,1.3,1.5,2.1c0.4,0.8,0.6,1.8,0.6,3V77.9z"/>
	<path fill="#FFFFFF" d="M380.5,84.4v-28h2.5V82h10.7v2.4H380.5z"/>
	<path fill="#FFFFFF" d="M397.8,84.4v-28h15.8v2.4h-13.2v10.4H411v2.4h-10.7V82h13.2v2.4H397.8z"/>
	<path fill="#FFFFFF" d="M418.4,84.4v-28h15.8v2.4h-13.2v10.4h10.7v2.4h-10.7V82h13.2v2.4H418.4z"/>
	<path fill="#FFFFFF" d="M454.1,69.4c-0.4,0.8-0.8,1.6-1.5,2.2s-1.4,1.1-2.2,1.5c-0.8,0.4-1.7,0.5-2.7,0.5h-6.3v10.8h-2.5v-28h8.9
		c1,0,1.8,0.2,2.7,0.5c0.8,0.4,1.6,0.8,2.2,1.5s1.1,1.4,1.5,2.2c0.4,0.8,0.5,1.7,0.5,2.7v3.5C454.7,67.7,454.5,68.6,454.1,69.4z
		 M452.2,63.3c0-0.6-0.1-1.2-0.4-1.7c-0.2-0.5-0.6-1-1-1.4s-0.9-0.7-1.4-1c-0.5-0.2-1.1-0.4-1.7-0.4h-6.2v12.4h6.2
		c0.6,0,1.2-0.1,1.7-0.4c0.5-0.2,1-0.6,1.4-1c0.4-0.4,0.7-0.9,1-1.4c0.2-0.5,0.4-1.1,0.4-1.7V63.3z"/>
	<path fill="#FFFFFF" d="M474.3,80.6c-0.4,0.8-0.8,1.6-1.5,2.2s-1.4,1.1-2.2,1.5c-0.8,0.4-1.7,0.5-2.7,0.5h-2c-1,0-1.8-0.2-2.7-0.5
		s-1.6-0.8-2.2-1.5s-1.1-1.4-1.5-2.2c-0.4-0.8-0.5-1.7-0.5-2.7v-15c0-1,0.2-1.8,0.5-2.7c0.4-0.8,0.8-1.6,1.5-2.2s1.4-1.1,2.2-1.5
		c0.8-0.4,1.7-0.5,2.7-0.5h2c1,0,1.8,0.2,2.7,0.5c0.8,0.4,1.6,0.8,2.2,1.5s1.1,1.4,1.5,2.2c0.4,0.8,0.5,1.7,0.5,2.7v15
		C474.8,78.8,474.7,79.7,474.3,80.6z M472.3,62.9c0-0.6-0.1-1.2-0.4-1.7c-0.2-0.5-0.6-1-1-1.4c-0.4-0.4-0.9-0.7-1.4-1
		c-0.5-0.2-1.1-0.4-1.7-0.4h-1.8c-0.6,0-1.2,0.1-1.7,0.4c-0.5,0.2-1,0.6-1.4,1c-0.4,0.4-0.7,0.9-1,1.4c-0.2,0.5-0.4,1.1-0.4,1.7v15
		c0,0.6,0.1,1.2,0.4,1.7c0.2,0.5,0.6,1,1,1.4s0.9,0.7,1.4,1c0.5,0.2,1.1,0.4,1.7,0.4h1.8c0.6,0,1.2-0.1,1.7-0.4c0.5-0.2,1-0.6,1.4-1
		c0.4-0.4,0.7-0.9,1-1.4c0.2-0.5,0.4-1.1,0.4-1.7V62.9z"/>
	<path fill="#FFFFFF" d="M486.9,78.2l0.1,1l0.1-1l6.2-21.9h2.6l-8.2,28h-1.3l-8.2-28h2.6L486.9,78.2z"/>
	<path fill="#FFFFFF" d="M499.4,84.4v-28h15.8v2.4h-13.2v10.4h10.7v2.4h-10.7V82h13.2v2.4H499.4z"/>
	<path fill="#FFFFFF" d="M533.1,84.4l-7.6-12h-3.5v12h-2.5v-28h8.9c1,0,1.8,0.2,2.7,0.5c0.8,0.4,1.6,0.8,2.2,1.5s1.1,1.4,1.5,2.2
		c0.4,0.8,0.5,1.7,0.5,2.7v2.3c0,1-0.2,1.8-0.5,2.7c-0.4,0.8-0.8,1.6-1.5,2.2s-1.4,1.1-2.2,1.5c-0.8,0.4-1.7,0.5-2.7,0.5l7.6,12
		H533.1z M532.8,63.3c0-0.6-0.1-1.2-0.4-1.7c-0.2-0.5-0.6-1-1-1.4c-0.4-0.4-0.9-0.7-1.4-1c-0.5-0.2-1.1-0.4-1.7-0.4h-6.2V70h6.2
		c0.6,0,1.2-0.1,1.7-0.4c0.5-0.2,1-0.6,1.4-1c0.4-0.4,0.7-0.9,1-1.4c0.2-0.5,0.4-1.1,0.4-1.7V63.3z"/>
</g>
<g>
	<path d="M138.2,145.3h-0.6l-1.2-1.8c-0.5,0.6-1.1,1.2-1.8,1.5c-0.7,0.4-1.5,0.6-2.3,0.6h-1.2c-0.8,0-1.5-0.1-2.1-0.4
		c-0.7-0.3-1.3-0.7-1.7-1.2c-0.5-0.5-0.9-1.1-1.2-1.7c-0.3-0.7-0.4-1.4-0.4-2.1v-12c0-0.8,0.1-1.5,0.4-2.1c0.3-0.7,0.7-1.2,1.2-1.7
		s1.1-0.9,1.7-1.2c0.7-0.3,1.4-0.4,2.1-0.4h1.6c0.8,0,1.5,0.1,2.1,0.4c0.7,0.3,1.2,0.7,1.7,1.2s0.9,1.1,1.2,1.7
		c0.3,0.7,0.4,1.4,0.4,2.1v0.9l-2,0.3v-1.2c0-0.5-0.1-1-0.3-1.4c-0.2-0.4-0.4-0.8-0.8-1.1c-0.3-0.3-0.7-0.6-1.1-0.8
		c-0.4-0.2-0.9-0.3-1.4-0.3h-1.4c-0.5,0-1,0.1-1.4,0.3c-0.4,0.2-0.8,0.4-1.1,0.8c-0.3,0.3-0.6,0.7-0.8,1.1c-0.2,0.4-0.3,0.9-0.3,1.4
		v12c0,0.5,0.1,1,0.3,1.4s0.4,0.8,0.8,1.1c0.3,0.3,0.7,0.6,1.1,0.8c0.4,0.2,0.9,0.3,1.4,0.3h1.4c0.5,0,1-0.1,1.4-0.3
		s0.8-0.4,1.1-0.8c0.3-0.3,0.6-0.7,0.8-1.1c0.2-0.4,0.3-0.9,0.3-1.4v-4.6h-3.6v-1.9h5.6V145.3z"/>
	<path d="M154.7,142.3c-0.3,0.7-0.7,1.2-1.2,1.7c-0.5,0.5-1.1,0.9-1.7,1.2c-0.7,0.3-1.4,0.4-2.1,0.4h-1.6c-0.8,0-1.5-0.1-2.1-0.4
		c-0.7-0.3-1.3-0.7-1.7-1.2c-0.5-0.5-0.9-1.1-1.2-1.7c-0.3-0.7-0.4-1.4-0.4-2.1v-12c0-0.8,0.1-1.5,0.4-2.1c0.3-0.7,0.7-1.2,1.2-1.7
		s1.1-0.9,1.7-1.2c0.7-0.3,1.4-0.4,2.1-0.4h1.6c0.8,0,1.5,0.1,2.1,0.4c0.7,0.3,1.2,0.7,1.7,1.2s0.9,1.1,1.2,1.7
		c0.3,0.7,0.4,1.4,0.4,2.1v12C155.2,140.9,155,141.6,154.7,142.3z M153.2,128.2c0-0.5-0.1-1-0.3-1.4c-0.2-0.4-0.4-0.8-0.8-1.1
		c-0.3-0.3-0.7-0.6-1.1-0.8c-0.4-0.2-0.9-0.3-1.4-0.3h-1.4c-0.5,0-1,0.1-1.4,0.3c-0.4,0.2-0.8,0.4-1.1,0.8c-0.3,0.3-0.6,0.7-0.8,1.1
		c-0.2,0.4-0.3,0.9-0.3,1.4v12c0,0.5,0.1,1,0.3,1.4s0.4,0.8,0.8,1.1c0.3,0.3,0.7,0.6,1.1,0.8c0.4,0.2,0.9,0.3,1.4,0.3h1.4
		c0.5,0,1-0.1,1.4-0.3s0.8-0.4,1.1-0.8c0.3-0.3,0.6-0.7,0.8-1.1c0.2-0.4,0.3-0.9,0.3-1.4V128.2z"/>
	<path d="M160,145.3V123h12.5v1.9H162v8.3h8.5v1.9H162v8.3h10.5v1.9H160z"/>
	<path d="M188.5,142c-0.3,0.7-0.7,1.2-1.2,1.7c-0.5,0.5-1.1,0.9-1.7,1.2c-0.7,0.3-1.4,0.4-2.1,0.4h-7.1V123h7.1
		c0.8,0,1.5,0.1,2.1,0.4c0.7,0.3,1.3,0.7,1.7,1.2s0.9,1.1,1.2,1.7c0.3,0.7,0.4,1.4,0.4,2.1v11.3C188.9,140.6,188.7,141.3,188.5,142z
		 M186.9,128.5c0-0.5-0.1-1-0.3-1.4c-0.2-0.4-0.4-0.8-0.8-1.1s-0.7-0.6-1.1-0.8c-0.4-0.2-0.9-0.3-1.4-0.3h-5v18.5h5
		c0.5,0,1-0.1,1.4-0.3c0.4-0.2,0.8-0.4,1.1-0.8s0.6-0.7,0.8-1.1c0.2-0.4,0.3-0.9,0.3-1.4V128.5z"/>
</g>
<line fill="none" stroke="#000000" stroke-width="3" stroke-linecap="round" stroke-miterlimit="10" x1="118.6" y1="151.7" x2="194.6" y2="151.7"/>
<g>
	<path fill="#E62944" d="M408.7,124.9v8.3h8.5v1.9h-8.5v10.2h-2V123h12.5v1.9H408.7z"/>
	<path fill="#E62944" d="M434.2,142.3c-0.3,0.7-0.7,1.2-1.2,1.7c-0.5,0.5-1.1,0.9-1.7,1.2c-0.7,0.3-1.4,0.4-2.1,0.4h-1.6
		c-0.8,0-1.5-0.1-2.1-0.4s-1.3-0.7-1.7-1.2c-0.5-0.5-0.9-1.1-1.2-1.7c-0.3-0.7-0.4-1.4-0.4-2.1v-12c0-0.8,0.1-1.5,0.4-2.1
		c0.3-0.7,0.7-1.2,1.2-1.7c0.5-0.5,1.1-0.9,1.7-1.2s1.4-0.4,2.1-0.4h1.6c0.8,0,1.5,0.1,2.1,0.4c0.7,0.3,1.2,0.7,1.7,1.2
		c0.5,0.5,0.9,1.1,1.2,1.7c0.3,0.7,0.4,1.4,0.4,2.1v12C434.6,140.9,434.5,141.6,434.2,142.3z M432.6,128.2c0-0.5-0.1-1-0.3-1.4
		c-0.2-0.4-0.4-0.8-0.8-1.1c-0.3-0.3-0.7-0.6-1.1-0.8c-0.4-0.2-0.9-0.3-1.4-0.3h-1.4c-0.5,0-1,0.1-1.4,0.3c-0.4,0.2-0.8,0.4-1.1,0.8
		c-0.3,0.3-0.6,0.7-0.8,1.1c-0.2,0.4-0.3,0.9-0.3,1.4v12c0,0.5,0.1,1,0.3,1.4s0.4,0.8,0.8,1.1c0.3,0.3,0.7,0.6,1.1,0.8
		c0.4,0.2,0.9,0.3,1.4,0.3h1.4c0.5,0,1-0.1,1.4-0.3c0.4-0.2,0.8-0.4,1.1-0.8c0.3-0.3,0.6-0.7,0.8-1.1c0.2-0.4,0.3-0.9,0.3-1.4V128.2
		z"/>
	<path fill="#E62944" d="M439.4,145.3V123H452v1.9h-10.5v8.3h8.5v1.9h-8.5v8.3H452v1.9H439.4z"/>
	<path fill="#E62944" d="M455.8,145.3V123h2v22.3H455.8z"/>
</g>
<line fill="none" stroke="#E62944" stroke-width="3" stroke-linecap="round" stroke-miterlimit="10" x1="395.9" y1="151.7" x2="467.4" y2="151.7"/>
<path fill="#FFFFFF" stroke="#586B73" stroke-width="7" stroke-linecap="round" stroke-linejoin="round" stroke-miterlimit="10" d="
	M211.6,325.2H74.9c-6.6,0-12-5.4-12-12v-132c0-6.6,5.4-12,12-12h136.7c6.6,0,12,5.4,12,12v132C223.6,319.8,218.2,325.2,211.6,325.2z
	"/>
<path fill="#FFFFFF" stroke="#586B73" stroke-width="7" stroke-linecap="round" stroke-linejoin="round" stroke-miterlimit="10" d="
	M202.6,277.4H83.8c-6.6,0-12-5.4-12-12v-71.8c0-6.6,5.4-12,12-12h118.8c6.6,0,12,5.4,12,12v71.8C214.6,272,209.2,277.4,202.6,277.4z
	"/>
<g>
	
		<path fill="#FFFFFF" stroke="#121625" stroke-width="8" stroke-linecap="round" stroke-linejoin="round" stroke-miterlimit="10" d="
		M129.4,293.1l-3.6,17.4h-0.7c-28.4,0-51.7,23.3-51.7,51.7V382"/>
	
		<path fill="#FFFFFF" stroke="#121625" stroke-width="8" stroke-linecap="round" stroke-linejoin="round" stroke-miterlimit="10" d="
		M216.2,382v-19.8c0-28.4-23.3-51.7-51.7-51.7h0.2l-4.5-17.4"/>
	<g>
		<g>
			
				<path fill="#FFFFFF" stroke="#121625" stroke-width="8" stroke-linecap="round" stroke-linejoin="round" stroke-miterlimit="10" d="
				M197.2,246.2c-5.6-5.6-9.7,0-9.7,0v7.7c0,5.7-1.2,11.1-3.2,16c1.5-1.5,5.8-5.8,10.8-10.8C201.1,253,197.2,246.2,197.2,246.2z"/>
			
				<path fill="#FFFFFF" stroke="#121625" stroke-width="8" stroke-linecap="round" stroke-linejoin="round" stroke-miterlimit="10" d="
				M102,253.9V246c-0.9-1-4.7-4.6-9.5,0.2c0,0-3.9,6.8,2.2,12.9c4.6,4.6,8.7,8.7,10.4,10.4C103.1,264.7,102,259.4,102,253.9z"/>
		</g>
		
			<path fill="#FFFFFF" stroke="#121625" stroke-width="8" stroke-linecap="round" stroke-linejoin="round" stroke-miterlimit="10" d="
			M179.5,198.5L179.5,198.5c-3.5-5.1-8.4-8.5-8.4-8.5l0,0c-6.9-5.3-15.6-8.4-24.9-8.4h-2.6c-22.8,0-41.4,18.6-41.4,41.4v30
			c0,22.8,18.6,41.4,41.4,41.4h2.6c22.8,0,41.4-18.6,41.4-41.4v-30C187.6,213.9,184.6,205.4,179.5,198.5z"/>
		<g>
			<path fill="#FFFFFF" stroke="#121625" stroke-width="3" stroke-linecap="round" stroke-miterlimit="10" d="M155.2,241.4
				c0,0,1.2,4.1,6.1,4.1c4.9,0,6.1-4.1,6.1-4.1"/>
			<path fill="#FFFFFF" stroke="#121625" stroke-width="3" stroke-linecap="round" stroke-miterlimit="10" d="M134.5,241.4
				c0,0-1.2,4.1-6.1,4.1c-4.9,0-6.1-4.1-6.1-4.1"/>
		</g>
		<g>
			
				<line fill="#FFFFFF" stroke="#121625" stroke-width="6" stroke-linecap="round" stroke-linejoin="round" stroke-miterlimit="10" x1="119.8" y1="234.7" x2="132.5" y2="232.8"/>
			
				<line fill="#FFFFFF" stroke="#121625" stroke-width="6" stroke-linecap="round" stroke-linejoin="round" stroke-miterlimit="10" x1="167.4" y1="234.4" x2="154.6" y2="232.8"/>
		</g>
		<path fill="#FFFFFF" stroke="#121625" stroke-width="3" stroke-linecap="round" stroke-miterlimit="10" d="M143.3,264.1"/>
		
			<path fill="#FFFFFF" stroke="#121625" stroke-width="5" stroke-linecap="round" stroke-linejoin="round" stroke-miterlimit="10" d="
			M161.8,277h5.6c0-6.7-5-12.9-22.6-12.9s-22.6,6.4-22.6,12.9h32.6c0,0,2.9,1.2,2.2,4.1c-0.7,2.8,3.2,2.8,2.5,0
			C158.9,278.2,161.8,277,161.8,277z"/>
	</g>
	<g>
		
			<line fill="#FFFFFF" stroke="#121625" stroke-width="7" stroke-linecap="round" stroke-linejoin="round" stroke-miterlimit="10" x1="98.3" y1="368.6" x2="98.3" y2="382"/>
		
			<line fill="#FFFFFF" stroke="#121625" stroke-width="7" stroke-linecap="round" stroke-linejoin="round" stroke-miterlimit="10" x1="191.4" y1="368.6" x2="191.4" y2="382"/>
	</g>
	
		<path fill="#FFFFFF" stroke="#121625" stroke-width="7" stroke-linecap="round" stroke-linejoin="round" stroke-miterlimit="10" d="
		M186.2,215.5c-48.5,21.2-60.1-4.7-60.1-4.7s-3.8,15.9-23.2,7.2"/>
</g>
<polyline fill="#FFFFFF" stroke="#586B73" stroke-width="7" stroke-linecap="round" stroke-linejoin="round" stroke-miterlimit="10" points="
	228.2,392.1 228.2,324.6 58.2,324.6 58.2,392.1 "/>
<path fill="#FFFFFF" stroke="#586B73" stroke-width="7" stroke-linecap="round" stroke-linejoin="round" stroke-miterlimit="10" d="
	M225.5,341.1H60.9c-6.6,0-12-5.4-12-12v-9c0-6.6,5.4-12,12-12h164.7c6.6,0,12,5.4,12,12v9C237.5,335.7,232.1,341.1,225.5,341.1z"/>
<path fill="none" stroke="#EE7513" stroke-width="3" stroke-linecap="round" stroke-linejoin="round" stroke-miterlimit="10" stroke-dasharray="8" d="
	M198.4,232.8c0,0,66.7,5.7,66.7-30.3"/>
<line fill="none" stroke="#EE7513" stroke-width="3" stroke-linecap="round" stroke-linejoin="round" stroke-miterlimit="10" x1="204.1" y1="229.1" x2="197.8" y2="232.2"/>
<line fill="none" stroke="#EE7513" stroke-width="3" stroke-linecap="round" stroke-linejoin="round" stroke-miterlimit="10" x1="197.7" y1="232.1" x2="202.4" y2="237.4"/>
<g>
	<path fill="#EE7513" d="M247.7,191.5c0,0.3-0.1,0.6-0.2,0.8c-0.1,0.3-0.3,0.5-0.5,0.7c-0.2,0.2-0.5,0.3-0.7,0.4
		c-0.3,0.1-0.6,0.2-0.9,0.2h-0.6c-0.3,0-0.6-0.1-0.9-0.2c-0.3-0.1-0.5-0.3-0.7-0.5c-0.2-0.2-0.4-0.4-0.5-0.7
		c-0.1-0.3-0.2-0.6-0.2-0.9V191l0.9-0.1v0.5c0,0.2,0,0.4,0.1,0.5c0.1,0.2,0.2,0.3,0.3,0.4c0.1,0.1,0.3,0.2,0.4,0.3
		c0.2,0.1,0.3,0.1,0.5,0.1h0.6c0.2,0,0.4,0,0.5-0.1c0.2-0.1,0.3-0.1,0.4-0.2c0.1-0.1,0.2-0.2,0.3-0.4s0.1-0.3,0.1-0.5
		c0-0.3-0.1-0.5-0.2-0.7c-0.1-0.2-0.3-0.3-0.5-0.4c-0.2-0.1-0.4-0.2-0.7-0.3c-0.2-0.1-0.5-0.2-0.8-0.2s-0.5-0.2-0.8-0.3
		c-0.2-0.1-0.5-0.2-0.7-0.4c-0.2-0.2-0.4-0.4-0.5-0.6s-0.2-0.5-0.2-0.9c0-0.3,0.1-0.6,0.2-0.8s0.3-0.5,0.5-0.7
		c0.2-0.2,0.4-0.3,0.7-0.4c0.3-0.1,0.6-0.2,0.9-0.2h0.5c0.3,0,0.6,0.1,0.9,0.2s0.5,0.3,0.7,0.5c0.2,0.2,0.4,0.4,0.5,0.7
		s0.2,0.6,0.2,0.9v0l-0.9,0.1v-0.2c0-0.2,0-0.4-0.1-0.5c-0.1-0.2-0.2-0.3-0.3-0.4s-0.3-0.2-0.4-0.3c-0.2-0.1-0.3-0.1-0.5-0.1h-0.5
		c-0.2,0-0.4,0-0.5,0.1c-0.2,0.1-0.3,0.1-0.4,0.2c-0.1,0.1-0.2,0.2-0.3,0.4s-0.1,0.3-0.1,0.5c0,0.3,0.1,0.5,0.2,0.6
		c0.1,0.2,0.3,0.3,0.5,0.4s0.4,0.2,0.7,0.3c0.2,0.1,0.5,0.2,0.8,0.2s0.5,0.2,0.8,0.3s0.5,0.2,0.7,0.4c0.2,0.2,0.4,0.4,0.5,0.6
		C247.6,190.8,247.7,191.1,247.7,191.5z"/>
	<path fill="#EE7513" d="M249.7,193.4v-10.6h0.9v10.6H249.7z"/>
	<path fill="#EE7513" d="M257.7,192.2c-0.1,0.3-0.3,0.5-0.5,0.7c-0.2,0.2-0.4,0.4-0.7,0.5c-0.3,0.1-0.6,0.2-0.9,0.2H255
		c-0.3,0-0.6-0.1-0.9-0.2s-0.5-0.3-0.7-0.5c-0.2-0.2-0.4-0.4-0.5-0.7s-0.2-0.6-0.2-0.9v-3.4c0-0.3,0.1-0.6,0.2-0.9s0.3-0.5,0.5-0.7
		c0.2-0.2,0.4-0.4,0.7-0.5s0.6-0.2,0.9-0.2h0.6c0.3,0,0.6,0.1,0.9,0.2c0.3,0.1,0.5,0.3,0.7,0.5c0.2,0.2,0.4,0.4,0.5,0.7
		c0.1,0.3,0.2,0.6,0.2,0.9v1.8h-4.2v1.7c0,0.2,0,0.4,0.1,0.5c0.1,0.2,0.2,0.3,0.3,0.4c0.1,0.1,0.3,0.2,0.4,0.3
		c0.2,0.1,0.3,0.1,0.5,0.1h0.6c0.2,0,0.4,0,0.5-0.1c0.2-0.1,0.3-0.2,0.4-0.3s0.2-0.3,0.3-0.4c0.1-0.2,0.1-0.3,0.1-0.5v-0.5l0.9,0.1
		v0.3C257.9,191.6,257.8,191.9,257.7,192.2z M257,187.8c0-0.2,0-0.4-0.1-0.5c-0.1-0.2-0.2-0.3-0.3-0.4s-0.3-0.2-0.4-0.3
		c-0.2-0.1-0.3-0.1-0.5-0.1H255c-0.2,0-0.4,0-0.5,0.1c-0.2,0.1-0.3,0.2-0.4,0.3c-0.1,0.1-0.2,0.3-0.3,0.4c-0.1,0.2-0.1,0.3-0.1,0.5
		v1.1h3.2V187.8z"/>
	<path fill="#EE7513" d="M264.6,192.2c-0.1,0.3-0.3,0.5-0.5,0.7c-0.2,0.2-0.4,0.4-0.7,0.5c-0.3,0.1-0.6,0.2-0.9,0.2h-0.6
		c-0.3,0-0.6-0.1-0.9-0.2s-0.5-0.3-0.7-0.5c-0.2-0.2-0.4-0.4-0.5-0.7s-0.2-0.6-0.2-0.9v-3.4c0-0.3,0.1-0.6,0.2-0.9s0.3-0.5,0.5-0.7
		c0.2-0.2,0.4-0.4,0.7-0.5s0.6-0.2,0.9-0.2h0.6c0.3,0,0.6,0.1,0.9,0.2c0.3,0.1,0.5,0.3,0.7,0.5c0.2,0.2,0.4,0.4,0.5,0.7
		c0.1,0.3,0.2,0.6,0.2,0.9v1.8h-4.2v1.7c0,0.2,0,0.4,0.1,0.5c0.1,0.2,0.2,0.3,0.3,0.4c0.1,0.1,0.3,0.2,0.4,0.3
		c0.2,0.1,0.3,0.1,0.5,0.1h0.6c0.2,0,0.4,0,0.5-0.1c0.2-0.1,0.3-0.2,0.4-0.3s0.2-0.3,0.3-0.4c0.1-0.2,0.1-0.3,0.1-0.5v-0.5l0.9,0.1
		v0.3C264.8,191.6,264.7,191.9,264.6,192.2z M263.9,187.8c0-0.2,0-0.4-0.1-0.5c-0.1-0.2-0.2-0.3-0.3-0.4s-0.3-0.2-0.4-0.3
		c-0.2-0.1-0.3-0.1-0.5-0.1h-0.6c-0.2,0-0.4,0-0.5,0.1c-0.2,0.1-0.3,0.2-0.4,0.3c-0.1,0.1-0.2,0.3-0.3,0.4c-0.1,0.2-0.1,0.3-0.1,0.5
		v1.1h3.2V187.8z"/>
	<path fill="#EE7513" d="M271.5,192.2c-0.1,0.3-0.3,0.5-0.5,0.7c-0.2,0.2-0.4,0.4-0.7,0.5c-0.3,0.1-0.6,0.2-0.9,0.2h-0.2
		c-0.3,0-0.7-0.1-0.9-0.2c-0.3-0.1-0.5-0.3-0.7-0.6v3.7h-0.9v-10.6h0.3l0.5,0.8c0.2-0.3,0.5-0.5,0.8-0.7c0.3-0.2,0.7-0.2,1-0.2h0.2
		c0.3,0,0.6,0.1,0.9,0.2c0.3,0.1,0.5,0.3,0.7,0.5c0.2,0.2,0.4,0.4,0.5,0.7c0.1,0.3,0.2,0.6,0.2,0.9v3.4
		C271.7,191.6,271.6,191.9,271.5,192.2z M270.8,187.8c0-0.2,0-0.4-0.1-0.5c-0.1-0.2-0.2-0.3-0.3-0.4s-0.3-0.2-0.4-0.3
		c-0.2-0.1-0.3-0.1-0.5-0.1h-0.6c-0.2,0-0.4,0-0.5,0.1c-0.2,0.1-0.3,0.2-0.4,0.3c-0.1,0.1-0.2,0.3-0.3,0.4c-0.1,0.2-0.1,0.3-0.1,0.5
		v3.5c0,0.2,0,0.4,0.1,0.5c0.1,0.2,0.2,0.3,0.3,0.4c0.1,0.1,0.3,0.2,0.4,0.3c0.2,0.1,0.3,0.1,0.5,0.1h0.6c0.2,0,0.4,0,0.5-0.1
		c0.2-0.1,0.3-0.2,0.4-0.3s0.2-0.3,0.3-0.4c0.1-0.2,0.1-0.3,0.1-0.5V187.8z"/>
	<path fill="#EE7513" d="M273.7,184v-1.2h1.1v1.2H273.7z M273.8,193.4v-7.6h0.9v7.6H273.8z"/>
	<path fill="#EE7513" d="M281,193.4v-5.6c0-0.2,0-0.4-0.1-0.5c-0.1-0.2-0.2-0.3-0.3-0.4s-0.3-0.2-0.4-0.3c-0.2-0.1-0.3-0.1-0.5-0.1
		h-0.6c-0.2,0-0.4,0-0.5,0.1c-0.2,0.1-0.3,0.2-0.4,0.3c-0.1,0.1-0.2,0.3-0.3,0.4c-0.1,0.2-0.1,0.3-0.1,0.5v5.6h-0.9v-7.6h0.3
		l0.5,0.8c0.2-0.3,0.5-0.5,0.8-0.7c0.3-0.2,0.7-0.2,1-0.2h0.2c0.3,0,0.6,0.1,0.9,0.2c0.3,0.1,0.5,0.3,0.7,0.5
		c0.2,0.2,0.4,0.4,0.5,0.7c0.1,0.3,0.2,0.6,0.2,0.9v5.5H281z"/>
	<path fill="#EE7513" d="M288.7,195.2c-0.1,0.3-0.3,0.5-0.5,0.7c-0.2,0.2-0.4,0.3-0.7,0.4s-0.6,0.2-0.9,0.2h-0.4
		c-0.3,0-0.6-0.1-0.9-0.2s-0.5-0.2-0.7-0.4c-0.2-0.2-0.4-0.4-0.5-0.7c-0.1-0.3-0.2-0.5-0.2-0.8v0c0-0.3,0.1-0.6,0.2-0.8
		c0.1-0.2,0.3-0.5,0.4-0.6c-0.2-0.1-0.4-0.3-0.6-0.6c-0.1-0.2-0.2-0.5-0.2-0.8c0-0.3,0.1-0.5,0.2-0.7s0.3-0.4,0.5-0.6
		c-0.2-0.2-0.4-0.5-0.6-0.7c-0.1-0.3-0.2-0.6-0.2-1v-0.6c0-0.3,0.1-0.6,0.2-0.9s0.3-0.5,0.5-0.7c0.2-0.2,0.4-0.4,0.7-0.5
		s0.6-0.2,0.9-0.2h0.4c0.4,0,0.7,0.1,1,0.2s0.6,0.4,0.8,0.7l0.5-0.8h0.3v2.7c0,0.3-0.1,0.6-0.2,0.9s-0.3,0.5-0.5,0.7
		c-0.2,0.2-0.4,0.4-0.7,0.5s-0.6,0.2-0.9,0.2h-1.3c-0.1,0-0.2,0-0.3,0.1c-0.1,0-0.2,0.1-0.2,0.2c-0.1,0.1-0.1,0.2-0.2,0.2
		c0,0.1-0.1,0.2-0.1,0.3s0,0.2,0.1,0.3c0,0.1,0.1,0.2,0.2,0.2s0.2,0.1,0.2,0.2c0.1,0,0.2,0.1,0.3,0.1h1.2c0.3,0,0.6,0.1,0.9,0.2
		s0.5,0.2,0.7,0.4c0.2,0.2,0.4,0.4,0.5,0.7c0.1,0.3,0.2,0.5,0.2,0.8v0C288.9,194.7,288.8,195,288.7,195.2z M288.1,187.8
		c0-0.2,0-0.4-0.1-0.5c-0.1-0.2-0.2-0.3-0.3-0.4c-0.1-0.1-0.3-0.2-0.4-0.3c-0.2-0.1-0.3-0.1-0.5-0.1H286c-0.2,0-0.4,0-0.5,0.1
		c-0.2,0.1-0.3,0.2-0.4,0.3c-0.1,0.1-0.2,0.3-0.3,0.4c-0.1,0.2-0.1,0.3-0.1,0.5v0.7c0,0.2,0,0.4,0.1,0.5s0.2,0.3,0.3,0.4
		c0.1,0.1,0.3,0.2,0.4,0.3s0.3,0.1,0.5,0.1h0.8c0.2,0,0.4,0,0.5-0.1c0.2-0.1,0.3-0.2,0.4-0.3c0.1-0.1,0.2-0.3,0.3-0.4
		s0.1-0.3,0.1-0.5V187.8z M288,194.3c0-0.2,0-0.3-0.1-0.5s-0.2-0.3-0.3-0.4c-0.1-0.1-0.3-0.2-0.4-0.2c-0.2-0.1-0.3-0.1-0.5-0.1h-0.5
		c-0.2,0-0.4,0-0.5,0.1c-0.2,0.1-0.3,0.1-0.4,0.2c-0.1,0.1-0.2,0.2-0.3,0.4s-0.1,0.3-0.1,0.5v0.1c0,0.2,0,0.3,0.1,0.5
		c0.1,0.1,0.2,0.3,0.3,0.4c0.1,0.1,0.3,0.2,0.4,0.2c0.2,0.1,0.3,0.1,0.5,0.1h0.5c0.2,0,0.4,0,0.5-0.1c0.2-0.1,0.3-0.1,0.4-0.2
		c0.1-0.1,0.2-0.2,0.3-0.4c0.1-0.1,0.1-0.3,0.1-0.5V194.3z"/>
</g>
<g>
	<g>
		<path fill="#FFD32E" d="M412.8,222.6c0,0,0.1,0,0.5,0.1c0.4,0.1,0.9,0.2,1.6,0.4c0.6,0.2,1.4,0.4,2.3,0.8c0.9,0.3,1.8,0.7,2.8,1.2
			c1,0.4,2.1,1,3.3,1.6c1.1,0.7,2.3,1.3,3.5,2.1c0.6,0.4,1.2,0.8,1.8,1.2c0.6,0.4,1.2,0.9,1.7,1.3c1.2,0.9,2.3,1.9,3.4,2.9
			c1.1,1,2.1,2.2,3.2,3.2c1,1.1,1.9,2.3,2.8,3.4c0.9,1.1,1.6,2.3,2.3,3.4c0.2,0.3,0.4,0.5,0.5,0.8c0.2,0.3,0.3,0.5,0.5,0.8
			c0.3,0.5,0.6,1.1,0.9,1.5c0.5,1,1.1,1.9,1.5,2.7c0.4,0.8,0.7,1.6,1,2.2c0.6,1.2,0.9,1.9,0.9,1.9c1.2,2.7,0,5.9-2.6,7.1
			c-2.7,1.2-5.9,0-7.1-2.6c-0.1-0.2-0.2-0.4-0.2-0.5l-0.1-0.4c0,0-0.2-0.6-0.5-1.7c-0.2-0.5-0.4-1.2-0.6-1.9c-0.2-0.8-0.6-1.5-1-2.4
			c-0.2-0.4-0.4-0.9-0.6-1.4c-0.1-0.2-0.2-0.5-0.3-0.7c-0.1-0.2-0.2-0.5-0.4-0.7c-0.5-1-1-2-1.6-3c-0.7-1-1.3-2-2-3.1
			c-0.8-1-1.5-2-2.3-3c-0.9-0.9-1.7-1.9-2.6-2.8c-0.5-0.4-0.9-0.9-1.3-1.3c-0.5-0.4-0.9-0.8-1.4-1.2c-0.9-0.8-1.9-1.4-2.8-2.1
			c-0.9-0.6-1.8-1.2-2.6-1.7c-0.8-0.5-1.6-0.9-2.3-1.3c-0.7-0.4-1.3-0.6-1.8-0.9c-0.5-0.2-0.9-0.4-1.1-0.5c-0.2-0.1-0.4-0.2-0.4-0.2
			c-1.5-0.4-2.4-1.9-2-3.5C409.7,223.1,411.3,222.2,412.8,222.6z"/>
	</g>
	<path fill="#FFD32E" d="M409,220c-14.8-6.3-26.3-22.3-26.3-22.3l0-0.1l-15.5-1l-2.9,20.9l45.8,8.8l0.8-6.2L409,220z"/>
	<path fill="none" stroke="#000000" stroke-width="5" stroke-linecap="round" stroke-linejoin="round" stroke-miterlimit="10" d="
		M382.6,197.7c0,0,11.5,15.9,26.3,22.3"/>
	
		<polygon fill="none" stroke="#000000" stroke-width="6" stroke-linecap="round" stroke-linejoin="round" stroke-miterlimit="10" points="
		364.2,217.5 367.1,196.6 413.7,199.7 410.1,226.3 	"/>
</g>
<g>
	
		<path fill="#FFFFFF" stroke="#121625" stroke-width="8" stroke-linecap="round" stroke-linejoin="round" stroke-miterlimit="10" d="
		M524.5,227.5l-6-7.8c-13.1-16.9-37.7-19.9-54.5-6.8l-23.3,18.1c1.4,3.1,5.4,11.1,10.5,15.8c6.5,5.9-3.5,21.3-15.4,10.3
		c-3.5-3.3-6.3-6-8.4-8.2c-4.4,12.2-2.7,26.2,5.8,37.1l6,7.8c13.1,16.9,37.7,19.9,54.5,6.8l24-18.7
		C534.6,269,537.7,244.4,524.5,227.5z"/>
	
		<path fill="#FFFFFF" stroke="#121625" stroke-width="7" stroke-linecap="round" stroke-linejoin="round" stroke-miterlimit="10" d="
		M473.6,257.3c3.8,4.9,3,12.1-2,15.9c-4.9,3.8-12.1,3-15.9-2"/>
	<path fill="none" stroke="#121625" stroke-width="8" stroke-linecap="round" stroke-linejoin="round" stroke-miterlimit="10" d="
		M482.8,205.7c0,0-10.5,17.2,0.3,31.9c10.8,14.7,15.9,26.1,5.6,41.8c-10.2,15.7,2.2,20.5,2.2,20.5"/>
	<circle fill="#121625" cx="459.1" cy="231" r="4.4"/>
	
		<path fill="#FFFFFF" stroke="#121625" stroke-width="6" stroke-linecap="round" stroke-linejoin="round" stroke-miterlimit="10" d="
		M467.4,220.4c0,0,5.4,4.2,4.9,8.4"/>
</g>
<path fill="none" stroke="#586B73" stroke-width="5" stroke-linecap="round" stroke-linejoin="round" stroke-miterlimit="10" stroke-dasharray="8" d="
	M377.3,226.3c0,0-46.7,21.3-39.3,74c0,0,1.2,39.7,34.7,53.2"/>
<g>
	<polygon fill="#FFD32E" points="497.5,343.1 500.3,380.1 521.4,380 523.2,343.1 	"/>
	
		<polygon fill="none" stroke="#000000" stroke-width="6" stroke-linecap="round" stroke-linejoin="round" stroke-miterlimit="10" points="
		521.4,380 500.3,380.1 496.7,333.5 523.6,333.4 	"/>
	
		<line fill="#FFFFFF" stroke="#000000" stroke-width="5" stroke-linecap="round" stroke-linejoin="round" stroke-miterlimit="10" x1="497.5" y1="343.1" x2="523.2" y2="343.1"/>
</g>
<g>
	<polygon fill="#FFD32E" points="456.7,343.1 459.5,380.1 480.7,380 482.4,343.1 	"/>
	
		<polygon fill="none" stroke="#000000" stroke-width="6" stroke-linecap="round" stroke-linejoin="round" stroke-miterlimit="10" points="
		480.7,380 459.5,380.1 456,333.5 482.9,333.4 	"/>
	
		<line fill="#FFFFFF" stroke="#000000" stroke-width="5" stroke-linecap="round" stroke-linejoin="round" stroke-miterlimit="10" x1="456.7" y1="343.1" x2="482.4" y2="343.1"/>
</g>
<g>
	<polygon fill="#FFD32E" points="416,343.1 418.8,380.1 439.9,380 441.7,343.1 	"/>
	
		<polygon fill="none" stroke="#000000" stroke-width="6" stroke-linecap="round" stroke-linejoin="round" stroke-miterlimit="10" points="
		439.9,380 418.8,380.1 415.3,333.5 442.2,333.4 	"/>
	
		<line fill="#FFFFFF" stroke="#000000" stroke-width="5" stroke-linecap="round" stroke-linejoin="round" stroke-miterlimit="10" x1="416" y1="343.1" x2="441.7" y2="343.1"/>
</g>
<g>
	<path fill="#FFFFFF" stroke="#E62944" stroke-width="5" stroke-miterlimit="10" d="M387,342.7l18.3-31.7c1.6-2.8,5.7-2.8,7.4,0
		l18.3,31.7c1.6,2.8-0.4,6.4-3.7,6.4h-36.6C387.4,349.1,385.4,345.6,387,342.7z"/>
	<g>
		<g>
			<path fill="#E62944" d="M406.8,322.8h4.4V338h-4.4V322.8z M408.9,339.1c1.2,0,2.2,1,2.2,2.2c0,1.2-1,2.2-2.2,2.2
				c-1.2,0-2.2-1-2.2-2.2C406.8,340.1,407.7,339.1,408.9,339.1z"/>
		</g>
	</g>
</g>
<circle fill="#586B73" cx="423.6" cy="189" r="7.1"/>
<g>
	<path fill="#FFFFFF" d="M421.7,187.7V187c0.7-0.1,1.1-0.2,1.4-0.3c0.3-0.2,0.5-0.5,0.6-1.1h0.7v7.4h-1v-5.3H421.7z"/>
</g>
<circle fill="#586B73" cx="448.8" cy="321.9" r="7.1"/>
<g>
	<path fill="#FFFFFF" d="M446.6,324.3c0.2-0.5,0.7-0.9,1.4-1.3l1-0.6c0.4-0.3,0.8-0.5,0.9-0.7c0.3-0.3,0.4-0.6,0.4-1
		c0-0.4-0.1-0.8-0.4-1c-0.3-0.3-0.6-0.4-1-0.4c-0.6,0-1.1,0.2-1.3,0.7c-0.1,0.3-0.2,0.6-0.2,1.1h-1c0-0.6,0.1-1.2,0.4-1.6
		c0.4-0.7,1.1-1.1,2.2-1.1c0.9,0,1.5,0.2,1.9,0.7c0.4,0.5,0.6,1,0.6,1.5c0,0.6-0.2,1.1-0.6,1.5c-0.2,0.2-0.7,0.5-1.3,0.9l-0.7,0.4
		c-0.3,0.2-0.6,0.4-0.8,0.5c-0.3,0.3-0.6,0.6-0.7,1h4.1v0.9h-5.1C446.2,325.3,446.3,324.7,446.6,324.3z"/>
</g>
<circle fill="#586B73" cx="488.8" cy="321.9" r="7.1"/>
<g>
	<path fill="#FFFFFF" d="M486.7,325.4c-0.4-0.5-0.6-1.1-0.6-1.8h1c0,0.5,0.1,0.8,0.3,1.1c0.2,0.4,0.7,0.6,1.3,0.6
		c0.5,0,0.9-0.1,1.2-0.4c0.3-0.3,0.4-0.6,0.4-1c0-0.5-0.2-0.9-0.5-1.1s-0.8-0.3-1.3-0.3c-0.1,0-0.1,0-0.2,0c-0.1,0-0.1,0-0.2,0v-0.8
		c0.1,0,0.2,0,0.2,0c0.1,0,0.1,0,0.2,0c0.4,0,0.6-0.1,0.9-0.2c0.4-0.2,0.6-0.5,0.6-1c0-0.4-0.1-0.7-0.4-0.9
		c-0.3-0.2-0.6-0.3-0.9-0.3c-0.6,0-1.1,0.2-1.3,0.6c-0.1,0.2-0.2,0.6-0.2,1h-0.9c0-0.6,0.1-1,0.3-1.4c0.4-0.7,1.1-1,2-1
		c0.8,0,1.3,0.2,1.8,0.5c0.4,0.3,0.6,0.8,0.6,1.5c0,0.5-0.1,0.8-0.4,1.1c-0.2,0.2-0.4,0.3-0.6,0.4c0.4,0.1,0.7,0.3,0.9,0.6
		c0.2,0.3,0.3,0.7,0.3,1.1c0,0.7-0.2,1.3-0.7,1.7c-0.5,0.4-1.1,0.7-2,0.7C487.7,326.1,487.1,325.9,486.7,325.4z"/>
</g>
<circle fill="#586B73" cx="527.8" cy="321.9" r="7.1"/>
<g>
	<path fill="#FFFFFF" d="M528.4,325.9v-1.8h-3.3v-0.9l3.4-4.7h0.8v4.8h1.1v0.8h-1.1v1.8H528.4z M528.4,323.3v-3.4l-2.4,3.4H528.4z"
		/>
</g>
</svg>
