<?xml version="1.0" encoding="utf-8"?>
<!-- Generator: Adobe Illustrator 18.1.1, SVG Export Plug-In . SVG Version: 6.00 Build 0)  -->
<svg version="1.1" id="stap_3_copy" xmlns="http://www.w3.org/2000/svg" xmlns:xlink="http://www.w3.org/1999/xlink" x="0px"
	 y="0px" viewBox="0 0 595.3 444" enable-background="new 0 0 595.3 444" xml:space="preserve">
<line fill="none" stroke="#121625" stroke-width="3" stroke-miterlimit="10" x1="30.6" y1="107.3" x2="561.4" y2="108.3"/>
<path fill="none" stroke="#121625" stroke-width="11" stroke-linejoin="round" stroke-miterlimit="10" d="M551.1,415.3H44.2
	c-6.6,0-12-5.4-12-12V43.7c0-6.6,5.4-12,12-12h506.9c6.6,0,12,5.4,12,12v359.7C563.1,409.9,557.7,415.3,551.1,415.3z"/>
<g>
	<path fill="#EB5D12" d="M75.2,81.9c0,1.2-0.2,2.3-0.7,3.3c-0.5,1-1.1,2-1.9,2.7s-1.7,1.4-2.8,1.8c-1.1,0.4-2.2,0.7-3.4,0.7h-2.5
		c-1.2,0-2.3-0.2-3.4-0.7c-1.1-0.4-2-1.1-2.8-1.8s-1.4-1.7-1.9-2.7c-0.5-1-0.7-2.2-0.7-3.3v-1.4l3.1-0.5v1.9c0,0.8,0.2,1.5,0.5,2.2
		c0.3,0.7,0.7,1.3,1.3,1.8s1.2,0.9,1.9,1.2s1.5,0.4,2.2,0.4h2.2c0.8,0,1.5-0.1,2.2-0.4c0.7-0.3,1.3-0.7,1.9-1.2s1-1.1,1.3-1.8
		c0.3-0.7,0.5-1.4,0.5-2.2v-1c0-1.2-0.2-2.2-0.7-3c-0.5-0.8-1.1-1.5-1.9-2s-1.7-1-2.6-1.4c-1-0.4-2-0.8-3-1.2c-1-0.4-2.1-0.8-3-1.3
		c-1-0.5-1.9-1.1-2.6-1.8s-1.4-1.6-1.9-2.6c-0.5-1-0.7-2.3-0.7-3.8v-0.7c0-1.2,0.2-2.3,0.7-3.3c0.4-1,1.1-2,1.8-2.7s1.7-1.4,2.7-1.8
		c1-0.4,2.2-0.7,3.4-0.7h2.2c1.2,0,2.3,0.2,3.3,0.7c1,0.4,2,1.1,2.7,1.8s1.4,1.7,1.8,2.7c0.4,1,0.7,2.2,0.7,3.3V64l-3.1,0.5v-1.4
		c0-0.8-0.1-1.5-0.4-2.2c-0.3-0.7-0.7-1.3-1.2-1.8c-0.5-0.5-1.1-0.9-1.8-1.2c-0.7-0.3-1.4-0.4-2.2-0.4h-2c-0.8,0-1.5,0.1-2.2,0.4
		c-0.7,0.3-1.3,0.7-1.8,1.2c-0.5,0.5-0.9,1.1-1.2,1.8c-0.3,0.7-0.4,1.4-0.4,2.2v0.7c0,1.1,0.2,2.1,0.7,2.8c0.5,0.8,1.1,1.4,1.9,2
		c0.8,0.5,1.7,1,2.6,1.4c1,0.4,2,0.8,3,1.2c1,0.4,2.1,0.9,3,1.4c1,0.5,1.9,1.1,2.6,1.8c0.8,0.7,1.4,1.6,1.9,2.6
		c0.5,1,0.7,2.3,0.7,3.8V81.9z"/>
	<path fill="#EB5D12" d="M90.5,58v32h-3.1V58H79v-3h19.8v3H90.5z"/>
	<path fill="#EB5D12" d="M115.5,81.8h-11.1l-2.3,8.2h-3.3l10.3-35h1.7L121,90h-3.2L115.5,81.8z M105.2,78.8h9.4L110,62.7l-0.1-1.3
		l-0.1,1.3L105.2,78.8z"/>
	<path fill="#EB5D12" d="M144.5,71.3c-0.4,1-1.1,2-1.8,2.7s-1.7,1.4-2.7,1.8c-1,0.4-2.2,0.7-3.4,0.7h-7.9V90h-3.1V55h11.1
		c1.2,0,2.3,0.2,3.4,0.7c1,0.4,2,1.1,2.7,1.8s1.4,1.7,1.8,2.7c0.4,1,0.7,2.2,0.7,3.4V68C145.2,69.1,145,70.3,144.5,71.3z
		 M142.1,63.6c0-0.8-0.1-1.5-0.4-2.2c-0.3-0.7-0.7-1.3-1.2-1.8s-1.1-0.9-1.8-1.2c-0.7-0.3-1.4-0.4-2.2-0.4h-7.8v15.6h7.8
		c0.8,0,1.5-0.1,2.2-0.4c0.7-0.3,1.3-0.7,1.8-1.2c0.5-0.5,0.9-1.1,1.2-1.8c0.3-0.7,0.4-1.4,0.4-2.2V63.6z"/>
	<path fill="#EB5D12" d="M177.4,83.9V90h-3.1v-6.1h-14.1v-1.5L175.8,55h1.7v26h3v3H177.4z M174.3,63.6l-9.6,17.3h9.6V63.6z"/>
	<path fill="#EB5D12" d="M187.4,68.8V65h3.8v3.8H187.4z M187.4,90v-3.8h3.8V90H187.4z"/>
</g>
<rect x="258.5" y="45.9" fill="#EE7411" width="289.2" height="50.7"/>
<g>
	<path fill="#FFFFFF" d="M285.7,82.2c-0.4,0.8-0.8,1.6-1.5,2.2s-1.4,1.1-2.2,1.5c-0.8,0.4-1.7,0.5-2.7,0.5h-8.9v-28h8.9
		c1,0,1.8,0.2,2.7,0.5c0.8,0.4,1.6,0.8,2.2,1.5s1.1,1.4,1.5,2.2c0.4,0.8,0.5,1.7,0.5,2.7v14.2C286.2,80.5,286.1,81.3,285.7,82.2z
		 M283.7,65.3c0-0.6-0.1-1.2-0.4-1.7c-0.2-0.5-0.6-1-1-1.4s-0.9-0.7-1.4-1c-0.5-0.2-1.1-0.4-1.7-0.4H273V84h6.2
		c0.6,0,1.2-0.1,1.7-0.4c0.5-0.2,1-0.6,1.4-1c0.4-0.4,0.7-0.9,1-1.4c0.2-0.5,0.4-1.1,0.4-1.7V65.3z"/>
	<path fill="#FFFFFF" d="M292.2,86.4v-28H308v2.4h-13.2v10.4h10.7v2.4h-10.7V84H308v2.4H292.2z"/>
	<path fill="#FFFFFF" d="M336.8,82.6c-0.4,0.8-0.8,1.6-1.5,2.2s-1.4,1.1-2.2,1.5c-0.8,0.4-1.7,0.5-2.7,0.5h-2c-1,0-1.8-0.2-2.7-0.5
		c-0.8-0.4-1.6-0.8-2.2-1.5s-1.1-1.4-1.5-2.2c-0.4-0.8-0.5-1.7-0.5-2.7v-15c0-1,0.2-1.8,0.5-2.7c0.4-0.8,0.8-1.6,1.5-2.2
		s1.4-1.1,2.2-1.5c0.8-0.4,1.7-0.5,2.7-0.5h2c1,0,1.8,0.2,2.7,0.5c0.8,0.4,1.6,0.8,2.2,1.5s1.1,1.4,1.5,2.2c0.4,0.8,0.5,1.7,0.5,2.7
		v15C337.4,80.8,337.2,81.7,336.8,82.6z M334.8,64.9c0-0.6-0.1-1.2-0.4-1.7c-0.2-0.5-0.6-1-1-1.4c-0.4-0.4-0.9-0.7-1.4-1
		c-0.5-0.2-1.1-0.4-1.7-0.4h-1.8c-0.6,0-1.2,0.1-1.7,0.4c-0.5,0.2-1,0.6-1.4,1c-0.4,0.4-0.7,0.9-1,1.4c-0.2,0.5-0.4,1.1-0.4,1.7v15
		c0,0.6,0.1,1.2,0.4,1.7c0.2,0.5,0.6,1,1,1.4s0.9,0.7,1.4,1c0.5,0.2,1.1,0.4,1.7,0.4h1.8c0.6,0,1.2-0.1,1.7-0.4c0.5-0.2,1-0.6,1.4-1
		c0.4-0.4,0.7-0.9,1-1.4c0.2-0.5,0.4-1.1,0.4-1.7V64.9z"/>
	<path fill="#FFFFFF" d="M349.4,80.2l0.1,1l0.1-1l6.2-21.9h2.6l-8.2,28h-1.3l-8.2-28h2.6L349.4,80.2z"/>
	<path fill="#FFFFFF" d="M361.9,86.4v-28h15.8v2.4h-13.2v10.4h10.7v2.4h-10.7V84h13.2v2.4H361.9z"/>
	<path fill="#FFFFFF" d="M395.7,86.4l-7.6-12h-3.5v12h-2.5v-28h8.9c1,0,1.8,0.2,2.7,0.5c0.8,0.4,1.6,0.8,2.2,1.5s1.1,1.4,1.5,2.2
		c0.4,0.8,0.5,1.7,0.5,2.7v2.3c0,1-0.2,1.8-0.5,2.7c-0.4,0.8-0.8,1.6-1.5,2.2s-1.4,1.1-2.2,1.5c-0.8,0.4-1.7,0.5-2.7,0.5l7.6,12
		H395.7z M395.3,65.3c0-0.6-0.1-1.2-0.4-1.7c-0.2-0.5-0.6-1-1-1.4c-0.4-0.4-0.9-0.7-1.4-1c-0.5-0.2-1.1-0.4-1.7-0.4h-6.2V72h6.2
		c0.6,0,1.2-0.1,1.7-0.4c0.5-0.2,1-0.6,1.4-1c0.4-0.4,0.7-0.9,1-1.4c0.2-0.5,0.4-1.1,0.4-1.7V65.3z"/>
	<path fill="#FFFFFF" d="M422.1,86.4h-1.3l-5.4-21.1l-0.1-1.1l-0.1,1.1l-5.4,21.1h-1.3l-7.4-28h2.5l5.5,21.3l0.1,1l0.1-1l5.4-21.3
		h1.4l5.4,21.3l0.1,1l0.1-1l5.5-21.3h2.5L422.1,86.4z"/>
	<path fill="#FFFFFF" d="M433.5,86.4v-28h2.5v28H433.5z"/>
	<path fill="#FFFFFF" d="M456.9,86.4L445.2,66l-0.2-1.2v21.6h-2.5v-28h1.3l11.7,20.4l0.3,1.2V58.4h2.5v28H456.9z"/>
	<path fill="#FFFFFF" d="M479,86.4L467.3,66l-0.2-1.2v21.6h-2.5v-28h1.3l11.7,20.4l0.3,1.2V58.4h2.5v28H479z"/>
	<path fill="#FFFFFF" d="M486.8,86.4v-28h2.5v28H486.8z"/>
	<path fill="#FFFFFF" d="M510.1,86.4L498.4,66l-0.2-1.2v21.6h-2.5v-28h1.3l11.7,20.4l0.3,1.2V58.4h2.5v28H510.1z"/>
	<path fill="#FFFFFF" d="M533.2,86.4h-0.8l-1.5-2.2c-0.6,0.8-1.4,1.4-2.2,1.9c-0.9,0.5-1.8,0.7-2.9,0.7h-1.5c-1,0-1.8-0.2-2.7-0.5
		c-0.8-0.4-1.6-0.8-2.2-1.5s-1.1-1.4-1.5-2.2c-0.4-0.8-0.5-1.7-0.5-2.7v-15c0-1,0.2-1.8,0.5-2.7c0.4-0.8,0.8-1.6,1.5-2.2
		s1.4-1.1,2.2-1.5c0.8-0.4,1.7-0.5,2.7-0.5h2c1,0,1.8,0.2,2.7,0.5c0.8,0.4,1.6,0.8,2.2,1.5s1.1,1.4,1.5,2.2c0.4,0.8,0.5,1.7,0.5,2.7
		V66l-2.5,0.4v-1.5c0-0.6-0.1-1.2-0.4-1.7c-0.2-0.5-0.6-1-1-1.4c-0.4-0.4-0.9-0.7-1.4-1c-0.5-0.2-1.1-0.4-1.7-0.4h-1.8
		c-0.6,0-1.2,0.1-1.7,0.4c-0.5,0.2-1,0.6-1.4,1c-0.4,0.4-0.7,0.9-1,1.4c-0.2,0.5-0.4,1.1-0.4,1.7v15c0,0.6,0.1,1.2,0.4,1.7
		c0.2,0.5,0.6,1,1,1.4s0.9,0.7,1.4,1c0.5,0.2,1.1,0.4,1.7,0.4h1.8c0.6,0,1.2-0.1,1.7-0.4c0.5-0.2,1-0.6,1.4-1c0.4-0.4,0.7-0.9,1-1.4
		c0.2-0.5,0.4-1.1,0.4-1.7v-5.8h-4.5v-2.4h7V86.4z"/>
</g>
<g>
	<path fill="#121726" d="M508.7,404.2h-12.1c-2.3,0-4.2-1.9-4.2-4.2v-24.8h20.4v24.8C512.9,402.4,511,404.2,508.7,404.2z"/>
	<path fill="#FFFFFF" stroke="#121726" stroke-width="6" stroke-miterlimit="10" d="M269.4,385.5h84.2c6.6,0,12-5.4,12-12v-11.8
		c0-6.6-5.4-12-12-12h-84.2c-6.6,0-12,5.4-12,12v11.8C257.4,380.1,262.8,385.5,269.4,385.5z"/>
	<path fill="#FFFFFF" stroke="#121726" stroke-width="6" stroke-miterlimit="10" d="M506,385.5H325.6c-6.6,0-12-5.4-12-12v-22
		c0-6.6,5.4-12,12-12H506c6.6,0,12,5.4,12,12v22C518,380.1,512.6,385.5,506,385.5z"/>
	<path fill="#FFFFFF" stroke="#121726" stroke-width="6" stroke-miterlimit="10" d="M322.8,355.2l-41.8-1.5
		c-5.2-0.2-9.3-4.6-9.1-9.8l0.1-1.5c0.2-5.2,4.6-9.3,9.8-9.1l41.8,1.5c5.2,0.2,9.3,4.6,9.1,9.8l-0.1,1.5
		C332.4,351.3,328,355.4,322.8,355.2z"/>
	<path fill="#FFFFFF" stroke="#586B73" stroke-width="7" stroke-miterlimit="10" d="M322.1,385.5H312c-6.6,0-12-5.4-12-12v-28.8
		c0-6.6,5.4-12,12-12h10.1c6.6,0,12,5.4,12,12v28.8C334.1,380.1,328.7,385.5,322.1,385.5z"/>
	<path fill="#121726" d="M265.7,404.2h-7.5c-2.3,0-4.2-1.9-4.2-4.2V292.4h15.8v107.6C269.9,402.4,268,404.2,265.7,404.2z"/>
</g>
<g>
	<g>
		
			<path fill="#FFFFFF" stroke="#121625" stroke-width="3" stroke-linecap="round" stroke-linejoin="round" stroke-miterlimit="10" d="
			M306,177.5l-2.3,9.8h-0.4c-8.5,0-18.4,7.6-25.3,2.3c-8.5-6.5-15-5.2-24.9-4.8c-2.4,0.1-6.3-4.5-8.5-6.1l-10.3-9.3"/>
		
			<path fill="#FFFFFF" stroke="#121625" stroke-width="3" stroke-linecap="round" stroke-linejoin="round" stroke-miterlimit="10" d="
			M325.5,177.5l2.8,9.8h-0.1c17.9,0,47.4,11.2,47.4,27.2c0,0,3.3,17.5-7.2,27.5c0,0,2.5,7.9-6.5,5.9c0,0-11.8,10.3-25.5,7.3"/>
		<g>
			<g>
				
					<path fill="#FFFFFF" stroke="#121625" stroke-width="3" stroke-linecap="round" stroke-linejoin="round" stroke-miterlimit="10" d="
					M339.5,164.2c-2.5-2.5-4.4,0-4.4,0v3.5c0,2.6-0.5,5-1.5,7.2c0.7-0.7,2.6-2.6,4.9-4.9C341.3,167.3,339.5,164.2,339.5,164.2z"/>
				
					<path fill="#FFFFFF" stroke="#121625" stroke-width="3" stroke-linecap="round" stroke-linejoin="round" stroke-miterlimit="10" d="
					M296.4,167.7v-3.6c-0.4-0.5-2.1-2.1-4.3,0.1c0,0-1.8,3.1,1,5.9c2.1,2.1,3.9,3.9,4.7,4.7C296.9,172.6,296.4,170.2,296.4,167.7z"
					/>
			</g>
			
				<path fill="#FFFFFF" stroke="#121625" stroke-width="3" stroke-linecap="round" stroke-linejoin="round" stroke-miterlimit="10" d="
				M331.3,142.6L331.3,142.6c-1.6-2.3-3.8-3.9-3.8-3.9l0,0c-3.1-2.4-7.1-3.8-11.3-3.8H315c-10.3,0-18.8,8.4-18.8,18.8v13.6
				c0,10.3,8.4,18.8,18.8,18.8h1.2c10.3,0,18.8-8.4,18.8-18.8v-13.6C334.9,149.6,333.6,145.7,331.3,142.6z"/>
			<g>
				
					<line fill="#FFFFFF" stroke="#121625" stroke-width="3" stroke-linecap="round" stroke-linejoin="round" stroke-miterlimit="10" x1="304.4" y1="158.7" x2="310.2" y2="159.6"/>
				
					<line fill="#FFFFFF" stroke="#121625" stroke-width="3" stroke-linecap="round" stroke-linejoin="round" stroke-miterlimit="10" x1="326" y1="158.9" x2="320.2" y2="159.6"/>
			</g>
			<path fill="#FFFFFF" stroke="#121625" stroke-width="3" stroke-linecap="round" stroke-miterlimit="10" d="M315.1,172.3"/>
			<circle fill="#121625" cx="323.7" cy="165.4" r="2.7"/>
			<circle fill="#121625" cx="307.7" cy="165.4" r="2.7"/>
		</g>
		<g>
			<path fill="none" stroke="#121625" stroke-width="3" stroke-linecap="round" stroke-linejoin="round" stroke-miterlimit="10" d="
				M352.3,214.5l-7.2,12.9l-10.2,20.5l-37.2-1.4l-12.4-19l-5-12.9c-0.2-0.4-29.2-0.8-33.6-9.4c-3.4,0.9-4.5,0.6-3.7-3.2
				c0,0-12.7-13.5-17.7-27.7"/>
		</g>
	</g>
	<g>
		
			<polyline fill="#FFFFFF" stroke="#121625" stroke-width="3" stroke-linecap="round" stroke-linejoin="round" stroke-miterlimit="10" points="
			317,207 317,222 339.3,222 		"/>
		
			<line fill="#FFFFFF" stroke="#121625" stroke-width="3" stroke-linecap="round" stroke-linejoin="round" stroke-miterlimit="10" x1="317" y1="222" x2="294.4" y2="222"/>
	</g>
	<g>
		
			<path fill="#FFFFFF" stroke="#121625" stroke-width="2" stroke-linecap="round" stroke-linejoin="round" stroke-miterlimit="10" d="
			M299.7,218.3L299.7,218.3c-1.1,0-2,0.9-2,2l0,0c0,1.1,0.9,2,2,2l0,0c1.1,0,2-0.9,2-2l0,0C301.7,219.2,300.8,218.3,299.7,218.3z"/>
		
			<path fill="#FFFFFF" stroke="#121625" stroke-width="2" stroke-linecap="round" stroke-linejoin="round" stroke-miterlimit="10" d="
			M334,218.3L334,218.3c-1.1,0-2,0.9-2,2l0,0c0,1.1,0.9,2,2,2l0,0c1.1,0,2-0.9,2-2l0,0C336,219.2,335.1,218.3,334,218.3z"/>
	</g>
	
		<path fill="#FFFFFF" stroke="#121625" stroke-width="3" stroke-linecap="round" stroke-linejoin="round" stroke-miterlimit="10" d="
		M290.2,194.3c0,0,10.2,2.6,13.1-3.4"/>
	
		<path fill="#FFFFFF" stroke="#121625" stroke-width="3" stroke-linecap="round" stroke-linejoin="round" stroke-miterlimit="10" d="
		M340.7,194.3c0,0-10.2,2.6-13.1-3.4"/>
</g>
<path fill="#121726" d="M363.2,336.5c0.2-2.4-1.7-4.5-4.1-4.4l-9.4,0.1l-3,0.1c0.1-1.5,0.2-3,0.3-4.5c0.1-3,0.3-6,0.2-9l0-4.5
	c0-1.5-0.1-3-0.1-4.6c-0.1-1.5-0.1-3-0.2-4.6l-0.3-4.6c-0.1-1.4-0.2-2.8-0.3-4.2c-0.1-1.7-0.3-3.3-0.5-5c-0.2-1.5-0.3-3.1-0.6-4.6
	c-0.2-1.5-0.4-3.1-0.7-4.6c-0.3-1.6-0.5-3.1-0.8-4.7c-0.3-1.6-0.6-3.1-1-4.7c-0.3-1.6-0.8-3.2-1.2-4.8c-0.5-1.6-0.9-3.2-1.7-5.2
	l-0.7-2c-0.6-1.6-3-11-3.2-12.8c0,0-10.8,0-10.5,0c-0.3,0.2-9.5-0.2-9.8,0c-0.9-0.8-11.2-0.7-12.8-1.7c-1.7-1.1-3.4-2.1-5.2-3.1
	c-1.9-1-3.8-1.9-6.1-2.7c-2.2-0.8-4.7-1.4-7.6-1.5c-1.4-0.1-2.9,0-4.5,0.2c-1.5,0.3-3.1,0.7-4.6,1.4c-3,1.3-5.3,3.5-7,5.6
	c-1.6,2.2-2.7,4.3-3.4,6.4c-0.7,2.1-1.2,4.1-1.5,6.1c-0.6,3.9-0.7,7.7-0.5,11.3c0.2,3.7,0.7,7.2,1.5,10.8c0.4,1.8-1.1,3-1.1,3.2
	l-11.6,1.8c-1.4-0.1-2.5,1-2.5,2.3v3.7c0,0.3,0.2,0.6,0.5,0.6l22.1,1l3.4-1.4l-0.5-4.6v0c0-0.1-0.2-0.7-0.3-1.3
	c-0.1-0.6-0.2-1.3-0.3-2c-0.2-1.4-0.2-2.9-0.2-4.5c0-3,0.3-6.1,0.8-9.1c0.5-3,1.2-3.9,2.3-6.4c0.5-1.2,1.1-2.4,1.7-3.3
	c0.6-0.9,1.3-1.6,1.8-2c0.6-0.3,0.9-0.3,1-0.2c0.1,0.1,0.3,0.3,0.7,0.5c0.5,0.2,1.2,0.6,2,1.2c0.8,0.5,7.4,4.8,8.3,6
	c0.9,1.1,1.9,2.3,2.8,3.4c0.9,1.2,1.8,2.4,2.7,3.6c0.5,0.7,1.1,1.4,1.8,2c4.3,3.8,10.5,4.2,15.1,1.2c0.4,0.6,0.9,1.3,1.3,2
	c0.7,1.1,1.3,2.2,2,3.3c0.7,1.1,1.3,2.3,1.9,3.5c0.6,1.2,1.2,2.4,1.8,3.6c0.6,1.2,1.2,2.5,1.7,3.7c0.6,1.4,1.2,2.7,1.8,4.1
	c0.5,1.2,1,2.4,1.4,3.5c0.5,1.3,1,2.6,1.5,3.9l1.4,4c0.5,1.3,0.9,2.7,1.3,4c0.4,1.4,0.9,2.7,1.3,4.1l1.2,4.1
	c0.8,2.7,1.5,5.5,2.2,8.3c0.4,1.4,0.6,2.8,1,4.2l0.9,4.2l1.2,2.7l0.8,2.1h23.1L363.2,336.5z"/>
<path fill="none" stroke="#121625" stroke-width="3" stroke-linecap="round" stroke-linejoin="round" stroke-miterlimit="10" d="
	M347.8,222.8c0,0-1.6,7.2,1,9.2c-4.1,0-8.4,6.3-10.8,10.3"/>
<g>
	
		<path fill="#FFFFFF" stroke="#121625" stroke-width="2" stroke-linecap="round" stroke-linejoin="round" stroke-miterlimit="10" d="
		M225.7,177.8l-9.1-7.9c-1.7-1.5-1.8-4-0.4-5.7l6-6.9c1.5-1.7,4-1.8,5.7-0.4l9.1,7.9c1.7,1.5,1.8,4,0.4,5.7l-6,6.9
		C229.9,179.1,227.4,179.2,225.7,177.8z"/>
	<g>
		
			<path fill="#FFFFFF" stroke="#EE7513" stroke-width="3" stroke-linecap="round" stroke-linejoin="round" stroke-miterlimit="10" d="
			M216.6,173.7L216.6,173.7c-1.5-1.3-1.6-3.6-0.3-5.1l8.5-9.7c1.3-1.5,3.6-1.6,5.1-0.3l0,0c1.5,1.3,1.6,3.6,0.3,5.1l-8.5,9.7
			C220.3,174.9,218,175,216.6,173.7z"/>
		
			<path fill="#FFFFFF" stroke="#EE7513" stroke-width="3" stroke-linecap="round" stroke-linejoin="round" stroke-miterlimit="10" d="
			M235.4,158.5l-5.8-5.1c-4.1-3.5-5-9.5-2.3-14.1l12.5-21.5l29.6,25.9L249.7,159C245.5,162.3,239.5,162.1,235.4,158.5z"/>
		
			<path fill="#FFFFFF" stroke="#EE7513" stroke-width="3" stroke-linecap="round" stroke-linejoin="round" stroke-miterlimit="10" d="
			M234.2,165.9l-11.8-10.3c-1.3-1.1-1.5-3.2-0.3-4.5h0c1.1-1.3,3.2-1.5,4.5-0.3l11.8,10.3c1.3,1.1,1.5,3.2,0.3,4.5h0
			C237.5,166.9,235.5,167,234.2,165.9z"/>
		
			<path fill="#FFFFFF" stroke="#EE7513" stroke-width="3" stroke-linecap="round" stroke-linejoin="round" stroke-miterlimit="10" d="
			M221.7,180.9l-12.4-10.8c-1.1-1-1.3-2.7-0.3-3.9l0,0c1-1.1,2.7-1.3,3.9-0.3l12.4,10.8c1.1,1,1.3,2.7,0.3,3.9l0,0
			C224.6,181.8,222.8,181.9,221.7,180.9z"/>
		
			<path fill="#FFFFFF" stroke="#EE7513" stroke-width="3" stroke-linecap="round" stroke-linejoin="round" stroke-miterlimit="10" d="
			M219.7,193.9l-23-20.1c-0.8-0.7-0.9-1.9-0.2-2.7l5.7-6.5c0.7-0.8,1.9-0.9,2.7-0.2l23,20.1c0.8,0.7,0.9,1.9,0.2,2.7l-5.7,6.5
			C221.7,194.5,220.5,194.5,219.7,193.9z"/>
		<g>
			<path d="M243.9,133.4l-2.5,0.2l0.2,3l-1.1-1l-0.1-2l-0.3,0l-0.7,0.9l-0.8-0.7l2.6-2.9l0.8,0.7l-0.9,1l1.9-0.1L243.9,133.4z"/>
			<path d="M245.7,134.9c0.8,0.7,0.9,2,0.2,2.8c-0.7,0.8-1.9,0.9-2.8,0.2c-0.8-0.7-0.9-1.9-0.2-2.8
				C243.6,134.3,244.8,134.2,245.7,134.9z M245,135.7c-0.4-0.3-1-0.3-1.3,0.1c-0.3,0.4-0.3,1,0.1,1.3c0.4,0.3,1,0.3,1.3-0.1
				C245.4,136.6,245.4,136.1,245,135.7z"/>
			<path d="M248.3,139.2l2.2,0l0.3,0.3l-2.6,2.9l-0.8-0.7l1.3-1.5l-1.4,0l-0.2-1.4l-1.3,1.5l-0.8-0.7l2.6-2.9l0.4,0.3L248.3,139.2z"
				/>
			<path d="M251.4,139.9l1.8,1.6l-0.6,0.6l-1.1-0.9l-0.4,0.5l0.9,0.8l-0.6,0.7l-0.9-0.8l-0.5,0.5l1.1,0.9l-0.6,0.6l-1.8-1.6
				L251.4,139.9z"/>
			<path d="M253.3,146.9l-0.2-2.6l-1.2,1.4l-0.8-0.7l2.6-2.9l0.3,0.3l0.2,2.6l1.2-1.4l0.8,0.7l-2.6,2.9L253.3,146.9z"/>
			<path d="M235.9,134.7c0.8,0.7,0.9,2,0.2,2.8s-1.9,0.9-2.8,0.2c-0.8-0.7-0.9-1.9-0.2-2.8C233.8,134.1,235,134,235.9,134.7z
				 M235.2,135.5c-0.4-0.3-1-0.3-1.3,0.1c-0.3,0.4-0.3,1,0.1,1.3c0.4,0.3,1,0.3,1.3-0.1C235.6,136.4,235.6,135.8,235.2,135.5z"/>
			<path d="M237.9,136.5l1.2,1.1c0.6,0.5,0.7,1.4,0.1,2c-0.5,0.6-1.4,0.7-2,0.1l-0.5-0.4l-0.7,0.8l-0.8-0.7L237.9,136.5z
				 M237.3,138.6l0.5,0.4c0.2,0.2,0.6,0.2,0.8,0c0.2-0.2,0.2-0.6-0.1-0.8l-0.5-0.4L237.3,138.6z"/>
			<path d="M240.9,140.7c0.1-0.1,0.1-0.3,0-0.4c-0.1-0.1-0.3-0.1-0.4,0c-0.1,0.1-0.1,0.3,0,0.4c0.3,0.2,0.4,0.6,0.4,1
				c0,0.3-0.1,0.5-0.3,0.7c-0.4,0.5-1.2,0.6-1.7,0.1c-0.5-0.4-0.6-1.2-0.1-1.7l0.7,0.6c-0.1,0.1-0.1,0.3,0,0.4
				c0.1,0.1,0.3,0.1,0.4,0c0.1-0.1,0.1-0.3,0-0.4c-0.5-0.4-0.6-1.2-0.1-1.7c0.4-0.5,1.2-0.6,1.7-0.1c0.5,0.4,0.6,1.2,0.1,1.7
				L240.9,140.7z"/>
			<path d="M242.9,140.8l2.3,2l-0.7,0.8l-0.8-0.7l-1.9,2.2l-0.8-0.7l1.9-2.2l-0.8-0.7L242.9,140.8z"/>
			<path d="M242.7,145.9l4-1.7l0.3,0.3l-1.2,4.2l-0.8-0.7l0.2-0.5l-1.2-1.1l-0.5,0.2L242.7,145.9z M244.9,146l0.6,0.5l0.3-0.9
				L244.9,146z"/>
			<path d="M246.1,148.8l4-1.7l0.3,0.3l-1.2,4.2l-0.8-0.7l0.2-0.5l-1.2-1.1l-0.5,0.2L246.1,148.8z M248.2,148.9l0.6,0.5l0.3-0.9
				L248.2,148.9z"/>
			<path d="M251.7,153.8l-0.2-2.6l-1.2,1.4l-0.8-0.7l2.6-2.9l0.3,0.3l0.2,2.6l1.2-1.4l0.8,0.7L252,154L251.7,153.8z"/>
		</g>
		<line fill="#FFFFFF" stroke="#EE7513" stroke-miterlimit="10" x1="236.5" y1="123.4" x2="264.3" y2="147.6"/>
		<line fill="#FFFFFF" stroke="#EE7513" stroke-miterlimit="10" x1="228.5" y1="137.2" x2="251.7" y2="157.4"/>
	</g>
	
		<path fill="#FFFFFF" stroke="#121625" stroke-width="2" stroke-linecap="round" stroke-linejoin="round" stroke-miterlimit="10" d="
		M227.8,165.6l10.6,1.3c1.4,0.2,2.7-0.8,2.9-2.2l0.1-0.9c0.2-1.4-0.8-2.7-2.2-2.9l-10.6-1.3c-1.4-0.2-2.7,0.8-2.9,2.2l-0.1,0.9
		C225.4,164.1,226.4,165.4,227.8,165.6z"/>
	
		<path fill="#FFFFFF" stroke="#121625" stroke-width="2" stroke-linecap="round" stroke-linejoin="round" stroke-miterlimit="10" d="
		M228.2,165.3l-9.7-8.5c-1.1-0.9-1.2-2.6-0.2-3.6v0c0.9-1.1,2.6-1.2,3.6-0.2l9.7,8.5c1.1,0.9,1.2,2.6,0.2,3.6l0,0
		C230.9,166.2,229.3,166.3,228.2,165.3z"/>
	
		<path fill="#FFFFFF" stroke="#121625" stroke-width="2" stroke-linecap="round" stroke-linejoin="round" stroke-miterlimit="10" d="
		M230.4,159.3l-8.9-7.8c-1.1-0.9-1.2-2.6-0.2-3.6h0c0.9-1.1,2.6-1.2,3.6-0.2l8.9,7.8c1.1,0.9,1.2,2.6,0.2,3.6h0
		C233.1,160.1,231.4,160.2,230.4,159.3z"/>
	
		<path fill="#FFFFFF" stroke="#121625" stroke-width="2" stroke-linecap="round" stroke-linejoin="round" stroke-miterlimit="10" d="
		M223.1,167.7l-6.1-5.3c-1.1-0.9-1.2-2.6-0.2-3.6l0,0c0.9-1.1,2.6-1.2,3.6-0.2l6.1,5.3c1.1,0.9,1.2,2.6,0.2,3.6v0
		C225.8,168.6,224.2,168.7,223.1,167.7z"/>
	
		<path fill="#FFFFFF" stroke="#121625" stroke-width="2" stroke-linecap="round" stroke-linejoin="round" stroke-miterlimit="10" d="
		M216.9,170.2l-4.9-4.3c-1.1-0.9-1.2-2.6-0.2-3.6l0,0c0.9-1.1,2.6-1.2,3.6-0.2l4.9,4.3c1.1,0.9,1.2,2.6,0.2,3.6l0,0
		C219.6,171,218,171.1,216.9,170.2z"/>
</g>
<path fill="none" stroke="#000000" stroke-width="3" stroke-linecap="round" stroke-linejoin="round" stroke-miterlimit="10" d="
	M296.4,157.3c0,0,4.5,3.4,10.5,4.8c0,0-4.4-5.4-4.4-7.4s9.4,3.7,9.4,3.7l3.7-4.1c0,0,4.4,2.6,9.2,0c-2.2-1-5.8-3.4-5.8-4.4
	s14-0.6,15.8,9.6"/>
<path fill="#FFFFFF" stroke="#000000" stroke-width="3" stroke-linecap="round" stroke-linejoin="round" stroke-miterlimit="10" d="
	M315.5,138.6c0,0-0.3-1.3-0.7-1.9c0.6-2.6-0.6-4.6-0.6-4.6c0.3,0.5-0.1,2.2-1.1,2.5c-1-0.9-2.5-1.7-4.6-2.1c0,0,4.6,6.1,2.6,8.3"/>
<path fill="none" stroke="#121625" stroke-width="3" stroke-linecap="round" stroke-linejoin="round" stroke-miterlimit="10" d="
	M306.3,173.3c0,4.1,2.2,7.9,9.8,7.9s9.8-3.9,9.8-7.9H306.3z"/>
<path fill="none" stroke="#121625" stroke-width="3" stroke-linecap="round" stroke-linejoin="round" stroke-miterlimit="10" d="
	M254.1,194.3c0,0,10.9,6.7,19.9,4.2"/>
<line fill="none" stroke="#EE7513" stroke-width="3" stroke-linecap="round" stroke-linejoin="round" stroke-miterlimit="10" stroke-dasharray="4" x1="201" y1="190.9" x2="169" y2="222.2"/>
<line fill="none" stroke="#EE7513" stroke-width="3" stroke-linecap="round" stroke-linejoin="round" stroke-miterlimit="10" x1="201" y1="200.5" x2="201" y2="190.9"/>
<line fill="none" stroke="#EE7513" stroke-width="3" stroke-linecap="round" stroke-linejoin="round" stroke-miterlimit="10" x1="191.2" y1="190.9" x2="200.8" y2="190.9"/>
<line fill="none" stroke="#EE7513" stroke-width="3" stroke-linecap="round" stroke-linejoin="round" stroke-miterlimit="10" stroke-dasharray="4" x1="382.7" y1="235.5" x2="414" y2="267.5"/>
<line fill="none" stroke="#EE7513" stroke-width="3" stroke-linecap="round" stroke-linejoin="round" stroke-miterlimit="10" x1="392.3" y1="235.5" x2="382.7" y2="235.5"/>
<line fill="none" stroke="#EE7513" stroke-width="3" stroke-linecap="round" stroke-linejoin="round" stroke-miterlimit="10" x1="382.7" y1="245.3" x2="382.7" y2="235.7"/>
<line fill="none" stroke="#EE7513" stroke-width="3" stroke-linecap="round" stroke-linejoin="round" stroke-miterlimit="10" x1="350.9" y1="169.4" x2="347.4" y2="174.7"/>
<line fill="none" stroke="#EE7513" stroke-width="3" stroke-linecap="round" stroke-linejoin="round" stroke-miterlimit="10" x1="351" y1="180.1" x2="347.4" y2="174.8"/>
<g>
	<path d="M108.7,236.9v-10.5h0.9v10.5H108.7z M112.9,236.9l-3.1-3.8l3.1-3.8h1.2l-3.1,3.8l3.1,3.8H112.9z"/>
	<path d="M120.1,235.7c-0.1,0.3-0.3,0.5-0.5,0.7c-0.2,0.2-0.4,0.4-0.7,0.5c-0.3,0.1-0.6,0.2-0.9,0.2h-0.6c-0.3,0-0.6-0.1-0.9-0.2
		c-0.3-0.1-0.5-0.3-0.7-0.5c-0.2-0.2-0.4-0.4-0.5-0.7c-0.1-0.3-0.2-0.6-0.2-0.9v-3.4c0-0.3,0.1-0.6,0.2-0.9c0.1-0.3,0.3-0.5,0.5-0.7
		c0.2-0.2,0.4-0.4,0.7-0.5c0.3-0.1,0.6-0.2,0.9-0.2h0.6c0.3,0,0.6,0.1,0.9,0.2c0.3,0.1,0.5,0.3,0.7,0.5c0.2,0.2,0.4,0.4,0.5,0.7
		c0.1,0.3,0.2,0.6,0.2,0.9v3.4C120.3,235.1,120.2,235.4,120.1,235.7z M119.4,231.4c0-0.2,0-0.4-0.1-0.5c-0.1-0.2-0.2-0.3-0.3-0.4
		s-0.3-0.2-0.4-0.3s-0.3-0.1-0.5-0.1h-0.6c-0.2,0-0.4,0-0.5,0.1s-0.3,0.2-0.4,0.3s-0.2,0.3-0.3,0.4c-0.1,0.2-0.1,0.3-0.1,0.5v3.5
		c0,0.2,0,0.4,0.1,0.5c0.1,0.2,0.2,0.3,0.3,0.4s0.3,0.2,0.4,0.3s0.3,0.1,0.5,0.1h0.6c0.2,0,0.4,0,0.5-0.1s0.3-0.2,0.4-0.3
		s0.2-0.3,0.3-0.4c0.1-0.2,0.1-0.3,0.1-0.5V231.4z"/>
	<path d="M130,236.9v-5.5c0-0.2,0-0.4-0.1-0.5c-0.1-0.2-0.2-0.3-0.3-0.4s-0.3-0.2-0.4-0.3s-0.3-0.1-0.5-0.1h-0.4
		c-0.2,0-0.4,0-0.5,0.1c-0.2,0.1-0.3,0.2-0.4,0.3s-0.2,0.3-0.3,0.4c-0.1,0.2-0.1,0.3-0.1,0.5v5.5h-0.9v-5.5c0-0.2,0-0.4-0.1-0.5
		c-0.1-0.2-0.2-0.3-0.3-0.4s-0.3-0.2-0.4-0.3c-0.2-0.1-0.3-0.1-0.5-0.1h-0.4c-0.2,0-0.4,0-0.5,0.1s-0.3,0.2-0.4,0.3
		s-0.2,0.3-0.3,0.4c-0.1,0.2-0.1,0.3-0.1,0.5v5.5h-0.9v-7.5h0.3l0.5,0.8c0.2-0.3,0.5-0.5,0.8-0.7c0.3-0.2,0.7-0.2,1-0.2h0.1
		c0.4,0,0.8,0.1,1.2,0.3c0.3,0.2,0.6,0.5,0.8,0.8c0.1-0.2,0.2-0.3,0.3-0.5c0.1-0.1,0.3-0.3,0.5-0.4c0.2-0.1,0.3-0.2,0.5-0.2
		c0.2-0.1,0.4-0.1,0.6-0.1h0.1c0.3,0,0.6,0.1,0.9,0.2c0.3,0.1,0.5,0.3,0.7,0.5c0.2,0.2,0.4,0.4,0.5,0.7c0.1,0.3,0.2,0.6,0.2,0.9v5.5
		H130z"/>
	<path d="M137.6,235.7c-0.1,0.3-0.3,0.5-0.5,0.7c-0.2,0.2-0.4,0.4-0.7,0.5c-0.3,0.1-0.6,0.2-0.9,0.2H135c-0.3,0-0.6-0.1-0.9-0.2
		c-0.3-0.1-0.5-0.3-0.7-0.5c-0.2-0.2-0.4-0.4-0.5-0.7c-0.1-0.3-0.2-0.6-0.2-0.9v-3.4c0-0.3,0.1-0.6,0.2-0.9c0.1-0.3,0.3-0.5,0.5-0.7
		c0.2-0.2,0.4-0.4,0.7-0.5c0.3-0.1,0.6-0.2,0.9-0.2h0.6c0.3,0,0.6,0.1,0.9,0.2c0.3,0.1,0.5,0.3,0.7,0.5c0.2,0.2,0.4,0.4,0.5,0.7
		c0.1,0.3,0.2,0.6,0.2,0.9v1.8h-4.1v1.7c0,0.2,0,0.4,0.1,0.5c0.1,0.2,0.2,0.3,0.3,0.4s0.3,0.2,0.4,0.3s0.3,0.1,0.5,0.1h0.6
		c0.2,0,0.4,0,0.5-0.1s0.3-0.2,0.4-0.3s0.2-0.3,0.3-0.4c0.1-0.2,0.1-0.3,0.1-0.5v-0.5l0.9,0.1v0.3
		C137.8,235.1,137.7,235.4,137.6,235.7z M136.9,231.4c0-0.2,0-0.4-0.1-0.5c-0.1-0.2-0.2-0.3-0.3-0.4s-0.3-0.2-0.4-0.3
		s-0.3-0.1-0.5-0.1H135c-0.2,0-0.4,0-0.5,0.1s-0.3,0.2-0.4,0.3s-0.2,0.3-0.3,0.4c-0.1,0.2-0.1,0.3-0.1,0.5v1.1h3.2V231.4z"/>
	<path d="M143.7,236.9v-5.5c0-0.2,0-0.4-0.1-0.5c-0.1-0.2-0.2-0.3-0.3-0.4s-0.3-0.2-0.4-0.3s-0.3-0.1-0.5-0.1h-0.6
		c-0.2,0-0.4,0-0.5,0.1s-0.3,0.2-0.4,0.3s-0.2,0.3-0.3,0.4c-0.1,0.2-0.1,0.3-0.1,0.5v5.5h-0.9v-7.5h0.3l0.5,0.8
		c0.2-0.3,0.5-0.5,0.8-0.7c0.3-0.2,0.7-0.2,1-0.2h0.2c0.3,0,0.6,0.1,0.9,0.2c0.3,0.1,0.5,0.3,0.7,0.5c0.2,0.2,0.4,0.4,0.5,0.7
		c0.1,0.3,0.2,0.6,0.2,0.9v5.5H143.7z"/>
	<path d="M154.8,235.7c-0.1,0.3-0.3,0.5-0.5,0.7c-0.2,0.2-0.4,0.4-0.7,0.5c-0.3,0.1-0.6,0.2-0.9,0.2h-0.6c-0.3,0-0.6-0.1-0.9-0.2
		c-0.3-0.1-0.5-0.3-0.7-0.5c-0.2-0.2-0.4-0.4-0.5-0.7c-0.1-0.3-0.2-0.6-0.2-0.9v-3.4c0-0.3,0.1-0.6,0.2-0.9c0.1-0.3,0.3-0.5,0.5-0.7
		c0.2-0.2,0.4-0.4,0.7-0.5c0.3-0.1,0.6-0.2,0.9-0.2h0.6c0.3,0,0.6,0.1,0.9,0.2c0.3,0.1,0.5,0.3,0.7,0.5c0.2,0.2,0.4,0.4,0.5,0.7
		c0.1,0.3,0.2,0.6,0.2,0.9v3.4C154.9,235.1,154.9,235.4,154.8,235.7z M154,231.4c0-0.2,0-0.4-0.1-0.5c-0.1-0.2-0.2-0.3-0.3-0.4
		s-0.3-0.2-0.4-0.3s-0.3-0.1-0.5-0.1h-0.6c-0.2,0-0.4,0-0.5,0.1s-0.3,0.2-0.4,0.3s-0.2,0.3-0.3,0.4c-0.1,0.2-0.1,0.3-0.1,0.5v3.5
		c0,0.2,0,0.4,0.1,0.5c0.1,0.2,0.2,0.3,0.3,0.4s0.3,0.2,0.4,0.3s0.3,0.1,0.5,0.1h0.6c0.2,0,0.4,0,0.5-0.1s0.3-0.2,0.4-0.3
		s0.2-0.3,0.3-0.4c0.1-0.2,0.1-0.3,0.1-0.5V231.4z"/>
	<path d="M161.6,235.7c-0.1,0.3-0.3,0.5-0.5,0.7c-0.2,0.2-0.4,0.4-0.7,0.5c-0.3,0.1-0.6,0.2-0.9,0.2h-0.2c-0.3,0-0.7-0.1-0.9-0.2
		c-0.3-0.1-0.5-0.3-0.7-0.6v3.6h-0.9v-10.5h0.3l0.5,0.8c0.2-0.3,0.5-0.5,0.8-0.7c0.3-0.2,0.7-0.2,1-0.2h0.2c0.3,0,0.6,0.1,0.9,0.2
		c0.3,0.1,0.5,0.3,0.7,0.5c0.2,0.2,0.4,0.4,0.5,0.7c0.1,0.3,0.2,0.6,0.2,0.9v3.4C161.8,235.1,161.7,235.4,161.6,235.7z M160.9,231.4
		c0-0.2,0-0.4-0.1-0.5c-0.1-0.2-0.2-0.3-0.3-0.4s-0.3-0.2-0.4-0.3s-0.3-0.1-0.5-0.1H159c-0.2,0-0.4,0-0.5,0.1s-0.3,0.2-0.4,0.3
		s-0.2,0.3-0.3,0.4c-0.1,0.2-0.1,0.3-0.1,0.5v3.5c0,0.2,0,0.4,0.1,0.5c0.1,0.2,0.2,0.3,0.3,0.4s0.3,0.2,0.4,0.3s0.3,0.1,0.5,0.1h0.6
		c0.2,0,0.4,0,0.5-0.1s0.3-0.2,0.4-0.3s0.2-0.3,0.3-0.4c0.1-0.2,0.1-0.3,0.1-0.5V231.4z"/>
	<path d="M168.8,235c0,0.3-0.1,0.6-0.2,0.8c-0.1,0.3-0.3,0.5-0.5,0.7c-0.2,0.2-0.5,0.3-0.7,0.4c-0.3,0.1-0.6,0.2-0.9,0.2h-0.6
		c-0.3,0-0.6-0.1-0.9-0.2c-0.3-0.1-0.5-0.3-0.7-0.5s-0.4-0.4-0.5-0.7c-0.1-0.3-0.2-0.6-0.2-0.9v-0.3l0.9-0.1v0.5
		c0,0.2,0,0.4,0.1,0.5c0.1,0.2,0.2,0.3,0.3,0.4s0.3,0.2,0.4,0.3s0.3,0.1,0.5,0.1h0.6c0.2,0,0.4,0,0.5-0.1c0.2-0.1,0.3-0.1,0.4-0.2
		c0.1-0.1,0.2-0.2,0.3-0.4c0.1-0.1,0.1-0.3,0.1-0.5c0-0.3-0.1-0.5-0.2-0.7c-0.1-0.2-0.3-0.3-0.5-0.4c-0.2-0.1-0.4-0.2-0.7-0.3
		c-0.2-0.1-0.5-0.2-0.8-0.2c-0.3-0.1-0.5-0.2-0.8-0.3s-0.5-0.2-0.7-0.4s-0.3-0.4-0.5-0.6s-0.2-0.5-0.2-0.9c0-0.3,0.1-0.6,0.2-0.8
		s0.3-0.5,0.5-0.7c0.2-0.2,0.4-0.3,0.7-0.4c0.3-0.1,0.6-0.2,0.9-0.2h0.5c0.3,0,0.6,0.1,0.9,0.2s0.5,0.3,0.7,0.5
		c0.2,0.2,0.4,0.4,0.5,0.7c0.1,0.3,0.2,0.6,0.2,0.9v0l-0.9,0.1v-0.2c0-0.2,0-0.4-0.1-0.5c-0.1-0.2-0.2-0.3-0.3-0.4s-0.3-0.2-0.4-0.3
		c-0.2-0.1-0.3-0.1-0.5-0.1h-0.5c-0.2,0-0.4,0-0.5,0.1c-0.2,0.1-0.3,0.1-0.4,0.2s-0.2,0.2-0.3,0.4c-0.1,0.1-0.1,0.3-0.1,0.5
		c0,0.3,0.1,0.5,0.2,0.6c0.1,0.2,0.3,0.3,0.5,0.4s0.4,0.2,0.7,0.3c0.2,0.1,0.5,0.2,0.8,0.2s0.5,0.2,0.8,0.3s0.5,0.2,0.7,0.4
		c0.2,0.2,0.3,0.4,0.5,0.6S168.8,234.6,168.8,235z"/>
	<path d="M173.2,236.9c-0.3,0-0.5-0.1-0.8-0.2s-0.5-0.2-0.6-0.4c-0.2-0.2-0.3-0.4-0.4-0.6s-0.2-0.5-0.2-0.8v-4.7h-1.4v-0.9h1.4v-1.8
		l0.9-0.1v2h1.9v0.9h-1.9v4.7c0,0.2,0,0.3,0.1,0.4c0.1,0.1,0.1,0.2,0.2,0.3s0.2,0.2,0.3,0.2c0.1,0.1,0.3,0.1,0.4,0.1h0.8v0.9H173.2z
		"/>
	<path d="M180.5,236.9l-0.5-0.8c-0.2,0.3-0.5,0.5-0.8,0.7c-0.3,0.2-0.6,0.2-1,0.2h-0.2c-0.3,0-0.6-0.1-0.9-0.2
		c-0.3-0.1-0.5-0.3-0.7-0.5c-0.2-0.2-0.4-0.4-0.5-0.7c-0.1-0.3-0.2-0.6-0.2-0.9v-0.1c0-0.3,0.1-0.6,0.2-0.9s0.3-0.5,0.5-0.7
		c0.2-0.2,0.4-0.4,0.7-0.5c0.3-0.1,0.6-0.2,0.9-0.2h1.9v-1.2c0-0.2,0-0.4-0.1-0.5c-0.1-0.2-0.2-0.3-0.3-0.4s-0.3-0.2-0.4-0.3
		s-0.3-0.1-0.5-0.1H178c-0.2,0-0.4,0-0.5,0.1c-0.2,0.1-0.3,0.2-0.4,0.3s-0.2,0.3-0.3,0.4c-0.1,0.2-0.1,0.3-0.1,0.5v0.3l-0.9-0.1
		v-0.1c0-0.3,0.1-0.6,0.2-0.9c0.1-0.3,0.3-0.5,0.5-0.7c0.2-0.2,0.4-0.4,0.7-0.5s0.6-0.2,0.9-0.2h0.5c0.3,0,0.6,0.1,0.9,0.2
		c0.3,0.1,0.5,0.3,0.7,0.5c0.2,0.2,0.4,0.4,0.5,0.7c0.1,0.3,0.2,0.6,0.2,0.9v5.5H180.5z M179.9,233.2h-1.9c-0.2,0-0.4,0-0.5,0.1
		c-0.2,0.1-0.3,0.2-0.4,0.3s-0.2,0.3-0.3,0.4c-0.1,0.2-0.1,0.3-0.1,0.5v0.3c0,0.2,0,0.4,0.1,0.5c0.1,0.2,0.2,0.3,0.3,0.4
		s0.3,0.2,0.4,0.3s0.3,0.1,0.5,0.1h0.6c0.2,0,0.4,0,0.5-0.1s0.3-0.2,0.4-0.3s0.2-0.3,0.3-0.4c0.1-0.2,0.1-0.3,0.1-0.5V233.2z"/>
	<path d="M187.3,236.9l-0.5-0.8c-0.2,0.3-0.5,0.5-0.8,0.7c-0.3,0.2-0.6,0.2-1,0.2h-0.2c-0.3,0-0.6-0.1-0.9-0.2
		c-0.3-0.1-0.5-0.3-0.7-0.5c-0.2-0.2-0.4-0.4-0.5-0.7c-0.1-0.3-0.2-0.6-0.2-0.9v-0.1c0-0.3,0.1-0.6,0.2-0.9s0.3-0.5,0.5-0.7
		c0.2-0.2,0.4-0.4,0.7-0.5c0.3-0.1,0.6-0.2,0.9-0.2h1.9v-1.2c0-0.2,0-0.4-0.1-0.5c-0.1-0.2-0.2-0.3-0.3-0.4s-0.3-0.2-0.4-0.3
		s-0.3-0.1-0.5-0.1h-0.5c-0.2,0-0.4,0-0.5,0.1c-0.2,0.1-0.3,0.2-0.4,0.3s-0.2,0.3-0.3,0.4c-0.1,0.2-0.1,0.3-0.1,0.5v0.3l-0.9-0.1
		v-0.1c0-0.3,0.1-0.6,0.2-0.9c0.1-0.3,0.3-0.5,0.5-0.7c0.2-0.2,0.4-0.4,0.7-0.5s0.6-0.2,0.9-0.2h0.5c0.3,0,0.6,0.1,0.9,0.2
		c0.3,0.1,0.5,0.3,0.7,0.5c0.2,0.2,0.4,0.4,0.5,0.7c0.1,0.3,0.2,0.6,0.2,0.9v5.5H187.3z M186.7,233.2h-1.9c-0.2,0-0.4,0-0.5,0.1
		c-0.2,0.1-0.3,0.2-0.4,0.3s-0.2,0.3-0.3,0.4c-0.1,0.2-0.1,0.3-0.1,0.5v0.3c0,0.2,0,0.4,0.1,0.5c0.1,0.2,0.2,0.3,0.3,0.4
		s0.3,0.2,0.4,0.3s0.3,0.1,0.5,0.1h0.6c0.2,0,0.4,0,0.5-0.1s0.3-0.2,0.4-0.3s0.2-0.3,0.3-0.4c0.1-0.2,0.1-0.3,0.1-0.5V233.2z"/>
	<path d="M193.5,236.9v-5.5c0-0.2,0-0.4-0.1-0.5c-0.1-0.2-0.2-0.3-0.3-0.4s-0.3-0.2-0.4-0.3s-0.3-0.1-0.5-0.1h-0.6
		c-0.2,0-0.4,0-0.5,0.1s-0.3,0.2-0.4,0.3s-0.2,0.3-0.3,0.4c-0.1,0.2-0.1,0.3-0.1,0.5v5.5h-0.9v-7.5h0.3l0.5,0.8
		c0.2-0.3,0.5-0.5,0.8-0.7c0.3-0.2,0.7-0.2,1-0.2h0.2c0.3,0,0.6,0.1,0.9,0.2c0.3,0.1,0.5,0.3,0.7,0.5c0.2,0.2,0.4,0.4,0.5,0.7
		c0.1,0.3,0.2,0.6,0.2,0.9v5.5H193.5z"/>
	<path d="M204.6,235.7c-0.1,0.3-0.3,0.5-0.5,0.7c-0.2,0.2-0.4,0.4-0.7,0.5c-0.3,0.1-0.6,0.2-0.9,0.2h-0.6c-0.3,0-0.6-0.1-0.9-0.2
		c-0.3-0.1-0.5-0.3-0.7-0.5c-0.2-0.2-0.4-0.4-0.5-0.7c-0.1-0.3-0.2-0.6-0.2-0.9v-8.5h0.9v3.6c0.2-0.2,0.5-0.4,0.7-0.6
		c0.3-0.1,0.6-0.2,0.9-0.2h0.2c0.3,0,0.6,0.1,0.9,0.2c0.3,0.1,0.5,0.3,0.7,0.5c0.2,0.2,0.4,0.4,0.5,0.7c0.1,0.3,0.2,0.6,0.2,0.9v3.4
		C204.7,235.1,204.7,235.4,204.6,235.7z M203.8,231.4c0-0.2,0-0.4-0.1-0.5c-0.1-0.2-0.2-0.3-0.3-0.4s-0.3-0.2-0.4-0.3
		s-0.3-0.1-0.5-0.1h-0.6c-0.2,0-0.4,0-0.5,0.1s-0.3,0.2-0.4,0.3s-0.2,0.3-0.3,0.4c-0.1,0.2-0.1,0.3-0.1,0.5v3.5c0,0.2,0,0.4,0.1,0.5
		c0.1,0.2,0.2,0.3,0.3,0.4s0.3,0.2,0.4,0.3s0.3,0.1,0.5,0.1h0.6c0.2,0,0.4,0,0.5-0.1s0.3-0.2,0.4-0.3s0.2-0.3,0.3-0.4
		c0.1-0.2,0.1-0.3,0.1-0.5V231.4z"/>
	<path d="M211.4,235.7c-0.1,0.3-0.3,0.5-0.5,0.7c-0.2,0.2-0.4,0.4-0.7,0.5c-0.3,0.1-0.6,0.2-0.9,0.2h-0.6c-0.3,0-0.6-0.1-0.9-0.2
		c-0.3-0.1-0.5-0.3-0.7-0.5c-0.2-0.2-0.4-0.4-0.5-0.7c-0.1-0.3-0.2-0.6-0.2-0.9v-3.4c0-0.3,0.1-0.6,0.2-0.9c0.1-0.3,0.3-0.5,0.5-0.7
		c0.2-0.2,0.4-0.4,0.7-0.5c0.3-0.1,0.6-0.2,0.9-0.2h0.6c0.3,0,0.6,0.1,0.9,0.2c0.3,0.1,0.5,0.3,0.7,0.5c0.2,0.2,0.4,0.4,0.5,0.7
		c0.1,0.3,0.2,0.6,0.2,0.9v1.8h-4.1v1.7c0,0.2,0,0.4,0.1,0.5c0.1,0.2,0.2,0.3,0.3,0.4s0.3,0.2,0.4,0.3s0.3,0.1,0.5,0.1h0.6
		c0.2,0,0.4,0,0.5-0.1s0.3-0.2,0.4-0.3s0.2-0.3,0.3-0.4c0.1-0.2,0.1-0.3,0.1-0.5v-0.5l0.9,0.1v0.3
		C211.6,235.1,211.5,235.4,211.4,235.7z M210.7,231.4c0-0.2,0-0.4-0.1-0.5c-0.1-0.2-0.2-0.3-0.3-0.4s-0.3-0.2-0.4-0.3
		s-0.3-0.1-0.5-0.1h-0.6c-0.2,0-0.4,0-0.5,0.1s-0.3,0.2-0.4,0.3s-0.2,0.3-0.3,0.4c-0.1,0.2-0.1,0.3-0.1,0.5v1.1h3.2V231.4z"/>
	<path d="M213.7,236.9v-10.5h0.9v10.5H213.7z M217.9,236.9l-3.1-3.8l3.1-3.8h1.2l-3.1,3.8l3.1,3.8H217.9z"/>
	<path d="M225.1,235.7c-0.1,0.3-0.3,0.5-0.5,0.7c-0.2,0.2-0.4,0.4-0.7,0.5c-0.3,0.1-0.6,0.2-0.9,0.2h-0.6c-0.3,0-0.6-0.1-0.9-0.2
		c-0.3-0.1-0.5-0.3-0.7-0.5c-0.2-0.2-0.4-0.4-0.5-0.7c-0.1-0.3-0.2-0.6-0.2-0.9v-3.4c0-0.3,0.1-0.6,0.2-0.9c0.1-0.3,0.3-0.5,0.5-0.7
		c0.2-0.2,0.4-0.4,0.7-0.5c0.3-0.1,0.6-0.2,0.9-0.2h0.6c0.3,0,0.6,0.1,0.9,0.2c0.3,0.1,0.5,0.3,0.7,0.5c0.2,0.2,0.4,0.4,0.5,0.7
		c0.1,0.3,0.2,0.6,0.2,0.9v1.8h-4.1v1.7c0,0.2,0,0.4,0.1,0.5c0.1,0.2,0.2,0.3,0.3,0.4s0.3,0.2,0.4,0.3s0.3,0.1,0.5,0.1h0.6
		c0.2,0,0.4,0,0.5-0.1s0.3-0.2,0.4-0.3s0.2-0.3,0.3-0.4c0.1-0.2,0.1-0.3,0.1-0.5v-0.5l0.9,0.1v0.3
		C225.3,235.1,225.2,235.4,225.1,235.7z M224.4,231.4c0-0.2,0-0.4-0.1-0.5c-0.1-0.2-0.2-0.3-0.3-0.4s-0.3-0.2-0.4-0.3
		s-0.3-0.1-0.5-0.1h-0.6c-0.2,0-0.4,0-0.5,0.1s-0.3,0.2-0.4,0.3s-0.2,0.3-0.3,0.4c-0.1,0.2-0.1,0.3-0.1,0.5v1.1h3.2V231.4z"/>
	<path d="M229.3,230.2c-0.2,0-0.4,0-0.5,0.1c-0.2,0.1-0.3,0.2-0.4,0.3s-0.2,0.3-0.3,0.4c-0.1,0.2-0.1,0.3-0.1,0.5v5.4h-0.9v-7.5h0.3
		l0.5,0.8c0.2-0.3,0.5-0.5,0.8-0.7c0.3-0.2,0.7-0.2,1-0.2h0.5v1H229.3z"/>
	<path d="M130,254.9v-5.5c0-0.2,0-0.4-0.1-0.5c-0.1-0.2-0.2-0.3-0.3-0.4s-0.3-0.2-0.4-0.3s-0.3-0.1-0.5-0.1h-0.6
		c-0.2,0-0.4,0-0.5,0.1s-0.3,0.2-0.4,0.3s-0.2,0.3-0.3,0.4c-0.1,0.2-0.1,0.3-0.1,0.5v5.5h-0.9v-7.5h0.3l0.5,0.8
		c0.2-0.3,0.5-0.5,0.8-0.7c0.3-0.2,0.7-0.2,1-0.2h0.2c0.3,0,0.6,0.1,0.9,0.2c0.3,0.1,0.5,0.3,0.7,0.5c0.2,0.2,0.4,0.4,0.5,0.7
		c0.1,0.3,0.2,0.6,0.2,0.9v5.5H130z"/>
	<path d="M132.9,245.6v-1.2h1.1v1.2H132.9z M133,254.9v-7.5h0.9v7.5H133z"/>
	<path d="M140.9,253.7c-0.1,0.3-0.3,0.5-0.5,0.7c-0.2,0.2-0.4,0.4-0.7,0.5c-0.3,0.1-0.6,0.2-0.9,0.2h-0.6c-0.3,0-0.6-0.1-0.9-0.2
		c-0.3-0.1-0.5-0.3-0.7-0.5c-0.2-0.2-0.4-0.4-0.5-0.7c-0.1-0.3-0.2-0.6-0.2-0.9v-3.4c0-0.3,0.1-0.6,0.2-0.9c0.1-0.3,0.3-0.5,0.5-0.7
		c0.2-0.2,0.4-0.4,0.7-0.5c0.3-0.1,0.6-0.2,0.9-0.2h0.6c0.3,0,0.6,0.1,0.9,0.2c0.3,0.1,0.5,0.3,0.7,0.5c0.2,0.2,0.4,0.4,0.5,0.7
		c0.1,0.3,0.2,0.6,0.2,0.9v1.8h-4.1v1.7c0,0.2,0,0.4,0.1,0.5c0.1,0.2,0.2,0.3,0.3,0.4s0.3,0.2,0.4,0.3s0.3,0.1,0.5,0.1h0.6
		c0.2,0,0.4,0,0.5-0.1s0.3-0.2,0.4-0.3s0.2-0.3,0.3-0.4c0.1-0.2,0.1-0.3,0.1-0.5v-0.5l0.9,0.1v0.3
		C141.1,253.2,141,253.5,140.9,253.7z M140.2,249.4c0-0.2,0-0.4-0.1-0.5c-0.1-0.2-0.2-0.3-0.3-0.4s-0.3-0.2-0.4-0.3
		s-0.3-0.1-0.5-0.1h-0.6c-0.2,0-0.4,0-0.5,0.1s-0.3,0.2-0.4,0.3s-0.2,0.3-0.3,0.4c-0.1,0.2-0.1,0.3-0.1,0.5v1.1h3.2V249.4z"/>
	<path d="M145.6,254.9c-0.3,0-0.5-0.1-0.8-0.2s-0.5-0.2-0.6-0.4c-0.2-0.2-0.3-0.4-0.4-0.6s-0.2-0.5-0.2-0.8v-4.7h-1.4v-0.9h1.4v-1.8
		l0.9-0.1v2h1.9v0.9h-1.9v4.7c0,0.2,0,0.3,0.1,0.4c0.1,0.1,0.1,0.2,0.2,0.3s0.2,0.2,0.3,0.2c0.1,0.1,0.3,0.1,0.4,0.1h0.8v0.9H145.6z
		"/>
	<path d="M151.8,245.6v-1.2h1.1v1.2H151.8z M151.9,254.9v-7.5h0.9v7.5H151.9z"/>
	<path d="M159,254.9v-5.5c0-0.2,0-0.4-0.1-0.5c-0.1-0.2-0.2-0.3-0.3-0.4s-0.3-0.2-0.4-0.3s-0.3-0.1-0.5-0.1h-0.6
		c-0.2,0-0.4,0-0.5,0.1s-0.3,0.2-0.4,0.3s-0.2,0.3-0.3,0.4c-0.1,0.2-0.1,0.3-0.1,0.5v5.5h-0.9v-7.5h0.3l0.5,0.8
		c0.2-0.3,0.5-0.5,0.8-0.7c0.3-0.2,0.7-0.2,1-0.2h0.2c0.3,0,0.6,0.1,0.9,0.2c0.3,0.1,0.5,0.3,0.7,0.5c0.2,0.2,0.4,0.4,0.5,0.7
		c0.1,0.3,0.2,0.6,0.2,0.9v5.5H159z"/>
	<path d="M166.6,253.7c-0.1,0.3-0.3,0.5-0.5,0.7c-0.2,0.2-0.4,0.4-0.7,0.5c-0.3,0.1-0.6,0.2-0.9,0.2h-0.6c-0.3,0-0.6-0.1-0.9-0.2
		c-0.3-0.1-0.5-0.3-0.7-0.5c-0.2-0.2-0.4-0.4-0.5-0.7c-0.1-0.3-0.2-0.6-0.2-0.9v-8.5h0.9v3.6c0.2-0.2,0.5-0.4,0.7-0.6
		c0.3-0.1,0.6-0.2,0.9-0.2h0.2c0.3,0,0.6,0.1,0.9,0.2c0.3,0.1,0.5,0.3,0.7,0.5c0.2,0.2,0.4,0.4,0.5,0.7c0.1,0.3,0.2,0.6,0.2,0.9v3.4
		C166.8,253.2,166.7,253.5,166.6,253.7z M165.9,249.4c0-0.2,0-0.4-0.1-0.5c-0.1-0.2-0.2-0.3-0.3-0.4s-0.3-0.2-0.4-0.3
		s-0.3-0.1-0.5-0.1h-0.6c-0.2,0-0.4,0-0.5,0.1s-0.3,0.2-0.4,0.3s-0.2,0.3-0.3,0.4c-0.1,0.2-0.1,0.3-0.1,0.5v3.5c0,0.2,0,0.4,0.1,0.5
		c0.1,0.2,0.2,0.3,0.3,0.4s0.3,0.2,0.4,0.3s0.3,0.1,0.5,0.1h0.6c0.2,0,0.4,0,0.5-0.1s0.3-0.2,0.4-0.3s0.2-0.3,0.3-0.4
		c0.1-0.2,0.1-0.3,0.1-0.5V249.4z"/>
	<path d="M173.4,253.7c-0.1,0.3-0.3,0.5-0.5,0.7c-0.2,0.2-0.4,0.4-0.7,0.5c-0.3,0.1-0.6,0.2-0.9,0.2h-0.6c-0.3,0-0.6-0.1-0.9-0.2
		c-0.3-0.1-0.5-0.3-0.7-0.5c-0.2-0.2-0.4-0.4-0.5-0.7c-0.1-0.3-0.2-0.6-0.2-0.9v-3.4c0-0.3,0.1-0.6,0.2-0.9c0.1-0.3,0.3-0.5,0.5-0.7
		c0.2-0.2,0.4-0.4,0.7-0.5c0.3-0.1,0.6-0.2,0.9-0.2h0.6c0.3,0,0.6,0.1,0.9,0.2c0.3,0.1,0.5,0.3,0.7,0.5c0.2,0.2,0.4,0.4,0.5,0.7
		c0.1,0.3,0.2,0.6,0.2,0.9v1.8h-4.1v1.7c0,0.2,0,0.4,0.1,0.5c0.1,0.2,0.2,0.3,0.3,0.4s0.3,0.2,0.4,0.3s0.3,0.1,0.5,0.1h0.6
		c0.2,0,0.4,0,0.5-0.1s0.3-0.2,0.4-0.3s0.2-0.3,0.3-0.4c0.1-0.2,0.1-0.3,0.1-0.5v-0.5l0.9,0.1v0.3
		C173.6,253.2,173.5,253.5,173.4,253.7z M172.7,249.4c0-0.2,0-0.4-0.1-0.5c-0.1-0.2-0.2-0.3-0.3-0.4s-0.3-0.2-0.4-0.3
		s-0.3-0.1-0.5-0.1h-0.6c-0.2,0-0.4,0-0.5,0.1s-0.3,0.2-0.4,0.3s-0.2,0.3-0.3,0.4c-0.1,0.2-0.1,0.3-0.1,0.5v1.1h3.2V249.4z"/>
	<path d="M180.3,256.7c-0.1,0.3-0.3,0.5-0.5,0.7s-0.4,0.3-0.7,0.4s-0.6,0.2-0.9,0.2h-0.4c-0.3,0-0.6-0.1-0.9-0.2s-0.5-0.2-0.7-0.4
		s-0.4-0.4-0.5-0.7s-0.2-0.5-0.2-0.8v0c0-0.3,0.1-0.6,0.2-0.8s0.3-0.5,0.4-0.6c-0.2-0.1-0.4-0.3-0.6-0.6s-0.2-0.5-0.2-0.8
		c0-0.3,0.1-0.5,0.2-0.7s0.3-0.4,0.5-0.6c-0.2-0.2-0.4-0.5-0.6-0.7c-0.1-0.3-0.2-0.6-0.2-0.9v-0.6c0-0.3,0.1-0.6,0.2-0.9
		c0.1-0.3,0.3-0.5,0.5-0.7c0.2-0.2,0.4-0.4,0.7-0.5c0.3-0.1,0.6-0.2,0.9-0.2h0.4c0.4,0,0.7,0.1,1,0.2c0.3,0.2,0.6,0.4,0.8,0.7
		l0.5-0.8h0.3v2.6c0,0.3-0.1,0.6-0.2,0.9c-0.1,0.3-0.3,0.5-0.5,0.7c-0.2,0.2-0.4,0.4-0.7,0.5c-0.3,0.1-0.6,0.2-0.9,0.2h-1.3
		c-0.1,0-0.2,0-0.3,0.1c-0.1,0-0.2,0.1-0.2,0.2c-0.1,0.1-0.1,0.2-0.2,0.2c0,0.1-0.1,0.2-0.1,0.3c0,0.1,0,0.2,0.1,0.3
		s0.1,0.2,0.2,0.2c0.1,0.1,0.2,0.1,0.2,0.2c0.1,0,0.2,0.1,0.3,0.1h1.2c0.3,0,0.6,0.1,0.9,0.2s0.5,0.2,0.7,0.4
		c0.2,0.2,0.4,0.4,0.5,0.7s0.2,0.5,0.2,0.8v0C180.5,256.2,180.5,256.5,180.3,256.7z M179.7,249.4c0-0.2,0-0.4-0.1-0.5
		c-0.1-0.2-0.2-0.3-0.3-0.4s-0.3-0.2-0.4-0.3c-0.2-0.1-0.3-0.1-0.5-0.1h-0.8c-0.2,0-0.4,0-0.5,0.1s-0.3,0.2-0.4,0.3
		s-0.2,0.3-0.3,0.4c-0.1,0.2-0.1,0.3-0.1,0.5v0.7c0,0.2,0,0.4,0.1,0.5c0.1,0.2,0.2,0.3,0.3,0.4s0.3,0.2,0.4,0.3
		c0.2,0.1,0.3,0.1,0.5,0.1h0.8c0.2,0,0.4,0,0.5-0.1c0.2-0.1,0.3-0.2,0.4-0.3s0.2-0.3,0.3-0.4c0.1-0.2,0.1-0.3,0.1-0.5V249.4z
		 M179.7,255.8c0-0.2,0-0.3-0.1-0.5c-0.1-0.1-0.2-0.3-0.3-0.4s-0.3-0.2-0.4-0.2c-0.2-0.1-0.3-0.1-0.5-0.1h-0.5c-0.2,0-0.4,0-0.5,0.1
		c-0.2,0.1-0.3,0.1-0.4,0.2s-0.2,0.2-0.3,0.4c-0.1,0.1-0.1,0.3-0.1,0.5v0.1c0,0.2,0,0.3,0.1,0.5c0.1,0.1,0.2,0.3,0.3,0.4
		s0.3,0.2,0.4,0.2c0.2,0.1,0.3,0.1,0.5,0.1h0.5c0.2,0,0.4,0,0.5-0.1c0.2-0.1,0.3-0.1,0.4-0.2s0.2-0.2,0.3-0.4
		c0.1-0.1,0.1-0.3,0.1-0.5V255.8z"/>
	<path d="M184.5,248.3c-0.2,0-0.4,0-0.5,0.1c-0.2,0.1-0.3,0.2-0.4,0.3s-0.2,0.3-0.3,0.4c-0.1,0.2-0.1,0.3-0.1,0.5v5.4h-0.9v-7.5h0.3
		l0.5,0.8c0.2-0.3,0.5-0.5,0.8-0.7c0.3-0.2,0.7-0.2,1-0.2h0.5v1H184.5z"/>
	<path d="M191.4,253.7c-0.1,0.3-0.3,0.5-0.5,0.7c-0.2,0.2-0.4,0.4-0.7,0.5c-0.3,0.1-0.6,0.2-0.9,0.2h-0.6c-0.3,0-0.6-0.1-0.9-0.2
		c-0.3-0.1-0.5-0.3-0.7-0.5c-0.2-0.2-0.4-0.4-0.5-0.7c-0.1-0.3-0.2-0.6-0.2-0.9v-3.4c0-0.3,0.1-0.6,0.2-0.9c0.1-0.3,0.3-0.5,0.5-0.7
		c0.2-0.2,0.4-0.4,0.7-0.5c0.3-0.1,0.6-0.2,0.9-0.2h0.6c0.3,0,0.6,0.1,0.9,0.2c0.3,0.1,0.5,0.3,0.7,0.5c0.2,0.2,0.4,0.4,0.5,0.7
		c0.1,0.3,0.2,0.6,0.2,0.9v1.8h-4.1v1.7c0,0.2,0,0.4,0.1,0.5c0.1,0.2,0.2,0.3,0.3,0.4s0.3,0.2,0.4,0.3s0.3,0.1,0.5,0.1h0.6
		c0.2,0,0.4,0,0.5-0.1s0.3-0.2,0.4-0.3s0.2-0.3,0.3-0.4c0.1-0.2,0.1-0.3,0.1-0.5v-0.5l0.9,0.1v0.3
		C191.6,253.2,191.5,253.5,191.4,253.7z M190.7,249.4c0-0.2,0-0.4-0.1-0.5c-0.1-0.2-0.2-0.3-0.3-0.4s-0.3-0.2-0.4-0.3
		s-0.3-0.1-0.5-0.1h-0.6c-0.2,0-0.4,0-0.5,0.1s-0.3,0.2-0.4,0.3s-0.2,0.3-0.3,0.4c-0.1,0.2-0.1,0.3-0.1,0.5v1.1h3.2V249.4z"/>
	<path d="M198.3,253.7c-0.1,0.3-0.3,0.5-0.5,0.7c-0.2,0.2-0.4,0.4-0.7,0.5c-0.3,0.1-0.6,0.2-0.9,0.2H196c-0.3,0-0.7-0.1-0.9-0.2
		c-0.3-0.1-0.5-0.3-0.7-0.6v3.6h-0.9v-10.5h0.3l0.5,0.8c0.2-0.3,0.5-0.5,0.8-0.7c0.3-0.2,0.7-0.2,1-0.2h0.2c0.3,0,0.6,0.1,0.9,0.2
		c0.3,0.1,0.5,0.3,0.7,0.5c0.2,0.2,0.4,0.4,0.5,0.7c0.1,0.3,0.2,0.6,0.2,0.9v3.4C198.4,253.2,198.4,253.5,198.3,253.7z M197.5,249.4
		c0-0.2,0-0.4-0.1-0.5c-0.1-0.2-0.2-0.3-0.3-0.4s-0.3-0.2-0.4-0.3s-0.3-0.1-0.5-0.1h-0.6c-0.2,0-0.4,0-0.5,0.1s-0.3,0.2-0.4,0.3
		s-0.2,0.3-0.3,0.4c-0.1,0.2-0.1,0.3-0.1,0.5v3.5c0,0.2,0,0.4,0.1,0.5c0.1,0.2,0.2,0.3,0.3,0.4s0.3,0.2,0.4,0.3s0.3,0.1,0.5,0.1h0.6
		c0.2,0,0.4,0,0.5-0.1s0.3-0.2,0.4-0.3s0.2-0.3,0.3-0.4c0.1-0.2,0.1-0.3,0.1-0.5V249.4z"/>
	<path d="M205.1,253.7c-0.1,0.3-0.3,0.5-0.5,0.7c-0.2,0.2-0.4,0.4-0.7,0.5c-0.3,0.1-0.6,0.2-0.9,0.2h-0.6c-0.3,0-0.6-0.1-0.9-0.2
		c-0.3-0.1-0.5-0.3-0.7-0.5c-0.2-0.2-0.4-0.4-0.5-0.7c-0.1-0.3-0.2-0.6-0.2-0.9v-3.4c0-0.3,0.1-0.6,0.2-0.9c0.1-0.3,0.3-0.5,0.5-0.7
		c0.2-0.2,0.4-0.4,0.7-0.5c0.3-0.1,0.6-0.2,0.9-0.2h0.6c0.3,0,0.6,0.1,0.9,0.2c0.3,0.1,0.5,0.3,0.7,0.5c0.2,0.2,0.4,0.4,0.5,0.7
		c0.1,0.3,0.2,0.6,0.2,0.9v1.8h-4.1v1.7c0,0.2,0,0.4,0.1,0.5c0.1,0.2,0.2,0.3,0.3,0.4s0.3,0.2,0.4,0.3s0.3,0.1,0.5,0.1h0.6
		c0.2,0,0.4,0,0.5-0.1s0.3-0.2,0.4-0.3s0.2-0.3,0.3-0.4c0.1-0.2,0.1-0.3,0.1-0.5v-0.5l0.9,0.1v0.3
		C205.3,253.2,205.2,253.5,205.1,253.7z M204.4,249.4c0-0.2,0-0.4-0.1-0.5c-0.1-0.2-0.2-0.3-0.3-0.4s-0.3-0.2-0.4-0.3
		s-0.3-0.1-0.5-0.1h-0.6c-0.2,0-0.4,0-0.5,0.1s-0.3,0.2-0.4,0.3s-0.2,0.3-0.3,0.4c-0.1,0.2-0.1,0.3-0.1,0.5v1.1h3.2V249.4z"/>
	<path d="M211.2,254.9v-5.5c0-0.2,0-0.4-0.1-0.5c-0.1-0.2-0.2-0.3-0.3-0.4s-0.3-0.2-0.4-0.3s-0.3-0.1-0.5-0.1h-0.6
		c-0.2,0-0.4,0-0.5,0.1s-0.3,0.2-0.4,0.3s-0.2,0.3-0.3,0.4c-0.1,0.2-0.1,0.3-0.1,0.5v5.5h-0.9v-7.5h0.3l0.5,0.8
		c0.2-0.3,0.5-0.5,0.8-0.7c0.3-0.2,0.7-0.2,1-0.2h0.2c0.3,0,0.6,0.1,0.9,0.2c0.3,0.1,0.5,0.3,0.7,0.5c0.2,0.2,0.4,0.4,0.5,0.7
		c0.1,0.3,0.2,0.6,0.2,0.9v5.5H211.2z"/>
</g>
<g>
	<path d="M356.3,283.5c-0.1,0.2-0.2,0.4-0.4,0.6c-0.2,0.2-0.4,0.3-0.6,0.4s-0.5,0.1-0.8,0.1h-0.3c-0.3,0-0.5,0-0.8-0.1
		s-0.5-0.2-0.6-0.4c-0.2-0.2-0.3-0.4-0.4-0.6c-0.1-0.2-0.2-0.5-0.2-0.8v0c0-0.3,0-0.5,0.1-0.7c0.1-0.2,0.2-0.4,0.4-0.6
		c-0.2-0.1-0.4-0.3-0.5-0.5c-0.1-0.2-0.2-0.5-0.2-0.7c0-0.2,0.1-0.5,0.2-0.7s0.2-0.4,0.4-0.5c-0.2-0.2-0.4-0.4-0.5-0.7
		c-0.1-0.3-0.2-0.6-0.2-0.9v-0.5c0-0.3,0.1-0.5,0.2-0.8c0.1-0.2,0.2-0.5,0.4-0.6c0.2-0.2,0.4-0.3,0.6-0.4s0.5-0.2,0.8-0.2h0.3
		c0.3,0,0.6,0.1,0.9,0.2s0.5,0.4,0.7,0.6l0.4-0.7h0.3v2.4c0,0.3-0.1,0.5-0.2,0.8c-0.1,0.2-0.2,0.5-0.4,0.6c-0.2,0.2-0.4,0.3-0.6,0.4
		c-0.2,0.1-0.5,0.2-0.8,0.2h-1.2c-0.1,0-0.2,0-0.3,0.1s-0.2,0.1-0.2,0.2c-0.1,0.1-0.1,0.1-0.2,0.2c0,0.1-0.1,0.2-0.1,0.3
		s0,0.2,0.1,0.3c0,0.1,0.1,0.2,0.2,0.2c0.1,0.1,0.1,0.1,0.2,0.2s0.2,0.1,0.3,0.1h1.1c0.3,0,0.5,0,0.8,0.1c0.2,0.1,0.5,0.2,0.6,0.4
		c0.2,0.2,0.3,0.4,0.4,0.6c0.1,0.2,0.2,0.5,0.2,0.8v0C356.5,283,356.4,283.3,356.3,283.5z M355.7,276.8c0-0.2,0-0.3-0.1-0.5
		c-0.1-0.1-0.1-0.3-0.3-0.4s-0.2-0.2-0.4-0.3c-0.1-0.1-0.3-0.1-0.5-0.1h-0.7c-0.2,0-0.3,0-0.5,0.1c-0.1,0.1-0.3,0.1-0.4,0.3
		c-0.1,0.1-0.2,0.2-0.3,0.4c-0.1,0.1-0.1,0.3-0.1,0.5v0.6c0,0.2,0,0.3,0.1,0.5s0.1,0.3,0.3,0.4c0.1,0.1,0.2,0.2,0.4,0.3
		c0.1,0.1,0.3,0.1,0.5,0.1h0.7c0.2,0,0.3,0,0.5-0.1c0.1-0.1,0.3-0.1,0.4-0.3s0.2-0.2,0.3-0.4s0.1-0.3,0.1-0.5V276.8z M355.7,282.7
		c0-0.2,0-0.3-0.1-0.4c-0.1-0.1-0.1-0.2-0.3-0.3c-0.1-0.1-0.2-0.2-0.4-0.2c-0.1,0-0.3-0.1-0.5-0.1h-0.4c-0.2,0-0.3,0-0.5,0.1
		c-0.1,0-0.3,0.1-0.4,0.2c-0.1,0.1-0.2,0.2-0.3,0.3c-0.1,0.1-0.1,0.3-0.1,0.4v0.1c0,0.2,0,0.3,0.1,0.4s0.1,0.2,0.3,0.3
		c0.1,0.1,0.2,0.2,0.4,0.2c0.1,0,0.3,0.1,0.5,0.1h0.4c0.2,0,0.3,0,0.5-0.1c0.1,0,0.3-0.1,0.4-0.2c0.1-0.1,0.2-0.2,0.3-0.3
		s0.1-0.3,0.1-0.4V282.7z"/>
	<path d="M362.5,280.8c-0.1,0.2-0.2,0.5-0.4,0.6c-0.2,0.2-0.4,0.3-0.6,0.4c-0.2,0.1-0.5,0.2-0.8,0.2h-0.5c-0.3,0-0.5-0.1-0.8-0.2
		c-0.2-0.1-0.5-0.2-0.6-0.4c-0.2-0.2-0.3-0.4-0.4-0.6c-0.1-0.2-0.2-0.5-0.2-0.8v-3.1c0-0.3,0.1-0.5,0.2-0.8c0.1-0.2,0.2-0.5,0.4-0.6
		c0.2-0.2,0.4-0.3,0.6-0.4s0.5-0.2,0.8-0.2h0.5c0.3,0,0.5,0.1,0.8,0.2c0.2,0.1,0.5,0.2,0.6,0.4c0.2,0.2,0.3,0.4,0.4,0.6
		c0.1,0.2,0.2,0.5,0.2,0.8v1.6h-3.8v1.5c0,0.2,0,0.3,0.1,0.5s0.1,0.3,0.3,0.4c0.1,0.1,0.2,0.2,0.4,0.3c0.1,0.1,0.3,0.1,0.5,0.1h0.5
		c0.2,0,0.3,0,0.5-0.1s0.3-0.1,0.4-0.3c0.1-0.1,0.2-0.2,0.3-0.4c0.1-0.1,0.1-0.3,0.1-0.5v-0.5l0.8,0.1v0.3
		C362.6,280.3,362.6,280.5,362.5,280.8z M361.8,276.8c0-0.2,0-0.3-0.1-0.5c-0.1-0.1-0.1-0.3-0.3-0.4c-0.1-0.1-0.2-0.2-0.4-0.3
		c-0.1-0.1-0.3-0.1-0.5-0.1h-0.5c-0.2,0-0.3,0-0.5,0.1c-0.1,0.1-0.3,0.1-0.4,0.3c-0.1,0.1-0.2,0.2-0.3,0.4c-0.1,0.1-0.1,0.3-0.1,0.5
		v1h2.9V276.8z"/>
	<path d="M369,280.1c0,0.3-0.1,0.5-0.2,0.8c-0.1,0.2-0.3,0.4-0.5,0.6s-0.4,0.3-0.7,0.4s-0.5,0.1-0.8,0.1h-0.5
		c-0.3,0-0.5-0.1-0.8-0.2c-0.3-0.1-0.5-0.2-0.7-0.4c-0.2-0.2-0.3-0.4-0.5-0.6c-0.1-0.2-0.2-0.5-0.2-0.8v-0.3l0.8-0.1v0.5
		c0,0.2,0,0.3,0.1,0.5c0.1,0.1,0.2,0.3,0.3,0.4s0.2,0.2,0.4,0.3s0.3,0.1,0.5,0.1h0.5c0.2,0,0.3,0,0.5-0.1c0.2,0,0.3-0.1,0.4-0.2
		s0.2-0.2,0.3-0.3s0.1-0.3,0.1-0.4c0-0.2-0.1-0.4-0.2-0.6s-0.2-0.3-0.4-0.4c-0.2-0.1-0.4-0.2-0.6-0.3c-0.2-0.1-0.5-0.1-0.7-0.2
		c-0.2-0.1-0.5-0.1-0.7-0.2s-0.4-0.2-0.6-0.4c-0.2-0.1-0.3-0.3-0.4-0.5c-0.1-0.2-0.2-0.5-0.2-0.8c0-0.3,0.1-0.5,0.2-0.8
		c0.1-0.2,0.3-0.4,0.4-0.6c0.2-0.2,0.4-0.3,0.6-0.4s0.5-0.1,0.8-0.1h0.5c0.3,0,0.5,0.1,0.8,0.2s0.5,0.2,0.6,0.4
		c0.2,0.2,0.3,0.4,0.4,0.6c0.1,0.2,0.2,0.5,0.2,0.8v0l-0.8,0.1v-0.2c0-0.2,0-0.3-0.1-0.5c-0.1-0.1-0.1-0.3-0.3-0.4
		c-0.1-0.1-0.2-0.2-0.4-0.3c-0.1-0.1-0.3-0.1-0.5-0.1h-0.5c-0.2,0-0.3,0-0.5,0.1c-0.1,0-0.3,0.1-0.4,0.2c-0.1,0.1-0.2,0.2-0.3,0.3
		s-0.1,0.3-0.1,0.4c0,0.2,0.1,0.4,0.2,0.6s0.2,0.3,0.4,0.4s0.4,0.2,0.6,0.3c0.2,0.1,0.5,0.1,0.7,0.2c0.2,0.1,0.5,0.2,0.7,0.3
		s0.4,0.2,0.6,0.4c0.2,0.1,0.3,0.3,0.4,0.6C368.9,279.5,369,279.8,369,280.1z"/>
	<path d="M375,280.8c-0.1,0.2-0.2,0.5-0.4,0.6c-0.2,0.2-0.4,0.3-0.6,0.4c-0.2,0.1-0.5,0.2-0.8,0.2h-0.2c-0.3,0-0.6-0.1-0.9-0.2
		c-0.3-0.1-0.5-0.3-0.7-0.5v3.3h-0.8V275h0.3l0.4,0.7c0.2-0.3,0.4-0.5,0.7-0.6c0.3-0.1,0.6-0.2,0.9-0.2h0.2c0.3,0,0.5,0.1,0.8,0.2
		c0.2,0.1,0.5,0.2,0.6,0.4c0.2,0.2,0.3,0.4,0.4,0.6c0.1,0.2,0.2,0.5,0.2,0.8v3.1C375.1,280.3,375.1,280.5,375,280.8z M374.3,276.8
		c0-0.2,0-0.3-0.1-0.5c-0.1-0.1-0.1-0.3-0.3-0.4c-0.1-0.1-0.2-0.2-0.4-0.3c-0.1-0.1-0.3-0.1-0.5-0.1h-0.5c-0.2,0-0.3,0-0.5,0.1
		c-0.1,0.1-0.3,0.1-0.4,0.3c-0.1,0.1-0.2,0.2-0.3,0.4c-0.1,0.1-0.1,0.3-0.1,0.5v3.2c0,0.2,0,0.3,0.1,0.5s0.1,0.3,0.3,0.4
		c0.1,0.1,0.2,0.2,0.4,0.3c0.1,0.1,0.3,0.1,0.5,0.1h0.5c0.2,0,0.3,0,0.5-0.1s0.3-0.1,0.4-0.3c0.1-0.1,0.2-0.2,0.3-0.4
		c0.1-0.1,0.1-0.3,0.1-0.5V276.8z"/>
	<path d="M377,273.4v-1.1h1v1.1H377z M377.1,281.9V275h0.8v6.9H377.1z"/>
	<path d="M384.2,280.8c-0.1,0.2-0.2,0.5-0.4,0.6c-0.2,0.2-0.4,0.3-0.6,0.4c-0.2,0.1-0.5,0.2-0.8,0.2h-0.5c-0.3,0-0.5-0.1-0.8-0.2
		c-0.2-0.1-0.5-0.2-0.6-0.4c-0.2-0.2-0.3-0.4-0.4-0.6c-0.1-0.2-0.2-0.5-0.2-0.8v-3.1c0-0.3,0.1-0.5,0.2-0.8c0.1-0.2,0.2-0.5,0.4-0.6
		c0.2-0.2,0.4-0.3,0.6-0.4c0.2-0.1,0.5-0.2,0.8-0.2h0.5c0.3,0,0.5,0.1,0.8,0.2c0.2,0.1,0.5,0.2,0.6,0.4c0.2,0.2,0.3,0.4,0.4,0.6
		c0.1,0.2,0.2,0.5,0.2,0.8v1.6h-3.8v1.5c0,0.2,0,0.3,0.1,0.5s0.1,0.3,0.3,0.4c0.1,0.1,0.2,0.2,0.4,0.3c0.1,0.1,0.3,0.1,0.5,0.1h0.5
		c0.2,0,0.3,0,0.5-0.1s0.3-0.1,0.4-0.3c0.1-0.1,0.2-0.2,0.3-0.4c0.1-0.1,0.1-0.3,0.1-0.5v-0.5l0.8,0.1v0.3
		C384.4,280.3,384.3,280.5,384.2,280.8z M383.5,276.8c0-0.2,0-0.3-0.1-0.5c-0.1-0.1-0.1-0.3-0.3-0.4c-0.1-0.1-0.2-0.2-0.4-0.3
		c-0.1-0.1-0.3-0.1-0.5-0.1h-0.5c-0.2,0-0.3,0-0.5,0.1c-0.1,0.1-0.3,0.1-0.4,0.3c-0.1,0.1-0.2,0.2-0.3,0.4c-0.1,0.1-0.1,0.3-0.1,0.5
		v1h2.9V276.8z"/>
	<path d="M388,275.8c-0.2,0-0.3,0-0.5,0.1c-0.1,0.1-0.3,0.1-0.4,0.3c-0.1,0.1-0.2,0.2-0.3,0.4s-0.1,0.3-0.1,0.5v4.9H386V275h0.3
		l0.4,0.7c0.2-0.3,0.4-0.5,0.7-0.6c0.3-0.1,0.6-0.2,0.9-0.2h0.5v0.9H388z"/>
	<path d="M394.3,281.9l-0.5-0.7c-0.2,0.3-0.4,0.5-0.7,0.6s-0.6,0.2-0.9,0.2H392c-0.3,0-0.5-0.1-0.8-0.2c-0.2-0.1-0.5-0.2-0.6-0.4
		c-0.2-0.2-0.3-0.4-0.4-0.6c-0.1-0.2-0.2-0.5-0.2-0.8v-3.1c0-0.3,0.1-0.5,0.2-0.8c0.1-0.2,0.2-0.5,0.4-0.6c0.2-0.2,0.4-0.3,0.6-0.4
		c0.2-0.1,0.5-0.2,0.8-0.2h0.2c0.3,0,0.6,0.1,0.9,0.2c0.3,0.1,0.5,0.3,0.7,0.5v-3.3h0.8v9.6H394.3z M393.7,276.8
		c0-0.2,0-0.3-0.1-0.5c-0.1-0.1-0.1-0.3-0.3-0.4c-0.1-0.1-0.2-0.2-0.4-0.3c-0.1-0.1-0.3-0.1-0.5-0.1H392c-0.2,0-0.3,0-0.5,0.1
		c-0.1,0.1-0.3,0.1-0.4,0.3c-0.1,0.1-0.2,0.2-0.3,0.4c-0.1,0.1-0.1,0.3-0.1,0.5v3.2c0,0.2,0,0.3,0.1,0.5s0.1,0.3,0.3,0.4
		c0.1,0.1,0.2,0.2,0.4,0.3c0.1,0.1,0.3,0.1,0.5,0.1h0.5c0.2,0,0.3,0,0.5-0.1s0.3-0.1,0.4-0.3c0.1-0.1,0.2-0.2,0.3-0.4
		c0.1-0.1,0.1-0.3,0.1-0.5V276.8z"/>
	<path d="M399.6,281.9v-9.6h0.8v9.6H399.6z"/>
	<path d="M402.6,273.4v-1.1h1v1.1H402.6z M402.6,281.9V275h0.8v6.9H402.6z"/>
	<path d="M409.8,280.8c-0.1,0.2-0.2,0.5-0.4,0.6c-0.2,0.2-0.4,0.3-0.6,0.4c-0.2,0.1-0.5,0.2-0.8,0.2h-0.5c-0.3,0-0.5-0.1-0.8-0.2
		c-0.2-0.1-0.5-0.2-0.6-0.4c-0.2-0.2-0.3-0.4-0.4-0.6c-0.1-0.2-0.2-0.5-0.2-0.8v-3.1c0-0.3,0.1-0.5,0.2-0.8c0.1-0.2,0.2-0.5,0.4-0.6
		c0.2-0.2,0.4-0.3,0.6-0.4c0.2-0.1,0.5-0.2,0.8-0.2h0.5c0.3,0,0.5,0.1,0.8,0.2c0.2,0.1,0.5,0.2,0.6,0.4c0.2,0.2,0.3,0.4,0.4,0.6
		c0.1,0.2,0.2,0.5,0.2,0.8v0.3l-0.8,0.1v-0.5c0-0.2,0-0.3-0.1-0.5c-0.1-0.1-0.1-0.3-0.3-0.4c-0.1-0.1-0.2-0.2-0.4-0.3
		c-0.1-0.1-0.3-0.1-0.5-0.1h-0.5c-0.2,0-0.3,0-0.5,0.1c-0.1,0.1-0.3,0.1-0.4,0.3c-0.1,0.1-0.2,0.2-0.3,0.4c-0.1,0.1-0.1,0.3-0.1,0.5
		v3.2c0,0.2,0,0.3,0.1,0.5s0.1,0.3,0.3,0.4c0.1,0.1,0.2,0.2,0.4,0.3c0.1,0.1,0.3,0.1,0.5,0.1h0.5c0.2,0,0.3,0,0.5-0.1
		s0.3-0.1,0.4-0.3c0.1-0.1,0.2-0.2,0.3-0.4c0.1-0.1,0.1-0.3,0.1-0.5v-0.5l0.8,0.1v0.3C409.9,280.3,409.9,280.5,409.8,280.8z"/>
	<path d="M415.3,281.9v-5c0-0.2,0-0.3-0.1-0.5c-0.1-0.1-0.1-0.3-0.3-0.4c-0.1-0.1-0.2-0.2-0.4-0.3c-0.1-0.1-0.3-0.1-0.5-0.1h-0.5
		c-0.2,0-0.3,0-0.5,0.1c-0.1,0.1-0.3,0.1-0.4,0.3c-0.1,0.1-0.2,0.2-0.3,0.4c-0.1,0.1-0.1,0.3-0.1,0.5v5h-0.8v-9.6h0.8v3.3
		c0.2-0.2,0.4-0.4,0.7-0.5c0.3-0.1,0.5-0.2,0.9-0.2h0.2c0.3,0,0.5,0.1,0.8,0.2c0.2,0.1,0.5,0.2,0.6,0.4c0.2,0.2,0.3,0.4,0.4,0.6
		c0.1,0.2,0.2,0.5,0.2,0.8v5H415.3z"/>
	<path d="M422.1,281.9l-0.5-0.7c-0.2,0.2-0.4,0.4-0.7,0.6s-0.6,0.2-0.9,0.2h-0.2c-0.3,0-0.5-0.1-0.8-0.2c-0.2-0.1-0.5-0.2-0.6-0.4
		c-0.2-0.2-0.3-0.4-0.4-0.6c-0.1-0.2-0.2-0.5-0.2-0.8v-0.1c0-0.3,0.1-0.5,0.2-0.8c0.1-0.2,0.2-0.5,0.4-0.6c0.2-0.2,0.4-0.3,0.6-0.4
		c0.2-0.1,0.5-0.2,0.8-0.2h1.7v-1.1c0-0.2,0-0.3-0.1-0.5c-0.1-0.1-0.1-0.3-0.3-0.4c-0.1-0.1-0.2-0.2-0.4-0.3
		c-0.1-0.1-0.3-0.1-0.5-0.1h-0.5c-0.2,0-0.3,0-0.5,0.1c-0.1,0.1-0.3,0.1-0.4,0.3c-0.1,0.1-0.2,0.2-0.3,0.4c-0.1,0.1-0.1,0.3-0.1,0.5
		v0.2l-0.8-0.1v-0.1c0-0.3,0.1-0.5,0.2-0.8c0.1-0.2,0.2-0.5,0.4-0.6s0.4-0.3,0.6-0.4s0.5-0.2,0.8-0.2h0.5c0.3,0,0.5,0.1,0.8,0.2
		c0.2,0.1,0.5,0.2,0.6,0.4c0.2,0.2,0.3,0.4,0.4,0.6c0.1,0.2,0.2,0.5,0.2,0.8v5H422.1z M421.6,278.5h-1.7c-0.2,0-0.3,0-0.5,0.1
		c-0.1,0.1-0.3,0.1-0.4,0.3c-0.1,0.1-0.2,0.2-0.3,0.4s-0.1,0.3-0.1,0.5v0.3c0,0.2,0,0.3,0.1,0.5s0.1,0.3,0.3,0.4
		c0.1,0.1,0.2,0.2,0.4,0.3c0.1,0.1,0.3,0.1,0.5,0.1h0.5c0.2,0,0.3,0,0.5-0.1s0.3-0.1,0.4-0.3c0.1-0.1,0.2-0.2,0.3-0.4
		c0.1-0.1,0.1-0.3,0.1-0.5V278.5z"/>
	<path d="M428.3,281.9l-0.5-0.7c-0.2,0.2-0.4,0.4-0.7,0.6s-0.6,0.2-0.9,0.2H426c-0.3,0-0.5-0.1-0.8-0.2c-0.2-0.1-0.5-0.2-0.6-0.4
		c-0.2-0.2-0.3-0.4-0.4-0.6c-0.1-0.2-0.2-0.5-0.2-0.8v-0.1c0-0.3,0.1-0.5,0.2-0.8c0.1-0.2,0.2-0.5,0.4-0.6c0.2-0.2,0.4-0.3,0.6-0.4
		c0.2-0.1,0.5-0.2,0.8-0.2h1.7v-1.1c0-0.2,0-0.3-0.1-0.5c-0.1-0.1-0.1-0.3-0.3-0.4c-0.1-0.1-0.2-0.2-0.4-0.3
		c-0.1-0.1-0.3-0.1-0.5-0.1h-0.5c-0.2,0-0.3,0-0.5,0.1c-0.1,0.1-0.3,0.1-0.4,0.3c-0.1,0.1-0.2,0.2-0.3,0.4c-0.1,0.1-0.1,0.3-0.1,0.5
		v0.2l-0.8-0.1v-0.1c0-0.3,0.1-0.5,0.2-0.8c0.1-0.2,0.2-0.5,0.4-0.6s0.4-0.3,0.6-0.4s0.5-0.2,0.8-0.2h0.5c0.3,0,0.5,0.1,0.8,0.2
		c0.2,0.1,0.5,0.2,0.6,0.4c0.2,0.2,0.3,0.4,0.4,0.6c0.1,0.2,0.2,0.5,0.2,0.8v5H428.3z M427.8,278.5H426c-0.2,0-0.3,0-0.5,0.1
		c-0.1,0.1-0.3,0.1-0.4,0.3c-0.1,0.1-0.2,0.2-0.3,0.4s-0.1,0.3-0.1,0.5v0.3c0,0.2,0,0.3,0.1,0.5s0.1,0.3,0.3,0.4
		c0.1,0.1,0.2,0.2,0.4,0.3c0.1,0.1,0.3,0.1,0.5,0.1h0.5c0.2,0,0.3,0,0.5-0.1s0.3-0.1,0.4-0.3c0.1-0.1,0.2-0.2,0.3-0.4
		c0.1-0.1,0.1-0.3,0.1-0.5V278.5z"/>
	<path d="M437.5,281.9v-5c0-0.2,0-0.3-0.1-0.5c-0.1-0.1-0.1-0.3-0.3-0.4s-0.2-0.2-0.4-0.3c-0.1-0.1-0.3-0.1-0.5-0.1h-0.4
		c-0.2,0-0.3,0-0.5,0.1c-0.1,0.1-0.3,0.1-0.4,0.3s-0.2,0.2-0.3,0.4c-0.1,0.1-0.1,0.3-0.1,0.5v5h-0.8v-5c0-0.2,0-0.3-0.1-0.5
		c-0.1-0.1-0.1-0.3-0.3-0.4s-0.2-0.2-0.4-0.3c-0.1-0.1-0.3-0.1-0.5-0.1h-0.4c-0.2,0-0.3,0-0.5,0.1c-0.1,0.1-0.3,0.1-0.4,0.3
		c-0.1,0.1-0.2,0.2-0.3,0.4c-0.1,0.1-0.1,0.3-0.1,0.5v5h-0.8V275h0.3l0.4,0.7c0.2-0.3,0.4-0.5,0.7-0.6c0.3-0.1,0.6-0.2,0.9-0.2h0.1
		c0.4,0,0.7,0.1,1.1,0.3c0.3,0.2,0.6,0.4,0.7,0.8c0.1-0.2,0.2-0.3,0.3-0.4s0.3-0.2,0.4-0.3c0.2-0.1,0.3-0.2,0.5-0.2
		c0.2-0.1,0.4-0.1,0.6-0.1h0.1c0.3,0,0.5,0.1,0.8,0.2s0.5,0.2,0.6,0.4s0.3,0.4,0.4,0.6c0.1,0.2,0.2,0.5,0.2,0.8v5H437.5z"/>
	<path d="M443.3,273.4v-1.1h1v1.1H443.3z M443.4,281.9V275h0.8v6.9H443.4z"/>
	<path d="M449.9,281.9v-5c0-0.2,0-0.3-0.1-0.5c-0.1-0.1-0.1-0.3-0.3-0.4c-0.1-0.1-0.2-0.2-0.4-0.3c-0.1-0.1-0.3-0.1-0.5-0.1h-0.5
		c-0.2,0-0.3,0-0.5,0.1c-0.1,0.1-0.3,0.1-0.4,0.3c-0.1,0.1-0.2,0.2-0.3,0.4c-0.1,0.1-0.1,0.3-0.1,0.5v5h-0.8V275h0.3l0.4,0.7
		c0.2-0.3,0.4-0.5,0.7-0.6c0.3-0.1,0.6-0.2,0.9-0.2h0.2c0.3,0,0.5,0.1,0.8,0.2c0.2,0.1,0.5,0.2,0.6,0.4c0.2,0.2,0.3,0.4,0.4,0.6
		c0.1,0.2,0.2,0.5,0.2,0.8v5H449.9z"/>
	<path d="M456.8,280.8c-0.1,0.2-0.2,0.5-0.4,0.6c-0.2,0.2-0.4,0.3-0.6,0.4c-0.2,0.1-0.5,0.2-0.8,0.2h-0.5c-0.3,0-0.5-0.1-0.8-0.2
		c-0.2-0.1-0.5-0.2-0.6-0.4c-0.2-0.2-0.3-0.4-0.4-0.6c-0.1-0.2-0.2-0.5-0.2-0.8v-7.7h0.8v3.3c0.2-0.2,0.4-0.4,0.7-0.5
		c0.3-0.1,0.5-0.2,0.9-0.2h0.2c0.3,0,0.5,0.1,0.8,0.2c0.2,0.1,0.5,0.2,0.6,0.4c0.2,0.2,0.3,0.4,0.4,0.6c0.1,0.2,0.2,0.5,0.2,0.8v3.1
		C456.9,280.3,456.9,280.5,456.8,280.8z M456.1,276.8c0-0.2,0-0.3-0.1-0.5c-0.1-0.1-0.1-0.3-0.3-0.4c-0.1-0.1-0.2-0.2-0.4-0.3
		c-0.1-0.1-0.3-0.1-0.5-0.1h-0.5c-0.2,0-0.3,0-0.5,0.1c-0.1,0.1-0.3,0.1-0.4,0.3c-0.1,0.1-0.2,0.2-0.3,0.4c-0.1,0.1-0.1,0.3-0.1,0.5
		v3.2c0,0.2,0,0.3,0.1,0.5s0.1,0.3,0.3,0.4c0.1,0.1,0.2,0.2,0.4,0.3c0.1,0.1,0.3,0.1,0.5,0.1h0.5c0.2,0,0.3,0,0.5-0.1
		s0.3-0.1,0.4-0.3c0.1-0.1,0.2-0.2,0.3-0.4c0.1-0.1,0.1-0.3,0.1-0.5V276.8z"/>
	<path d="M463,280.8c-0.1,0.2-0.2,0.5-0.4,0.6c-0.2,0.2-0.4,0.3-0.6,0.4c-0.2,0.1-0.5,0.2-0.8,0.2h-0.5c-0.3,0-0.5-0.1-0.8-0.2
		c-0.2-0.1-0.5-0.2-0.6-0.4c-0.2-0.2-0.3-0.4-0.4-0.6c-0.1-0.2-0.2-0.5-0.2-0.8v-3.1c0-0.3,0.1-0.5,0.2-0.8c0.1-0.2,0.2-0.5,0.4-0.6
		c0.2-0.2,0.4-0.3,0.6-0.4c0.2-0.1,0.5-0.2,0.8-0.2h0.5c0.3,0,0.5,0.1,0.8,0.2c0.2,0.1,0.5,0.2,0.6,0.4c0.2,0.2,0.3,0.4,0.4,0.6
		c0.1,0.2,0.2,0.5,0.2,0.8v1.6h-3.8v1.5c0,0.2,0,0.3,0.1,0.5s0.1,0.3,0.3,0.4c0.1,0.1,0.2,0.2,0.4,0.3c0.1,0.1,0.3,0.1,0.5,0.1h0.5
		c0.2,0,0.3,0,0.5-0.1s0.3-0.1,0.4-0.3c0.1-0.1,0.2-0.2,0.3-0.4c0.1-0.1,0.1-0.3,0.1-0.5v-0.5l0.8,0.1v0.3
		C463.1,280.3,463.1,280.5,463,280.8z M462.3,276.8c0-0.2,0-0.3-0.1-0.5c-0.1-0.1-0.1-0.3-0.3-0.4c-0.1-0.1-0.2-0.2-0.4-0.3
		c-0.1-0.1-0.3-0.1-0.5-0.1h-0.5c-0.2,0-0.3,0-0.5,0.1c-0.1,0.1-0.3,0.1-0.4,0.3c-0.1,0.1-0.2,0.2-0.3,0.4c-0.1,0.1-0.1,0.3-0.1,0.5
		v1h2.9V276.8z"/>
	<path d="M469.3,283.5c-0.1,0.2-0.2,0.4-0.4,0.6c-0.2,0.2-0.4,0.3-0.6,0.4s-0.5,0.1-0.8,0.1h-0.3c-0.3,0-0.5,0-0.8-0.1
		s-0.5-0.2-0.6-0.4c-0.2-0.2-0.3-0.4-0.4-0.6c-0.1-0.2-0.2-0.5-0.2-0.8v0c0-0.3,0-0.5,0.1-0.7c0.1-0.2,0.2-0.4,0.4-0.6
		c-0.2-0.1-0.4-0.3-0.5-0.5c-0.1-0.2-0.2-0.5-0.2-0.7c0-0.2,0.1-0.5,0.2-0.7s0.2-0.4,0.4-0.5c-0.2-0.2-0.4-0.4-0.5-0.7
		c-0.1-0.3-0.2-0.6-0.2-0.9v-0.5c0-0.3,0.1-0.5,0.2-0.8c0.1-0.2,0.2-0.5,0.4-0.6c0.2-0.2,0.4-0.3,0.6-0.4c0.2-0.1,0.5-0.2,0.8-0.2
		h0.3c0.3,0,0.6,0.1,0.9,0.2s0.5,0.4,0.7,0.6l0.4-0.7h0.3v2.4c0,0.3-0.1,0.5-0.2,0.8c-0.1,0.2-0.2,0.5-0.4,0.6
		c-0.2,0.2-0.4,0.3-0.6,0.4c-0.2,0.1-0.5,0.2-0.8,0.2h-1.2c-0.1,0-0.2,0-0.3,0.1s-0.2,0.1-0.2,0.2c-0.1,0.1-0.1,0.1-0.2,0.2
		c0,0.1-0.1,0.2-0.1,0.3s0,0.2,0.1,0.3c0,0.1,0.1,0.2,0.2,0.2c0.1,0.1,0.1,0.1,0.2,0.2s0.2,0.1,0.3,0.1h1.1c0.3,0,0.5,0,0.8,0.1
		c0.2,0.1,0.5,0.2,0.6,0.4c0.2,0.2,0.3,0.4,0.4,0.6c0.1,0.2,0.2,0.5,0.2,0.8v0C469.4,283,469.4,283.3,469.3,283.5z M468.7,276.8
		c0-0.2,0-0.3-0.1-0.5c-0.1-0.1-0.1-0.3-0.3-0.4s-0.2-0.2-0.4-0.3c-0.1-0.1-0.3-0.1-0.5-0.1h-0.7c-0.2,0-0.3,0-0.5,0.1
		c-0.1,0.1-0.3,0.1-0.4,0.3c-0.1,0.1-0.2,0.2-0.3,0.4c-0.1,0.1-0.1,0.3-0.1,0.5v0.6c0,0.2,0,0.3,0.1,0.5s0.1,0.3,0.3,0.4
		c0.1,0.1,0.2,0.2,0.4,0.3c0.1,0.1,0.3,0.1,0.5,0.1h0.7c0.2,0,0.3,0,0.5-0.1s0.3-0.1,0.4-0.3s0.2-0.2,0.3-0.4s0.1-0.3,0.1-0.5V276.8
		z M468.7,282.7c0-0.2,0-0.3-0.1-0.4c-0.1-0.1-0.1-0.2-0.3-0.3c-0.1-0.1-0.2-0.2-0.4-0.2c-0.1,0-0.3-0.1-0.5-0.1H467
		c-0.2,0-0.3,0-0.5,0.1c-0.1,0-0.3,0.1-0.4,0.2c-0.1,0.1-0.2,0.2-0.3,0.3c-0.1,0.1-0.1,0.3-0.1,0.4v0.1c0,0.2,0,0.3,0.1,0.4
		s0.1,0.2,0.3,0.3c0.1,0.1,0.2,0.2,0.4,0.2c0.1,0,0.3,0.1,0.5,0.1h0.4c0.2,0,0.3,0,0.5-0.1c0.1,0,0.3-0.1,0.4-0.2
		c0.1-0.1,0.2-0.2,0.3-0.3s0.1-0.3,0.1-0.4V282.7z"/>
	<path d="M473,275.8c-0.2,0-0.3,0-0.5,0.1c-0.1,0.1-0.3,0.1-0.4,0.3c-0.1,0.1-0.2,0.2-0.3,0.4s-0.1,0.3-0.1,0.5v4.9H471V275h0.3
		l0.4,0.7c0.2-0.3,0.4-0.5,0.7-0.6c0.3-0.1,0.6-0.2,0.9-0.2h0.5v0.9H473z"/>
	<path d="M479.4,280.8c-0.1,0.2-0.2,0.5-0.4,0.6c-0.2,0.2-0.4,0.3-0.6,0.4c-0.2,0.1-0.5,0.2-0.8,0.2H477c-0.3,0-0.5-0.1-0.8-0.2
		c-0.2-0.1-0.5-0.2-0.6-0.4c-0.2-0.2-0.3-0.4-0.4-0.6c-0.1-0.2-0.2-0.5-0.2-0.8v-3.1c0-0.3,0.1-0.5,0.2-0.8c0.1-0.2,0.2-0.5,0.4-0.6
		c0.2-0.2,0.4-0.3,0.6-0.4c0.2-0.1,0.5-0.2,0.8-0.2h0.5c0.3,0,0.5,0.1,0.8,0.2c0.2,0.1,0.5,0.2,0.6,0.4c0.2,0.2,0.3,0.4,0.4,0.6
		c0.1,0.2,0.2,0.5,0.2,0.8v1.6h-3.8v1.5c0,0.2,0,0.3,0.1,0.5s0.1,0.3,0.3,0.4c0.1,0.1,0.2,0.2,0.4,0.3c0.1,0.1,0.3,0.1,0.5,0.1h0.5
		c0.2,0,0.3,0,0.5-0.1s0.3-0.1,0.4-0.3c0.1-0.1,0.2-0.2,0.3-0.4c0.1-0.1,0.1-0.3,0.1-0.5v-0.5l0.8,0.1v0.3
		C479.5,280.3,479.5,280.5,479.4,280.8z M478.7,276.8c0-0.2,0-0.3-0.1-0.5c-0.1-0.1-0.1-0.3-0.3-0.4c-0.1-0.1-0.2-0.2-0.4-0.3
		c-0.1-0.1-0.3-0.1-0.5-0.1H477c-0.2,0-0.3,0-0.5,0.1c-0.1,0.1-0.3,0.1-0.4,0.3c-0.1,0.1-0.2,0.2-0.3,0.4c-0.1,0.1-0.1,0.3-0.1,0.5
		v1h2.9V276.8z"/>
	<path d="M485.6,280.8c-0.1,0.2-0.2,0.5-0.4,0.6c-0.2,0.2-0.4,0.3-0.6,0.4c-0.2,0.1-0.5,0.2-0.8,0.2h-0.2c-0.3,0-0.6-0.1-0.9-0.2
		c-0.3-0.1-0.5-0.3-0.7-0.5v3.3h-0.8V275h0.3l0.4,0.7c0.2-0.3,0.4-0.5,0.7-0.6c0.3-0.1,0.6-0.2,0.9-0.2h0.2c0.3,0,0.5,0.1,0.8,0.2
		c0.2,0.1,0.5,0.2,0.6,0.4c0.2,0.2,0.3,0.4,0.4,0.6c0.1,0.2,0.2,0.5,0.2,0.8v3.1C485.7,280.3,485.7,280.5,485.6,280.8z M484.9,276.8
		c0-0.2,0-0.3-0.1-0.5c-0.1-0.1-0.1-0.3-0.3-0.4c-0.1-0.1-0.2-0.2-0.4-0.3c-0.1-0.1-0.3-0.1-0.5-0.1h-0.5c-0.2,0-0.3,0-0.5,0.1
		c-0.1,0.1-0.3,0.1-0.4,0.3c-0.1,0.1-0.2,0.2-0.3,0.4c-0.1,0.1-0.1,0.3-0.1,0.5v3.2c0,0.2,0,0.3,0.1,0.5s0.1,0.3,0.3,0.4
		c0.1,0.1,0.2,0.2,0.4,0.3c0.1,0.1,0.3,0.1,0.5,0.1h0.5c0.2,0,0.3,0,0.5-0.1s0.3-0.1,0.4-0.3c0.1-0.1,0.2-0.2,0.3-0.4
		c0.1-0.1,0.1-0.3,0.1-0.5V276.8z"/>
	<path d="M491.8,280.8c-0.1,0.2-0.2,0.5-0.4,0.6c-0.2,0.2-0.4,0.3-0.6,0.4c-0.2,0.1-0.5,0.2-0.8,0.2h-0.5c-0.3,0-0.5-0.1-0.8-0.2
		c-0.2-0.1-0.5-0.2-0.6-0.4c-0.2-0.2-0.3-0.4-0.4-0.6c-0.1-0.2-0.2-0.5-0.2-0.8v-3.1c0-0.3,0.1-0.5,0.2-0.8c0.1-0.2,0.2-0.5,0.4-0.6
		c0.2-0.2,0.4-0.3,0.6-0.4c0.2-0.1,0.5-0.2,0.8-0.2h0.5c0.3,0,0.5,0.1,0.8,0.2c0.2,0.1,0.5,0.2,0.6,0.4c0.2,0.2,0.3,0.4,0.4,0.6
		c0.1,0.2,0.2,0.5,0.2,0.8v1.6h-3.8v1.5c0,0.2,0,0.3,0.1,0.5s0.1,0.3,0.3,0.4c0.1,0.1,0.2,0.2,0.4,0.3c0.1,0.1,0.3,0.1,0.5,0.1h0.5
		c0.2,0,0.3,0,0.5-0.1s0.3-0.1,0.4-0.3c0.1-0.1,0.2-0.2,0.3-0.4c0.1-0.1,0.1-0.3,0.1-0.5v-0.5l0.8,0.1v0.3
		C492,280.3,491.9,280.5,491.8,280.8z M491.1,276.8c0-0.2,0-0.3-0.1-0.5c-0.1-0.1-0.1-0.3-0.3-0.4c-0.1-0.1-0.2-0.2-0.4-0.3
		c-0.1-0.1-0.3-0.1-0.5-0.1h-0.5c-0.2,0-0.3,0-0.5,0.1c-0.1,0.1-0.3,0.1-0.4,0.3c-0.1,0.1-0.2,0.2-0.3,0.4c-0.1,0.1-0.1,0.3-0.1,0.5
		v1h2.9V276.8z"/>
	<path d="M497.4,281.9v-5c0-0.2,0-0.3-0.1-0.5c-0.1-0.1-0.1-0.3-0.3-0.4c-0.1-0.1-0.2-0.2-0.4-0.3c-0.1-0.1-0.3-0.1-0.5-0.1h-0.5
		c-0.2,0-0.3,0-0.5,0.1c-0.1,0.1-0.3,0.1-0.4,0.3c-0.1,0.1-0.2,0.2-0.3,0.4c-0.1,0.1-0.1,0.3-0.1,0.5v5h-0.8V275h0.3l0.4,0.7
		c0.2-0.3,0.4-0.5,0.7-0.6c0.3-0.1,0.6-0.2,0.9-0.2h0.2c0.3,0,0.5,0.1,0.8,0.2c0.2,0.1,0.5,0.2,0.6,0.4c0.2,0.2,0.3,0.4,0.4,0.6
		c0.1,0.2,0.2,0.5,0.2,0.8v5H497.4z"/>
	<path fill="#E30613" d="M376.2,291.8c0-0.6,0.1-1.2,0.2-1.7c0.1-0.5,0.3-1,0.5-1.4c0.2-0.4,0.4-0.9,0.7-1.2
		c0.3-0.4,0.6-0.7,0.9-1.1l0.4,0.4c-0.3,0.3-0.6,0.6-0.8,1c-0.2,0.4-0.5,0.8-0.6,1.2c-0.2,0.4-0.3,0.9-0.4,1.3
		c-0.1,0.5-0.2,1-0.2,1.5c0,0.5,0.1,1,0.2,1.5s0.2,0.9,0.4,1.3c0.2,0.4,0.4,0.8,0.6,1.2c0.2,0.4,0.5,0.7,0.8,1l-0.4,0.4
		c-0.3-0.3-0.6-0.7-0.9-1.1c-0.3-0.4-0.5-0.8-0.7-1.2c-0.2-0.4-0.4-0.9-0.5-1.4C376.3,293,376.2,292.4,376.2,291.8z"/>
	<path fill="#E30613" d="M380.1,288.2v-0.9h0.8v0.9H380.1z M380.1,295v-5.5h0.7v5.5H380.1z"/>
	<path fill="#E30613" d="M385.3,295v-4c0-0.1,0-0.3-0.1-0.4c0-0.1-0.1-0.2-0.2-0.3c-0.1-0.1-0.2-0.2-0.3-0.2c-0.1,0-0.2-0.1-0.4-0.1
		h-0.4c-0.1,0-0.3,0-0.4,0.1c-0.1,0.1-0.2,0.1-0.3,0.2c-0.1,0.1-0.2,0.2-0.2,0.3c0,0.1-0.1,0.2-0.1,0.4v4h-0.7v-5.5h0.2l0.4,0.6
		c0.2-0.2,0.3-0.4,0.6-0.5c0.2-0.1,0.5-0.2,0.7-0.2h0.2c0.2,0,0.4,0,0.6,0.1s0.4,0.2,0.5,0.3s0.3,0.3,0.3,0.5
		c0.1,0.2,0.1,0.4,0.1,0.6v4H385.3z"/>
	<path fill="#E30613" d="M390.7,295l-0.4-0.6c-0.2,0.2-0.3,0.4-0.6,0.5c-0.2,0.1-0.5,0.2-0.7,0.2h-0.2c-0.2,0-0.4,0-0.6-0.1
		c-0.2-0.1-0.4-0.2-0.5-0.3c-0.1-0.1-0.3-0.3-0.3-0.5s-0.1-0.4-0.1-0.6V291c0-0.2,0-0.4,0.1-0.6s0.2-0.4,0.3-0.5
		c0.1-0.1,0.3-0.3,0.5-0.3s0.4-0.1,0.6-0.1h0.2c0.2,0,0.5,0.1,0.7,0.1c0.2,0.1,0.4,0.2,0.5,0.4v-2.7h0.7v7.7H390.7z M390.3,291
		c0-0.1,0-0.3-0.1-0.4c0-0.1-0.1-0.2-0.2-0.3c-0.1-0.1-0.2-0.2-0.3-0.2c-0.1,0-0.2-0.1-0.4-0.1h-0.4c-0.1,0-0.3,0-0.4,0.1
		c-0.1,0.1-0.2,0.1-0.3,0.2c-0.1,0.1-0.2,0.2-0.2,0.3c0,0.1-0.1,0.2-0.1,0.4v2.5c0,0.1,0,0.3,0.1,0.4c0,0.1,0.1,0.2,0.2,0.3
		c0.1,0.1,0.2,0.2,0.3,0.2c0.1,0.1,0.2,0.1,0.4,0.1h0.4c0.1,0,0.3,0,0.4-0.1c0.1,0,0.2-0.1,0.3-0.2c0.1-0.1,0.2-0.2,0.2-0.3
		c0.1-0.1,0.1-0.2,0.1-0.4V291z"/>
	<path fill="#E30613" d="M392.4,288.2v-0.9h0.8v0.9H392.4z M392.5,295v-5.5h0.7v5.5H392.5z"/>
	<path fill="#E30613" d="M398.2,294.1c-0.1,0.2-0.2,0.4-0.3,0.5c-0.1,0.1-0.3,0.3-0.5,0.3c-0.2,0.1-0.4,0.1-0.6,0.1h-0.4
		c-0.2,0-0.4,0-0.6-0.1c-0.2-0.1-0.4-0.2-0.5-0.3c-0.1-0.1-0.3-0.3-0.3-0.5s-0.1-0.4-0.1-0.6V291c0-0.2,0-0.4,0.1-0.6
		s0.2-0.4,0.3-0.5c0.1-0.1,0.3-0.3,0.5-0.3s0.4-0.1,0.6-0.1h0.4c0.2,0,0.4,0,0.6,0.1s0.4,0.2,0.5,0.3s0.3,0.3,0.3,0.5
		c0.1,0.2,0.1,0.4,0.1,0.6v1.3h-3v1.2c0,0.1,0,0.3,0.1,0.4c0,0.1,0.1,0.2,0.2,0.3c0.1,0.1,0.2,0.2,0.3,0.2c0.1,0.1,0.2,0.1,0.4,0.1
		h0.4c0.1,0,0.3,0,0.4-0.1c0.1,0,0.2-0.1,0.3-0.2c0.1-0.1,0.2-0.2,0.2-0.3c0.1-0.1,0.1-0.2,0.1-0.4v-0.4l0.7,0.1v0.2
		C398.4,293.7,398.3,293.9,398.2,294.1z M397.7,291c0-0.1,0-0.3-0.1-0.4c0-0.1-0.1-0.2-0.2-0.3c-0.1-0.1-0.2-0.2-0.3-0.2
		c-0.1,0-0.2-0.1-0.4-0.1h-0.4c-0.1,0-0.3,0-0.4,0.1c-0.1,0.1-0.2,0.1-0.3,0.2c-0.1,0.1-0.2,0.2-0.2,0.3c0,0.1-0.1,0.2-0.1,0.4v0.8
		h2.3V291z"/>
	<path fill="#E30613" d="M402.7,295v-4c0-0.1,0-0.3-0.1-0.4c0-0.1-0.1-0.2-0.2-0.3c-0.1-0.1-0.2-0.2-0.3-0.2c-0.1,0-0.2-0.1-0.4-0.1
		h-0.4c-0.1,0-0.3,0-0.4,0.1c-0.1,0.1-0.2,0.1-0.3,0.2c-0.1,0.1-0.2,0.2-0.2,0.3c0,0.1-0.1,0.2-0.1,0.4v4h-0.7v-5.5h0.2l0.4,0.6
		c0.2-0.2,0.3-0.4,0.6-0.5c0.2-0.1,0.5-0.2,0.7-0.2h0.2c0.2,0,0.4,0,0.6,0.1s0.4,0.2,0.5,0.3s0.3,0.3,0.3,0.5
		c0.1,0.2,0.1,0.4,0.1,0.6v4H402.7z"/>
	<path fill="#E30613" d="M410.6,295l-0.4-0.6c-0.2,0.2-0.3,0.4-0.6,0.5c-0.2,0.1-0.5,0.2-0.7,0.2h-0.2c-0.2,0-0.4,0-0.6-0.1
		c-0.2-0.1-0.4-0.2-0.5-0.3c-0.1-0.1-0.3-0.3-0.3-0.5s-0.1-0.4-0.1-0.6v-4h0.7v4c0,0.1,0,0.3,0.1,0.4c0,0.1,0.1,0.2,0.2,0.3
		c0.1,0.1,0.2,0.2,0.3,0.2c0.1,0.1,0.2,0.1,0.4,0.1h0.4c0.1,0,0.3,0,0.4-0.1c0.1,0,0.2-0.1,0.3-0.2c0.1-0.1,0.2-0.2,0.2-0.3
		c0.1-0.1,0.1-0.2,0.1-0.4v-4h0.7v5.5H410.6z"/>
	<path fill="#E30613" d="M418.3,296.3c-0.1,0.2-0.2,0.3-0.3,0.5c-0.1,0.1-0.3,0.2-0.5,0.3s-0.4,0.1-0.6,0.1h-0.3
		c-0.2,0-0.4,0-0.6-0.1s-0.4-0.2-0.5-0.3c-0.1-0.1-0.3-0.3-0.3-0.5s-0.1-0.4-0.1-0.6v0c0-0.2,0-0.4,0.1-0.6c0.1-0.2,0.2-0.3,0.3-0.5
		c-0.2-0.1-0.3-0.2-0.4-0.4s-0.2-0.4-0.2-0.6c0-0.2,0-0.4,0.1-0.5s0.2-0.3,0.3-0.4c-0.2-0.1-0.3-0.3-0.4-0.5
		c-0.1-0.2-0.2-0.4-0.2-0.7V291c0-0.2,0-0.4,0.1-0.6s0.2-0.4,0.3-0.5c0.1-0.1,0.3-0.3,0.5-0.3s0.4-0.1,0.6-0.1h0.3
		c0.3,0,0.5,0.1,0.7,0.2c0.2,0.1,0.4,0.3,0.6,0.5l0.4-0.6h0.2v1.9c0,0.2,0,0.4-0.1,0.6s-0.2,0.4-0.3,0.5c-0.1,0.1-0.3,0.3-0.5,0.3
		s-0.4,0.1-0.6,0.1h-1c-0.1,0-0.1,0-0.2,0c-0.1,0-0.1,0.1-0.2,0.1c-0.1,0-0.1,0.1-0.1,0.2c0,0.1,0,0.1,0,0.2c0,0.1,0,0.1,0,0.2
		c0,0.1,0.1,0.1,0.1,0.2c0.1,0.1,0.1,0.1,0.2,0.1c0.1,0,0.1,0,0.2,0h0.9c0.2,0,0.4,0,0.6,0.1c0.2,0.1,0.4,0.2,0.5,0.3
		s0.3,0.3,0.3,0.5s0.1,0.4,0.1,0.6v0C418.4,295.9,418.3,296.1,418.3,296.3z M417.8,291c0-0.1,0-0.3-0.1-0.4
		c-0.1-0.1-0.1-0.2-0.2-0.3c-0.1-0.1-0.2-0.2-0.3-0.2c-0.1,0-0.2-0.1-0.4-0.1h-0.5c-0.1,0-0.3,0-0.4,0.1c-0.1,0.1-0.2,0.1-0.3,0.2
		c-0.1,0.1-0.2,0.2-0.2,0.3c0,0.1-0.1,0.2-0.1,0.4v0.5c0,0.1,0,0.3,0.1,0.4c0,0.1,0.1,0.2,0.2,0.3c0.1,0.1,0.2,0.2,0.3,0.2
		c0.1,0,0.2,0.1,0.4,0.1h0.5c0.1,0,0.3,0,0.4-0.1c0.1-0.1,0.2-0.1,0.3-0.2c0.1-0.1,0.2-0.2,0.2-0.3c0-0.1,0.1-0.2,0.1-0.4V291z
		 M417.8,295.7c0-0.1,0-0.3-0.1-0.4c0-0.1-0.1-0.2-0.2-0.3s-0.2-0.1-0.3-0.2c-0.1,0-0.2-0.1-0.4-0.1h-0.3c-0.1,0-0.3,0-0.4,0.1
		c-0.1,0-0.2,0.1-0.3,0.2c-0.1,0.1-0.2,0.2-0.2,0.3c0,0.1-0.1,0.2-0.1,0.4v0.1c0,0.1,0,0.2,0.1,0.4s0.1,0.2,0.2,0.3
		c0.1,0.1,0.2,0.1,0.3,0.2c0.1,0,0.2,0.1,0.4,0.1h0.3c0.1,0,0.3,0,0.4-0.1c0.1,0,0.2-0.1,0.3-0.2s0.2-0.2,0.2-0.3
		S417.8,295.9,417.8,295.7L417.8,295.7z"/>
	<path fill="#E30613" d="M423.2,294.1c-0.1,0.2-0.2,0.4-0.3,0.5c-0.1,0.1-0.3,0.3-0.5,0.3c-0.2,0.1-0.4,0.1-0.6,0.1h-0.4
		c-0.2,0-0.4,0-0.6-0.1c-0.2-0.1-0.4-0.2-0.5-0.3c-0.1-0.1-0.3-0.3-0.3-0.5s-0.1-0.4-0.1-0.6V291c0-0.2,0-0.4,0.1-0.6
		s0.2-0.4,0.3-0.5c0.1-0.1,0.3-0.3,0.5-0.3s0.4-0.1,0.6-0.1h0.4c0.2,0,0.4,0,0.6,0.1s0.4,0.2,0.5,0.3s0.3,0.3,0.3,0.5
		c0.1,0.2,0.1,0.4,0.1,0.6v1.3h-3v1.2c0,0.1,0,0.3,0.1,0.4c0,0.1,0.1,0.2,0.2,0.3c0.1,0.1,0.2,0.2,0.3,0.2c0.1,0.1,0.2,0.1,0.4,0.1
		h0.4c0.1,0,0.3,0,0.4-0.1c0.1,0,0.2-0.1,0.3-0.2c0.1-0.1,0.2-0.2,0.2-0.3c0.1-0.1,0.1-0.2,0.1-0.4v-0.4l0.7,0.1v0.2
		C423.3,293.7,423.3,293.9,423.2,294.1z M422.7,291c0-0.1,0-0.3-0.1-0.4c0-0.1-0.1-0.2-0.2-0.3c-0.1-0.1-0.2-0.2-0.3-0.2
		c-0.1,0-0.2-0.1-0.4-0.1h-0.4c-0.1,0-0.3,0-0.4,0.1c-0.1,0.1-0.2,0.1-0.3,0.2c-0.1,0.1-0.2,0.2-0.2,0.3c0,0.1-0.1,0.2-0.1,0.4v0.8
		h2.3V291z"/>
	<path fill="#E30613" d="M428.4,293.6c0,0.2,0,0.4-0.1,0.6s-0.2,0.3-0.4,0.5c-0.2,0.1-0.3,0.2-0.5,0.3c-0.2,0.1-0.4,0.1-0.6,0.1
		h-0.4c-0.2,0-0.4,0-0.6-0.1c-0.2-0.1-0.4-0.2-0.5-0.3c-0.2-0.1-0.3-0.3-0.4-0.5s-0.1-0.4-0.1-0.6v-0.2l0.7-0.1v0.4
		c0,0.1,0,0.3,0.1,0.4c0.1,0.1,0.1,0.2,0.2,0.3c0.1,0.1,0.2,0.2,0.3,0.2c0.1,0.1,0.2,0.1,0.4,0.1h0.4c0.1,0,0.3,0,0.4-0.1
		c0.1,0,0.2-0.1,0.3-0.2s0.2-0.2,0.2-0.3c0.1-0.1,0.1-0.2,0.1-0.4c0-0.2,0-0.4-0.1-0.5c-0.1-0.1-0.2-0.2-0.3-0.3
		c-0.1-0.1-0.3-0.2-0.5-0.2c-0.2-0.1-0.4-0.1-0.6-0.2c-0.2-0.1-0.4-0.1-0.6-0.2c-0.2-0.1-0.3-0.2-0.5-0.3c-0.1-0.1-0.3-0.3-0.3-0.4
		c-0.1-0.2-0.1-0.4-0.1-0.7c0-0.2,0-0.4,0.1-0.6c0.1-0.2,0.2-0.3,0.3-0.5c0.1-0.1,0.3-0.2,0.5-0.3s0.4-0.1,0.6-0.1h0.4
		c0.2,0,0.4,0,0.6,0.1s0.4,0.2,0.5,0.3s0.3,0.3,0.3,0.5s0.1,0.4,0.1,0.6v0l-0.7,0.1V291c0-0.1,0-0.3-0.1-0.4c0-0.1-0.1-0.2-0.2-0.3
		c-0.1-0.1-0.2-0.2-0.3-0.2c-0.1,0-0.2-0.1-0.4-0.1h-0.4c-0.1,0-0.3,0-0.4,0.1c-0.1,0-0.2,0.1-0.3,0.2s-0.2,0.2-0.2,0.3
		s-0.1,0.2-0.1,0.4c0,0.2,0,0.3,0.1,0.5c0.1,0.1,0.2,0.2,0.3,0.3c0.1,0.1,0.3,0.2,0.5,0.2c0.2,0.1,0.4,0.1,0.6,0.2
		c0.2,0.1,0.4,0.1,0.6,0.2c0.2,0.1,0.3,0.2,0.5,0.3c0.1,0.1,0.3,0.3,0.3,0.4C428.4,293.1,428.4,293.4,428.4,293.6z"/>
	<path fill="#E30613" d="M433.2,294.1c-0.1,0.2-0.2,0.4-0.3,0.5c-0.1,0.1-0.3,0.3-0.5,0.3c-0.2,0.1-0.4,0.1-0.6,0.1h-0.2
		c-0.2,0-0.5,0-0.7-0.1c-0.2-0.1-0.4-0.2-0.5-0.4v2.7h-0.7v-7.7h0.2l0.4,0.6c0.2-0.2,0.3-0.4,0.6-0.5c0.2-0.1,0.5-0.2,0.7-0.2h0.2
		c0.2,0,0.4,0,0.6,0.1s0.4,0.2,0.5,0.3s0.3,0.3,0.3,0.5c0.1,0.2,0.1,0.4,0.1,0.6v2.5C433.3,293.7,433.3,293.9,433.2,294.1z
		 M432.7,291c0-0.1,0-0.3-0.1-0.4c0-0.1-0.1-0.2-0.2-0.3c-0.1-0.1-0.2-0.2-0.3-0.2c-0.1,0-0.2-0.1-0.4-0.1h-0.4
		c-0.1,0-0.3,0-0.4,0.1c-0.1,0.1-0.2,0.1-0.3,0.2c-0.1,0.1-0.2,0.2-0.2,0.3c0,0.1-0.1,0.2-0.1,0.4v2.5c0,0.1,0,0.3,0.1,0.4
		c0,0.1,0.1,0.2,0.2,0.3c0.1,0.1,0.2,0.2,0.3,0.2c0.1,0.1,0.2,0.1,0.4,0.1h0.4c0.1,0,0.3,0,0.4-0.1c0.1,0,0.2-0.1,0.3-0.2
		c0.1-0.1,0.2-0.2,0.2-0.3c0.1-0.1,0.1-0.2,0.1-0.4V291z"/>
	<path fill="#E30613" d="M434.8,288.2v-0.9h0.8v0.9H434.8z M434.9,295v-5.5h0.7v5.5H434.9z"/>
	<path fill="#E30613" d="M440.6,294.1c-0.1,0.2-0.2,0.4-0.3,0.5c-0.1,0.1-0.3,0.3-0.5,0.3c-0.2,0.1-0.4,0.1-0.6,0.1h-0.4
		c-0.2,0-0.4,0-0.6-0.1c-0.2-0.1-0.4-0.2-0.5-0.3c-0.1-0.1-0.3-0.3-0.3-0.5s-0.1-0.4-0.1-0.6V291c0-0.2,0-0.4,0.1-0.6
		s0.2-0.4,0.3-0.5c0.1-0.1,0.3-0.3,0.5-0.3s0.4-0.1,0.6-0.1h0.4c0.2,0,0.4,0,0.6,0.1s0.4,0.2,0.5,0.3s0.3,0.3,0.3,0.5
		c0.1,0.2,0.1,0.4,0.1,0.6v1.3h-3v1.2c0,0.1,0,0.3,0.1,0.4c0,0.1,0.1,0.2,0.2,0.3c0.1,0.1,0.2,0.2,0.3,0.2c0.1,0.1,0.2,0.1,0.4,0.1
		h0.4c0.1,0,0.3,0,0.4-0.1c0.1,0,0.2-0.1,0.3-0.2c0.1-0.1,0.2-0.2,0.2-0.3c0.1-0.1,0.1-0.2,0.1-0.4v-0.4l0.7,0.1v0.2
		C440.7,293.7,440.7,293.9,440.6,294.1z M440.1,291c0-0.1,0-0.3-0.1-0.4c0-0.1-0.1-0.2-0.2-0.3c-0.1-0.1-0.2-0.2-0.3-0.2
		c-0.1,0-0.2-0.1-0.4-0.1h-0.4c-0.1,0-0.3,0-0.4,0.1c-0.1,0.1-0.2,0.1-0.3,0.2c-0.1,0.1-0.2,0.2-0.2,0.3c0,0.1-0.1,0.2-0.1,0.4v0.8
		h2.3V291z"/>
	<path fill="#E30613" d="M443.6,290.2c-0.1,0-0.3,0-0.4,0.1c-0.1,0-0.2,0.1-0.3,0.2c-0.1,0.1-0.2,0.2-0.2,0.3c0,0.1-0.1,0.2-0.1,0.4
		v3.9H442v-5.5h0.2l0.4,0.6c0.2-0.2,0.3-0.4,0.6-0.5c0.2-0.1,0.5-0.2,0.7-0.2h0.4v0.7H443.6z"/>
	<path fill="#E30613" d="M448.6,295l-0.4-0.6c-0.2,0.2-0.3,0.4-0.6,0.5c-0.2,0.1-0.5,0.2-0.7,0.2h-0.2c-0.2,0-0.4,0-0.6-0.1
		c-0.2-0.1-0.4-0.2-0.5-0.3c-0.1-0.1-0.3-0.3-0.3-0.5s-0.1-0.4-0.1-0.6V291c0-0.2,0-0.4,0.1-0.6s0.2-0.4,0.3-0.5
		c0.1-0.1,0.3-0.3,0.5-0.3s0.4-0.1,0.6-0.1h0.2c0.2,0,0.5,0.1,0.7,0.1c0.2,0.1,0.4,0.2,0.5,0.4v-2.7h0.7v7.7H448.6z M448.2,291
		c0-0.1,0-0.3-0.1-0.4c0-0.1-0.1-0.2-0.2-0.3c-0.1-0.1-0.2-0.2-0.3-0.2c-0.1,0-0.2-0.1-0.4-0.1h-0.4c-0.1,0-0.3,0-0.4,0.1
		c-0.1,0.1-0.2,0.1-0.3,0.2c-0.1,0.1-0.2,0.2-0.2,0.3c0,0.1-0.1,0.2-0.1,0.4v2.5c0,0.1,0,0.3,0.1,0.4c0,0.1,0.1,0.2,0.2,0.3
		c0.1,0.1,0.2,0.2,0.3,0.2c0.1,0.1,0.2,0.1,0.4,0.1h0.4c0.1,0,0.3,0,0.4-0.1c0.1,0,0.2-0.1,0.3-0.2c0.1-0.1,0.2-0.2,0.2-0.3
		c0.1-0.1,0.1-0.2,0.1-0.4V291z"/>
	<path fill="#E30613" d="M456.2,294.1c-0.1,0.2-0.2,0.4-0.3,0.5c-0.1,0.1-0.3,0.3-0.5,0.3c-0.2,0.1-0.4,0.1-0.6,0.1h-0.4
		c-0.2,0-0.4,0-0.6-0.1c-0.2-0.1-0.4-0.2-0.5-0.3c-0.1-0.1-0.3-0.3-0.3-0.5s-0.1-0.4-0.1-0.6v-6.2h0.7v2.7c0.2-0.2,0.3-0.3,0.5-0.4
		c0.2-0.1,0.4-0.1,0.7-0.1h0.2c0.2,0,0.4,0,0.6,0.1s0.4,0.2,0.5,0.3s0.3,0.3,0.3,0.5c0.1,0.2,0.1,0.4,0.1,0.6v2.5
		C456.3,293.7,456.3,293.9,456.2,294.1z M455.7,291c0-0.1,0-0.3-0.1-0.4c0-0.1-0.1-0.2-0.2-0.3c-0.1-0.1-0.2-0.2-0.3-0.2
		c-0.1,0-0.2-0.1-0.4-0.1h-0.4c-0.1,0-0.3,0-0.4,0.1c-0.1,0.1-0.2,0.1-0.3,0.2c-0.1,0.1-0.2,0.2-0.2,0.3c0,0.1-0.1,0.2-0.1,0.4v2.5
		c0,0.1,0,0.3,0.1,0.4c0,0.1,0.1,0.2,0.2,0.3c0.1,0.1,0.2,0.2,0.3,0.2c0.1,0.1,0.2,0.1,0.4,0.1h0.4c0.1,0,0.3,0,0.4-0.1
		c0.1,0,0.2-0.1,0.3-0.2c0.1-0.1,0.2-0.2,0.2-0.3c0.1-0.1,0.1-0.2,0.1-0.4V291z"/>
	<path fill="#E30613" d="M461.2,294.1c-0.1,0.2-0.2,0.4-0.3,0.5c-0.1,0.1-0.3,0.3-0.5,0.3c-0.2,0.1-0.4,0.1-0.6,0.1h-0.4
		c-0.2,0-0.4,0-0.6-0.1c-0.2-0.1-0.4-0.2-0.5-0.3c-0.1-0.1-0.3-0.3-0.3-0.5s-0.1-0.4-0.1-0.6V291c0-0.2,0-0.4,0.1-0.6
		s0.2-0.4,0.3-0.5c0.1-0.1,0.3-0.3,0.5-0.3s0.4-0.1,0.6-0.1h0.4c0.2,0,0.4,0,0.6,0.1s0.4,0.2,0.5,0.3s0.3,0.3,0.3,0.5
		c0.1,0.2,0.1,0.4,0.1,0.6v1.3h-3v1.2c0,0.1,0,0.3,0.1,0.4c0,0.1,0.1,0.2,0.2,0.3c0.1,0.1,0.2,0.2,0.3,0.2c0.1,0.1,0.2,0.1,0.4,0.1
		h0.4c0.1,0,0.3,0,0.4-0.1c0.1,0,0.2-0.1,0.3-0.2c0.1-0.1,0.2-0.2,0.2-0.3c0.1-0.1,0.1-0.2,0.1-0.4v-0.4l0.7,0.1v0.2
		C461.3,293.7,461.3,293.9,461.2,294.1z M460.7,291c0-0.1,0-0.3-0.1-0.4c0-0.1-0.1-0.2-0.2-0.3c-0.1-0.1-0.2-0.2-0.3-0.2
		c-0.1,0-0.2-0.1-0.4-0.1h-0.4c-0.1,0-0.3,0-0.4,0.1c-0.1,0.1-0.2,0.1-0.3,0.2c-0.1,0.1-0.2,0.2-0.2,0.3c0,0.1-0.1,0.2-0.1,0.4v0.8
		h2.3V291z"/>
	<path fill="#E30613" d="M465.6,295v-4c0-0.1,0-0.3-0.1-0.4c0-0.1-0.1-0.2-0.2-0.3c-0.1-0.1-0.2-0.2-0.3-0.2c-0.1,0-0.2-0.1-0.4-0.1
		h-0.4c-0.1,0-0.3,0-0.4,0.1c-0.1,0.1-0.2,0.1-0.3,0.2c-0.1,0.1-0.2,0.2-0.2,0.3c0,0.1-0.1,0.2-0.1,0.4v4h-0.7v-5.5h0.2l0.4,0.6
		c0.2-0.2,0.3-0.4,0.6-0.5c0.2-0.1,0.5-0.2,0.7-0.2h0.2c0.2,0,0.4,0,0.6,0.1s0.4,0.2,0.5,0.3s0.3,0.3,0.3,0.5
		c0.1,0.2,0.1,0.4,0.1,0.6v4H465.6z"/>
	<path fill="#E30613" d="M469.6,295c-0.2,0-0.4,0-0.6-0.1c-0.2-0.1-0.3-0.2-0.5-0.3s-0.2-0.3-0.3-0.5c-0.1-0.2-0.1-0.4-0.1-0.6v-3.4
		h-1v-0.6h1v-1.3l0.7-0.1v1.4h1.4v0.6h-1.4v3.4c0,0.1,0,0.2,0.1,0.3c0,0.1,0.1,0.2,0.2,0.2s0.2,0.1,0.3,0.2c0.1,0,0.2,0.1,0.3,0.1
		h0.6v0.6H469.6z"/>
	<path fill="#E30613" d="M473.8,291.8c0,0.6-0.1,1.1-0.2,1.7c-0.1,0.5-0.3,1-0.5,1.4c-0.2,0.4-0.4,0.9-0.7,1.2
		c-0.3,0.4-0.6,0.7-0.9,1.1l-0.4-0.4c0.3-0.3,0.6-0.6,0.8-1c0.2-0.4,0.5-0.8,0.6-1.2c0.2-0.4,0.3-0.9,0.4-1.3c0.1-0.5,0.2-1,0.2-1.5
		c0-0.5,0-1-0.2-1.5c-0.1-0.5-0.2-0.9-0.4-1.3c-0.2-0.4-0.4-0.8-0.6-1.2c-0.2-0.4-0.5-0.7-0.8-1l0.4-0.4c0.3,0.3,0.6,0.7,0.9,1.1
		c0.3,0.4,0.5,0.8,0.7,1.2c0.2,0.4,0.4,0.9,0.5,1.4C473.7,290.7,473.8,291.2,473.8,291.8z"/>
</g>
<line fill="none" stroke="#EE7513" stroke-width="3" stroke-linecap="round" stroke-linejoin="round" stroke-miterlimit="10" stroke-dasharray="4" x1="348.8" y1="175" x2="395.5" y2="175"/>
<g>
	<path d="M404.7,180.4c-0.1,0.3-0.3,0.5-0.5,0.7c-0.2,0.2-0.5,0.3-0.8,0.4c-0.3,0.1-0.6,0.2-0.9,0.2h-0.4c-0.3,0-0.6-0.1-0.9-0.2
		c-0.3-0.1-0.5-0.3-0.8-0.4c-0.2-0.2-0.4-0.4-0.5-0.7c-0.1-0.3-0.2-0.6-0.2-0.9v0c0-0.3,0.1-0.6,0.2-0.9s0.3-0.5,0.5-0.7
		c-0.2-0.2-0.4-0.4-0.6-0.6s-0.2-0.5-0.2-0.9c0-0.3,0.1-0.5,0.2-0.8s0.3-0.4,0.5-0.6c-0.2-0.2-0.4-0.5-0.6-0.8
		c-0.1-0.3-0.2-0.6-0.2-1v-0.6c0-0.3,0.1-0.6,0.2-0.9c0.1-0.3,0.3-0.5,0.5-0.8c0.2-0.2,0.5-0.4,0.8-0.5c0.3-0.1,0.6-0.2,0.9-0.2h0.4
		c0.4,0,0.8,0.1,1.1,0.3c0.3,0.2,0.6,0.4,0.8,0.7l0.5-0.8h0.3v2.8c0,0.3-0.1,0.6-0.2,0.9c-0.1,0.3-0.3,0.5-0.5,0.8
		c-0.2,0.2-0.5,0.4-0.8,0.5c-0.3,0.1-0.6,0.2-0.9,0.2h-1.4c-0.1,0-0.2,0-0.3,0.1c-0.1,0-0.2,0.1-0.3,0.2c-0.1,0.1-0.1,0.2-0.2,0.3
		s-0.1,0.2-0.1,0.3s0,0.2,0.1,0.3c0,0.1,0.1,0.2,0.2,0.3c0.1,0.1,0.2,0.1,0.3,0.2c0.1,0,0.2,0.1,0.3,0.1h1.3c0.3,0,0.6,0.1,0.9,0.2
		c0.3,0.1,0.5,0.3,0.8,0.4c0.2,0.2,0.4,0.4,0.5,0.7s0.2,0.6,0.2,0.9v0C404.9,179.8,404.8,180.1,404.7,180.4z M404,172.6
		c0-0.2,0-0.4-0.1-0.5c-0.1-0.2-0.2-0.3-0.3-0.4s-0.3-0.2-0.4-0.3c-0.2-0.1-0.4-0.1-0.5-0.1h-0.8c-0.2,0-0.4,0-0.5,0.1
		c-0.2,0.1-0.3,0.2-0.4,0.3s-0.2,0.3-0.3,0.4c-0.1,0.2-0.1,0.4-0.1,0.5v0.7c0,0.2,0,0.4,0.1,0.5c0.1,0.2,0.2,0.3,0.3,0.4
		s0.3,0.2,0.4,0.3c0.2,0.1,0.4,0.1,0.5,0.1h0.8c0.2,0,0.4,0,0.5-0.1c0.2-0.1,0.3-0.2,0.4-0.3s0.2-0.3,0.3-0.4
		c0.1-0.2,0.1-0.4,0.1-0.5V172.6z M404,179.4c0-0.2,0-0.4-0.1-0.5c-0.1-0.2-0.2-0.3-0.3-0.4s-0.3-0.2-0.4-0.2
		c-0.2-0.1-0.4-0.1-0.5-0.1h-0.5c-0.2,0-0.4,0-0.5,0.1c-0.2,0.1-0.3,0.1-0.4,0.2s-0.2,0.2-0.3,0.4c-0.1,0.2-0.1,0.3-0.1,0.5v0.1
		c0,0.2,0,0.4,0.1,0.5c0.1,0.2,0.2,0.3,0.3,0.4c0.1,0.1,0.3,0.2,0.4,0.2c0.2,0.1,0.4,0.1,0.5,0.1h0.5c0.2,0,0.4,0,0.5-0.1
		c0.2-0.1,0.3-0.1,0.4-0.2c0.1-0.1,0.2-0.2,0.3-0.4c0.1-0.2,0.1-0.3,0.1-0.5V179.4z"/>
	<path d="M411.9,177.2c-0.1,0.3-0.3,0.5-0.5,0.8c-0.2,0.2-0.5,0.4-0.8,0.5s-0.6,0.2-0.9,0.2h-0.6c-0.3,0-0.6-0.1-0.9-0.2
		s-0.5-0.3-0.8-0.5c-0.2-0.2-0.4-0.5-0.5-0.8c-0.1-0.3-0.2-0.6-0.2-0.9v-3.6c0-0.3,0.1-0.6,0.2-0.9c0.1-0.3,0.3-0.5,0.5-0.8
		c0.2-0.2,0.5-0.4,0.8-0.5c0.3-0.1,0.6-0.2,0.9-0.2h0.6c0.3,0,0.6,0.1,0.9,0.2c0.3,0.1,0.5,0.3,0.8,0.5c0.2,0.2,0.4,0.5,0.5,0.8
		c0.1,0.3,0.2,0.6,0.2,0.9v1.9h-4.4v1.8c0,0.2,0,0.4,0.1,0.5c0.1,0.2,0.2,0.3,0.3,0.4s0.3,0.2,0.4,0.3c0.2,0.1,0.4,0.1,0.5,0.1h0.6
		c0.2,0,0.4,0,0.5-0.1c0.2-0.1,0.3-0.2,0.4-0.3s0.2-0.3,0.3-0.4c0.1-0.2,0.1-0.4,0.1-0.5v-0.5l1,0.2v0.3
		C412.1,176.6,412,176.9,411.9,177.2z M411.1,172.6c0-0.2,0-0.4-0.1-0.5c-0.1-0.2-0.2-0.3-0.3-0.4s-0.3-0.2-0.4-0.3
		c-0.2-0.1-0.4-0.1-0.5-0.1h-0.6c-0.2,0-0.4,0-0.5,0.1c-0.2,0.1-0.3,0.2-0.4,0.3s-0.2,0.3-0.3,0.4c-0.1,0.2-0.1,0.4-0.1,0.5v1.2h3.4
		V172.6z"/>
	<path d="M414.3,178.5v-11.2h1v11.2H414.3z"/>
	<path d="M422.5,178.5l-0.5-0.8c-0.2,0.3-0.5,0.5-0.8,0.7s-0.7,0.3-1.1,0.3h-0.2c-0.3,0-0.6-0.1-0.9-0.2s-0.5-0.3-0.8-0.5
		c-0.2-0.2-0.4-0.5-0.5-0.8c-0.1-0.3-0.2-0.6-0.2-0.9v-5.8h1v5.9c0,0.2,0,0.4,0.1,0.5c0.1,0.2,0.2,0.3,0.3,0.4s0.3,0.2,0.4,0.3
		c0.2,0.1,0.4,0.1,0.5,0.1h0.6c0.2,0,0.4,0,0.5-0.1c0.2-0.1,0.3-0.2,0.4-0.3s0.2-0.3,0.3-0.4c0.1-0.2,0.1-0.4,0.1-0.5v-5.9h1v8
		H422.5z"/>
	<path d="M425.1,178.5v-11.2h1v11.2H425.1z M429.5,178.5l-3.3-4l3.3-4h1.2l-3.3,4l3.3,4H429.5z"/>
	<path d="M432.4,178.5v-11.2h1v11.2H432.4z M436.8,178.5l-3.3-4l3.3-4h1.2l-3.3,4l3.3,4H436.8z"/>
	<path d="M439.6,168.6v-1.3h1.1v1.3H439.6z M439.6,178.5v-8h1v8H439.6z"/>
	<path d="M448.1,180.4c-0.1,0.3-0.3,0.5-0.5,0.7c-0.2,0.2-0.5,0.3-0.8,0.4c-0.3,0.1-0.6,0.2-0.9,0.2h-0.4c-0.3,0-0.6-0.1-0.9-0.2
		c-0.3-0.1-0.5-0.3-0.8-0.4c-0.2-0.2-0.4-0.4-0.5-0.7c-0.1-0.3-0.2-0.6-0.2-0.9v0c0-0.3,0.1-0.6,0.2-0.9s0.3-0.5,0.5-0.7
		c-0.2-0.2-0.4-0.4-0.6-0.6s-0.2-0.5-0.2-0.9c0-0.3,0.1-0.5,0.2-0.8s0.3-0.4,0.5-0.6c-0.2-0.2-0.4-0.5-0.6-0.8
		c-0.1-0.3-0.2-0.6-0.2-1v-0.6c0-0.3,0.1-0.6,0.2-0.9c0.1-0.3,0.3-0.5,0.5-0.8c0.2-0.2,0.5-0.4,0.8-0.5c0.3-0.1,0.6-0.2,0.9-0.2h0.4
		c0.4,0,0.8,0.1,1.1,0.3c0.3,0.2,0.6,0.4,0.8,0.7l0.5-0.8h0.3v2.8c0,0.3-0.1,0.6-0.2,0.9c-0.1,0.3-0.3,0.5-0.5,0.8
		c-0.2,0.2-0.5,0.4-0.8,0.5c-0.3,0.1-0.6,0.2-0.9,0.2h-1.4c-0.1,0-0.2,0-0.3,0.1c-0.1,0-0.2,0.1-0.3,0.2c-0.1,0.1-0.1,0.2-0.2,0.3
		s-0.1,0.2-0.1,0.3s0,0.2,0.1,0.3c0,0.1,0.1,0.2,0.2,0.3c0.1,0.1,0.2,0.1,0.3,0.2c0.1,0,0.2,0.1,0.3,0.1h1.3c0.3,0,0.6,0.1,0.9,0.2
		c0.3,0.1,0.5,0.3,0.8,0.4c0.2,0.2,0.4,0.4,0.5,0.7s0.2,0.6,0.2,0.9v0C448.3,179.8,448.2,180.1,448.1,180.4z M447.4,172.6
		c0-0.2,0-0.4-0.1-0.5c-0.1-0.2-0.2-0.3-0.3-0.4s-0.3-0.2-0.4-0.3c-0.2-0.1-0.4-0.1-0.5-0.1h-0.8c-0.2,0-0.4,0-0.5,0.1
		c-0.2,0.1-0.3,0.2-0.4,0.3s-0.2,0.3-0.3,0.4c-0.1,0.2-0.1,0.4-0.1,0.5v0.7c0,0.2,0,0.4,0.1,0.5c0.1,0.2,0.2,0.3,0.3,0.4
		s0.3,0.2,0.4,0.3c0.2,0.1,0.4,0.1,0.5,0.1h0.8c0.2,0,0.4,0,0.5-0.1c0.2-0.1,0.3-0.2,0.4-0.3s0.2-0.3,0.3-0.4
		c0.1-0.2,0.1-0.4,0.1-0.5V172.6z M447.3,179.4c0-0.2,0-0.4-0.1-0.5c-0.1-0.2-0.2-0.3-0.3-0.4s-0.3-0.2-0.4-0.2
		c-0.2-0.1-0.4-0.1-0.5-0.1h-0.5c-0.2,0-0.4,0-0.5,0.1c-0.2,0.1-0.3,0.1-0.4,0.2s-0.2,0.2-0.3,0.4c-0.1,0.2-0.1,0.3-0.1,0.5v0.1
		c0,0.2,0,0.4,0.1,0.5c0.1,0.2,0.2,0.3,0.3,0.4c0.1,0.1,0.3,0.2,0.4,0.2c0.2,0.1,0.4,0.1,0.5,0.1h0.5c0.2,0,0.4,0,0.5-0.1
		c0.2-0.1,0.3-0.1,0.4-0.2c0.1-0.1,0.2-0.2,0.3-0.4c0.1-0.2,0.1-0.3,0.1-0.5V179.4z"/>
</g>
</svg>
