<?xml version="1.0" encoding="utf-8"?>
<!-- Generator: Adobe Illustrator 18.1.1, SVG Export Plug-In . SVG Version: 6.00 Build 0)  -->
<svg version="1.1" id="Laag_2" xmlns="http://www.w3.org/2000/svg" xmlns:xlink="http://www.w3.org/1999/xlink" x="0px" y="0px"
	 viewBox="0 0 247.9 227.5" enable-background="new 0 0 247.9 227.5" xml:space="preserve">
<line fill="none" stroke="#F07522" stroke-width="7" stroke-linecap="round" stroke-miterlimit="10" x1="76.2" y1="178.1" x2="52.5" y2="201.4"/>
<line fill="none" stroke="#F07522" stroke-width="7" stroke-linecap="round" stroke-miterlimit="10" x1="169.3" y1="177.9" x2="192.6" y2="201.6"/>
<path fill="#FFFFFF" stroke="#F07522" stroke-width="7" stroke-linecap="round" stroke-miterlimit="10" d="M113.3,105.3L113.3,105.3
	c-12.4,12.4-32.7,12.4-45.2,0L50.2,87.5c-12.4-12.4-12.4-32.7,0-45.2l0,0c12.4-12.4,32.7-12.4,45.2,0l17.9,17.9
	C125.7,72.6,125.7,92.9,113.3,105.3z"/>
<path fill="#FFFFFF" stroke="#F07522" stroke-width="7" stroke-linecap="round" stroke-miterlimit="10" d="M133.6,103.3L133.6,103.3
	c-12.4-12.4-12.4-32.7,0-45.2l17.9-17.9c12.4-12.4,32.7-12.4,45.2,0l0,0c12.4,12.4,12.4,32.7,0,45.2l-17.9,17.9
	C166.3,115.8,146,115.8,133.6,103.3z"/>
<circle fill="#FFFFFF" stroke="#F07522" stroke-width="7" stroke-linecap="round" stroke-miterlimit="10" cx="123.6" cy="118.4" r="76.2"/>
<circle fill="#FFFFFF" stroke="#F07522" stroke-width="3" stroke-linecap="round" stroke-miterlimit="10" cx="123.6" cy="118.4" r="59.7"/>
<line fill="none" stroke="#F07522" stroke-width="7" stroke-linecap="round" stroke-miterlimit="10" x1="124.3" y1="81.6" x2="124.3" y2="118.7"/>
<line fill="none" stroke="#F07522" stroke-width="7" stroke-linecap="round" stroke-miterlimit="10" x1="124.3" y1="118.7" x2="96.2" y2="132.9"/>
</svg>
